*
*
G04 PADS 9.4.1 Build Number: 494907 generated Gerber (RS-274-X) file*
G04 PC Version=2.1*
*
%IN "PASIDE_B.pcb"*%
*
%MOMM*%
*
%FSDAX33Y33*%
*
*
*
*
G04 PC Standard Apertures*
*
*
G04 Thermal Relief Aperture macro.*
%AMTER*
1,1,$1,0,0*
1,0,$1-$2,0,0*
21,0,$3,$4,0,0,45*
21,0,$3,$4,0,0,135*
%
*
*
G04 Annular Aperture macro.*
%AMANN*
1,1,$1,0,0*
1,0,$2,0,0*
%
*
*
G04 Odd Aperture macro.*
%AMODD*
1,1,$1,0,0*
1,0,$1-0.005,0,0*
%
*
*
G04 PC Custom Aperture Macros*
*
*
*
*
*
*
G04 PC Aperture Table*
*
%ADD010C,0.0254*%
%ADD011C,0.254*%
%ADD015C,0.2*%
%ADD016C,0.1*%
%ADD023R,1.524X1.524*%
%ADD024C,1.524*%
%ADD061C,0.15*%
%ADD081C,0.6*%
*
*
*
*
G04 PC Circuitry*
G04 Layer Name PASIDE_B.pcb - circuitry*
%LPD*%
*
*
G04 PC Custom Flashes*
G04 Layer Name PASIDE_B.pcb - flashes*
%LPD*%
*
*
G04 PC Circuitry*
G04 Layer Name PASIDE_B.pcb - circuitry*
%LPD*%
*
G54D10*
G54D11*
G01X088951Y045005D02*
X090618Y045005D01*
X090618Y045697*
X089506Y046910D02*
X090618Y046910D01*
X089744Y046910D02*
X089586Y046794D01*
X089586Y046794D02*
X089506Y046679D01*
X089506Y046679D02*
X089506Y046505D01*
X089506Y046505D02*
X089586Y046390D01*
X089744Y046275*
X089744Y046275D02*
X089983Y046217D01*
X090141Y046217*
X090141Y046217D02*
X090379Y046275D01*
X090379Y046275D02*
X090538Y046390D01*
X090538Y046390D02*
X090618Y046505D01*
X090618Y046505D02*
X090618Y046679D01*
X090538Y046794*
X090538Y046794D02*
X090379Y046910D01*
X089506Y047487D02*
X090618Y047833D01*
X089506Y048180D02*
X090618Y047833D01*
X090618Y047833D02*
X090935Y047718D01*
X090935Y047718D02*
X091094Y047602D01*
X091094Y047602D02*
X091173Y047487D01*
X091173Y047487D02*
X091173Y047429D01*
X089983Y048699D02*
X089983Y049392D01*
X089824Y049392*
X089665Y049334*
X089665Y049334D02*
X089586Y049276D01*
X089586Y049276D02*
X089506Y049161D01*
X089506Y049161D02*
X089506Y048988D01*
X089506Y048988D02*
X089586Y048872D01*
X089586Y048872D02*
X089744Y048757D01*
X089744Y048757D02*
X089983Y048699D01*
X089983Y048699D02*
X090141Y048699D01*
X090141Y048699D02*
X090379Y048757D01*
X090379Y048757D02*
X090538Y048872D01*
X090538Y048872D02*
X090618Y048988D01*
X090618Y049161*
X090538Y049276*
X090538Y049276D02*
X090379Y049392D01*
X089506Y049911D02*
X090618Y049911D01*
X089983Y049911D02*
X089744Y049969D01*
X089744Y049969D02*
X089586Y050085D01*
X089506Y050200*
X089506Y050200D02*
X089506Y050373D01*
X089348Y052278D02*
X089268Y052278D01*
X089268Y052278D02*
X089109Y052336D01*
X089109Y052336D02*
X089030Y052394D01*
X089030Y052394D02*
X088951Y052509D01*
X088951Y052509D02*
X088951Y052740D01*
X089030Y052855*
X089030Y052855D02*
X089109Y052913D01*
X089109Y052913D02*
X089268Y052971D01*
X089268Y052971D02*
X089427Y052971D01*
X089586Y052913*
X089586Y052913D02*
X089824Y052798D01*
X090618Y052220*
X090618Y052220D02*
X090618Y053029D01*
X032198Y029399D02*
X032198Y027733D01*
X032717Y028844D02*
X032717Y027733D01*
X032717Y028526D02*
X032890Y028764D01*
X032890Y028764D02*
X033006Y028844D01*
X033179Y028844*
X033294Y028764*
X033294Y028764D02*
X033352Y028526D01*
X033352Y028526D02*
X033352Y027733D01*
X033872Y028844D02*
X033872Y027733D01*
X033872Y028526D02*
X034045Y028764D01*
X034045Y028764D02*
X034160Y028844D01*
X034160Y028844D02*
X034333Y028844D01*
X034333Y028844D02*
X034449Y028764D01*
X034449Y028764D02*
X034507Y028526D01*
X034507Y028526D02*
X034507Y027733D01*
X035026Y028368D02*
X035719Y028368D01*
X035719Y028526*
X035719Y028526D02*
X035661Y028685D01*
X035661Y028685D02*
X035603Y028764D01*
X035603Y028764D02*
X035488Y028844D01*
X035315Y028844*
X035199Y028764*
X035199Y028764D02*
X035084Y028606D01*
X035026Y028368*
X035026Y028368D02*
X035026Y028209D01*
X035026Y028209D02*
X035084Y027971D01*
X035199Y027812*
X035199Y027812D02*
X035315Y027733D01*
X035488Y027733*
X035603Y027812*
X035603Y027812D02*
X035719Y027971D01*
X036238Y028844D02*
X036238Y027733D01*
X036238Y028368D02*
X036296Y028606D01*
X036296Y028606D02*
X036412Y028764D01*
X036412Y028764D02*
X036527Y028844D01*
X036527Y028844D02*
X036700Y028844D01*
X038548Y029399D02*
X038548Y027733D01*
X039240Y027733*
X040453Y028844D02*
X040453Y027733D01*
X040453Y028606D02*
X040337Y028764D01*
X040337Y028764D02*
X040222Y028844D01*
X040048Y028844*
X040048Y028844D02*
X039933Y028764D01*
X039933Y028764D02*
X039818Y028606D01*
X039760Y028368*
X039760Y028209*
X039818Y027971*
X039933Y027812*
X040048Y027733*
X040048Y027733D02*
X040222Y027733D01*
X040337Y027812*
X040337Y027812D02*
X040453Y027971D01*
X041030Y028844D02*
X041376Y027733D01*
X041723Y028844D02*
X041376Y027733D01*
X041376Y027733D02*
X041261Y027415D01*
X041261Y027415D02*
X041145Y027256D01*
X041145Y027256D02*
X041030Y027177D01*
X040972Y027177*
X042242Y028368D02*
X042935Y028368D01*
X042935Y028526*
X042935Y028526D02*
X042877Y028685D01*
X042877Y028685D02*
X042819Y028764D01*
X042819Y028764D02*
X042704Y028844D01*
X042531Y028844*
X042415Y028764*
X042415Y028764D02*
X042300Y028606D01*
X042242Y028368*
X042242Y028368D02*
X042242Y028209D01*
X042242Y028209D02*
X042300Y027971D01*
X042415Y027812*
X042415Y027812D02*
X042531Y027733D01*
X042704Y027733*
X042819Y027812*
X042819Y027812D02*
X042935Y027971D01*
X043454Y028844D02*
X043454Y027733D01*
X043454Y028368D02*
X043512Y028606D01*
X043512Y028606D02*
X043628Y028764D01*
X043628Y028764D02*
X043743Y028844D01*
X043916Y028844*
X045821Y029003D02*
X045821Y029082D01*
X045821Y029082D02*
X045879Y029241D01*
X045937Y029320*
X045937Y029320D02*
X046052Y029399D01*
X046052Y029399D02*
X046283Y029399D01*
X046283Y029399D02*
X046398Y029320D01*
X046398Y029320D02*
X046456Y029241D01*
X046456Y029241D02*
X046514Y029082D01*
X046514Y028923*
X046514Y028923D02*
X046456Y028764D01*
X046456Y028764D02*
X046341Y028526D01*
X046341Y028526D02*
X045763Y027733D01*
X045763Y027733D02*
X046572Y027733D01*
X083425Y049831D02*
G75*
G03X083425Y049831I-000681J0D01*
G01X081139Y049831D02*
G03X081139Y049831I-000681J0D01*
G01X078599Y046021D02*
G03X078599Y046021I-000681J0D01*
G01X078599Y050085D02*
G03X078599Y050085I-000681J0D01*
G01X077075Y043481D02*
G03X077075Y043481I-000681J0D01*
G01X076059Y045513D02*
G03X076059Y045513I-000681J0D01*
G01X073773Y039417D02*
G03X073773Y039417I-000681J0D01*
G01X068185Y040687D02*
G03X068185Y040687I-000681J0D01*
G01X063359Y040179D02*
G03X063359Y040179I-000681J0D01*
G01X059803Y040433D02*
G03X059803Y040433I-000681J0D01*
G01X060311Y050339D02*
G03X060311Y050339I-000681J0D01*
G01X058025Y045259D02*
G03X058025Y045259I-000681J0D01*
G01X053453Y043481D02*
G03X053453Y043481I-000681J0D01*
G01X051675Y051609D02*
G03X051675Y051609I-000681J0D01*
G01X048627Y039925D02*
G03X048627Y039925I-000681J0D01*
G01X046087Y041957D02*
G03X046087Y041957I-000681J0D01*
G01X042023Y040941D02*
G03X042023Y040941I-000681J0D01*
G01X036435Y039163D02*
G03X036435Y039163I-000681J0D01*
G01X036435Y041195D02*
G03X036435Y041195I-000681J0D01*
G01X034164Y034461D02*
G03X034164Y034461I-001756J0D01*
G01X069709Y038147D02*
G03X069709Y038147I-000681J0D01*
G01X070471Y043227D02*
G03X070471Y043227I-000681J0D01*
G01X092014Y035501D02*
X092014Y058466D01*
X092014Y058466D02*
G03X091887Y058593I-000126J000000D01*
G01X091887Y058593D02*
X030420Y058593D01*
X030420Y058593D02*
G03X030293Y058466I000000J-000126D01*
G01X030293Y058466D02*
X030293Y031543D01*
G03X030420Y031416I000127J000000*
G01X038034Y031416*
X038034Y031416D02*
G03X038155Y031582I000000J000127D01*
G01X038774Y032477D02*
G03X038155Y031582I000028J-000680D01*
G01X038774Y032477D02*
G03X038874Y032676I-000004J000127D01*
G01X038675Y033317D02*
G03X038874Y032676I001143J000004D01*
G01X038675Y033317D02*
G03X038674Y033321I-000127J000000D01*
G01X038674Y033321D02*
G03X038675Y033324I-000126J000003D01*
G01X039814Y034464D02*
G03X038675Y033324I000004J-001143D01*
G01X039814Y034464D02*
G03X039818Y034464I000000J000127D01*
X039821Y034464I000003J000127*
G01X040961Y033324D02*
G03X039821Y034464I-001143J-000003D01*
G01X040961Y033324D02*
G03X040961Y033321I000127J000000D01*
X040961Y033317I000127J-000003*
G01X039585Y032201D02*
G03X040961Y033317I000233J001120D01*
G01X039585Y032201D02*
G03X039440Y032033I-000025J-000123D01*
G01X039448Y031582D02*
G03X039440Y032033I-000646J000215D01*
G01X039448Y031582D02*
G03X039569Y031416I000121J-000038D01*
G01X065965Y031416*
G03X066007Y031662I000000J000127*
G01X065581Y032110D02*
G03X066007Y031662I000653J000195D01*
G01X065581Y032110D02*
G03X065435Y032198I-000121J-000035D01*
G01X064453Y032471D02*
G03X065435Y032198I000765J000850D01*
G01X064453Y032471D02*
G03X064302Y032485I-000084J-000094D01*
G01X063593Y032485D02*
G03X064302Y032485I000355J000582D01*
G01X063593Y032485D02*
G03X063442Y032471I-000065J-000108D01*
G01X061535Y033317D02*
G03X063442Y032471I001143J000004D01*
G01X061535Y033317D02*
G03X061534Y033321I-000127J000000D01*
G01X061534Y033321D02*
G03X061535Y033324I-000126J000003D01*
G01X062674Y034464D02*
G03X061535Y033324I000004J-001143D01*
G01X062674Y034464D02*
G03X062678Y034464I000000J000127D01*
X062681Y034464I000003J000127*
G01X063710Y033811D02*
G03X062681Y034464I-001032J-000490D01*
G01X063710Y033811D02*
G03X063844Y033740I000115J000054D01*
G01X064051Y033740D02*
G03X063844Y033740I-000103J-000673D01*
G01X064051Y033740D02*
G03X064185Y033811I000019J000125D01*
G01X065214Y034464D02*
G03X064185Y033811I000004J-001143D01*
G01X065214Y034464D02*
G03X065218Y034464I000000J000127D01*
X065221Y034464I000003J000127*
G01X066361Y033324D02*
G03X065221Y034464I-001143J-000003D01*
G01X066361Y033324D02*
G03X066361Y033321I000127J000000D01*
X066361Y033317I000127J-000003*
G01X066340Y033103D02*
G03X066361Y033317I-001122J000218D01*
G01X066340Y033103D02*
G03X066428Y032957I000124J-000023D01*
G01X066470Y032943D02*
G03X066428Y032957I-000236J-000638D01*
G01X066470Y032943D02*
G03X066638Y033088I000044J000119D01*
G01X066615Y033317D02*
G03X066638Y033088I001143J000004D01*
G01X066615Y033317D02*
G03X066614Y033321I-000127J000000D01*
G01X066614Y033321D02*
G03X066615Y033324I-000126J000003D01*
G01X067754Y034464D02*
G03X066615Y033324I000004J-001143D01*
G01X067754Y034464D02*
G03X067758Y034464I000000J000127D01*
X067761Y034464I000003J000127*
G01X068259Y034348D02*
G03X067761Y034464I-000501J-001027D01*
G01X068259Y034348D02*
G03X068426Y034402I000055J000114D01*
G01X068775Y034715D02*
G03X068426Y034402I000253J-000632D01*
G01X068775Y034715D02*
G03X068855Y034835I-000046J000118D01*
G01X068886Y035049D02*
G03X068855Y034835I000650J-000204D01*
G01X068886Y035049D02*
G03X068664Y035164I-000120J000038D01*
G01X067761Y034718D02*
G03X068664Y035164I-000003J001143D01*
G01X067761Y034718D02*
G03X067758Y034717I000000J-000127D01*
G01X067758Y034717D02*
G03X067754Y034718I-000003J-000126D01*
G01X066615Y035857D02*
G03X067754Y034718I001143J000004D01*
G01X066615Y035857D02*
G03X066614Y035861I-000127J000000D01*
G01X066614Y035861D02*
G03X066615Y035864I-000126J000003D01*
G01X066839Y036540D02*
G03X066615Y035864I000919J-000679D01*
G01X066839Y036540D02*
G03X066697Y036737I-000101J000076D01*
G01X066278Y036737D02*
G03X066697Y036737I000210J000648D01*
G01X066278Y036737D02*
G03X066136Y036540I-000039J-000120D01*
G01X066361Y035864D02*
G03X066136Y036540I-001143J-000003D01*
G01X066361Y035864D02*
G03X066361Y035861I000127J000000D01*
X066361Y035857I000127J-000003*
G01X065221Y034718D02*
G03X066361Y035857I-000003J001143D01*
G01X065221Y034718D02*
G03X065218Y034717I000000J-000127D01*
G01X065218Y034717D02*
G03X065214Y034718I-000003J-000126D01*
G01X064075Y035857D02*
G03X065214Y034718I001143J000004D01*
G01X064075Y035857D02*
G03X064074Y035861I-000127J000000D01*
G01X064074Y035861D02*
G03X064075Y035864I-000126J000003D01*
G01X064300Y036543D02*
G03X064075Y035864I000918J-000682D01*
G01X064300Y036543D02*
G03X064239Y036739I-000101J000075D01*
G01X065102Y037170D02*
G03X064239Y036739I-000646J000215D01*
G01X065102Y037170D02*
G03X065222Y037004I000121J-000039D01*
G01X065720Y036887D02*
G03X065222Y037004I-000502J-001026D01*
G01X065720Y036887D02*
G03X065888Y037061I000056J000114D01*
G01X065887Y037706D02*
G03X065888Y037061I000601J-000321D01*
G01X065887Y037706D02*
G03X065887Y037825I-000111J000060D01*
G01X067088Y037825D02*
G03X065887Y037825I-000600J000322D01*
G01X067088Y037825D02*
G03X067088Y037706I000112J-000059D01*
G01X067087Y037061D02*
G03X067088Y037706I-000599J000324D01*
G01X067087Y037061D02*
G03X067255Y036887I000112J-000059D01*
G01X068901Y035864D02*
G03X067255Y036887I-001143J-000003D01*
G01X068901Y035864D02*
G03X068901Y035861I000127J000000D01*
X068901Y035857I000127J-000003*
G01X068818Y035433D02*
G03X068901Y035857I-001060J000428D01*
G01X068818Y035433D02*
G03X069030Y035300I000117J-000047D01*
G01X069149Y035405D02*
G03X069030Y035300I000387J-000560D01*
G01X069149Y035405D02*
G03X069199Y035545I-000071J000105D01*
G01X069155Y035857D02*
G03X069199Y035545I001143J000004D01*
G01X069155Y035857D02*
G03X069154Y035861I-000127J000000D01*
G01X069154Y035861D02*
G03X069155Y035864I-000126J000003D01*
G01X071441Y035864D02*
G03X069155Y035864I-001143J-000003D01*
G01X071441Y035864D02*
G03X071441Y035861I000127J000000D01*
X071441Y035857I000127J-000003*
G01X070302Y034718D02*
G03X071441Y035857I-000004J001143D01*
G01X070302Y034718D02*
G03X070180Y034625I000001J-000127D01*
G01X070180Y034625D02*
X070180Y034625D01*
X070180Y034625D02*
G03X070302Y034464I000123J-000034D01*
G01X071441Y033324D02*
G03X070302Y034464I-001143J-000003D01*
G01X071441Y033324D02*
G03X071441Y033321I000127J000000D01*
X071441Y033317I000127J-000003*
G01X069155Y033279D02*
G03X071441Y033317I001143J000042D01*
G01X069155Y033279D02*
G03X069028Y033402I-000126J-000004D01*
G01X069028Y033402D02*
X069027Y033402D01*
G03X068900Y033279I000000J-000127*
G01X067113Y032377D02*
G03X068900Y033279I000645J000944D01*
G01X067113Y032377D02*
G03X066914Y032277I-000071J-000104D01*
G01X066460Y031662D02*
G03X066914Y032277I-000226J000643D01*
G01X066460Y031662D02*
G03X066502Y031416I000042J-000118D01*
G01X066502Y031416D02*
X091887Y031416D01*
X091887Y031416D02*
G03X092014Y031543I000000J000127D01*
G01X092014Y031543D02*
X092014Y033172D01*
X092014Y033172D02*
G03X091788Y033251I-000126J000000D01*
G01X091788Y035422D02*
G03X091788Y033251I-001380J-001085D01*
G01X091788Y035422D02*
G03X092014Y035501I000099J000079D01*
G01X084395Y033317D02*
G03X085541Y034464I001143J000004D01*
G01X084395Y033317D02*
G03X084394Y033321I-000127J000000D01*
G01X084394Y033321D02*
G03X084395Y033324I-000126J000003D01*
G01X085534Y034464D02*
G03X084395Y033324I000004J-001143D01*
G01X085534Y034464D02*
G03X085538Y034464I000000J000127D01*
X085541Y034464I000003J000127*
G01X085541Y034718D02*
G03X084395Y035864I-000003J001143D01*
G01X085541Y034718D02*
G03X085538Y034717I000000J-000127D01*
G01X085538Y034717D02*
G03X085534Y034718I-000003J-000126D01*
G01X084395Y035857D02*
G03X085534Y034718I001143J000004D01*
G01X084395Y035857D02*
G03X084394Y035861I-000127J000000D01*
G01X084394Y035861D02*
G03X084395Y035864I-000126J000003D01*
G01X088713Y041195D02*
X088713Y039671D01*
X088332Y039289D02*
G03X088713Y039671I000000J000382D01*
G01X088332Y039289D02*
X086808Y039289D01*
X086426Y039671D02*
G03X086808Y039289I000382J000000D01*
G01X086426Y039671D02*
X086426Y040427D01*
X086426Y040427D02*
G03X086426Y040433I-000126J000000D01*
G01X086426Y040433D02*
G03X086426Y040438I-000126J000005D01*
G01X086426Y040438D02*
X086426Y041195D01*
X086808Y041576D02*
G03X086426Y041195I000000J-000381D01*
G01X086808Y041576D02*
X088332Y041576D01*
X088713Y041195D02*
G03X088332Y041576I-000381J000000D01*
G01X091681Y053387D02*
X091681Y044878D01*
X091300Y044496D02*
G03X091681Y044878I000000J000382D01*
G01X091300Y044496D02*
X088506Y044496D01*
X088125Y044878D02*
G03X088506Y044496I000381J000000D01*
G01X088125Y044878D02*
X088125Y053387D01*
X088506Y053768D02*
G03X088125Y053387I000000J-000381D01*
G01X088506Y053768D02*
X091300Y053768D01*
X091681Y053387D02*
G03X091300Y053768I-000380J000000D01*
G01X084141Y033321D02*
G03X084141Y033317I000127J-000003D01*
G01X081855Y033317D02*
G03X084141Y033317I001143J000004D01*
G01X081855Y033317D02*
G03X081854Y033321I-000127J000000D01*
G01X081854Y033321D02*
G03X081855Y033324I-000126J000003D01*
G01X082994Y034464D02*
G03X081855Y033324I000004J-001143D01*
G01X082994Y034464D02*
G03X082998Y034464I000000J000127D01*
X083001Y034464I000003J000127*
G01X084141Y033324D02*
G03X083001Y034464I-001143J-000003D01*
G01X084141Y033324D02*
G03X084141Y033321I000127J000000D01*
G01X084141Y035861D02*
G03X084141Y035857I000127J-000003D01*
G01X083001Y034718D02*
G03X084141Y035857I-000003J001143D01*
G01X083001Y034718D02*
G03X082998Y034717I000000J-000127D01*
G01X082998Y034717D02*
G03X082994Y034718I-000003J-000126D01*
G01X081855Y035857D02*
G03X082994Y034718I001143J000004D01*
G01X081855Y035857D02*
G03X081854Y035861I-000127J000000D01*
G01X081854Y035861D02*
G03X081855Y035864I-000126J000003D01*
G01X084141Y035864D02*
G03X081855Y035864I-001143J-000003D01*
G01X084141Y035864D02*
G03X084141Y035861I000127J000000D01*
G01X086173Y040433D02*
G03X086173Y040428I000126J-000005D01*
G01X083887Y040429D02*
G03X086173Y040428I001143J000004D01*
G01X083887Y040429D02*
G03X083886Y040433I-000127J000000D01*
G01X083886Y040433D02*
G03X083887Y040436I-000126J000003D01*
G01X086173Y040437D02*
G03X083887Y040436I-001143J-000004D01*
G01X086173Y040437D02*
G03X086173Y040433I000126J000001D01*
G01X081601Y033321D02*
G03X081601Y033317I000127J-000003D01*
G01X079315Y033317D02*
G03X081601Y033317I001143J000004D01*
G01X079315Y033317D02*
G03X079314Y033321I-000127J000000D01*
G01X079314Y033321D02*
G03X079315Y033324I-000126J000003D01*
G01X080454Y034464D02*
G03X079315Y033324I000004J-001143D01*
G01X080454Y034464D02*
G03X080458Y034464I000000J000127D01*
X080461Y034464I000003J000127*
G01X081601Y033324D02*
G03X080461Y034464I-001143J-000003D01*
G01X081601Y033324D02*
G03X081601Y033321I000127J000000D01*
G01X081601Y035861D02*
G03X081601Y035857I000127J-000003D01*
G01X080461Y034718D02*
G03X081601Y035857I-000003J001143D01*
G01X080461Y034718D02*
G03X080458Y034717I000000J-000127D01*
G01X080458Y034717D02*
G03X080454Y034718I-000003J-000126D01*
G01X079315Y035857D02*
G03X080454Y034718I001143J000004D01*
G01X079315Y035857D02*
G03X079314Y035861I-000127J000000D01*
G01X079314Y035861D02*
G03X079315Y035864I-000126J000003D01*
G01X081601Y035864D02*
G03X079315Y035864I-001143J-000003D01*
G01X081601Y035864D02*
G03X081601Y035861I000127J000000D01*
G01X083633Y040433D02*
G03X083633Y040429I000127J-000003D01*
G01X081347Y040429D02*
G03X083633Y040429I001143J000004D01*
G01X081347Y040429D02*
G03X081346Y040433I-000127J000000D01*
G01X081346Y040433D02*
G03X081347Y040436I-000126J000003D01*
G01X083633Y040436D02*
G03X081347Y040436I-001143J-000003D01*
G01X083633Y040436D02*
G03X083633Y040433I000127J000000D01*
G01X083633Y053637D02*
G03X084779Y054784I001143J000004D01*
G01X083633Y053637D02*
G03X083632Y053641I-000127J000000D01*
G01X083632Y053641D02*
G03X083633Y053644I-000126J000003D01*
G01X084772Y054784D02*
G03X083633Y053644I000004J-001143D01*
G01X084772Y054784D02*
G03X084776Y054784I000000J000127D01*
X084779Y054784I000003J000127*
G01X084779Y055038D02*
G03X083633Y056184I-000003J001143D01*
G01X084779Y055038D02*
G03X084776Y055037I000000J-000127D01*
G01X084776Y055037D02*
G03X084772Y055038I-000003J-000126D01*
G01X083633Y056177D02*
G03X084772Y055038I001143J000004D01*
G01X083633Y056177D02*
G03X083632Y056181I-000127J000000D01*
G01X083632Y056181D02*
G03X083633Y056184I-000126J000003D01*
G01X083425Y049831D02*
G03X083425Y049831I-000681J0D01*
G01X079061Y033321D02*
G03X079061Y033317I000127J-000003D01*
G01X076775Y033317D02*
G03X079061Y033317I001143J000004D01*
G01X076775Y033317D02*
G03X076774Y033321I-000127J000000D01*
G01X076774Y033321D02*
G03X076775Y033324I-000126J000003D01*
G01X077914Y034464D02*
G03X076775Y033324I000004J-001143D01*
G01X077914Y034464D02*
G03X077918Y034464I000000J000127D01*
X077921Y034464I000003J000127*
G01X079061Y033324D02*
G03X077921Y034464I-001143J-000003D01*
G01X079061Y033324D02*
G03X079061Y033321I000127J000000D01*
G01X079061Y035861D02*
G03X079061Y035857I000127J-000003D01*
G01X077921Y034718D02*
G03X079061Y035857I-000003J001143D01*
G01X077921Y034718D02*
G03X077918Y034717I000000J-000127D01*
G01X077918Y034717D02*
G03X077914Y034718I-000003J-000126D01*
G01X076775Y035857D02*
G03X077914Y034718I001143J000004D01*
G01X076775Y035857D02*
G03X076774Y035861I-000127J000000D01*
G01X076774Y035861D02*
G03X076775Y035864I-000126J000003D01*
G01X079061Y035864D02*
G03X076775Y035864I-001143J-000003D01*
G01X079061Y035864D02*
G03X079061Y035861I000127J000000D01*
G01X081093Y040433D02*
G03X081093Y040429I000127J-000003D01*
G01X078807Y040429D02*
G03X081093Y040429I001143J000004D01*
G01X078807Y040429D02*
G03X078806Y040433I-000127J000000D01*
G01X078806Y040433D02*
G03X078807Y040436I-000126J000003D01*
G01X081093Y040436D02*
G03X078807Y040436I-001143J-000003D01*
G01X081093Y040436D02*
G03X081093Y040433I000127J000000D01*
G01X081139Y049831D02*
G03X081139Y049831I-000681J0D01*
G01X083379Y053641D02*
G03X083379Y053637I000127J-000003D01*
G01X081093Y053637D02*
G03X083379Y053637I001143J000004D01*
G01X081093Y053637D02*
G03X081092Y053641I-000127J000000D01*
G01X081092Y053641D02*
G03X081093Y053644I-000126J000003D01*
G01X082232Y054784D02*
G03X081093Y053644I000004J-001143D01*
G01X082232Y054784D02*
G03X082236Y054784I000000J000127D01*
X082239Y054784I000003J000127*
G01X083379Y053644D02*
G03X082239Y054784I-001143J-000003D01*
G01X083379Y053644D02*
G03X083379Y053641I000127J000000D01*
G01X083379Y056181D02*
G03X083379Y056177I000127J-000003D01*
G01X082239Y055038D02*
G03X083379Y056177I-000003J001143D01*
G01X082239Y055038D02*
G03X082236Y055037I000000J-000127D01*
G01X082236Y055037D02*
G03X082232Y055038I-000003J-000126D01*
G01X081093Y056177D02*
G03X082232Y055038I001143J000004D01*
G01X081093Y056177D02*
G03X081092Y056181I-000127J000000D01*
G01X081092Y056181D02*
G03X081093Y056184I-000126J000003D01*
G01X083379Y056184D02*
G03X081093Y056184I-001143J-000003D01*
G01X083379Y056184D02*
G03X083379Y056181I000127J000000D01*
G01X076521Y033321D02*
G03X076521Y033317I000127J-000003D01*
G01X074235Y033317D02*
G03X076521Y033317I001143J000004D01*
G01X074235Y033317D02*
G03X074234Y033321I-000127J000000D01*
G01X074234Y033321D02*
G03X074235Y033324I-000126J000003D01*
G01X075374Y034464D02*
G03X074235Y033324I000004J-001143D01*
G01X075374Y034464D02*
G03X075378Y034464I000000J000127D01*
X075381Y034464I000003J000127*
G01X076521Y033324D02*
G03X075381Y034464I-001143J-000003D01*
G01X076521Y033324D02*
G03X076521Y033321I000127J000000D01*
G01X076521Y035861D02*
G03X076521Y035857I000127J-000003D01*
G01X075381Y034718D02*
G03X076521Y035857I-000003J001143D01*
G01X075381Y034718D02*
G03X075378Y034717I000000J-000127D01*
G01X075378Y034717D02*
G03X075374Y034718I-000003J-000126D01*
G01X074235Y035857D02*
G03X075374Y034718I001143J000004D01*
G01X074235Y035857D02*
G03X074234Y035861I-000127J000000D01*
G01X074234Y035861D02*
G03X074235Y035864I-000126J000003D01*
G01X076521Y035864D02*
G03X074235Y035864I-001143J-000003D01*
G01X076521Y035864D02*
G03X076521Y035861I000127J000000D01*
G01X078553Y040433D02*
G03X078553Y040429I000127J-000003D01*
G01X076282Y040242D02*
G03X078553Y040429I001128J000191D01*
G01X076282Y040242D02*
G03X076035Y040254I-000124J-000020D01*
G01X075074Y041042D02*
G03X076035Y040254I000304J-000609D01*
G01X075074Y041042D02*
G03X075034Y041281I-000056J000114D01*
G01X075427Y041347D02*
G03X075034Y041281I-000303J000610D01*
G01X075427Y041347D02*
G03X075467Y041108I000057J-000113D01*
G01X076035Y040611D02*
G03X075467Y041108I-000657J-000178D01*
G01X076035Y040611D02*
G03X076282Y040623I000122J000033D01*
G01X078553Y040436D02*
G03X076282Y040623I-001143J-000003D01*
G01X078553Y040436D02*
G03X078553Y040433I000127J000000D01*
G01X078599Y046021D02*
G03X078599Y046021I-000681J0D01*
G01X078599Y050085D02*
G03X078599Y050085I-000681J0D01*
G01X080839Y053641D02*
G03X080839Y053637I000127J-000003D01*
G01X078553Y053637D02*
G03X080839Y053637I001143J000004D01*
G01X078553Y053637D02*
G03X078552Y053641I-000127J000000D01*
G01X078552Y053641D02*
G03X078553Y053644I-000126J000003D01*
G01X079692Y054784D02*
G03X078553Y053644I000004J-001143D01*
G01X079692Y054784D02*
G03X079696Y054784I000000J000127D01*
X079699Y054784I000003J000127*
G01X080839Y053644D02*
G03X079699Y054784I-001143J-000003D01*
G01X080839Y053644D02*
G03X080839Y053641I000127J000000D01*
G01X080839Y056181D02*
G03X080839Y056177I000127J-000003D01*
G01X079699Y055038D02*
G03X080839Y056177I-000003J001143D01*
G01X079699Y055038D02*
G03X079696Y055037I000000J-000127D01*
G01X079696Y055037D02*
G03X079692Y055038I-000003J-000126D01*
G01X078553Y056177D02*
G03X079692Y055038I001143J000004D01*
G01X078553Y056177D02*
G03X078552Y056181I-000127J000000D01*
G01X078552Y056181D02*
G03X078553Y056184I-000126J000003D01*
G01X080839Y056184D02*
G03X078553Y056184I-001143J-000003D01*
G01X080839Y056184D02*
G03X080839Y056181I000127J000000D01*
G01X077075Y043481D02*
G03X077075Y043481I-000681J0D01*
G01X076059Y045513D02*
G03X076059Y045513I-000681J0D01*
G01X078299Y053641D02*
G03X078299Y053637I000127J-000003D01*
G01X076013Y053637D02*
G03X078299Y053637I001143J000004D01*
G01X076013Y053637D02*
G03X076012Y053641I-000127J000000D01*
G01X076012Y053641D02*
G03X076013Y053644I-000126J000003D01*
G01X077152Y054784D02*
G03X076013Y053644I000004J-001143D01*
G01X077152Y054784D02*
G03X077156Y054784I000000J000127D01*
X077159Y054784I000003J000127*
G01X078299Y053644D02*
G03X077159Y054784I-001143J-000003D01*
G01X078299Y053644D02*
G03X078299Y053641I000127J000000D01*
G01X078299Y056181D02*
G03X078299Y056177I000127J-000003D01*
G01X077159Y055038D02*
G03X078299Y056177I-000003J001143D01*
G01X077159Y055038D02*
G03X077156Y055037I000000J-000127D01*
G01X077156Y055037D02*
G03X077152Y055038I-000003J-000126D01*
G01X076013Y056177D02*
G03X077152Y055038I001143J000004D01*
G01X076013Y056177D02*
G03X076012Y056181I-000127J000000D01*
G01X076012Y056181D02*
G03X076013Y056184I-000126J000003D01*
G01X078299Y056184D02*
G03X076013Y056184I-001143J-000003D01*
G01X078299Y056184D02*
G03X078299Y056181I000127J000000D01*
G01X073981Y033321D02*
G03X073981Y033317I000127J-000003D01*
G01X071695Y033317D02*
G03X073981Y033317I001143J000004D01*
G01X071695Y033317D02*
G03X071694Y033321I-000127J000000D01*
G01X071694Y033321D02*
G03X071695Y033324I-000126J000003D01*
G01X072834Y034464D02*
G03X071695Y033324I000004J-001143D01*
G01X072834Y034464D02*
G03X072838Y034464I000000J000127D01*
X072841Y034464I000003J000127*
G01X073981Y033324D02*
G03X072841Y034464I-001143J-000003D01*
G01X073981Y033324D02*
G03X073981Y033321I000127J000000D01*
G01X073981Y035861D02*
G03X073981Y035857I000127J-000003D01*
G01X072841Y034718D02*
G03X073981Y035857I-000003J001143D01*
G01X072841Y034718D02*
G03X072838Y034717I000000J-000127D01*
G01X072838Y034717D02*
G03X072834Y034718I-000003J-000126D01*
G01X071695Y035857D02*
G03X072834Y034718I001143J000004D01*
G01X071695Y035857D02*
G03X071694Y035861I-000127J000000D01*
G01X071694Y035861D02*
G03X071695Y035864I-000126J000003D01*
G01X073981Y035864D02*
G03X071695Y035864I-001143J-000003D01*
G01X073981Y035864D02*
G03X073981Y035861I000127J000000D01*
G01X073773Y039417D02*
G03X073773Y039417I-000681J0D01*
G01X075759Y053641D02*
G03X075759Y053637I000127J-000003D01*
G01X073473Y053637D02*
G03X075759Y053637I001143J000004D01*
G01X073473Y053637D02*
G03X073472Y053641I-000127J000000D01*
G01X073472Y053641D02*
G03X073473Y053644I-000126J000003D01*
G01X074612Y054784D02*
G03X073473Y053644I000004J-001143D01*
G01X074612Y054784D02*
G03X074616Y054784I000000J000127D01*
X074619Y054784I000003J000127*
G01X075759Y053644D02*
G03X074619Y054784I-001143J-000003D01*
G01X075759Y053644D02*
G03X075759Y053641I000127J000000D01*
G01X075759Y056181D02*
G03X075759Y056177I000127J-000003D01*
G01X074619Y055038D02*
G03X075759Y056177I-000003J001143D01*
G01X074619Y055038D02*
G03X074616Y055037I000000J-000127D01*
G01X074616Y055037D02*
G03X074612Y055038I-000003J-000126D01*
G01X073473Y056177D02*
G03X074612Y055038I001143J000004D01*
G01X073473Y056177D02*
G03X073472Y056181I-000127J000000D01*
G01X073472Y056181D02*
G03X073473Y056184I-000126J000003D01*
G01X075759Y056184D02*
G03X073473Y056184I-001143J-000003D01*
G01X075759Y056184D02*
G03X075759Y056181I000127J000000D01*
G01X072751Y044977D02*
G03X071687Y045739I-000421J000536D01*
G01X072751Y044977D02*
G03X072751Y044778I000078J-000099D01*
G01X072859Y043814D02*
G03X072751Y044778I-000529J000429D01*
G01X072859Y043814D02*
G03X072859Y043655I000099J-000079D01*
G01X071800Y043655D02*
G03X072859Y043655I000530J-000428D01*
G01X071800Y043655D02*
G03X071800Y043814I-000098J000080D01*
G01X071908Y044778D02*
G03X071800Y043814I000422J-000535D01*
G01X071908Y044778D02*
G03X071908Y044977I-000077J000100D01*
G01X071687Y045286D02*
G03X071908Y044977I000643J000227D01*
G01X071687Y045286D02*
G03X071448Y045286I-000119J-000041D01*
G01X070716Y046188D02*
G03X071448Y045286I000090J-000675D01*
G01X070716Y046188D02*
G03X070756Y046427I-000016J000125D01*
G01X071149Y046361D02*
G03X070756Y046427I-000089J000676D01*
G01X071149Y046361D02*
G03X071109Y046122I000017J-000124D01*
G01X071448Y045739D02*
G03X071109Y046122I-000642J-000226D01*
G01X071448Y045739D02*
G03X071687Y045739I000120J000042D01*
G01X073219Y053641D02*
G03X073219Y053637I000127J-000003D01*
G01X072080Y052498D02*
G03X073219Y053637I-000004J001143D01*
G01X072080Y052498D02*
G03X071960Y052331I000001J-000127D01*
G01X071097Y052762D02*
G03X071960Y052331I000217J-000645D01*
G01X071097Y052762D02*
G03X071158Y052958I-000040J000121D01*
G01X070933Y053637D02*
G03X071158Y052958I001143J000004D01*
G01X070933Y053637D02*
G03X070932Y053641I-000127J000000D01*
G01X070932Y053641D02*
G03X070933Y053644I-000126J000003D01*
G01X072072Y054784D02*
G03X070933Y053644I000004J-001143D01*
G01X072072Y054784D02*
G03X072076Y054784I000000J000127D01*
X072079Y054784I000003J000127*
G01X073219Y053644D02*
G03X072079Y054784I-001143J-000003D01*
G01X073219Y053644D02*
G03X073219Y053641I000127J000000D01*
G01X073219Y056181D02*
G03X073219Y056177I000127J-000003D01*
G01X072079Y055038D02*
G03X073219Y056177I-000003J001143D01*
G01X072079Y055038D02*
G03X072076Y055037I000000J-000127D01*
G01X072076Y055037D02*
G03X072072Y055038I-000003J-000126D01*
G01X070933Y056177D02*
G03X072072Y055038I001143J000004D01*
G01X070933Y056177D02*
G03X070932Y056181I-000127J000000D01*
G01X070932Y056181D02*
G03X070933Y056184I-000126J000003D01*
G01X073219Y056184D02*
G03X070933Y056184I-001143J-000003D01*
G01X073219Y056184D02*
G03X073219Y056181I000127J000000D01*
G01X068185Y040687D02*
G03X068185Y040687I-000681J0D01*
G01X068266Y048615D02*
G03X068639Y049736I000508J000454D01*
G01X068266Y048615D02*
G03X068146Y048655I-000094J-000084D01*
G01X068519Y049776D02*
G03X068146Y048655I-000507J-000453D01*
G01X068519Y049776D02*
G03X068639Y049736I000095J000085D01*
G01X070679Y053641D02*
G03X070679Y053637I000127J-000003D01*
G01X068393Y053637D02*
G03X070679Y053637I001143J000004D01*
G01X068393Y053637D02*
G03X068392Y053641I-000127J000000D01*
G01X068392Y053641D02*
G03X068393Y053644I-000126J000003D01*
G01X069532Y054784D02*
G03X068393Y053644I000004J-001143D01*
G01X069532Y054784D02*
G03X069536Y054784I000000J000127D01*
X069539Y054784I000003J000127*
G01X070679Y053644D02*
G03X069539Y054784I-001143J-000003D01*
G01X070679Y053644D02*
G03X070679Y053641I000127J000000D01*
G01X070679Y056181D02*
G03X070679Y056177I000127J-000003D01*
G01X069539Y055038D02*
G03X070679Y056177I-000003J001143D01*
G01X069539Y055038D02*
G03X069536Y055037I000000J-000127D01*
G01X069536Y055037D02*
G03X069532Y055038I-000003J-000126D01*
G01X068393Y056177D02*
G03X069532Y055038I001143J000004D01*
G01X068393Y056177D02*
G03X068392Y056181I-000127J000000D01*
G01X068392Y056181D02*
G03X068393Y056184I-000126J000003D01*
G01X070679Y056184D02*
G03X068393Y056184I-001143J-000003D01*
G01X070679Y056184D02*
G03X070679Y056181I000127J000000D01*
G01X066433Y040941D02*
G03X065312Y041314I-000453J000508D01*
G01X066433Y040941D02*
G03X066393Y040821I000085J-000094D01*
G01X065272Y041194D02*
G03X066393Y040821I000454J-000507D01*
G01X065272Y041194D02*
G03X065312Y041314I-000084J000095D01*
G01X068139Y053641D02*
G03X068139Y053637I000127J-000003D01*
G01X065853Y053637D02*
G03X068139Y053637I001143J000004D01*
G01X065853Y053637D02*
G03X065852Y053641I-000127J000000D01*
G01X065852Y053641D02*
G03X065853Y053644I-000126J000003D01*
G01X066992Y054784D02*
G03X065853Y053644I000004J-001143D01*
G01X066992Y054784D02*
G03X066996Y054784I000000J000127D01*
X066999Y054784I000003J000127*
G01X068139Y053644D02*
G03X066999Y054784I-001143J-000003D01*
G01X068139Y053644D02*
G03X068139Y053641I000127J000000D01*
G01X068139Y056181D02*
G03X068139Y056177I000127J-000003D01*
G01X066999Y055038D02*
G03X068139Y056177I-000003J001143D01*
G01X066999Y055038D02*
G03X066996Y055037I000000J-000127D01*
G01X066996Y055037D02*
G03X066992Y055038I-000003J-000126D01*
G01X065853Y056177D02*
G03X066992Y055038I001143J000004D01*
G01X065853Y056177D02*
G03X065852Y056181I-000127J000000D01*
G01X065852Y056181D02*
G03X065853Y056184I-000126J000003D01*
G01X068139Y056184D02*
G03X065853Y056184I-001143J-000003D01*
G01X068139Y056184D02*
G03X068139Y056181I000127J000000D01*
G01X063359Y040179D02*
G03X063359Y040179I-000681J0D01*
G01X064294Y045445D02*
G03X063093Y045445I-000600J000322D01*
G01X064294Y045445D02*
G03X064294Y045326I000112J-000059D01*
G01X063920Y044362D02*
G03X064294Y045326I-000226J000643D01*
G01X063920Y044362D02*
G03X063920Y044123I000042J-000119D01*
G01X064294Y043159D02*
G03X063920Y044123I-000600J000322D01*
G01X064294Y043159D02*
G03X064294Y043040I000112J-000059D01*
G01X063093Y043040D02*
G03X064294Y043040I000601J-000321D01*
G01X063093Y043040D02*
G03X063093Y043159I-000111J000060D01*
G01X063467Y044123D02*
G03X063093Y043159I000227J-000642D01*
G01X063467Y044123D02*
G03X063467Y044362I-000041J000120D01*
G01X063093Y045326D02*
G03X063467Y044362I000601J-000321D01*
G01X063093Y045326D02*
G03X063093Y045445I-000111J000060D01*
G01X064502Y048674D02*
G03X064091Y049607I000208J000649D01*
G01X064502Y048674D02*
G03X064342Y048514I-000038J-000120D01*
G01X064294Y047985D02*
G03X064342Y048514I-000600J000322D01*
G01X064294Y047985D02*
G03X064294Y047866I000112J-000059D01*
G01X063093Y047866D02*
G03X064294Y047866I000601J-000321D01*
G01X063093Y047866D02*
G03X063093Y047985I-000111J000060D01*
G01X063409Y048925D02*
G03X063093Y047985I000285J-000618D01*
G01X063409Y048925D02*
G03X063469Y048981I-000052J000116D01*
G01X063469Y048981D02*
G03X063550Y048972I000054J000115D01*
G01X063901Y048955D02*
G03X063550Y048972I-000207J-000648D01*
G01X063901Y048955D02*
G03X064061Y049115I000039J000121D01*
G01X064044Y049466D02*
G03X064061Y049115I000666J-000143D01*
G01X064044Y049466D02*
G03X064035Y049547I-000123J000027D01*
G01X064035Y049547D02*
G03X064091Y049607I-000059J000113D01*
G01X063851Y049687D02*
G03X063329Y049165I-000665J000144D01*
G01X063851Y049687D02*
G03X063860Y049606I000124J-000026D01*
G01X063860Y049606D02*
G03X063804Y049546I000060J-000112D01*
G01X063470Y049212D02*
G03X063804Y049546I-000284J000619D01*
G01X063470Y049212D02*
G03X063410Y049156I000053J-000115D01*
G01X063410Y049156D02*
G03X063329Y049165I-000053J-000114D01*
G01X064354Y051559D02*
G03X065181Y052508I000610J000304D01*
G01X064354Y051559D02*
G03X064115Y051519I-000113J-000056D01*
G01X064049Y051912D02*
G03X064115Y051519I-000609J-000303D01*
G01X064049Y051912D02*
G03X064288Y051952I000114J000057D01*
G01X064438Y052295D02*
G03X064288Y051952I000526J-000432D01*
G01X064438Y052295D02*
G03X064351Y052502I-000098J000081D01*
G01X063313Y053637D02*
G03X064351Y052502I001143J000004D01*
G01X063313Y053637D02*
G03X063312Y053641I-000127J000000D01*
G01X063312Y053641D02*
G03X063313Y053644I-000126J000003D01*
G01X064452Y054784D02*
G03X063313Y053644I000004J-001143D01*
G01X064452Y054784D02*
G03X064456Y054784I000000J000127D01*
X064459Y054784I000003J000127*
G01X065599Y053644D02*
G03X064459Y054784I-001143J-000003D01*
G01X065599Y053644D02*
G03X065599Y053641I000127J000000D01*
X065599Y053637I000127J-000003*
G01X065145Y052729D02*
G03X065599Y053637I-000689J000912D01*
G01X065145Y052729D02*
G03X065181Y052508I000077J-000100D01*
G01X065599Y056181D02*
G03X065599Y056177I000127J-000003D01*
G01X064459Y055038D02*
G03X065599Y056177I-000003J001143D01*
G01X064459Y055038D02*
G03X064456Y055037I000000J-000127D01*
G01X064456Y055037D02*
G03X064452Y055038I-000003J-000126D01*
G01X063313Y056177D02*
G03X064452Y055038I001143J000004D01*
G01X063313Y056177D02*
G03X063312Y056181I-000127J000000D01*
G01X063312Y056181D02*
G03X063313Y056184I-000126J000003D01*
G01X065599Y056184D02*
G03X063313Y056184I-001143J-000003D01*
G01X065599Y056184D02*
G03X065599Y056181I000127J000000D01*
G01X061281Y033321D02*
G03X061281Y033317I000127J-000003D01*
G01X058995Y033317D02*
G03X061281Y033317I001143J000004D01*
G01X058995Y033317D02*
G03X058994Y033321I-000127J000000D01*
G01X058994Y033321D02*
G03X058995Y033324I-000126J000003D01*
G01X060134Y034464D02*
G03X058995Y033324I000004J-001143D01*
G01X060134Y034464D02*
G03X060138Y034464I000000J000127D01*
X060141Y034464I000003J000127*
G01X061281Y033324D02*
G03X060141Y034464I-001143J-000003D01*
G01X061281Y033324D02*
G03X061281Y033321I000127J000000D01*
G01X061181Y036704D02*
G03X060515Y037148I-000027J000681D01*
G01X061181Y036704D02*
G03X061081Y036505I000005J-000126D01*
G01X061281Y035864D02*
G03X061081Y036505I-001143J-000003D01*
G01X061281Y035864D02*
G03X061281Y035861I000127J000000D01*
X061281Y035857I000127J-000003*
G01X060141Y034718D02*
G03X061281Y035857I-000003J001143D01*
G01X060141Y034718D02*
G03X060138Y034717I000000J-000127D01*
G01X060138Y034717D02*
G03X060134Y034718I-000003J-000126D01*
G01X058995Y035857D02*
G03X060134Y034718I001143J000004D01*
G01X058995Y035857D02*
G03X058994Y035861I-000127J000000D01*
G01X058994Y035861D02*
G03X058995Y035864I-000126J000003D01*
G01X060370Y036980D02*
G03X058995Y035864I-000232J-001119D01*
G01X060370Y036980D02*
G03X060515Y037148I000026J000124D01*
G01X063059Y053641D02*
G03X063059Y053637I000127J-000003D01*
G01X060773Y053637D02*
G03X063059Y053637I001143J000004D01*
G01X060773Y053637D02*
G03X060772Y053641I-000127J000000D01*
G01X060772Y053641D02*
G03X060773Y053644I-000126J000003D01*
G01X061912Y054784D02*
G03X060773Y053644I000004J-001143D01*
G01X061912Y054784D02*
G03X061916Y054784I000000J000127D01*
X061919Y054784I000003J000127*
G01X063059Y053644D02*
G03X061919Y054784I-001143J-000003D01*
G01X063059Y053644D02*
G03X063059Y053641I000127J000000D01*
G01X063059Y056181D02*
G03X063059Y056177I000127J-000003D01*
G01X061919Y055038D02*
G03X063059Y056177I-000003J001143D01*
G01X061919Y055038D02*
G03X061916Y055037I000000J-000127D01*
G01X061916Y055037D02*
G03X061912Y055038I-000003J-000126D01*
G01X060773Y056177D02*
G03X061912Y055038I001143J000004D01*
G01X060773Y056177D02*
G03X060772Y056181I-000127J000000D01*
G01X060772Y056181D02*
G03X060773Y056184I-000126J000003D01*
G01X063059Y056184D02*
G03X060773Y056184I-001143J-000003D01*
G01X063059Y056184D02*
G03X063059Y056181I000127J000000D01*
G01X058741Y033321D02*
G03X058741Y033317I000127J-000003D01*
G01X056455Y033317D02*
G03X058741Y033317I001143J000004D01*
G01X056455Y033317D02*
G03X056454Y033321I-000127J000000D01*
G01X056454Y033321D02*
G03X056455Y033324I-000126J000003D01*
G01X057594Y034464D02*
G03X056455Y033324I000004J-001143D01*
G01X057594Y034464D02*
G03X057598Y034464I000000J000127D01*
X057601Y034464I000003J000127*
G01X058741Y033324D02*
G03X057601Y034464I-001143J-000003D01*
G01X058741Y033324D02*
G03X058741Y033321I000127J000000D01*
G01X058741Y035861D02*
G03X058741Y035857I000127J-000003D01*
G01X057601Y034718D02*
G03X058741Y035857I-000003J001143D01*
G01X057601Y034718D02*
G03X057598Y034717I000000J-000127D01*
G01X057598Y034717D02*
G03X057594Y034718I-000003J-000126D01*
G01X056455Y035857D02*
G03X057594Y034718I001143J000004D01*
G01X056455Y035857D02*
G03X056454Y035861I-000127J000000D01*
G01X056454Y035861D02*
G03X056455Y035864I-000126J000003D01*
G01X058741Y035864D02*
G03X056455Y035864I-001143J-000003D01*
G01X058741Y035864D02*
G03X058741Y035861I000127J000000D01*
G01X059803Y040433D02*
G03X059803Y040433I-000681J0D01*
G01X058708Y042853D02*
G03X059829Y043226I000668J-000134D01*
G01X058708Y042853D02*
G03X058668Y042973I-000124J000025D01*
G01X058489Y043228D02*
G03X058668Y042973I000633J000253D01*
G01X058489Y043228D02*
G03X058369Y043308I-000117J-000046D01*
G01X058992Y044241D02*
G03X058369Y043308I-000632J-000252D01*
G01X058992Y044241D02*
G03X059112Y044161I000118J000047D01*
G01X059789Y043346D02*
G03X059112Y044161I-000667J000135D01*
G01X059789Y043346D02*
G03X059829Y043226I000125J-000024D01*
G01X060311Y050339D02*
G03X060311Y050339I-000681J0D01*
G01X060519Y053641D02*
G03X060519Y053637I000127J-000003D01*
G01X058233Y053637D02*
G03X060519Y053637I001143J000004D01*
G01X058233Y053637D02*
G03X058232Y053641I-000127J000000D01*
G01X058232Y053641D02*
G03X058233Y053644I-000126J000003D01*
G01X059372Y054784D02*
G03X058233Y053644I000004J-001143D01*
G01X059372Y054784D02*
G03X059376Y054784I000000J000127D01*
X059379Y054784I000003J000127*
G01X060519Y053644D02*
G03X059379Y054784I-001143J-000003D01*
G01X060519Y053644D02*
G03X060519Y053641I000127J000000D01*
G01X060519Y056181D02*
G03X060519Y056177I000127J-000003D01*
G01X059379Y055038D02*
G03X060519Y056177I-000003J001143D01*
G01X059379Y055038D02*
G03X059376Y055037I000000J-000127D01*
G01X059376Y055037D02*
G03X059372Y055038I-000003J-000126D01*
G01X058233Y056177D02*
G03X059372Y055038I001143J000004D01*
G01X058233Y056177D02*
G03X058232Y056181I-000127J000000D01*
G01X058232Y056181D02*
G03X058233Y056184I-000126J000003D01*
G01X060519Y056184D02*
G03X058233Y056184I-001143J-000003D01*
G01X060519Y056184D02*
G03X060519Y056181I000127J000000D01*
G01X058025Y045259D02*
G03X058025Y045259I-000681J0D01*
G01X056201Y033321D02*
G03X056201Y033317I000127J-000003D01*
G01X053915Y033317D02*
G03X056201Y033317I001143J000004D01*
G01X053915Y033317D02*
G03X053914Y033321I-000127J000000D01*
G01X053914Y033321D02*
G03X053915Y033324I-000126J000003D01*
G01X055054Y034464D02*
G03X053915Y033324I000004J-001143D01*
G01X055054Y034464D02*
G03X055058Y034464I000000J000127D01*
X055061Y034464I000003J000127*
G01X056201Y033324D02*
G03X055061Y034464I-001143J-000003D01*
G01X056201Y033324D02*
G03X056201Y033321I000127J000000D01*
G01X056201Y035861D02*
G03X056201Y035857I000127J-000003D01*
G01X055061Y034718D02*
G03X056201Y035857I-000003J001143D01*
G01X055061Y034718D02*
G03X055058Y034717I000000J-000127D01*
G01X055058Y034717D02*
G03X055054Y034718I-000003J-000126D01*
G01X053915Y035857D02*
G03X055054Y034718I001143J000004D01*
G01X053915Y035857D02*
G03X053914Y035861I-000127J000000D01*
G01X053914Y035861D02*
G03X053915Y035864I-000126J000003D01*
G01X056201Y035864D02*
G03X053915Y035864I-001143J-000003D01*
G01X056201Y035864D02*
G03X056201Y035861I000127J000000D01*
G01X056664Y048777D02*
G03X057381Y049494I000680J000038D01*
G01X056664Y048777D02*
G03X056544Y048897I-000126J-000006D01*
G01X057261Y049614D02*
G03X056544Y048897I-000679J-000037D01*
G01X057261Y049614D02*
G03X057381Y049494I000127J000007D01*
G01X057979Y053641D02*
G03X057979Y053637I000127J-000003D01*
G01X055693Y053637D02*
G03X057979Y053637I001143J000004D01*
G01X055693Y053637D02*
G03X055692Y053641I-000127J000000D01*
G01X055692Y053641D02*
G03X055693Y053644I-000126J000003D01*
G01X056832Y054784D02*
G03X055693Y053644I000004J-001143D01*
G01X056832Y054784D02*
G03X056836Y054784I000000J000127D01*
X056839Y054784I000003J000127*
G01X057979Y053644D02*
G03X056839Y054784I-001143J-000003D01*
G01X057979Y053644D02*
G03X057979Y053641I000127J000000D01*
G01X057979Y056181D02*
G03X057979Y056177I000127J-000003D01*
G01X056839Y055038D02*
G03X057979Y056177I-000003J001143D01*
G01X056839Y055038D02*
G03X056836Y055037I000000J-000127D01*
G01X056836Y055037D02*
G03X056832Y055038I-000003J-000126D01*
G01X055693Y056177D02*
G03X056832Y055038I001143J000004D01*
G01X055693Y056177D02*
G03X055692Y056181I-000127J000000D01*
G01X055692Y056181D02*
G03X055693Y056184I-000126J000003D01*
G01X057979Y056184D02*
G03X055693Y056184I-001143J-000003D01*
G01X057979Y056184D02*
G03X057979Y056181I000127J000000D01*
G01X053661Y033321D02*
G03X053661Y033317I000127J-000003D01*
G01X051375Y033317D02*
G03X053661Y033317I001143J000004D01*
G01X051375Y033317D02*
G03X051374Y033321I-000127J000000D01*
G01X051374Y033321D02*
G03X051375Y033324I-000126J000003D01*
G01X052514Y034464D02*
G03X051375Y033324I000004J-001143D01*
G01X052514Y034464D02*
G03X052518Y034464I000000J000127D01*
X052521Y034464I000003J000127*
G01X053661Y033324D02*
G03X052521Y034464I-001143J-000003D01*
G01X053661Y033324D02*
G03X053661Y033321I000127J000000D01*
G01X053661Y035861D02*
G03X053661Y035857I000127J-000003D01*
G01X052521Y034718D02*
G03X053661Y035857I-000003J001143D01*
G01X052521Y034718D02*
G03X052518Y034717I000000J-000127D01*
G01X052518Y034717D02*
G03X052514Y034718I-000003J-000126D01*
G01X051375Y035857D02*
G03X052514Y034718I001143J000004D01*
G01X051375Y035857D02*
G03X051374Y035861I-000127J000000D01*
G01X051374Y035861D02*
G03X051375Y035864I-000126J000003D01*
G01X053661Y035864D02*
G03X051375Y035864I-001143J-000003D01*
G01X053661Y035864D02*
G03X053661Y035861I000127J000000D01*
G01X053453Y043481D02*
G03X053453Y043481I-000681J0D01*
G01X055439Y053641D02*
G03X055439Y053637I000127J-000003D01*
G01X053153Y053637D02*
G03X055439Y053637I001143J000004D01*
G01X053153Y053637D02*
G03X053152Y053641I-000127J000000D01*
G01X053152Y053641D02*
G03X053153Y053644I-000126J000003D01*
G01X054292Y054784D02*
G03X053153Y053644I000004J-001143D01*
G01X054292Y054784D02*
G03X054296Y054784I000000J000127D01*
X054299Y054784I000003J000127*
G01X055439Y053644D02*
G03X054299Y054784I-001143J-000003D01*
G01X055439Y053644D02*
G03X055439Y053641I000127J000000D01*
G01X055439Y056181D02*
G03X055439Y056177I000127J-000003D01*
G01X054299Y055038D02*
G03X055439Y056177I-000003J001143D01*
G01X054299Y055038D02*
G03X054296Y055037I000000J-000127D01*
G01X054296Y055037D02*
G03X054292Y055038I-000003J-000126D01*
G01X053153Y056177D02*
G03X054292Y055038I001143J000004D01*
G01X053153Y056177D02*
G03X053152Y056181I-000127J000000D01*
G01X053152Y056181D02*
G03X053153Y056184I-000126J000003D01*
G01X055439Y056184D02*
G03X053153Y056184I-001143J-000003D01*
G01X055439Y056184D02*
G03X055439Y056181I000127J000000D01*
G01X051121Y033321D02*
G03X051121Y033317I000127J-000003D01*
G01X048835Y033317D02*
G03X051121Y033317I001143J000004D01*
G01X048835Y033317D02*
G03X048834Y033321I-000127J000000D01*
G01X048834Y033321D02*
G03X048835Y033324I-000126J000003D01*
G01X049974Y034464D02*
G03X048835Y033324I000004J-001143D01*
G01X049974Y034464D02*
G03X049978Y034464I000000J000127D01*
X049981Y034464I000003J000127*
G01X051121Y033324D02*
G03X049981Y034464I-001143J-000003D01*
G01X051121Y033324D02*
G03X051121Y033321I000127J000000D01*
G01X050957Y036639D02*
G03X050342Y037796I-000471J000492D01*
G01X050957Y036639D02*
G03X050939Y036479I000088J-000090D01*
G01X051121Y035864D02*
G03X050939Y036479I-001143J-000003D01*
G01X051121Y035864D02*
G03X051121Y035861I000127J000000D01*
X051121Y035857I000127J-000003*
G01X049981Y034718D02*
G03X051121Y035857I-000003J001143D01*
G01X049981Y034718D02*
G03X049978Y034717I000000J-000127D01*
G01X049978Y034717D02*
G03X049974Y034718I-000003J-000126D01*
G01X048835Y035857D02*
G03X049974Y034718I001143J000004D01*
G01X048835Y035857D02*
G03X048834Y035861I-000127J000000D01*
G01X048834Y035861D02*
G03X048835Y035864I-000126J000003D01*
G01X049708Y036971D02*
G03X048835Y035864I000270J-001110D01*
G01X049708Y036971D02*
G03X049805Y037100I-000029J000124D01*
G01X050201Y037749D02*
G03X049805Y037100I000285J-000618D01*
G01X050201Y037749D02*
G03X050261Y037805I-000052J000116D01*
G01X050261Y037805D02*
G03X050342Y037796I000054J000115D01*
G01X048581Y033321D02*
G03X048581Y033317I000127J-000003D01*
G01X046295Y033317D02*
G03X048581Y033317I001143J000004D01*
G01X046295Y033317D02*
G03X046294Y033321I-000127J000000D01*
G01X046294Y033321D02*
G03X046295Y033324I-000126J000003D01*
G01X047434Y034464D02*
G03X046295Y033324I000004J-001143D01*
G01X047434Y034464D02*
G03X047438Y034464I000000J000127D01*
X047441Y034464I000003J000127*
G01X048581Y033324D02*
G03X047441Y034464I-001143J-000003D01*
G01X048581Y033324D02*
G03X048581Y033321I000127J000000D01*
G01X048581Y035861D02*
G03X048581Y035857I000127J-000003D01*
G01X047441Y034718D02*
G03X048581Y035857I-000003J001143D01*
G01X047441Y034718D02*
G03X047438Y034717I000000J-000127D01*
G01X047438Y034717D02*
G03X047434Y034718I-000003J-000126D01*
G01X046295Y035857D02*
G03X047434Y034718I001143J000004D01*
G01X046295Y035857D02*
G03X046294Y035861I-000127J000000D01*
G01X046294Y035861D02*
G03X046295Y035864I-000126J000003D01*
G01X048581Y035864D02*
G03X046295Y035864I-001143J-000003D01*
G01X048581Y035864D02*
G03X048581Y035861I000127J000000D01*
G01X050262Y038036D02*
G03X049302Y038567I-000284J000619D01*
G01X050262Y038036D02*
G03X050202Y037980I000053J-000115D01*
G01X050202Y037980D02*
G03X050121Y037989I-000053J-000114D01*
G01X049582Y038100D02*
G03X050121Y037989I000396J000555D01*
G01X049582Y038100D02*
G03X049383Y037980I-000072J-000103D01*
G01X049103Y038447D02*
G03X049383Y037980I-000395J-000554D01*
G01X049103Y038447D02*
G03X049302Y038567I000073J000104D01*
G01X051675Y051609D02*
G03X051675Y051609I-000681J0D01*
G01X052899Y053641D02*
G03X052899Y053637I000127J-000003D01*
G01X050613Y053637D02*
G03X052899Y053637I001143J000004D01*
G01X050613Y053637D02*
G03X050612Y053641I-000127J000000D01*
G01X050612Y053641D02*
G03X050613Y053644I-000126J000003D01*
G01X051752Y054784D02*
G03X050613Y053644I000004J-001143D01*
G01X051752Y054784D02*
G03X051756Y054784I000000J000127D01*
X051759Y054784I000003J000127*
G01X052899Y053644D02*
G03X051759Y054784I-001143J-000003D01*
G01X052899Y053644D02*
G03X052899Y053641I000127J000000D01*
G01X052899Y056181D02*
G03X052899Y056177I000127J-000003D01*
G01X051759Y055038D02*
G03X052899Y056177I-000003J001143D01*
G01X051759Y055038D02*
G03X051756Y055037I000000J-000127D01*
G01X051756Y055037D02*
G03X051752Y055038I-000003J-000126D01*
G01X050613Y056177D02*
G03X051752Y055038I001143J000004D01*
G01X050613Y056177D02*
G03X050612Y056181I-000127J000000D01*
G01X050612Y056181D02*
G03X050613Y056184I-000126J000003D01*
G01X052899Y056184D02*
G03X050613Y056184I-001143J-000003D01*
G01X052899Y056184D02*
G03X052899Y056181I000127J000000D01*
G01X048627Y039925D02*
G03X048627Y039925I-000681J0D01*
G01X050359Y053641D02*
G03X050359Y053637I000127J-000003D01*
G01X048073Y053637D02*
G03X050359Y053637I001143J000004D01*
G01X048073Y053637D02*
G03X048072Y053641I-000127J000000D01*
G01X048072Y053641D02*
G03X048073Y053644I-000126J000003D01*
G01X049212Y054784D02*
G03X048073Y053644I000004J-001143D01*
G01X049212Y054784D02*
G03X049216Y054784I000000J000127D01*
X049219Y054784I000003J000127*
G01X050359Y053644D02*
G03X049219Y054784I-001143J-000003D01*
G01X050359Y053644D02*
G03X050359Y053641I000127J000000D01*
G01X050359Y056181D02*
G03X050359Y056177I000127J-000003D01*
G01X049219Y055038D02*
G03X050359Y056177I-000003J001143D01*
G01X049219Y055038D02*
G03X049216Y055037I000000J-000127D01*
G01X049216Y055037D02*
G03X049212Y055038I-000003J-000126D01*
G01X048073Y056177D02*
G03X049212Y055038I001143J000004D01*
G01X048073Y056177D02*
G03X048072Y056181I-000127J000000D01*
G01X048072Y056181D02*
G03X048073Y056184I-000126J000003D01*
G01X050359Y056184D02*
G03X048073Y056184I-001143J-000003D01*
G01X050359Y056184D02*
G03X050359Y056181I000127J000000D01*
G01X046041Y033321D02*
G03X046041Y033317I000127J-000003D01*
G01X043755Y033317D02*
G03X046041Y033317I001143J000004D01*
G01X043755Y033317D02*
G03X043754Y033321I-000127J000000D01*
G01X043754Y033321D02*
G03X043755Y033324I-000126J000003D01*
G01X044894Y034464D02*
G03X043755Y033324I000004J-001143D01*
G01X044894Y034464D02*
G03X044898Y034464I000000J000127D01*
X044901Y034464I000003J000127*
G01X046041Y033324D02*
G03X044901Y034464I-001143J-000003D01*
G01X046041Y033324D02*
G03X046041Y033321I000127J000000D01*
G01X046041Y035861D02*
G03X046041Y035857I000127J-000003D01*
G01X044901Y034718D02*
G03X046041Y035857I-000003J001143D01*
G01X044901Y034718D02*
G03X044898Y034717I000000J-000127D01*
G01X044898Y034717D02*
G03X044894Y034718I-000003J-000126D01*
G01X043755Y035857D02*
G03X044894Y034718I001143J000004D01*
G01X043755Y035857D02*
G03X043754Y035861I-000127J000000D01*
G01X043754Y035861D02*
G03X043755Y035864I-000126J000003D01*
G01X046041Y035864D02*
G03X043755Y035864I-001143J-000003D01*
G01X046041Y035864D02*
G03X046041Y035861I000127J000000D01*
G01X046087Y041957D02*
G03X046087Y041957I-000681J0D01*
G01X047819Y053641D02*
G03X047819Y053637I000127J-000003D01*
G01X045533Y053637D02*
G03X047819Y053637I001143J000004D01*
G01X045533Y053637D02*
G03X045532Y053641I-000127J000000D01*
G01X045532Y053641D02*
G03X045533Y053644I-000126J000003D01*
G01X046672Y054784D02*
G03X045533Y053644I000004J-001143D01*
G01X046672Y054784D02*
G03X046676Y054784I000000J000127D01*
X046679Y054784I000003J000127*
G01X047819Y053644D02*
G03X046679Y054784I-001143J-000003D01*
G01X047819Y053644D02*
G03X047819Y053641I000127J000000D01*
G01X047819Y056181D02*
G03X047819Y056177I000127J-000003D01*
G01X046679Y055038D02*
G03X047819Y056177I-000003J001143D01*
G01X046679Y055038D02*
G03X046676Y055037I000000J-000127D01*
G01X046676Y055037D02*
G03X046672Y055038I-000003J-000126D01*
G01X045533Y056177D02*
G03X046672Y055038I001143J000004D01*
G01X045533Y056177D02*
G03X045532Y056181I-000127J000000D01*
G01X045532Y056181D02*
G03X045533Y056184I-000126J000003D01*
G01X047819Y056184D02*
G03X045533Y056184I-001143J-000003D01*
G01X047819Y056184D02*
G03X047819Y056181I000127J000000D01*
G01X043501Y033321D02*
G03X043501Y033317I000127J-000003D01*
G01X041215Y033317D02*
G03X043501Y033317I001143J000004D01*
G01X041215Y033317D02*
G03X041214Y033321I-000127J000000D01*
G01X041214Y033321D02*
G03X041215Y033324I-000126J000003D01*
G01X042354Y034464D02*
G03X041215Y033324I000004J-001143D01*
G01X042354Y034464D02*
G03X042358Y034464I000000J000127D01*
X042361Y034464I000003J000127*
G01X043501Y033324D02*
G03X042361Y034464I-001143J-000003D01*
G01X043501Y033324D02*
G03X043501Y033321I000127J000000D01*
G01X043501Y035861D02*
G03X043501Y035857I000127J-000003D01*
G01X042361Y034718D02*
G03X043501Y035857I-000003J001143D01*
G01X042361Y034718D02*
G03X042358Y034717I000000J-000127D01*
G01X042358Y034717D02*
G03X042354Y034718I-000003J-000126D01*
G01X041215Y035857D02*
G03X042354Y034718I001143J000004D01*
G01X041215Y035857D02*
G03X041214Y035861I-000127J000000D01*
G01X041214Y035861D02*
G03X041215Y035864I-000126J000003D01*
G01X043501Y035864D02*
G03X041215Y035864I-001143J-000003D01*
G01X043501Y035864D02*
G03X043501Y035861I000127J000000D01*
G01X045279Y053641D02*
G03X045279Y053637I000127J-000003D01*
G01X042993Y053637D02*
G03X045279Y053637I001143J000004D01*
G01X042993Y053637D02*
G03X042992Y053641I-000127J000000D01*
G01X042992Y053641D02*
G03X042993Y053644I-000126J000003D01*
G01X044132Y054784D02*
G03X042993Y053644I000004J-001143D01*
G01X044132Y054784D02*
G03X044136Y054784I000000J000127D01*
X044139Y054784I000003J000127*
G01X045279Y053644D02*
G03X044139Y054784I-001143J-000003D01*
G01X045279Y053644D02*
G03X045279Y053641I000127J000000D01*
G01X045279Y056181D02*
G03X045279Y056177I000127J-000003D01*
G01X044139Y055038D02*
G03X045279Y056177I-000003J001143D01*
G01X044139Y055038D02*
G03X044136Y055037I000000J-000127D01*
G01X044136Y055037D02*
G03X044132Y055038I-000003J-000126D01*
G01X042993Y056177D02*
G03X044132Y055038I001143J000004D01*
G01X042993Y056177D02*
G03X042992Y056181I-000127J000000D01*
G01X042992Y056181D02*
G03X042993Y056184I-000126J000003D01*
G01X045279Y056184D02*
G03X042993Y056184I-001143J-000003D01*
G01X045279Y056184D02*
G03X045279Y056181I000127J000000D01*
G01X040797Y036639D02*
G03X039645Y037100I-000471J000492D01*
G01X040797Y036639D02*
G03X040779Y036479I000088J-000090D01*
G01X040961Y035864D02*
G03X040779Y036479I-001143J-000003D01*
G01X040961Y035864D02*
G03X040961Y035861I000127J000000D01*
X040961Y035857I000127J-000003*
G01X039821Y034718D02*
G03X040961Y035857I-000003J001143D01*
G01X039821Y034718D02*
G03X039818Y034717I000000J-000127D01*
G01X039818Y034717D02*
G03X039814Y034718I-000003J-000126D01*
G01X038675Y035856D02*
G03X039814Y034718I001143J000005D01*
G01X038675Y035856D02*
G03X038674Y035861I-000126J-000000D01*
G01X038674Y035861D02*
G03X038675Y035865I-000125J000005D01*
G01X039548Y036971D02*
G03X038675Y035865I000270J-001110D01*
G01X039548Y036971D02*
G03X039645Y037100I-000029J000124D01*
G01X042023Y040941D02*
G03X042023Y040941I-000681J0D01*
G01X042739Y053641D02*
G03X042739Y053637I000127J-000003D01*
G01X042024Y052581D02*
G03X042739Y053637I-000428J001060D01*
G01X042024Y052581D02*
G03X041957Y052409I000047J-000117D01*
G01X040854Y052592D02*
G03X041957Y052409I000488J-000475D01*
G01X040854Y052592D02*
G03X040847Y052777I-000090J000089D01*
G01X040453Y053637D02*
G03X040847Y052777I001143J000004D01*
G01X040453Y053637D02*
G03X040452Y053641I-000127J000000D01*
G01X040452Y053641D02*
G03X040453Y053644I-000126J000003D01*
G01X041592Y054784D02*
G03X040453Y053644I000004J-001143D01*
G01X041592Y054784D02*
G03X041596Y054784I000000J000127D01*
X041599Y054784I000003J000127*
G01X042739Y053644D02*
G03X041599Y054784I-001143J-000003D01*
G01X042739Y053644D02*
G03X042739Y053641I000127J000000D01*
G01X042739Y056181D02*
G03X042739Y056177I000127J-000003D01*
G01X041599Y055038D02*
G03X042739Y056177I-000003J001143D01*
G01X041599Y055038D02*
G03X041596Y055037I000000J-000127D01*
G01X041596Y055037D02*
G03X041592Y055038I-000003J-000126D01*
G01X040453Y056177D02*
G03X041592Y055038I001143J000004D01*
G01X040453Y056177D02*
G03X040452Y056181I-000127J000000D01*
G01X040452Y056181D02*
G03X040453Y056184I-000126J000003D01*
G01X042739Y056184D02*
G03X040453Y056184I-001143J-000003D01*
G01X042739Y056184D02*
G03X042739Y056181I000127J000000D01*
G01X038421Y033321D02*
G03X038421Y033317I000127J-000003D01*
G01X037273Y034464D02*
G03X038421Y033317I000005J-001143D01*
G01X037273Y034464D02*
G03X037278Y034464I-000000J000126D01*
X037282Y034464I000005J000126*
G01X038421Y033324D02*
G03X037282Y034464I-001143J-000003D01*
G01X038421Y033324D02*
G03X038421Y033321I000127J000000D01*
G01X038421Y035861D02*
G03X038421Y035855I000127J-000005D01*
G01X038421Y035855D02*
X038421Y035099D01*
X038040Y034717D02*
G03X038421Y035099I000000J000382D01*
G01X038040Y034717D02*
X037283Y034717D01*
X037283Y034717D02*
G03X037278Y034717I000000J-000126D01*
G01X037278Y034717D02*
G03X037272Y034717I-000005J-000126D01*
G01X037272Y034717D02*
X036516Y034717D01*
X036134Y035099D02*
G03X036516Y034717I000382J000000D01*
G01X036134Y035099D02*
X036134Y036623D01*
X036516Y037004D02*
G03X036134Y036623I000000J-000381D01*
G01X036516Y037004D02*
X038040Y037004D01*
X038421Y036623D02*
G03X038040Y037004I-000381J000000D01*
G01X038421Y036623D02*
X038421Y035866D01*
G03X038421Y035861I000127J000000*
G01X036435Y039163D02*
G03X036435Y039163I-000681J0D01*
G01X036435Y041195D02*
G03X036435Y041195I-000681J0D01*
G01X038294Y048942D02*
X038294Y047418D01*
X037913Y047036D02*
G03X038294Y047418I000000J000382D01*
G01X037913Y047036D02*
X036389Y047036D01*
X036007Y047418D02*
G03X036389Y047036I000382J000000D01*
G01X036007Y047418D02*
X036007Y048174D01*
X036007Y048174D02*
G03X036007Y048180I-000126J000000D01*
G01X036007Y048180D02*
G03X036007Y048185I-000126J000005D01*
G01X036007Y048185D02*
X036007Y048942D01*
X036389Y049323D02*
G03X036007Y048942I000000J-000381D01*
G01X036389Y049323D02*
X037913Y049323D01*
X038294Y048942D02*
G03X037913Y049323I-000381J000000D01*
G01X040199Y053641D02*
G03X040199Y053637I000127J-000003D01*
G01X037913Y053637D02*
G03X040199Y053637I001143J000004D01*
G01X037913Y053637D02*
G03X037912Y053641I-000127J000000D01*
G01X037912Y053641D02*
G03X037913Y053644I-000126J000003D01*
G01X039052Y054784D02*
G03X037913Y053644I000004J-001143D01*
G01X039052Y054784D02*
G03X039056Y054784I000000J000127D01*
X039059Y054784I000003J000127*
G01X040199Y053644D02*
G03X039059Y054784I-001143J-000003D01*
G01X040199Y053644D02*
G03X040199Y053641I000127J000000D01*
G01X040199Y056181D02*
G03X040199Y056177I000127J-000003D01*
G01X039059Y055038D02*
G03X040199Y056177I-000003J001143D01*
G01X039059Y055038D02*
G03X039056Y055037I000000J-000127D01*
G01X039056Y055037D02*
G03X039052Y055038I-000003J-000126D01*
G01X037913Y056176D02*
G03X039052Y055038I001143J000005D01*
G01X037913Y056176D02*
G03X037912Y056181I-000126J-000000D01*
G01X037912Y056181D02*
G03X037913Y056185I-000125J000005D01*
G01X040199Y056184D02*
G03X037913Y056185I-001143J-000003D01*
G01X040199Y056184D02*
G03X040199Y056181I000127J000000D01*
G01X034164Y034461D02*
G03X034164Y034461I-001756J0D01*
G01X035754Y048180D02*
G03X035754Y048175I000126J-000005D01*
G01X035754Y048184D02*
G03X035754Y048175I-001143J-000004D01*
G01X035754Y048184D02*
G03X035754Y048180I000126J000001D01*
G01X037659Y053641D02*
G03X037659Y053637I000127J-000003D01*
G01X036511Y054784D02*
G03X037659Y053637I000005J-001143D01*
G01X036511Y054784D02*
G03X036516Y054784I-000000J000126D01*
X036520Y054784I000005J000126*
G01X037659Y053644D02*
G03X036520Y054784I-001143J-000003D01*
G01X037659Y053644D02*
G03X037659Y053641I000127J000000D01*
G01X037659Y056181D02*
G03X037659Y056175I000127J-000005D01*
G01X037659Y056175D02*
X037659Y055419D01*
X037278Y055037D02*
G03X037659Y055419I000000J000382D01*
G01X037278Y055037D02*
X036521Y055037D01*
X036521Y055037D02*
G03X036516Y055037I000000J-000126D01*
G01X036516Y055037D02*
G03X036510Y055037I-000005J-000126D01*
G01X036510Y055037D02*
X035754Y055037D01*
X035372Y055419D02*
G03X035754Y055037I000382J000000D01*
G01X035372Y055419D02*
X035372Y056943D01*
X035754Y057324D02*
G03X035372Y056943I000000J-000381D01*
G01X035754Y057324D02*
X037278Y057324D01*
X037659Y056943D02*
G03X037278Y057324I-000381J000000D01*
G01X037659Y056943D02*
X037659Y056186D01*
G03X037659Y056181I000127J000000*
G01X063821Y035861D02*
G03X063821Y035857I000127J-000003D01*
G01X062681Y034718D02*
G03X063821Y035857I-000003J001143D01*
G01X062681Y034718D02*
G03X062678Y034717I000000J-000127D01*
G01X062678Y034717D02*
G03X062674Y034718I-000003J-000126D01*
G01X061535Y035857D02*
G03X062674Y034718I001143J000004D01*
G01X061535Y035857D02*
G03X061534Y035861I-000127J000000D01*
G01X061534Y035861D02*
G03X061535Y035864I-000126J000003D01*
G01X063821Y035864D02*
G03X061535Y035864I-001143J-000003D01*
G01X063821Y035864D02*
G03X063821Y035861I000127J000000D01*
G01X069709Y038147D02*
G03X069709Y038147I-000681J0D01*
G01X070410Y040894D02*
G03X070130Y041361I000396J000555D01*
G01X070410Y040894D02*
G03X070211Y040774I-000072J-000103D01*
G01X069931Y041241D02*
G03X070211Y040774I-000395J-000554D01*
G01X069931Y041241D02*
G03X070130Y041361I000073J000104D01*
G01X070471Y043227D02*
G03X070471Y043227I-000681J0D01*
G01X030293Y058390D02*
X092014Y058390D01*
X030293Y058161D02*
X092014Y058161D01*
X030293Y057933D02*
X092014Y057933D01*
X030293Y057704D02*
X092014Y057704D01*
X030293Y057476D02*
X092014Y057476D01*
X085187Y057247D02*
X092014Y057247D01*
X085553Y057018D02*
X092014Y057018D01*
X085743Y056790D02*
X092014Y056790D01*
X085853Y056561D02*
X092014Y056561D01*
X085908Y056333D02*
X092014Y056333D01*
X085916Y056104D02*
X092014Y056104D01*
X085877Y055875D02*
X092014Y055875D01*
X085786Y055647D02*
X092014Y055647D01*
X085627Y055418D02*
X092014Y055418D01*
X085345Y055190D02*
X092014Y055190D01*
X030293Y054961D02*
X092014Y054961D01*
X085114Y054732D02*
X092014Y054732D01*
X085525Y054504D02*
X092014Y054504D01*
X085726Y054275D02*
X092014Y054275D01*
X085844Y054047D02*
X092014Y054047D01*
X085905Y053818D02*
X092014Y053818D01*
X091623Y053589D02*
X092014Y053589D01*
X091681Y053361D02*
X092014Y053361D01*
X091681Y053132D02*
X092014Y053132D01*
X091681Y052904D02*
X092014Y052904D01*
X091681Y052675D02*
X092014Y052675D01*
X091681Y052446D02*
X092014Y052446D01*
X091681Y052218D02*
X092014Y052218D01*
X091681Y051989D02*
X092014Y051989D01*
X091681Y051761D02*
X092014Y051761D01*
X091681Y051532D02*
X092014Y051532D01*
X091681Y051303D02*
X092014Y051303D01*
X091681Y051075D02*
X092014Y051075D01*
X091681Y050846D02*
X092014Y050846D01*
X091681Y050618D02*
X092014Y050618D01*
X091681Y050389D02*
X092014Y050389D01*
X091681Y050160D02*
X092014Y050160D01*
X091681Y049932D02*
X092014Y049932D01*
X091681Y049703D02*
X092014Y049703D01*
X091681Y049475D02*
X092014Y049475D01*
X091681Y049246D02*
X092014Y049246D01*
X091681Y049017D02*
X092014Y049017D01*
X091681Y048789D02*
X092014Y048789D01*
X091681Y048560D02*
X092014Y048560D01*
X091681Y048332D02*
X092014Y048332D01*
X091681Y048103D02*
X092014Y048103D01*
X091681Y047874D02*
X092014Y047874D01*
X091681Y047646D02*
X092014Y047646D01*
X091681Y047417D02*
X092014Y047417D01*
X091681Y047189D02*
X092014Y047189D01*
X091681Y046960D02*
X092014Y046960D01*
X091681Y046731D02*
X092014Y046731D01*
X091681Y046503D02*
X092014Y046503D01*
X091681Y046274D02*
X092014Y046274D01*
X091681Y046046D02*
X092014Y046046D01*
X091681Y045817D02*
X092014Y045817D01*
X091681Y045588D02*
X092014Y045588D01*
X091681Y045360D02*
X092014Y045360D01*
X091681Y045131D02*
X092014Y045131D01*
X091681Y044903D02*
X092014Y044903D01*
X091622Y044674D02*
X092014Y044674D01*
X072980Y044445D02*
X092014Y044445D01*
X073010Y044217D02*
X092014Y044217D01*
X076847Y043988D02*
X092014Y043988D01*
X077015Y043760D02*
X092014Y043760D01*
X077073Y043531D02*
X092014Y043531D01*
X077051Y043302D02*
X092014Y043302D01*
X076940Y043074D02*
X092014Y043074D01*
X076639Y042845D02*
X092014Y042845D01*
X075291Y042617D02*
X092014Y042617D01*
X075650Y042388D02*
X092014Y042388D01*
X075774Y042159D02*
X092014Y042159D01*
X075804Y041931D02*
X092014Y041931D01*
X075755Y041702D02*
X092014Y041702D01*
X088591Y041474D02*
X092014Y041474D01*
X088709Y041245D02*
X092014Y041245D01*
X088713Y041016D02*
X092014Y041016D01*
X088713Y040788D02*
X092014Y040788D01*
X088713Y040559D02*
X092014Y040559D01*
X088713Y040331D02*
X092014Y040331D01*
X088713Y040102D02*
X092014Y040102D01*
X088713Y039873D02*
X092014Y039873D01*
X088712Y039645D02*
X092014Y039645D01*
X088615Y039416D02*
X092014Y039416D01*
X073733Y039188D02*
X092014Y039188D01*
X073596Y038959D02*
X092014Y038959D01*
X069378Y038730D02*
X092014Y038730D01*
X069608Y038502D02*
X092014Y038502D01*
X069697Y038273D02*
X092014Y038273D01*
X069701Y038045D02*
X092014Y038045D01*
X069623Y037816D02*
X092014Y037816D01*
X069416Y037587D02*
X092014Y037587D01*
X067168Y037359D02*
X092014Y037359D01*
X067119Y037130D02*
X092014Y037130D01*
X086009Y036902D02*
X092014Y036902D01*
X086341Y036673D02*
X092014Y036673D01*
X086520Y036444D02*
X092014Y036444D01*
X086624Y036216D02*
X092014Y036216D01*
X091007Y035987D02*
X092014Y035987D01*
X091438Y035759D02*
X092014Y035759D01*
X091696Y035530D02*
X092014Y035530D01*
X091564Y033015D02*
X092014Y033015D01*
X091233Y032787D02*
X092014Y032787D01*
X086389Y032558D02*
X092014Y032558D01*
X086107Y032330D02*
X092014Y032330D01*
X066883Y032101D02*
X092014Y032101D01*
X066760Y031872D02*
X092014Y031872D01*
X066426Y031644D02*
X092014Y031644D01*
X091782Y033244D02*
X091992Y033244D01*
X086673Y035987D02*
X089808Y035987D01*
X086548Y032787D02*
X089582Y032787D01*
X086676Y035759D02*
X089377Y035759D01*
X086639Y033015D02*
X089251Y033015D01*
X086632Y035530D02*
X089119Y035530D01*
X086678Y033244D02*
X089033Y033244D01*
X086534Y035301D02*
X088940Y035301D01*
X086670Y033473D02*
X088879Y033473D01*
X086366Y035073D02*
X088813Y035073D01*
X086615Y033701D02*
X088770Y033701D01*
X086061Y034844D02*
X088726Y034844D01*
X086505Y033930D02*
X088699Y033930D01*
X070178Y034616D02*
X088674Y034616D01*
X086315Y034158D02*
X088661Y034158D01*
X085949Y034387D02*
X088652Y034387D01*
X072856Y044674D02*
X088184Y044674D01*
X085917Y053589D02*
X088184Y053589D01*
X085884Y053361D02*
X088125Y053361D01*
X085799Y053132D02*
X088125Y053132D01*
X085649Y052904D02*
X088125Y052904D01*
X085387Y052675D02*
X088125Y052675D01*
X071979Y052446D02*
X088125Y052446D01*
X071987Y052218D02*
X088125Y052218D01*
X071983Y051989D02*
X088125Y051989D01*
X071894Y051761D02*
X088125Y051761D01*
X071663Y051532D02*
X088125Y051532D01*
X065352Y051303D02*
X088125Y051303D01*
X063862Y051075D02*
X088125Y051075D01*
X060083Y050846D02*
X088125Y050846D01*
X078341Y050618D02*
X088125Y050618D01*
X083133Y050389D02*
X088125Y050389D01*
X083339Y050160D02*
X088125Y050160D01*
X083417Y049932D02*
X088125Y049932D01*
X083413Y049703D02*
X088125Y049703D01*
X083324Y049475D02*
X088125Y049475D01*
X083093Y049246D02*
X088125Y049246D01*
X069453Y049017D02*
X088125Y049017D01*
X069394Y048789D02*
X088125Y048789D01*
X069227Y048560D02*
X088125Y048560D01*
X064374Y048332D02*
X088125Y048332D01*
X064343Y048103D02*
X088125Y048103D01*
X064290Y047874D02*
X088125Y047874D01*
X071364Y047646D02*
X088125Y047646D01*
X071624Y047417D02*
X088125Y047417D01*
X071723Y047189D02*
X088125Y047189D01*
X071736Y046960D02*
X088125Y046960D01*
X071668Y046731D02*
X088125Y046731D01*
X078398Y046503D02*
X088125Y046503D01*
X078550Y046274D02*
X088125Y046274D01*
X078598Y046046D02*
X088125Y046046D01*
X078567Y045817D02*
X088125Y045817D01*
X078444Y045588D02*
X088125Y045588D01*
X078082Y045360D02*
X088125Y045360D01*
X075942Y045131D02*
X088125Y045131D01*
X075680Y044903D02*
X088125Y044903D01*
X085501Y041474D02*
X086548Y041474D01*
X085553Y039416D02*
X086524Y039416D01*
X085833Y041245D02*
X086430Y041245D01*
X085858Y039645D02*
X086427Y039645D01*
X086012Y041016D02*
X086426Y041016D01*
X086116Y040788D02*
X086426Y040788D01*
X086165Y040559D02*
X086426Y040559D01*
X086168Y040331D02*
X086426Y040331D01*
X086124Y040102D02*
X086426Y040102D01*
X086026Y039873D02*
X086426Y039873D01*
X083409Y034387D02*
X085126Y034387D01*
X083469Y036902D02*
X085066Y036902D01*
X083521Y034844D02*
X085014Y034844D01*
X083567Y032330D02*
X084968Y032330D01*
X083775Y034158D02*
X084760Y034158D01*
X083801Y036673D02*
X084734Y036673D01*
X083826Y035073D02*
X084709Y035073D01*
X083849Y032558D02*
X084686Y032558D01*
X083965Y033930D02*
X084570Y033930D01*
X082961Y041474D02*
X084558Y041474D01*
X083980Y036444D02*
X084555Y036444D01*
X083994Y035301D02*
X084541Y035301D01*
X084008Y032787D02*
X084527Y032787D01*
X083013Y039416D02*
X084506Y039416D01*
X084075Y033701D02*
X084460Y033701D01*
X084084Y036216D02*
X084451Y036216D01*
X084092Y035530D02*
X084443Y035530D01*
X082574Y054732D02*
X084437Y054732D01*
X084099Y033015D02*
X084436Y033015D01*
X084130Y033473D02*
X084405Y033473D01*
X084133Y035987D02*
X084402Y035987D01*
X084136Y035759D02*
X084399Y035759D01*
X084138Y033244D02*
X084397Y033244D01*
X082647Y057247D02*
X084364Y057247D01*
X083293Y041245D02*
X084226Y041245D01*
X082805Y055190D02*
X084206Y055190D01*
X083318Y039645D02*
X084201Y039645D01*
X082847Y052675D02*
X084164Y052675D01*
X083472Y041016D02*
X084047Y041016D01*
X083486Y039873D02*
X084033Y039873D01*
X082985Y054504D02*
X084026Y054504D01*
X083013Y057018D02*
X083998Y057018D01*
X083576Y040788D02*
X083943Y040788D01*
X083584Y040102D02*
X083935Y040102D01*
X083087Y055418D02*
X083924Y055418D01*
X083109Y052904D02*
X083902Y052904D01*
X083625Y040559D02*
X083894Y040559D01*
X083628Y040331D02*
X083891Y040331D01*
X083186Y054275D02*
X083825Y054275D01*
X083203Y056790D02*
X083808Y056790D01*
X083246Y055647D02*
X083765Y055647D01*
X083259Y053132D02*
X083752Y053132D01*
X083304Y054047D02*
X083707Y054047D01*
X083313Y056561D02*
X083698Y056561D01*
X083337Y055875D02*
X083674Y055875D01*
X083344Y053361D02*
X083667Y053361D01*
X083365Y053818D02*
X083646Y053818D01*
X083368Y056333D02*
X083643Y056333D01*
X083376Y056104D02*
X083635Y056104D01*
X083377Y053589D02*
X083634Y053589D01*
X080869Y034387D02*
X082586Y034387D01*
X080929Y036902D02*
X082526Y036902D01*
X080981Y034844D02*
X082474Y034844D01*
X081027Y032330D02*
X082428Y032330D01*
X080807Y049246D02*
X082394Y049246D01*
X080847Y050389D02*
X082354Y050389D01*
X081235Y034158D02*
X082220Y034158D01*
X081261Y036673D02*
X082194Y036673D01*
X081286Y035073D02*
X082169Y035073D01*
X081038Y049475D02*
X082163Y049475D01*
X081053Y050160D02*
X082148Y050160D01*
X081309Y032558D02*
X082146Y032558D01*
X081127Y049703D02*
X082075Y049703D01*
X081131Y049932D02*
X082070Y049932D01*
X081425Y033930D02*
X082030Y033930D01*
X080421Y041474D02*
X082018Y041474D01*
X081440Y036444D02*
X082015Y036444D01*
X081454Y035301D02*
X082001Y035301D01*
X081468Y032787D02*
X081987Y032787D01*
X080473Y039416D02*
X081966Y039416D01*
X081535Y033701D02*
X081920Y033701D01*
X081544Y036216D02*
X081911Y036216D01*
X081552Y035530D02*
X081903Y035530D01*
X080034Y054732D02*
X081897Y054732D01*
X081559Y033015D02*
X081896Y033015D01*
X081590Y033473D02*
X081865Y033473D01*
X081593Y035987D02*
X081862Y035987D01*
X081596Y035759D02*
X081859Y035759D01*
X081598Y033244D02*
X081857Y033244D01*
X080107Y057247D02*
X081824Y057247D01*
X080753Y041245D02*
X081686Y041245D01*
X080265Y055190D02*
X081666Y055190D01*
X080778Y039645D02*
X081661Y039645D01*
X080307Y052675D02*
X081624Y052675D01*
X080932Y041016D02*
X081507Y041016D01*
X080946Y039873D02*
X081493Y039873D01*
X080445Y054504D02*
X081486Y054504D01*
X080473Y057018D02*
X081458Y057018D01*
X081036Y040788D02*
X081403Y040788D01*
X081044Y040102D02*
X081395Y040102D01*
X080547Y055418D02*
X081384Y055418D01*
X080569Y052904D02*
X081362Y052904D01*
X081085Y040559D02*
X081354Y040559D01*
X081088Y040331D02*
X081351Y040331D01*
X080646Y054275D02*
X081285Y054275D01*
X080663Y056790D02*
X081268Y056790D01*
X080706Y055647D02*
X081225Y055647D01*
X080719Y053132D02*
X081212Y053132D01*
X080764Y054047D02*
X081167Y054047D01*
X080773Y056561D02*
X081158Y056561D01*
X080797Y055875D02*
X081134Y055875D01*
X080804Y053361D02*
X081127Y053361D01*
X080825Y053818D02*
X081106Y053818D01*
X080828Y056333D02*
X081103Y056333D01*
X080836Y056104D02*
X081095Y056104D01*
X080837Y053589D02*
X081094Y053589D01*
X069431Y049246D02*
X080108Y049246D01*
X078527Y050389D02*
X080068Y050389D01*
X078329Y034387D02*
X080046Y034387D01*
X078389Y036902D02*
X079986Y036902D01*
X078441Y034844D02*
X079934Y034844D01*
X078487Y032330D02*
X079888Y032330D01*
X078220Y049475D02*
X079877Y049475D01*
X078594Y050160D02*
X079862Y050160D01*
X078482Y049703D02*
X079789Y049703D01*
X078581Y049932D02*
X079784Y049932D01*
X078695Y034158D02*
X079680Y034158D01*
X078721Y036673D02*
X079654Y036673D01*
X078746Y035073D02*
X079629Y035073D01*
X078769Y032558D02*
X079606Y032558D01*
X078885Y033930D02*
X079490Y033930D01*
X077881Y041474D02*
X079478Y041474D01*
X078900Y036444D02*
X079475Y036444D01*
X078914Y035301D02*
X079461Y035301D01*
X078928Y032787D02*
X079447Y032787D01*
X077933Y039416D02*
X079426Y039416D01*
X078995Y033701D02*
X079380Y033701D01*
X079004Y036216D02*
X079371Y036216D01*
X079012Y035530D02*
X079363Y035530D01*
X077494Y054732D02*
X079357Y054732D01*
X079019Y033015D02*
X079356Y033015D01*
X079050Y033473D02*
X079325Y033473D01*
X079053Y035987D02*
X079322Y035987D01*
X079056Y035759D02*
X079319Y035759D01*
X079058Y033244D02*
X079317Y033244D01*
X077567Y057247D02*
X079284Y057247D01*
X078213Y041245D02*
X079146Y041245D01*
X077725Y055190D02*
X079126Y055190D01*
X078238Y039645D02*
X079121Y039645D01*
X077767Y052675D02*
X079084Y052675D01*
X078392Y041016D02*
X078967Y041016D01*
X078406Y039873D02*
X078953Y039873D01*
X077905Y054504D02*
X078946Y054504D01*
X077933Y057018D02*
X078918Y057018D01*
X078496Y040788D02*
X078863Y040788D01*
X078504Y040102D02*
X078855Y040102D01*
X078007Y055418D02*
X078844Y055418D01*
X078029Y052904D02*
X078822Y052904D01*
X078545Y040559D02*
X078814Y040559D01*
X078548Y040331D02*
X078811Y040331D01*
X078106Y054275D02*
X078745Y054275D01*
X078123Y056790D02*
X078728Y056790D01*
X078166Y055647D02*
X078685Y055647D01*
X078179Y053132D02*
X078672Y053132D01*
X078224Y054047D02*
X078627Y054047D01*
X078233Y056561D02*
X078618Y056561D01*
X078257Y055875D02*
X078594Y055875D01*
X078264Y053361D02*
X078587Y053361D01*
X078285Y053818D02*
X078566Y053818D01*
X078288Y056333D02*
X078563Y056333D01*
X078296Y056104D02*
X078555Y056104D01*
X078297Y053589D02*
X078554Y053589D01*
X076041Y045360D02*
X077753Y045360D01*
X069320Y049475D02*
X077615Y049475D01*
X075789Y034387D02*
X077506Y034387D01*
X060251Y050618D02*
X077494Y050618D01*
X075849Y036902D02*
X077446Y036902D01*
X071482Y046503D02*
X077437Y046503D01*
X075901Y034844D02*
X077394Y034844D01*
X076054Y045588D02*
X077391Y045588D01*
X069020Y049703D02*
X077353Y049703D01*
X075947Y032330D02*
X077348Y032330D01*
X063575Y050389D02*
X077308Y050389D01*
X071045Y046274D02*
X077286Y046274D01*
X075987Y045817D02*
X077268Y045817D01*
X068316Y049932D02*
X077254Y049932D01*
X063781Y050160D02*
X077241Y050160D01*
X075801Y046046D02*
X077237Y046046D01*
X076155Y034158D02*
X077140Y034158D01*
X076181Y036673D02*
X077114Y036673D01*
X076206Y035073D02*
X077089Y035073D01*
X076229Y032558D02*
X077066Y032558D01*
X076345Y033930D02*
X076950Y033930D01*
X075604Y041474D02*
X076938Y041474D01*
X076360Y036444D02*
X076935Y036444D01*
X076374Y035301D02*
X076921Y035301D01*
X076388Y032787D02*
X076907Y032787D01*
X073773Y039416D02*
X076886Y039416D01*
X076455Y033701D02*
X076840Y033701D01*
X076464Y036216D02*
X076831Y036216D01*
X076472Y035530D02*
X076823Y035530D01*
X074954Y054732D02*
X076817Y054732D01*
X076479Y033015D02*
X076816Y033015D01*
X076510Y033473D02*
X076785Y033473D01*
X076513Y035987D02*
X076782Y035987D01*
X076516Y035759D02*
X076779Y035759D01*
X076518Y033244D02*
X076777Y033244D01*
X075027Y057247D02*
X076744Y057247D01*
X075358Y041245D02*
X076606Y041245D01*
X075185Y055190D02*
X076586Y055190D01*
X073733Y039645D02*
X076581Y039645D01*
X075227Y052675D02*
X076544Y052675D01*
X075728Y041016D02*
X076427Y041016D01*
X075766Y039873D02*
X076413Y039873D01*
X075365Y054504D02*
X076406Y054504D01*
X075393Y057018D02*
X076378Y057018D01*
X075958Y040788D02*
X076323Y040788D01*
X075973Y040102D02*
X076315Y040102D01*
X075467Y055418D02*
X076304Y055418D01*
X075489Y052904D02*
X076282Y052904D01*
X076063Y040559D02*
X076252Y040559D01*
X076093Y040331D02*
X076221Y040331D01*
X075566Y054275D02*
X076205Y054275D01*
X075583Y056790D02*
X076188Y056790D01*
X072894Y042845D02*
X076148Y042845D01*
X075626Y055647D02*
X076145Y055647D01*
X075639Y053132D02*
X076132Y053132D01*
X075684Y054047D02*
X076087Y054047D01*
X075693Y056561D02*
X076078Y056561D01*
X075717Y055875D02*
X076054Y055875D01*
X075724Y053361D02*
X076047Y053361D01*
X075745Y053818D02*
X076026Y053818D01*
X075748Y056333D02*
X076023Y056333D01*
X075756Y056104D02*
X076015Y056104D01*
X075757Y053589D02*
X076014Y053589D01*
X072961Y043988D02*
X075940Y043988D01*
X072993Y043074D02*
X075847Y043074D01*
X072833Y043760D02*
X075772Y043760D01*
X073006Y043302D02*
X075736Y043302D01*
X072939Y043531D02*
X075714Y043531D01*
X071455Y041245D02*
X075107Y041245D01*
X072705Y044903D02*
X075075Y044903D01*
X071332Y041016D02*
X075027Y041016D01*
X073597Y039873D02*
X074989Y039873D01*
X073249Y034387D02*
X074966Y034387D01*
X072632Y042617D02*
X074956Y042617D01*
X072753Y046046D02*
X074954Y046046D01*
X073309Y036902D02*
X074906Y036902D01*
X073361Y034844D02*
X074854Y034844D01*
X072894Y045131D02*
X074813Y045131D01*
X073407Y032330D02*
X074808Y032330D01*
X070970Y040788D02*
X074797Y040788D01*
X069885Y040102D02*
X074782Y040102D01*
X072939Y045817D02*
X074768Y045817D01*
X072993Y045360D02*
X074714Y045360D01*
X070205Y040559D02*
X074708Y040559D01*
X070116Y040331D02*
X074704Y040331D01*
X073006Y045588D02*
X074701Y045588D01*
X071486Y041474D02*
X074643Y041474D01*
X073615Y034158D02*
X074600Y034158D01*
X064289Y042388D02*
X074597Y042388D01*
X073641Y036673D02*
X074574Y036673D01*
X073666Y035073D02*
X074549Y035073D01*
X073689Y032558D02*
X074526Y032558D01*
X071438Y041702D02*
X074492Y041702D01*
X064082Y042159D02*
X074473Y042159D01*
X071286Y041931D02*
X074443Y041931D01*
X073805Y033930D02*
X074410Y033930D01*
X073820Y036444D02*
X074395Y036444D01*
X073834Y035301D02*
X074381Y035301D01*
X073848Y032787D02*
X074367Y032787D01*
X073915Y033701D02*
X074300Y033701D01*
X073924Y036216D02*
X074291Y036216D01*
X073932Y035530D02*
X074283Y035530D01*
X072414Y054732D02*
X074277Y054732D01*
X073939Y033015D02*
X074276Y033015D01*
X073970Y033473D02*
X074245Y033473D01*
X073973Y035987D02*
X074242Y035987D01*
X073976Y035759D02*
X074239Y035759D01*
X073978Y033244D02*
X074237Y033244D01*
X072487Y057247D02*
X074204Y057247D01*
X072645Y055190D02*
X074046Y055190D01*
X072687Y052675D02*
X074004Y052675D01*
X072825Y054504D02*
X073866Y054504D01*
X072853Y057018D02*
X073838Y057018D01*
X072927Y055418D02*
X073764Y055418D01*
X072949Y052904D02*
X073742Y052904D01*
X073026Y054275D02*
X073665Y054275D01*
X073043Y056790D02*
X073648Y056790D01*
X073086Y055647D02*
X073605Y055647D01*
X073099Y053132D02*
X073592Y053132D01*
X073144Y054047D02*
X073547Y054047D01*
X073153Y056561D02*
X073538Y056561D01*
X073177Y055875D02*
X073514Y055875D01*
X073184Y053361D02*
X073507Y053361D01*
X073205Y053818D02*
X073486Y053818D01*
X073208Y056333D02*
X073483Y056333D01*
X073216Y056104D02*
X073475Y056104D01*
X073217Y053589D02*
X073474Y053589D01*
X050587Y038959D02*
X072587Y038959D01*
X063286Y039873D02*
X072586Y039873D01*
X050401Y039188D02*
X072450Y039188D01*
X063100Y039645D02*
X072450Y039645D01*
X070709Y034387D02*
X072426Y034387D01*
X048399Y039416D02*
X072410Y039416D01*
X070769Y036902D02*
X072366Y036902D01*
X070821Y034844D02*
X072314Y034844D01*
X070867Y032330D02*
X072268Y032330D01*
X071075Y034158D02*
X072060Y034158D01*
X071101Y036673D02*
X072034Y036673D01*
X070092Y042617D02*
X072027Y042617D01*
X071126Y035073D02*
X072009Y035073D01*
X071149Y032558D02*
X071986Y032558D01*
X071108Y044903D02*
X071954Y044903D01*
X071229Y046046D02*
X071906Y046046D01*
X071265Y033930D02*
X071870Y033930D01*
X071280Y036444D02*
X071855Y036444D01*
X071294Y035301D02*
X071841Y035301D01*
X071308Y032787D02*
X071827Y032787D01*
X070213Y043760D02*
X071826Y043760D01*
X064289Y044674D02*
X071803Y044674D01*
X071370Y045131D02*
X071765Y045131D01*
X070354Y042845D02*
X071765Y042845D01*
X071375Y033701D02*
X071760Y033701D01*
X071384Y036216D02*
X071751Y036216D01*
X071392Y035530D02*
X071743Y035530D01*
X069874Y054732D02*
X071737Y054732D01*
X071399Y033015D02*
X071736Y033015D01*
X071415Y045817D02*
X071720Y045817D01*
X070399Y043531D02*
X071720Y043531D01*
X071430Y033473D02*
X071705Y033473D01*
X071433Y035987D02*
X071702Y035987D01*
X071436Y035759D02*
X071699Y035759D01*
X064147Y043988D02*
X071698Y043988D01*
X071438Y033244D02*
X071697Y033244D01*
X064082Y044445D02*
X071679Y044445D01*
X070453Y043074D02*
X071666Y043074D01*
X069947Y057247D02*
X071664Y057247D01*
X070466Y043302D02*
X071653Y043302D01*
X063838Y044217D02*
X071649Y044217D01*
X071516Y045360D02*
X071619Y045360D01*
X070105Y055190D02*
X071506Y055190D01*
X070285Y054504D02*
X071326Y054504D01*
X070313Y057018D02*
X071298Y057018D01*
X070387Y055418D02*
X071224Y055418D01*
X070409Y052904D02*
X071182Y052904D01*
X070486Y054275D02*
X071125Y054275D01*
X070503Y056790D02*
X071108Y056790D01*
X070546Y055647D02*
X071065Y055647D01*
X070559Y053132D02*
X071052Y053132D01*
X070604Y054047D02*
X071007Y054047D01*
X070613Y056561D02*
X070998Y056561D01*
X070637Y055875D02*
X070974Y055875D01*
X070644Y053361D02*
X070967Y053361D01*
X065559Y051532D02*
X070964Y051532D01*
X070665Y053818D02*
X070946Y053818D01*
X070668Y056333D02*
X070943Y056333D01*
X070676Y056104D02*
X070935Y056104D01*
X070677Y053589D02*
X070934Y053589D01*
X070147Y052675D02*
X070924Y052675D01*
X064147Y046274D02*
X070820Y046274D01*
X064367Y047646D02*
X070755Y047646D01*
X065637Y051761D02*
X070733Y051761D01*
X065314Y052446D02*
X070718Y052446D01*
X065633Y051989D02*
X070645Y051989D01*
X070210Y040788D02*
X070641Y040788D01*
X065544Y052218D02*
X070640Y052218D01*
X030293Y046503D02*
X070637Y046503D01*
X064367Y044903D02*
X070503Y044903D01*
X064363Y047417D02*
X070495Y047417D01*
X030293Y046731D02*
X070451Y046731D01*
X064274Y047189D02*
X070396Y047189D01*
X064043Y046960D02*
X070383Y046960D01*
X064315Y046046D02*
X070382Y046046D01*
X066460Y041931D02*
X070325Y041931D01*
X064363Y045131D02*
X070241Y045131D01*
X064373Y045817D02*
X070196Y045817D01*
X066612Y041702D02*
X070174Y041702D01*
X064282Y045360D02*
X070142Y045360D01*
X064351Y045588D02*
X070129Y045588D01*
X066660Y041474D02*
X070125Y041474D01*
X069925Y041245D02*
X070083Y041245D01*
X068229Y036902D02*
X069826Y036902D01*
X068327Y032330D02*
X069728Y032330D01*
X068561Y036673D02*
X069494Y036673D01*
X064367Y042617D02*
X069487Y042617D01*
X068609Y032558D02*
X069446Y032558D01*
X064315Y043760D02*
X069366Y043760D01*
X068740Y036444D02*
X069315Y036444D01*
X068768Y032787D02*
X069287Y032787D01*
X064363Y042845D02*
X069225Y042845D01*
X068844Y036216D02*
X069211Y036216D01*
X068852Y035530D02*
X069202Y035530D01*
X067334Y054732D02*
X069197Y054732D01*
X068859Y033015D02*
X069196Y033015D01*
X067853Y040102D02*
X069186Y040102D01*
X064373Y043531D02*
X069180Y043531D01*
X068893Y035987D02*
X069162Y035987D01*
X068896Y035759D02*
X069159Y035759D01*
X068898Y033244D02*
X069157Y033244D01*
X067893Y041245D02*
X069146Y041245D01*
X064282Y043074D02*
X069126Y043074D01*
X067407Y057247D02*
X069124Y057247D01*
X064351Y043302D02*
X069113Y043302D01*
X068840Y035301D02*
X069030Y035301D01*
X067565Y055190D02*
X068966Y055190D01*
X068084Y040331D02*
X068955Y040331D01*
X068099Y041016D02*
X068940Y041016D01*
X067607Y052675D02*
X068924Y052675D01*
X068586Y035073D02*
X068891Y035073D01*
X068173Y040559D02*
X068867Y040559D01*
X068177Y040788D02*
X068862Y040788D01*
X068281Y034844D02*
X068854Y034844D01*
X067745Y054504D02*
X068786Y054504D01*
X067773Y057018D02*
X068758Y057018D01*
X067847Y055418D02*
X068684Y055418D01*
X066838Y038730D02*
X068677Y038730D01*
X067869Y052904D02*
X068662Y052904D01*
X067138Y037587D02*
X068639Y037587D01*
X034157Y034616D02*
X068604Y034616D01*
X067946Y054275D02*
X068585Y054275D01*
X067963Y056790D02*
X068568Y056790D01*
X068006Y055647D02*
X068525Y055647D01*
X068019Y053132D02*
X068512Y053132D01*
X068064Y054047D02*
X068467Y054047D01*
X068073Y056561D02*
X068458Y056561D01*
X067068Y038502D02*
X068447Y038502D01*
X068097Y055875D02*
X068434Y055875D01*
X067084Y037816D02*
X068432Y037816D01*
X068104Y053361D02*
X068427Y053361D01*
X068169Y034387D02*
X068417Y034387D01*
X068125Y053818D02*
X068406Y053818D01*
X068128Y056333D02*
X068403Y056333D01*
X068136Y056104D02*
X068395Y056104D01*
X068137Y053589D02*
X068394Y053589D01*
X067157Y038273D02*
X068358Y038273D01*
X067161Y038045D02*
X068354Y038045D01*
X064336Y048560D02*
X068320Y048560D01*
X065014Y049932D02*
X067707Y049932D01*
X065132Y048789D02*
X067589Y048789D01*
X065274Y049703D02*
X067447Y049703D01*
X065318Y049017D02*
X067403Y049017D01*
X065373Y049475D02*
X067348Y049475D01*
X065629Y034387D02*
X067346Y034387D01*
X065386Y049246D02*
X067335Y049246D01*
X067120Y036902D02*
X067286Y036902D01*
X065741Y034844D02*
X067234Y034844D01*
X066928Y032330D02*
X067188Y032330D01*
X066075Y040102D02*
X067154Y040102D01*
X066629Y041245D02*
X067114Y041245D01*
X065995Y034158D02*
X066980Y034158D01*
X066046Y035073D02*
X066929Y035073D01*
X066306Y040331D02*
X066923Y040331D01*
X066506Y041016D02*
X066908Y041016D01*
X066125Y036673D02*
X066850Y036673D01*
X066395Y040559D02*
X066835Y040559D01*
X066399Y040788D02*
X066830Y040788D01*
X066185Y033930D02*
X066790Y033930D01*
X066200Y036444D02*
X066775Y036444D01*
X066214Y035301D02*
X066761Y035301D01*
X066295Y033701D02*
X066680Y033701D01*
X066304Y036216D02*
X066671Y036216D01*
X066312Y035530D02*
X066663Y035530D01*
X064794Y054732D02*
X066657Y054732D01*
X066354Y033015D02*
X066632Y033015D01*
X066350Y033473D02*
X066625Y033473D01*
X066353Y035987D02*
X066622Y035987D01*
X066356Y035759D02*
X066619Y035759D01*
X066358Y033244D02*
X066617Y033244D01*
X064867Y057247D02*
X066584Y057247D01*
X065025Y055190D02*
X066426Y055190D01*
X065104Y052675D02*
X066384Y052675D01*
X065205Y054504D02*
X066246Y054504D01*
X065233Y057018D02*
X066218Y057018D01*
X065307Y055418D02*
X066144Y055418D01*
X050654Y038730D02*
X066137Y038730D01*
X065329Y052904D02*
X066122Y052904D01*
X065406Y054275D02*
X066045Y054275D01*
X039465Y031644D02*
X066041Y031644D01*
X065423Y056790D02*
X066028Y056790D01*
X065466Y055647D02*
X065985Y055647D01*
X065479Y053132D02*
X065972Y053132D01*
X065524Y054047D02*
X065927Y054047D01*
X065533Y056561D02*
X065918Y056561D01*
X050641Y038502D02*
X065907Y038502D01*
X065557Y055875D02*
X065894Y055875D01*
X064982Y037816D02*
X065892Y037816D01*
X065564Y053361D02*
X065887Y053361D01*
X065585Y053818D02*
X065866Y053818D01*
X065588Y056333D02*
X065863Y056333D01*
X065096Y037130D02*
X065856Y037130D01*
X065689Y036902D02*
X065855Y036902D01*
X065596Y056104D02*
X065855Y056104D01*
X065597Y053589D02*
X065854Y053589D01*
X065106Y037587D02*
X065837Y037587D01*
X050542Y038273D02*
X065818Y038273D01*
X064623Y038045D02*
X065814Y038045D01*
X065136Y037359D02*
X065807Y037359D01*
X039478Y031872D02*
X065707Y031872D01*
X039435Y032101D02*
X065584Y032101D01*
X046086Y041931D02*
X065499Y041931D01*
X063354Y040102D02*
X065376Y040102D01*
X046037Y041702D02*
X065348Y041702D01*
X041951Y041245D02*
X065306Y041245D01*
X045886Y041474D02*
X065299Y041474D01*
X063341Y040331D02*
X065145Y040331D01*
X059472Y041016D02*
X065130Y041016D01*
X063242Y040559D02*
X065057Y040559D01*
X062982Y040788D02*
X065052Y040788D01*
X063089Y034387D02*
X064806Y034387D01*
X063201Y034844D02*
X064694Y034844D01*
X063247Y032330D02*
X064648Y032330D01*
X064048Y051303D02*
X064575Y051303D01*
X041946Y052446D02*
X064445Y052446D01*
X063455Y034158D02*
X064440Y034158D01*
X063859Y049932D02*
X064405Y049932D01*
X063506Y035073D02*
X064389Y035073D01*
X063744Y052218D02*
X064383Y052218D01*
X064117Y051532D02*
X064368Y051532D01*
X063481Y036673D02*
X064313Y036673D01*
X064004Y051989D02*
X064294Y051989D01*
X061321Y038045D02*
X064288Y038045D01*
X063645Y033930D02*
X064250Y033930D01*
X063660Y036444D02*
X064235Y036444D01*
X063674Y035301D02*
X064221Y035301D01*
X063855Y049703D02*
X064145Y049703D01*
X063764Y036216D02*
X064131Y036216D01*
X063772Y035530D02*
X064123Y035530D01*
X062254Y054732D02*
X064117Y054732D01*
X063813Y035987D02*
X064082Y035987D01*
X063816Y035759D02*
X064079Y035759D01*
X057994Y049017D02*
X064053Y049017D01*
X063766Y049475D02*
X064045Y049475D01*
X062327Y057247D02*
X064044Y057247D01*
X063535Y049246D02*
X064033Y049246D01*
X063149Y036902D02*
X063975Y036902D01*
X061680Y037816D02*
X063929Y037816D01*
X062485Y055190D02*
X063886Y055190D01*
X062527Y052675D02*
X063844Y052675D01*
X061785Y037130D02*
X063824Y037130D01*
X061804Y037587D02*
X063805Y037587D01*
X061834Y037359D02*
X063775Y037359D01*
X062665Y054504D02*
X063706Y054504D01*
X062693Y057018D02*
X063678Y057018D01*
X062767Y055418D02*
X063604Y055418D01*
X062789Y052904D02*
X063582Y052904D01*
X059005Y044217D02*
X063549Y044217D01*
X062866Y054275D02*
X063505Y054275D01*
X062883Y056790D02*
X063488Y056790D01*
X062926Y055647D02*
X063445Y055647D01*
X062939Y053132D02*
X063432Y053132D01*
X062984Y054047D02*
X063387Y054047D01*
X062993Y056561D02*
X063378Y056561D01*
X063017Y055875D02*
X063354Y055875D01*
X063024Y053361D02*
X063347Y053361D01*
X030293Y046960D02*
X063344Y046960D01*
X063045Y053818D02*
X063326Y053818D01*
X063048Y056333D02*
X063323Y056333D01*
X063056Y056104D02*
X063315Y056104D01*
X063057Y053589D02*
X063314Y053589D01*
X058865Y044445D02*
X063305Y044445D01*
X059764Y042159D02*
X063305Y042159D01*
X030293Y046274D02*
X063240Y046274D01*
X059575Y043988D02*
X063240Y043988D01*
X058024Y048789D02*
X063213Y048789D01*
X051298Y052218D02*
X063135Y052218D01*
X038217Y047189D02*
X063113Y047189D01*
X058017Y045360D02*
X063105Y045360D01*
X059956Y043074D02*
X063105Y043074D01*
X057693Y044674D02*
X063098Y044674D01*
X059971Y042388D02*
X063098Y042388D01*
X038294Y047874D02*
X063097Y047874D01*
X030293Y046046D02*
X063072Y046046D01*
X059743Y043760D02*
X063072Y043760D01*
X057975Y048560D02*
X063062Y048560D01*
X038294Y048103D02*
X063044Y048103D01*
X057939Y045588D02*
X063036Y045588D01*
X059788Y043302D02*
X063036Y043302D01*
X038294Y047417D02*
X063025Y047417D01*
X058013Y045131D02*
X063024Y045131D01*
X060045Y042845D02*
X063024Y042845D01*
X057924Y044903D02*
X063020Y044903D01*
X060049Y042617D02*
X063020Y042617D01*
X038294Y047646D02*
X063020Y047646D01*
X051416Y051075D02*
X063017Y051075D01*
X057733Y045817D02*
X063014Y045817D01*
X059801Y043531D02*
X063014Y043531D01*
X057824Y048332D02*
X063013Y048332D01*
X051558Y051989D02*
X062875Y051989D01*
X057870Y049246D02*
X062836Y049246D01*
X051602Y051303D02*
X062831Y051303D01*
X060309Y050389D02*
X062796Y050389D01*
X051657Y051761D02*
X062776Y051761D01*
X051670Y051532D02*
X062763Y051532D01*
X057511Y049475D02*
X062605Y049475D01*
X060287Y050160D02*
X062590Y050160D01*
X059875Y049703D02*
X062517Y049703D01*
X060176Y049932D02*
X062512Y049932D01*
X059702Y040788D02*
X062373Y040788D01*
X060549Y034387D02*
X062266Y034387D01*
X048566Y039645D02*
X062255Y039645D01*
X061634Y036902D02*
X062206Y036902D01*
X060661Y034844D02*
X062154Y034844D01*
X059791Y040559D02*
X062113Y040559D01*
X060707Y032330D02*
X062108Y032330D01*
X059510Y039873D02*
X062069Y039873D01*
X059795Y040331D02*
X062014Y040331D01*
X059717Y040102D02*
X062001Y040102D01*
X060915Y034158D02*
X061900Y034158D01*
X061103Y036673D02*
X061874Y036673D01*
X060966Y035073D02*
X061849Y035073D01*
X060989Y032558D02*
X061826Y032558D01*
X061105Y033930D02*
X061710Y033930D01*
X061120Y036444D02*
X061695Y036444D01*
X061134Y035301D02*
X061681Y035301D01*
X061148Y032787D02*
X061667Y032787D01*
X061215Y033701D02*
X061600Y033701D01*
X061224Y036216D02*
X061591Y036216D01*
X061232Y035530D02*
X061583Y035530D01*
X059714Y054732D02*
X061577Y054732D01*
X061239Y033015D02*
X061576Y033015D01*
X061270Y033473D02*
X061545Y033473D01*
X061273Y035987D02*
X061542Y035987D01*
X061276Y035759D02*
X061539Y035759D01*
X061278Y033244D02*
X061537Y033244D01*
X059787Y057247D02*
X061504Y057247D01*
X059945Y055190D02*
X061346Y055190D01*
X059987Y052675D02*
X061304Y052675D01*
X060125Y054504D02*
X061166Y054504D01*
X060153Y057018D02*
X061138Y057018D01*
X060227Y055418D02*
X061064Y055418D01*
X060249Y052904D02*
X061042Y052904D01*
X050280Y038045D02*
X060986Y038045D01*
X060326Y054275D02*
X060965Y054275D01*
X060343Y056790D02*
X060948Y056790D01*
X060386Y055647D02*
X060905Y055647D01*
X060399Y053132D02*
X060892Y053132D01*
X060444Y054047D02*
X060847Y054047D01*
X060453Y056561D02*
X060838Y056561D01*
X060477Y055875D02*
X060814Y055875D01*
X060484Y053361D02*
X060807Y053361D01*
X060505Y053818D02*
X060786Y053818D01*
X060508Y056333D02*
X060783Y056333D01*
X060516Y056104D02*
X060775Y056104D01*
X060517Y053589D02*
X060774Y053589D01*
X049384Y037816D02*
X060627Y037816D01*
X051167Y037130D02*
X060520Y037130D01*
X050991Y037587D02*
X060503Y037587D01*
X051127Y037359D02*
X060473Y037359D01*
X058009Y034387D02*
X059726Y034387D01*
X058069Y036902D02*
X059666Y036902D01*
X058121Y034844D02*
X059614Y034844D01*
X058167Y032330D02*
X059568Y032330D01*
X057251Y049703D02*
X059384Y049703D01*
X058375Y034158D02*
X059360Y034158D01*
X058401Y036673D02*
X059334Y036673D01*
X058426Y035073D02*
X059309Y035073D01*
X058449Y032558D02*
X059286Y032558D01*
X030293Y050846D02*
X059176Y050846D01*
X058565Y033930D02*
X059170Y033930D01*
X058580Y036444D02*
X059155Y036444D01*
X058594Y035301D02*
X059141Y035301D01*
X058608Y032787D02*
X059127Y032787D01*
X057162Y049932D02*
X059083Y049932D01*
X058675Y033701D02*
X059060Y033701D01*
X058684Y036216D02*
X059051Y036216D01*
X058692Y035530D02*
X059043Y035530D01*
X057174Y054732D02*
X059037Y054732D01*
X058699Y033015D02*
X059036Y033015D01*
X030293Y050618D02*
X059008Y050618D01*
X058730Y033473D02*
X059005Y033473D01*
X058733Y035987D02*
X059002Y035987D01*
X058736Y035759D02*
X058999Y035759D01*
X058738Y033244D02*
X058997Y033244D01*
X046056Y042159D02*
X058987Y042159D01*
X056932Y050160D02*
X058972Y050160D01*
X057247Y057247D02*
X058964Y057247D01*
X030293Y050389D02*
X058950Y050389D01*
X057405Y055190D02*
X058806Y055190D01*
X045932Y042388D02*
X058780Y042388D01*
X042018Y041016D02*
X058771Y041016D01*
X057447Y052675D02*
X058764Y052675D01*
X048625Y039873D02*
X058733Y039873D01*
X053017Y042845D02*
X058706Y042845D01*
X045573Y042617D02*
X058702Y042617D01*
X057585Y054504D02*
X058626Y054504D01*
X057613Y057018D02*
X058598Y057018D01*
X053318Y043074D02*
X058575Y043074D01*
X042005Y040788D02*
X058541Y040788D01*
X048603Y040102D02*
X058526Y040102D01*
X057687Y055418D02*
X058524Y055418D01*
X057709Y052904D02*
X058502Y052904D01*
X048192Y040559D02*
X058452Y040559D01*
X048492Y040331D02*
X058448Y040331D01*
X057786Y054275D02*
X058425Y054275D01*
X057803Y056790D02*
X058408Y056790D01*
X053429Y043302D02*
X058407Y043302D01*
X057846Y055647D02*
X058365Y055647D01*
X057859Y053132D02*
X058352Y053132D01*
X057904Y054047D02*
X058307Y054047D01*
X057913Y056561D02*
X058298Y056561D01*
X057937Y055875D02*
X058274Y055875D01*
X057944Y053361D02*
X058267Y053361D01*
X057965Y053818D02*
X058246Y053818D01*
X057968Y056333D02*
X058243Y056333D01*
X057976Y056104D02*
X058235Y056104D01*
X057977Y053589D02*
X058234Y053589D01*
X053451Y043531D02*
X057855Y043531D01*
X030293Y044445D02*
X057854Y044445D01*
X053393Y043760D02*
X057718Y043760D01*
X030293Y044217D02*
X057718Y044217D01*
X053225Y043988D02*
X057678Y043988D01*
X055469Y034387D02*
X057186Y034387D01*
X055529Y036902D02*
X057126Y036902D01*
X055581Y034844D02*
X057074Y034844D01*
X055627Y032330D02*
X057028Y032330D01*
X030293Y044674D02*
X056994Y044674D01*
X030293Y045817D02*
X056954Y045817D01*
X038294Y048332D02*
X056863Y048332D01*
X055835Y034158D02*
X056820Y034158D01*
X055861Y036673D02*
X056794Y036673D01*
X055886Y035073D02*
X056769Y035073D01*
X030293Y044903D02*
X056763Y044903D01*
X030293Y045588D02*
X056748Y045588D01*
X055909Y032558D02*
X056746Y032558D01*
X038294Y048560D02*
X056712Y048560D01*
X030293Y045131D02*
X056675Y045131D01*
X030293Y045360D02*
X056670Y045360D01*
X038294Y048789D02*
X056662Y048789D01*
X056025Y033930D02*
X056630Y033930D01*
X056040Y036444D02*
X056615Y036444D01*
X056054Y035301D02*
X056601Y035301D01*
X056068Y032787D02*
X056587Y032787D01*
X056135Y033701D02*
X056520Y033701D01*
X056144Y036216D02*
X056511Y036216D01*
X056152Y035530D02*
X056503Y035530D01*
X054634Y054732D02*
X056497Y054732D01*
X056159Y033015D02*
X056496Y033015D01*
X056190Y033473D02*
X056465Y033473D01*
X056193Y035987D02*
X056462Y035987D01*
X056196Y035759D02*
X056459Y035759D01*
X056198Y033244D02*
X056457Y033244D01*
X054707Y057247D02*
X056424Y057247D01*
X054865Y055190D02*
X056266Y055190D01*
X030293Y050160D02*
X056231Y050160D01*
X054907Y052675D02*
X056224Y052675D01*
X038286Y049017D02*
X056193Y049017D01*
X055045Y054504D02*
X056086Y054504D01*
X055073Y057018D02*
X056058Y057018D01*
X030293Y049932D02*
X056001Y049932D01*
X038142Y049246D02*
X055986Y049246D01*
X055147Y055418D02*
X055984Y055418D01*
X055169Y052904D02*
X055962Y052904D01*
X030293Y049703D02*
X055912Y049703D01*
X030293Y049475D02*
X055908Y049475D01*
X055246Y054275D02*
X055885Y054275D01*
X055263Y056790D02*
X055868Y056790D01*
X055306Y055647D02*
X055825Y055647D01*
X055319Y053132D02*
X055812Y053132D01*
X055364Y054047D02*
X055767Y054047D01*
X055373Y056561D02*
X055758Y056561D01*
X055397Y055875D02*
X055734Y055875D01*
X055404Y053361D02*
X055727Y053361D01*
X055425Y053818D02*
X055706Y053818D01*
X055428Y056333D02*
X055703Y056333D01*
X055436Y056104D02*
X055695Y056104D01*
X055437Y053589D02*
X055694Y053589D01*
X052929Y034387D02*
X054646Y034387D01*
X052989Y036902D02*
X054586Y036902D01*
X053041Y034844D02*
X054534Y034844D01*
X053087Y032330D02*
X054488Y032330D01*
X053295Y034158D02*
X054280Y034158D01*
X053321Y036673D02*
X054254Y036673D01*
X053346Y035073D02*
X054229Y035073D01*
X053369Y032558D02*
X054206Y032558D01*
X053485Y033930D02*
X054090Y033930D01*
X053500Y036444D02*
X054075Y036444D01*
X053514Y035301D02*
X054061Y035301D01*
X053528Y032787D02*
X054047Y032787D01*
X053595Y033701D02*
X053980Y033701D01*
X053604Y036216D02*
X053971Y036216D01*
X053612Y035530D02*
X053963Y035530D01*
X052094Y054732D02*
X053957Y054732D01*
X053619Y033015D02*
X053956Y033015D01*
X053650Y033473D02*
X053925Y033473D01*
X053653Y035987D02*
X053922Y035987D01*
X053656Y035759D02*
X053919Y035759D01*
X053658Y033244D02*
X053917Y033244D01*
X052167Y057247D02*
X053884Y057247D01*
X052325Y055190D02*
X053726Y055190D01*
X052367Y052675D02*
X053684Y052675D01*
X052505Y054504D02*
X053546Y054504D01*
X052533Y057018D02*
X053518Y057018D01*
X052607Y055418D02*
X053444Y055418D01*
X052629Y052904D02*
X053422Y052904D01*
X052706Y054275D02*
X053345Y054275D01*
X052723Y056790D02*
X053328Y056790D01*
X052766Y055647D02*
X053285Y055647D01*
X052779Y053132D02*
X053272Y053132D01*
X052824Y054047D02*
X053227Y054047D01*
X052833Y056561D02*
X053218Y056561D01*
X052857Y055875D02*
X053194Y055875D01*
X052864Y053361D02*
X053187Y053361D01*
X052885Y053818D02*
X053166Y053818D01*
X052888Y056333D02*
X053163Y056333D01*
X052896Y056104D02*
X053155Y056104D01*
X052897Y053589D02*
X053154Y053589D01*
X030293Y042845D02*
X052526Y042845D01*
X030293Y043988D02*
X052318Y043988D01*
X030293Y043074D02*
X052225Y043074D01*
X030293Y043760D02*
X052150Y043760D01*
X030293Y043302D02*
X052114Y043302D01*
X050389Y034387D02*
X052106Y034387D01*
X030293Y043531D02*
X052092Y043531D01*
X051127Y036902D02*
X052046Y036902D01*
X050501Y034844D02*
X051994Y034844D01*
X050547Y032330D02*
X051948Y032330D01*
X050755Y034158D02*
X051740Y034158D01*
X050990Y036673D02*
X051714Y036673D01*
X050806Y035073D02*
X051689Y035073D01*
X050829Y032558D02*
X051666Y032558D01*
X050945Y033930D02*
X051550Y033930D01*
X050960Y036444D02*
X051535Y036444D01*
X050974Y035301D02*
X051521Y035301D01*
X050988Y032787D02*
X051507Y032787D01*
X051055Y033701D02*
X051440Y033701D01*
X051064Y036216D02*
X051431Y036216D01*
X051072Y035530D02*
X051423Y035530D01*
X049554Y054732D02*
X051417Y054732D01*
X051079Y033015D02*
X051416Y033015D01*
X051110Y033473D02*
X051385Y033473D01*
X051113Y035987D02*
X051382Y035987D01*
X051116Y035759D02*
X051379Y035759D01*
X051118Y033244D02*
X051377Y033244D01*
X049627Y057247D02*
X051344Y057247D01*
X049785Y055190D02*
X051186Y055190D01*
X049827Y052675D02*
X051144Y052675D01*
X049965Y054504D02*
X051006Y054504D01*
X049993Y057018D02*
X050978Y057018D01*
X050067Y055418D02*
X050904Y055418D01*
X050089Y052904D02*
X050882Y052904D01*
X050166Y054275D02*
X050805Y054275D01*
X050183Y056790D02*
X050788Y056790D01*
X050226Y055647D02*
X050745Y055647D01*
X050239Y053132D02*
X050732Y053132D01*
X042015Y052218D02*
X050689Y052218D01*
X050284Y054047D02*
X050687Y054047D01*
X050293Y056561D02*
X050678Y056561D01*
X050317Y055875D02*
X050654Y055875D01*
X050324Y053361D02*
X050647Y053361D01*
X050345Y053818D02*
X050626Y053818D01*
X050348Y056333D02*
X050623Y056333D01*
X050356Y056104D02*
X050615Y056104D01*
X050357Y053589D02*
X050614Y053589D01*
X030293Y051075D02*
X050571Y051075D01*
X042011Y051989D02*
X050429Y051989D01*
X030293Y051303D02*
X050385Y051303D01*
X041922Y051761D02*
X050330Y051761D01*
X041691Y051532D02*
X050317Y051532D01*
X049316Y037587D02*
X049980Y037587D01*
X049130Y037359D02*
X049844Y037359D01*
X041007Y037130D02*
X049804Y037130D01*
X049391Y038045D02*
X049675Y038045D01*
X047849Y034387D02*
X049566Y034387D01*
X036434Y039188D02*
X049554Y039188D01*
X047909Y036902D02*
X049506Y036902D01*
X047961Y034844D02*
X049454Y034844D01*
X048007Y032330D02*
X049408Y032330D01*
X036403Y038959D02*
X049368Y038959D01*
X036280Y038730D02*
X049301Y038730D01*
X049012Y038502D02*
X049293Y038502D01*
X048215Y034158D02*
X049200Y034158D01*
X048241Y036673D02*
X049174Y036673D01*
X048266Y035073D02*
X049149Y035073D01*
X048289Y032558D02*
X049126Y032558D01*
X048405Y033930D02*
X049010Y033930D01*
X048420Y036444D02*
X048995Y036444D01*
X048434Y035301D02*
X048981Y035301D01*
X048448Y032787D02*
X048967Y032787D01*
X048515Y033701D02*
X048900Y033701D01*
X048524Y036216D02*
X048891Y036216D01*
X048532Y035530D02*
X048883Y035530D01*
X047014Y054732D02*
X048877Y054732D01*
X048539Y033015D02*
X048876Y033015D01*
X048570Y033473D02*
X048845Y033473D01*
X048573Y035987D02*
X048842Y035987D01*
X048576Y035759D02*
X048839Y035759D01*
X048578Y033244D02*
X048837Y033244D01*
X047087Y057247D02*
X048804Y057247D01*
X047245Y055190D02*
X048646Y055190D01*
X047287Y052675D02*
X048604Y052675D01*
X047425Y054504D02*
X048466Y054504D01*
X047453Y057018D02*
X048438Y057018D01*
X035918Y038502D02*
X048403Y038502D01*
X047527Y055418D02*
X048364Y055418D01*
X047549Y052904D02*
X048342Y052904D01*
X040967Y037359D02*
X048285Y037359D01*
X047626Y054275D02*
X048265Y054275D01*
X047643Y056790D02*
X048248Y056790D01*
X047686Y055647D02*
X048205Y055647D01*
X047699Y053132D02*
X048192Y053132D01*
X047744Y054047D02*
X048147Y054047D01*
X030293Y038273D02*
X048143Y038273D01*
X047753Y056561D02*
X048138Y056561D01*
X047777Y055875D02*
X048114Y055875D01*
X047784Y053361D02*
X048107Y053361D01*
X040831Y037587D02*
X048099Y037587D01*
X047805Y053818D02*
X048086Y053818D01*
X047808Y056333D02*
X048083Y056333D01*
X047816Y056104D02*
X048075Y056104D01*
X047817Y053589D02*
X048074Y053589D01*
X030293Y038045D02*
X048044Y038045D01*
X030293Y037816D02*
X048031Y037816D01*
X041906Y040559D02*
X047699Y040559D01*
X036386Y039416D02*
X047492Y039416D01*
X041644Y040331D02*
X047399Y040331D01*
X036234Y039645D02*
X047325Y039645D01*
X030293Y040102D02*
X047288Y040102D01*
X030293Y039873D02*
X047266Y039873D01*
X045309Y034387D02*
X047026Y034387D01*
X045369Y036902D02*
X046966Y036902D01*
X045421Y034844D02*
X046914Y034844D01*
X045467Y032330D02*
X046868Y032330D01*
X045675Y034158D02*
X046660Y034158D01*
X045701Y036673D02*
X046634Y036673D01*
X045726Y035073D02*
X046609Y035073D01*
X045749Y032558D02*
X046586Y032558D01*
X045865Y033930D02*
X046470Y033930D01*
X045880Y036444D02*
X046455Y036444D01*
X045894Y035301D02*
X046441Y035301D01*
X045908Y032787D02*
X046427Y032787D01*
X045975Y033701D02*
X046360Y033701D01*
X045984Y036216D02*
X046351Y036216D01*
X045992Y035530D02*
X046343Y035530D01*
X044474Y054732D02*
X046337Y054732D01*
X045999Y033015D02*
X046336Y033015D01*
X046030Y033473D02*
X046305Y033473D01*
X046033Y035987D02*
X046302Y035987D01*
X046036Y035759D02*
X046299Y035759D01*
X046038Y033244D02*
X046297Y033244D01*
X044547Y057247D02*
X046264Y057247D01*
X044705Y055190D02*
X046106Y055190D01*
X044747Y052675D02*
X046064Y052675D01*
X044885Y054504D02*
X045926Y054504D01*
X044913Y057018D02*
X045898Y057018D01*
X044987Y055418D02*
X045824Y055418D01*
X045009Y052904D02*
X045802Y052904D01*
X045086Y054275D02*
X045725Y054275D01*
X045103Y056790D02*
X045708Y056790D01*
X045146Y055647D02*
X045665Y055647D01*
X045159Y053132D02*
X045652Y053132D01*
X045204Y054047D02*
X045607Y054047D01*
X045213Y056561D02*
X045598Y056561D01*
X045237Y055875D02*
X045574Y055875D01*
X045244Y053361D02*
X045567Y053361D01*
X045265Y053818D02*
X045546Y053818D01*
X045268Y056333D02*
X045543Y056333D01*
X045276Y056104D02*
X045535Y056104D01*
X045277Y053589D02*
X045534Y053589D01*
X030293Y042617D02*
X045238Y042617D01*
X041765Y041474D02*
X044925Y041474D01*
X030293Y042388D02*
X044879Y042388D01*
X036207Y041702D02*
X044774Y041702D01*
X030293Y042159D02*
X044755Y042159D01*
X030293Y041931D02*
X044725Y041931D01*
X042769Y034387D02*
X044486Y034387D01*
X042829Y036902D02*
X044426Y036902D01*
X042881Y034844D02*
X044374Y034844D01*
X042927Y032330D02*
X044328Y032330D01*
X043135Y034158D02*
X044120Y034158D01*
X043161Y036673D02*
X044094Y036673D01*
X043186Y035073D02*
X044069Y035073D01*
X043209Y032558D02*
X044046Y032558D01*
X043325Y033930D02*
X043930Y033930D01*
X043340Y036444D02*
X043915Y036444D01*
X043354Y035301D02*
X043901Y035301D01*
X043368Y032787D02*
X043887Y032787D01*
X043435Y033701D02*
X043820Y033701D01*
X043444Y036216D02*
X043811Y036216D01*
X043452Y035530D02*
X043803Y035530D01*
X041934Y054732D02*
X043797Y054732D01*
X043459Y033015D02*
X043796Y033015D01*
X043490Y033473D02*
X043765Y033473D01*
X043493Y035987D02*
X043762Y035987D01*
X043496Y035759D02*
X043759Y035759D01*
X043498Y033244D02*
X043757Y033244D01*
X042007Y057247D02*
X043724Y057247D01*
X042165Y055190D02*
X043566Y055190D01*
X042207Y052675D02*
X043524Y052675D01*
X042345Y054504D02*
X043386Y054504D01*
X042373Y057018D02*
X043358Y057018D01*
X042447Y055418D02*
X043284Y055418D01*
X042469Y052904D02*
X043262Y052904D01*
X042546Y054275D02*
X043185Y054275D01*
X042563Y056790D02*
X043168Y056790D01*
X042606Y055647D02*
X043125Y055647D01*
X042619Y053132D02*
X043112Y053132D01*
X042664Y054047D02*
X043067Y054047D01*
X042673Y056561D02*
X043058Y056561D01*
X042697Y055875D02*
X043034Y055875D01*
X042704Y053361D02*
X043027Y053361D01*
X042725Y053818D02*
X043006Y053818D01*
X042728Y056333D02*
X043003Y056333D01*
X042736Y056104D02*
X042995Y056104D01*
X042737Y053589D02*
X042994Y053589D01*
X040229Y034387D02*
X041946Y034387D01*
X040967Y036902D02*
X041886Y036902D01*
X040341Y034844D02*
X041834Y034844D01*
X040387Y032330D02*
X041788Y032330D01*
X040595Y034158D02*
X041580Y034158D01*
X040830Y036673D02*
X041554Y036673D01*
X040646Y035073D02*
X041529Y035073D01*
X040669Y032558D02*
X041506Y032558D01*
X040785Y033930D02*
X041390Y033930D01*
X040800Y036444D02*
X041375Y036444D01*
X040814Y035301D02*
X041361Y035301D01*
X040828Y032787D02*
X041347Y032787D01*
X040895Y033701D02*
X041280Y033701D01*
X040904Y036216D02*
X041271Y036216D01*
X040912Y035530D02*
X041263Y035530D01*
X039394Y054732D02*
X041257Y054732D01*
X040919Y033015D02*
X041256Y033015D01*
X040950Y033473D02*
X041225Y033473D01*
X040953Y035987D02*
X041222Y035987D01*
X040956Y035759D02*
X041219Y035759D01*
X040958Y033244D02*
X041217Y033244D01*
X039467Y057247D02*
X041184Y057247D01*
X030293Y040331D02*
X041039Y040331D01*
X039625Y055190D02*
X041026Y055190D01*
X030293Y051532D02*
X040992Y051532D01*
X036375Y041474D02*
X040918Y041474D01*
X039667Y052675D02*
X040890Y052675D01*
X039805Y054504D02*
X040846Y054504D01*
X039833Y057018D02*
X040818Y057018D01*
X035999Y040559D02*
X040777Y040559D01*
X030293Y051761D02*
X040761Y051761D01*
X030293Y052446D02*
X040746Y052446D01*
X039907Y055418D02*
X040744Y055418D01*
X036433Y041245D02*
X040732Y041245D01*
X039929Y052904D02*
X040722Y052904D01*
X036300Y040788D02*
X040678Y040788D01*
X030293Y051989D02*
X040673Y051989D01*
X030293Y052218D02*
X040668Y052218D01*
X036411Y041016D02*
X040665Y041016D01*
X040006Y054275D02*
X040645Y054275D01*
X040023Y056790D02*
X040628Y056790D01*
X040066Y055647D02*
X040585Y055647D01*
X040079Y053132D02*
X040572Y053132D01*
X040124Y054047D02*
X040527Y054047D01*
X040133Y056561D02*
X040518Y056561D01*
X040157Y055875D02*
X040494Y055875D01*
X040164Y053361D02*
X040487Y053361D01*
X040185Y053818D02*
X040466Y053818D01*
X040188Y056333D02*
X040463Y056333D01*
X040196Y056104D02*
X040455Y056104D01*
X040197Y053589D02*
X040454Y053589D01*
X030293Y037587D02*
X039820Y037587D01*
X030293Y037359D02*
X039684Y037359D01*
X030293Y037130D02*
X039644Y037130D01*
X037689Y034387D02*
X039406Y034387D01*
X038299Y036902D02*
X039346Y036902D01*
X038323Y034844D02*
X039294Y034844D01*
X038055Y034158D02*
X039040Y034158D01*
X038417Y036673D02*
X039014Y036673D01*
X038420Y035073D02*
X038989Y035073D01*
X038129Y032558D02*
X038888Y032558D01*
X038245Y033930D02*
X038850Y033930D01*
X038421Y036444D02*
X038835Y036444D01*
X038421Y035301D02*
X038821Y035301D01*
X038288Y032787D02*
X038807Y032787D01*
X038355Y033701D02*
X038740Y033701D01*
X038421Y036216D02*
X038731Y036216D01*
X038421Y035530D02*
X038723Y035530D01*
X036854Y054732D02*
X038717Y054732D01*
X038379Y033015D02*
X038716Y033015D01*
X038410Y033473D02*
X038685Y033473D01*
X038421Y035987D02*
X038682Y035987D01*
X038421Y035759D02*
X038679Y035759D01*
X038418Y033244D02*
X038677Y033244D01*
X037507Y057247D02*
X038644Y057247D01*
X037582Y055190D02*
X038486Y055190D01*
X037127Y052675D02*
X038444Y052675D01*
X037847Y032330D02*
X038378Y032330D01*
X037265Y054504D02*
X038306Y054504D01*
X037651Y057018D02*
X038278Y057018D01*
X037659Y055418D02*
X038204Y055418D01*
X030293Y032101D02*
X038192Y032101D01*
X037389Y052904D02*
X038182Y052904D01*
X030293Y031644D02*
X038138Y031644D01*
X030293Y031872D02*
X038125Y031872D01*
X037466Y054275D02*
X038105Y054275D01*
X037659Y056790D02*
X038088Y056790D01*
X037659Y055647D02*
X038045Y055647D01*
X037539Y053132D02*
X038032Y053132D01*
X037584Y054047D02*
X037987Y054047D01*
X037659Y056561D02*
X037978Y056561D01*
X037659Y055875D02*
X037954Y055875D01*
X037624Y053361D02*
X037947Y053361D01*
X037645Y053818D02*
X037926Y053818D01*
X037659Y056333D02*
X037923Y056333D01*
X037659Y056104D02*
X037915Y056104D01*
X037657Y053589D02*
X037914Y053589D01*
X034162Y034387D02*
X036866Y034387D01*
X030293Y032330D02*
X036708Y032330D01*
X034137Y034158D02*
X036500Y034158D01*
X030293Y032558D02*
X036426Y032558D01*
X034081Y033930D02*
X036310Y033930D01*
X032939Y032787D02*
X036267Y032787D01*
X030293Y036902D02*
X036256Y036902D01*
X034121Y034844D02*
X036232Y034844D01*
X033991Y033701D02*
X036200Y033701D01*
X030293Y054732D02*
X036177Y054732D01*
X033405Y033015D02*
X036176Y033015D01*
X035022Y049246D02*
X036159Y049246D01*
X033859Y033473D02*
X036145Y033473D01*
X030293Y036673D02*
X036138Y036673D01*
X033674Y033244D02*
X036137Y033244D01*
X034053Y035073D02*
X036135Y035073D01*
X030293Y036444D02*
X036134Y036444D01*
X032458Y036216D02*
X036134Y036216D01*
X033275Y035987D02*
X036134Y035987D01*
X033590Y035759D02*
X036134Y035759D01*
X033800Y035530D02*
X036134Y035530D01*
X033949Y035301D02*
X036134Y035301D01*
X035180Y047189D02*
X036084Y047189D01*
X035388Y049017D02*
X036015Y049017D01*
X035578Y048789D02*
X036007Y048789D01*
X035688Y048560D02*
X036007Y048560D01*
X035743Y048332D02*
X036007Y048332D01*
X035751Y048103D02*
X036007Y048103D01*
X035712Y047874D02*
X036007Y047874D01*
X035621Y047646D02*
X036007Y047646D01*
X035462Y047417D02*
X036007Y047417D01*
X030293Y052675D02*
X035904Y052675D01*
X030293Y054504D02*
X035766Y054504D01*
X030293Y052904D02*
X035642Y052904D01*
X030293Y038502D02*
X035589Y038502D01*
X030293Y054275D02*
X035565Y054275D01*
X030293Y057247D02*
X035524Y057247D01*
X030293Y040559D02*
X035508Y040559D01*
X030293Y053132D02*
X035492Y053132D01*
X030293Y055190D02*
X035449Y055190D01*
X030293Y054047D02*
X035447Y054047D01*
X030293Y053361D02*
X035407Y053361D01*
X030293Y053818D02*
X035386Y053818D01*
X030293Y057018D02*
X035380Y057018D01*
X030293Y053589D02*
X035374Y053589D01*
X030293Y056790D02*
X035372Y056790D01*
X030293Y056561D02*
X035372Y056561D01*
X030293Y056333D02*
X035372Y056333D01*
X030293Y056104D02*
X035372Y056104D01*
X030293Y055875D02*
X035372Y055875D01*
X030293Y055647D02*
X035372Y055647D01*
X030293Y055418D02*
X035372Y055418D01*
X030293Y041702D02*
X035300Y041702D01*
X030293Y039645D02*
X035273Y039645D01*
X030293Y038730D02*
X035227Y038730D01*
X030293Y040788D02*
X035207Y040788D01*
X030293Y041474D02*
X035132Y041474D01*
X030293Y039416D02*
X035122Y039416D01*
X030293Y038959D02*
X035104Y038959D01*
X030293Y041016D02*
X035096Y041016D01*
X030293Y041245D02*
X035074Y041245D01*
X030293Y039188D02*
X035073Y039188D01*
X030293Y049246D02*
X034199Y049246D01*
X030293Y047189D02*
X034041Y047189D01*
X030293Y049017D02*
X033833Y049017D01*
X030293Y047417D02*
X033759Y047417D01*
X030293Y048789D02*
X033643Y048789D01*
X030293Y047646D02*
X033600Y047646D01*
X030293Y048560D02*
X033533Y048560D01*
X030293Y047874D02*
X033509Y047874D01*
X030293Y048332D02*
X033478Y048332D01*
X030293Y048103D02*
X033470Y048103D01*
X030293Y036216D02*
X032357Y036216D01*
X030293Y032787D02*
X031876Y032787D01*
X030293Y035987D02*
X031540Y035987D01*
X030293Y033015D02*
X031410Y033015D01*
X030293Y035759D02*
X031225Y035759D01*
X030293Y033244D02*
X031141Y033244D01*
X030293Y035530D02*
X031015Y035530D01*
X030293Y033473D02*
X030956Y033473D01*
X030293Y035301D02*
X030866Y035301D01*
X030293Y033701D02*
X030824Y033701D01*
X030293Y035073D02*
X030762Y035073D01*
X030293Y033930D02*
X030734Y033930D01*
X030293Y034844D02*
X030694Y034844D01*
X030293Y034158D02*
X030678Y034158D01*
X030293Y034616D02*
X030658Y034616D01*
X030293Y034387D02*
X030653Y034387D01*
X029912Y031035D02*
X092396Y031035D01*
X092396Y058975*
X029912Y058975*
X029912Y031035*
G54D15*
X029450Y028450D02*
G03X029450Y028450I-001000J0D01*
G01X030450Y028450D02*
G03X030450Y028450I-002000J0D01*
G01X095617Y060454D02*
G03X095617Y060454I-001000J0D01*
G01X096617Y060454D02*
G03X096617Y060454I-002000J0D01*
G54D16*
G01X025450Y028450D02*
X031450Y028450D01*
X028450Y025450D02*
X028450Y031450D01*
X091617Y060454D02*
X097617Y060454D01*
X094617Y057454D02*
X094617Y063454D01*
G54D23*
X037151Y048180D03*
G54D24*
X077410Y040433D03*
X042358Y035861D03*
X047438Y033321D03*
X052518Y035861D03*
X060138Y035861D03*
X067758Y033321D03*
X072838Y035861D03*
X077918Y035861D03*
X085538Y033321D03*
X036516Y053641D03*
X059376Y056181D03*
X061916Y053641D03*
X064456Y053641D03*
X066996Y053641D03*
X072076Y053641D03*
X084776Y053641D03*
G54D61*
X037324Y052832D02*
X037054Y053102D01*
X035707Y052832D02*
X035977Y053102D01*
X035707Y054449D02*
X035977Y054179D01*
X037324Y054449D02*
X037054Y054179D01*
X036119Y049211D02*
X036612Y048718D01*
X036119Y047148D02*
X036612Y047641D01*
X038182Y047148D02*
X037689Y047641D01*
X038182Y049211D02*
X037689Y048718D01*
X086346Y032512D02*
X086076Y032782D01*
X084729Y032512D02*
X084999Y032782D01*
X084729Y034129D02*
X084999Y033859D01*
X086346Y034129D02*
X086076Y033859D01*
X078726Y035052D02*
X078456Y035322D01*
X077109Y035052D02*
X077379Y035322D01*
X077109Y036669D02*
X077379Y036399D01*
X078726Y036669D02*
X078456Y036399D01*
X085584Y052832D02*
X085314Y053102D01*
X083967Y052832D02*
X084237Y053102D01*
X083967Y054449D02*
X084237Y054179D01*
X085584Y054449D02*
X085314Y054179D01*
X068566Y032512D02*
X068296Y032782D01*
X066949Y034129D02*
X067219Y033859D01*
X073646Y035052D02*
X073376Y035322D01*
X072029Y035052D02*
X072299Y035322D01*
X072029Y036669D02*
X072299Y036399D01*
X073646Y036669D02*
X073376Y036399D01*
X053326Y035052D02*
X053056Y035322D01*
X051709Y035052D02*
X051979Y035322D01*
X051709Y036669D02*
X051979Y036399D01*
X053326Y036669D02*
X053056Y036399D01*
X048246Y032512D02*
X047976Y032782D01*
X046629Y032512D02*
X046899Y032782D01*
X046629Y034129D02*
X046899Y033859D01*
X048246Y034129D02*
X047976Y033859D01*
X043166Y035052D02*
X042896Y035322D01*
X041549Y035052D02*
X041819Y035322D01*
X041549Y036669D02*
X041819Y036399D01*
X043166Y036669D02*
X042896Y036399D01*
X076601Y041241D02*
X076871Y040971D01*
X078218Y041241D02*
X077948Y040971D01*
X078218Y039624D02*
X077948Y039894D01*
X076601Y039624D02*
X076871Y039894D01*
X060184Y055372D02*
X059914Y055642D01*
X058567Y055372D02*
X058837Y055642D01*
X058567Y056989D02*
X058837Y056719D01*
X060184Y056989D02*
X059914Y056719D01*
X062724Y052832D02*
X062454Y053102D01*
X061107Y052832D02*
X061377Y053102D01*
X061107Y054449D02*
X061377Y054179D01*
X062724Y054449D02*
X062454Y054179D01*
X060946Y035052D02*
X060676Y035322D01*
X059329Y035052D02*
X059599Y035322D01*
X059329Y036669D02*
X059599Y036399D01*
X067804Y052832D02*
X067534Y053102D01*
X066187Y052832D02*
X066457Y053102D01*
X066187Y054449D02*
X066457Y054179D01*
X067804Y054449D02*
X067534Y054179D01*
X065264Y052832D02*
X064994Y053102D01*
X063647Y052832D02*
X063917Y053102D01*
X063647Y054449D02*
X063917Y054179D01*
X065264Y054449D02*
X064994Y054179D01*
X072884Y052832D02*
X072614Y053102D01*
X071267Y052832D02*
X071537Y053102D01*
X071267Y054449D02*
X071537Y054179D01*
X072884Y054449D02*
X072614Y054179D01*
G54D81*
X039310Y039163D03*
X059376Y039417D03*
X039310Y041195D03*
X060392Y041195D03*
X078172Y044243D03*
X058868Y047037D03*
X072330Y046529D03*
X080458Y046275D03*
X082744Y046275D03*
X076902Y048053D03*
X063186Y050847D03*
G74*
X000000Y000000D02*
M02*
