%
T1C.3F095S300
X034290Y026162
X035814Y031496
X031242Y033528
X034798Y033528
X036830Y035306
X034798Y035560
X031242Y035560
X036830Y046482
X046482Y045974
X040894Y036322
X043434Y034290
X045466Y033020
X044196Y032258
X045974Y031496
X048260Y037846
X052832Y039624
X052832Y043180
X052070Y043942
X058928Y045974
X058674Y045212
X055118Y044704
X058674Y044196
X059182Y042672
X059182Y041910
X054356Y041402
X059182Y040132
X059182Y039370
X053848Y038354
X059182Y037846
X054610Y037846
X059182Y037084
X054864Y037084
X055880Y035560
X054610Y034798
X058166Y034544
X054864Y033782
X056642Y031750
X059436Y027432
X061722Y026670
X064516Y028448
X065024Y029210
X059944Y031750
X061976Y031750
X061976Y032512
X064516Y032512
X065024Y035052
X062992Y035052
X061214Y035052
X061468Y035814
X065278Y037592
X064262Y043434
X063500Y043688
X060198Y043688
X060452Y046228
X066802Y046482
X066548Y041402
X067818Y040894
X066294Y039878
X067818Y039878
X070866Y039878
X067818Y038608
X071882Y037846
X067818Y037592
X070612Y036322
X066294Y035814
X070866Y034798
X068580Y033782
X073660Y038608
X073406Y040386
X075946Y040640
X078232Y040640
X072390Y042418
X075946Y044196
X078232Y044196
X073406Y044450
T2C.9F197S550
X032766Y027686
X032766Y030226
X030099Y042545
X032639Y042545
X032004Y048006
X032004Y050546
X034544Y050546
X037084Y050546
X039624Y050546
X034544Y048006
X037084Y048006
X039624Y048006
X037846Y030226
X035306Y030226
X040386Y030226
X040386Y027686
X037846Y027686
X035306Y027686
X042926Y027686
X045466Y027686
X045466Y030226
X042926Y030226
X042164Y048006
X044704Y048006
X044704Y050546
X042164Y050546
X047244Y050546
X049784Y050546
X052324Y050546
X047244Y048006
X049784Y048006
X052324Y048006
X053086Y030226
X050546Y030226
X048006Y030226
X048006Y027686
X053086Y027686
X050546Y027686
X055626Y027686
X058166Y027686
X058166Y030226
X055626Y030226
X054864Y048006
X057404Y048006
X057404Y050546
X054864Y050546
X059944Y050546
X062484Y050546
X065024Y050546
X059944Y048006
X062484Y048006
X065024Y048006
X065786Y030226
X063246Y030226
X060706Y030226
X060706Y027686
X065786Y027686
X063246Y027686
X068326Y027686
X070866Y027686
X070866Y030226
X068326Y030226
X067564Y048006
X070104Y048006
X070104Y050546
X067564Y050546
X072644Y050546
X075184Y050546
X077724Y050546
X072644Y048006
X075184Y048006
X077724Y048006
X073406Y030226
X075946Y030226
X078486Y030226
X078486Y027686
X073406Y027686
X075946Y027686
X081026Y027686
X081026Y030226
X080264Y048006
X080264Y050546
T3C.9398F197S550
X077978Y034798
X075438Y034798
X072898Y034798
X080518Y034798
X083058Y034798
T4C2.75F069S658
X027896Y028826
X085896Y028702
M30
