*
*
G04 PADS 9.4.1 Build Number: 494907 generated Gerber (RS-274-X) file*
G04 PC Version=2.1*
*
%IN "PASIDE_B.pcb"*%
*
%MOMM*%
*
%FSDAX33Y33*%
*
*
*
*
G04 PC Standard Apertures*
*
*
G04 Thermal Relief Aperture macro.*
%AMTER*
1,1,$1,0,0*
1,0,$1-$2,0,0*
21,0,$3,$4,0,0,45*
21,0,$3,$4,0,0,135*
%
*
*
G04 Annular Aperture macro.*
%AMANN*
1,1,$1,0,0*
1,0,$2,0,0*
%
*
*
G04 Odd Aperture macro.*
%AMODD*
1,1,$1,0,0*
1,0,$1-0.005,0,0*
%
*
*
G04 PC Custom Aperture Macros*
*
*
*
*
*
*
G04 PC Aperture Table*
*
%ADD010C,0.0254*%
%ADD011C,0.254*%
%ADD015C,0.2*%
%ADD016C,0.1*%
%ADD024C,1.524*%
%ADD061C,0.15*%
%ADD081C,0.6*%
*
*
*
*
G04 PC Circuitry*
G04 Layer Name PASIDE_B.pcb - circuitry*
%LPD*%
*
*
G04 PC Custom Flashes*
G04 Layer Name PASIDE_B.pcb - flashes*
%LPD*%
*
*
G04 PC Circuitry*
G04 Layer Name PASIDE_B.pcb - circuitry*
%LPD*%
*
G54D10*
G54D11*
G01X088951Y045005D02*
X090618Y045005D01*
X090618Y045697*
X089506Y046910D02*
X090618Y046910D01*
X089744Y046910D02*
X089586Y046794D01*
X089586Y046794D02*
X089506Y046679D01*
X089506Y046679D02*
X089506Y046505D01*
X089506Y046505D02*
X089586Y046390D01*
X089744Y046275*
X089744Y046275D02*
X089983Y046217D01*
X090141Y046217*
X090141Y046217D02*
X090379Y046275D01*
X090379Y046275D02*
X090538Y046390D01*
X090538Y046390D02*
X090618Y046505D01*
X090618Y046505D02*
X090618Y046679D01*
X090538Y046794*
X090538Y046794D02*
X090379Y046910D01*
X089506Y047487D02*
X090618Y047833D01*
X089506Y048180D02*
X090618Y047833D01*
X090618Y047833D02*
X090935Y047718D01*
X090935Y047718D02*
X091094Y047602D01*
X091094Y047602D02*
X091173Y047487D01*
X091173Y047487D02*
X091173Y047429D01*
X089983Y048699D02*
X089983Y049392D01*
X089824Y049392*
X089665Y049334*
X089665Y049334D02*
X089586Y049276D01*
X089586Y049276D02*
X089506Y049161D01*
X089506Y049161D02*
X089506Y048988D01*
X089506Y048988D02*
X089586Y048872D01*
X089586Y048872D02*
X089744Y048757D01*
X089744Y048757D02*
X089983Y048699D01*
X089983Y048699D02*
X090141Y048699D01*
X090141Y048699D02*
X090379Y048757D01*
X090379Y048757D02*
X090538Y048872D01*
X090538Y048872D02*
X090618Y048988D01*
X090618Y049161*
X090538Y049276*
X090538Y049276D02*
X090379Y049392D01*
X089506Y049911D02*
X090618Y049911D01*
X089983Y049911D02*
X089744Y049969D01*
X089744Y049969D02*
X089586Y050085D01*
X089506Y050200*
X089506Y050200D02*
X089506Y050373D01*
X088951Y052336D02*
X088951Y052971D01*
X089586Y052625*
X089586Y052798*
X089665Y052913*
X089665Y052913D02*
X089744Y052971D01*
X089744Y052971D02*
X089983Y053029D01*
X090141Y053029*
X090141Y053029D02*
X090379Y052971D01*
X090379Y052971D02*
X090538Y052855D01*
X090538Y052855D02*
X090618Y052682D01*
X090618Y052682D02*
X090618Y052509D01*
X090618Y052509D02*
X090538Y052336D01*
X090538Y052336D02*
X090459Y052278D01*
X090459Y052278D02*
X090300Y052220D01*
X032198Y029399D02*
X032198Y027733D01*
X032717Y028844D02*
X032717Y027733D01*
X032717Y028526D02*
X032890Y028764D01*
X032890Y028764D02*
X033006Y028844D01*
X033179Y028844*
X033294Y028764*
X033294Y028764D02*
X033352Y028526D01*
X033352Y028526D02*
X033352Y027733D01*
X033872Y028844D02*
X033872Y027733D01*
X033872Y028526D02*
X034045Y028764D01*
X034045Y028764D02*
X034160Y028844D01*
X034160Y028844D02*
X034333Y028844D01*
X034333Y028844D02*
X034449Y028764D01*
X034449Y028764D02*
X034507Y028526D01*
X034507Y028526D02*
X034507Y027733D01*
X035026Y028368D02*
X035719Y028368D01*
X035719Y028526*
X035719Y028526D02*
X035661Y028685D01*
X035661Y028685D02*
X035603Y028764D01*
X035603Y028764D02*
X035488Y028844D01*
X035315Y028844*
X035199Y028764*
X035199Y028764D02*
X035084Y028606D01*
X035026Y028368*
X035026Y028368D02*
X035026Y028209D01*
X035026Y028209D02*
X035084Y027971D01*
X035199Y027812*
X035199Y027812D02*
X035315Y027733D01*
X035488Y027733*
X035603Y027812*
X035603Y027812D02*
X035719Y027971D01*
X036238Y028844D02*
X036238Y027733D01*
X036238Y028368D02*
X036296Y028606D01*
X036296Y028606D02*
X036412Y028764D01*
X036412Y028764D02*
X036527Y028844D01*
X036527Y028844D02*
X036700Y028844D01*
X038548Y029399D02*
X038548Y027733D01*
X039240Y027733*
X040453Y028844D02*
X040453Y027733D01*
X040453Y028606D02*
X040337Y028764D01*
X040337Y028764D02*
X040222Y028844D01*
X040048Y028844*
X040048Y028844D02*
X039933Y028764D01*
X039933Y028764D02*
X039818Y028606D01*
X039760Y028368*
X039760Y028209*
X039818Y027971*
X039933Y027812*
X040048Y027733*
X040048Y027733D02*
X040222Y027733D01*
X040337Y027812*
X040337Y027812D02*
X040453Y027971D01*
X041030Y028844D02*
X041376Y027733D01*
X041723Y028844D02*
X041376Y027733D01*
X041376Y027733D02*
X041261Y027415D01*
X041261Y027415D02*
X041145Y027256D01*
X041145Y027256D02*
X041030Y027177D01*
X040972Y027177*
X042242Y028368D02*
X042935Y028368D01*
X042935Y028526*
X042935Y028526D02*
X042877Y028685D01*
X042877Y028685D02*
X042819Y028764D01*
X042819Y028764D02*
X042704Y028844D01*
X042531Y028844*
X042415Y028764*
X042415Y028764D02*
X042300Y028606D01*
X042242Y028368*
X042242Y028368D02*
X042242Y028209D01*
X042242Y028209D02*
X042300Y027971D01*
X042415Y027812*
X042415Y027812D02*
X042531Y027733D01*
X042704Y027733*
X042819Y027812*
X042819Y027812D02*
X042935Y027971D01*
X043454Y028844D02*
X043454Y027733D01*
X043454Y028368D02*
X043512Y028606D01*
X043512Y028606D02*
X043628Y028764D01*
X043628Y028764D02*
X043743Y028844D01*
X043916Y028844*
X045879Y029399D02*
X046514Y029399D01*
X046514Y029399D02*
X046168Y028764D01*
X046168Y028764D02*
X046341Y028764D01*
X046341Y028764D02*
X046456Y028685D01*
X046456Y028685D02*
X046514Y028606D01*
X046572Y028368*
X046572Y028209*
X046514Y027971*
X046398Y027812*
X046398Y027812D02*
X046225Y027733D01*
X046225Y027733D02*
X046052Y027733D01*
X046052Y027733D02*
X045879Y027812D01*
X045821Y027891*
X045821Y027891D02*
X045763Y028050D01*
X083425Y046275D02*
G75*
G03X083425Y046275I-000681J0D01*
G01X081139Y046275D02*
G03X081139Y046275I-000681J0D01*
G01X078853Y044243D02*
G03X078853Y044243I-000681J0D01*
G01X077583Y048053D02*
G03X077583Y048053I-000681J0D01*
G01X076059Y045513D02*
G03X076059Y045513I-000681J0D01*
G01X073773Y039417D02*
G03X073773Y039417I-000681J0D01*
G01X073011Y043227D02*
G03X073011Y043227I-000681J0D01*
G01X071487Y041449D02*
G03X071487Y041449I-000681J0D01*
G01X069709Y038147D02*
G03X069709Y038147I-000681J0D01*
G01X070471Y043227D02*
G03X070471Y043227I-000681J0D01*
G01X068185Y040687D02*
G03X068185Y040687I-000681J0D01*
G01X059549Y047037D02*
G03X059549Y047037I-000681J0D01*
G01X053453Y043481D02*
G03X053453Y043481I-000681J0D01*
G01X051675Y051609D02*
G03X051675Y051609I-000681J0D01*
G01X048627Y039925D02*
G03X048627Y039925I-000681J0D01*
G01X046087Y041957D02*
G03X046087Y041957I-000681J0D01*
G01X042023Y040941D02*
G03X042023Y040941I-000681J0D01*
G01X039991Y039163D02*
G03X039991Y039163I-000681J0D01*
G01X039991Y041195D02*
G03X039991Y041195I-000681J0D01*
G01X092014Y035501D02*
X092014Y058213D01*
X092014Y058213D02*
G03X091887Y058340I-000126J000000D01*
G01X091887Y058340D02*
X030674Y058340D01*
G03X030547Y058213I000000J-000127*
G01X030547Y035195*
G03X030790Y035145I000127J000000*
G01X030790Y033776D02*
G03X030790Y035145I001618J000685D01*
G01X030790Y033776D02*
G03X030547Y033726I-000116J-000049D01*
G01X030547Y033726D02*
X030547Y031797D01*
G03X030674Y031670I000127J000000*
G01X037993Y031670*
X037993Y031670D02*
G03X038120Y031797I000000J000127D01*
G01X038774Y032477D02*
G03X038120Y031797I000028J-000680D01*
G01X038774Y032477D02*
G03X038874Y032676I-000004J000127D01*
G01X038675Y033317D02*
G03X038874Y032676I001143J000004D01*
G01X038675Y033317D02*
G03X038674Y033321I-000127J000000D01*
G01X038674Y033321D02*
G03X038675Y033324I-000126J000003D01*
G01X039814Y034464D02*
G03X038675Y033324I000004J-001143D01*
G01X039814Y034464D02*
G03X039818Y034464I000000J000127D01*
X039821Y034464I000003J000127*
G01X040961Y033324D02*
G03X039821Y034464I-001143J-000003D01*
G01X040961Y033324D02*
G03X040961Y033321I000127J000000D01*
X040961Y033317I000127J-000003*
G01X039585Y032201D02*
G03X040961Y033317I000233J001120D01*
G01X039585Y032201D02*
G03X039440Y032033I-000025J-000123D01*
G01X039483Y031797D02*
G03X039440Y032033I-000681J000000D01*
G01X039483Y031797D02*
G03X039610Y031670I000127J000000D01*
G01X065605Y031670*
X065605Y031670D02*
G03X065704Y031876I000000J000127D01*
G01X065581Y032110D02*
G03X065704Y031876I000653J000195D01*
G01X065581Y032110D02*
G03X065435Y032198I-000121J-000035D01*
G01X064453Y032471D02*
G03X065435Y032198I000765J000850D01*
G01X064453Y032471D02*
G03X064302Y032485I-000084J-000094D01*
G01X063593Y032485D02*
G03X064302Y032485I000355J000582D01*
G01X063593Y032485D02*
G03X063442Y032471I-000065J-000108D01*
G01X061535Y033317D02*
G03X063442Y032471I001143J000004D01*
G01X061535Y033317D02*
G03X061534Y033321I-000127J000000D01*
G01X061534Y033321D02*
G03X061535Y033324I-000126J000003D01*
G01X062674Y034464D02*
G03X061535Y033324I000004J-001143D01*
G01X062674Y034464D02*
G03X062678Y034464I000000J000127D01*
X062681Y034464I000003J000127*
G01X063710Y033811D02*
G03X062681Y034464I-001032J-000490D01*
G01X063710Y033811D02*
G03X063844Y033740I000115J000054D01*
G01X064051Y033740D02*
G03X063844Y033740I-000103J-000673D01*
G01X064051Y033740D02*
G03X064185Y033811I000019J000125D01*
G01X065214Y034464D02*
G03X064185Y033811I000004J-001143D01*
G01X065214Y034464D02*
G03X065218Y034464I000000J000127D01*
X065221Y034464I000003J000127*
G01X066361Y033324D02*
G03X065221Y034464I-001143J-000003D01*
G01X066361Y033324D02*
G03X066361Y033321I000127J000000D01*
X066361Y033317I000127J-000003*
G01X066340Y033103D02*
G03X066361Y033317I-001122J000218D01*
G01X066340Y033103D02*
G03X066428Y032957I000124J-000023D01*
G01X066470Y032943D02*
G03X066428Y032957I-000236J-000638D01*
G01X066470Y032943D02*
G03X066638Y033088I000044J000119D01*
G01X066615Y033317D02*
G03X066638Y033088I001143J000004D01*
G01X066615Y033317D02*
G03X066614Y033321I-000127J000000D01*
G01X066614Y033321D02*
G03X066615Y033324I-000126J000003D01*
G01X067754Y034464D02*
G03X066615Y033324I000004J-001143D01*
G01X067754Y034464D02*
G03X067758Y034464I000000J000127D01*
X067761Y034464I000003J000127*
G01X068259Y034348D02*
G03X067761Y034464I-000501J-001027D01*
G01X068259Y034348D02*
G03X068426Y034402I000055J000114D01*
G01X068775Y034715D02*
G03X068426Y034402I000253J-000632D01*
G01X068775Y034715D02*
G03X068855Y034835I-000046J000118D01*
G01X068886Y035049D02*
G03X068855Y034835I000650J-000204D01*
G01X068886Y035049D02*
G03X068664Y035164I-000120J000038D01*
G01X067761Y034718D02*
G03X068664Y035164I-000003J001143D01*
G01X067761Y034718D02*
G03X067758Y034717I000000J-000127D01*
G01X067758Y034717D02*
G03X067754Y034718I-000003J-000126D01*
G01X066615Y035857D02*
G03X067754Y034718I001143J000004D01*
G01X066615Y035857D02*
G03X066614Y035861I-000127J000000D01*
G01X066614Y035861D02*
G03X066615Y035864I-000126J000003D01*
G01X066839Y036540D02*
G03X066615Y035864I000919J-000679D01*
G01X066839Y036540D02*
G03X066697Y036737I-000101J000076D01*
G01X066278Y036737D02*
G03X066697Y036737I000210J000648D01*
G01X066278Y036737D02*
G03X066136Y036540I-000039J-000120D01*
G01X066361Y035864D02*
G03X066136Y036540I-001143J-000003D01*
G01X066361Y035864D02*
G03X066361Y035861I000127J000000D01*
X066361Y035857I000127J-000003*
G01X065221Y034718D02*
G03X066361Y035857I-000003J001143D01*
G01X065221Y034718D02*
G03X065218Y034717I000000J-000127D01*
G01X065218Y034717D02*
G03X065214Y034718I-000003J-000126D01*
G01X064075Y035857D02*
G03X065214Y034718I001143J000004D01*
G01X064075Y035857D02*
G03X064074Y035861I-000127J000000D01*
G01X064074Y035861D02*
G03X064075Y035864I-000126J000003D01*
G01X064300Y036543D02*
G03X064075Y035864I000918J-000682D01*
G01X064300Y036543D02*
G03X064239Y036739I-000101J000075D01*
G01X065102Y037170D02*
G03X064239Y036739I-000646J000215D01*
G01X065102Y037170D02*
G03X065222Y037004I000121J-000039D01*
G01X065720Y036887D02*
G03X065222Y037004I-000502J-001026D01*
G01X065720Y036887D02*
G03X065888Y037061I000056J000114D01*
G01X065887Y037706D02*
G03X065888Y037061I000601J-000321D01*
G01X065887Y037706D02*
G03X065887Y037825I-000111J000060D01*
G01X067088Y037825D02*
G03X065887Y037825I-000600J000322D01*
G01X067088Y037825D02*
G03X067088Y037706I000112J-000059D01*
G01X067087Y037061D02*
G03X067088Y037706I-000599J000324D01*
G01X067087Y037061D02*
G03X067255Y036887I000112J-000059D01*
G01X068901Y035864D02*
G03X067255Y036887I-001143J-000003D01*
G01X068901Y035864D02*
G03X068901Y035861I000127J000000D01*
X068901Y035857I000127J-000003*
G01X068818Y035433D02*
G03X068901Y035857I-001060J000428D01*
G01X068818Y035433D02*
G03X069030Y035300I000117J-000047D01*
G01X069149Y035405D02*
G03X069030Y035300I000387J-000560D01*
G01X069149Y035405D02*
G03X069199Y035545I-000071J000105D01*
G01X069155Y035857D02*
G03X069199Y035545I001143J000004D01*
G01X069155Y035857D02*
G03X069154Y035861I-000127J000000D01*
G01X069154Y035861D02*
G03X069155Y035864I-000126J000003D01*
G01X071441Y035864D02*
G03X069155Y035864I-001143J-000003D01*
G01X071441Y035864D02*
G03X071441Y035861I000127J000000D01*
X071441Y035857I000127J-000003*
G01X070302Y034718D02*
G03X071441Y035857I-000004J001143D01*
G01X070302Y034718D02*
G03X070180Y034625I000001J-000127D01*
G01X070180Y034625D02*
X070180Y034625D01*
X070180Y034625D02*
G03X070302Y034464I000123J-000034D01*
G01X071441Y033324D02*
G03X070302Y034464I-001143J-000003D01*
G01X071441Y033324D02*
G03X071441Y033321I000127J000000D01*
X071441Y033317I000127J-000003*
G01X069155Y033279D02*
G03X071441Y033317I001143J000042D01*
G01X069155Y033279D02*
G03X069028Y033402I-000126J-000004D01*
G01X069028Y033402D02*
X069027Y033402D01*
G03X068900Y033279I000000J-000127*
G01X067113Y032377D02*
G03X068900Y033279I000645J000944D01*
G01X067113Y032377D02*
G03X066914Y032277I-000071J-000104D01*
G01X066763Y031876D02*
G03X066914Y032277I-000529J000429D01*
G01X066763Y031876D02*
G03X066862Y031670I000099J-000079D01*
G01X091887Y031670*
X091887Y031670D02*
G03X092014Y031797I000000J000127D01*
G01X092014Y031797D02*
X092014Y033172D01*
X092014Y033172D02*
G03X091788Y033251I-000126J000000D01*
G01X091788Y035422D02*
G03X091788Y033251I-001380J-001085D01*
G01X091788Y035422D02*
G03X092014Y035501I000099J000079D01*
G01X071800Y045941D02*
G03X071800Y046100I-000098J000080D01*
G01X071660Y046406D02*
G03X071800Y046100I000670J000123D01*
G01X071660Y046406D02*
G03X071460Y046486I-000124J-000022D01*
G01X071149Y046361D02*
G03X071460Y046486I-000089J000676D01*
G01X071149Y046361D02*
G03X071109Y046122I000017J-000124D01*
G01X071448Y045739D02*
G03X071109Y046122I-000642J-000226D01*
G01X071448Y045739D02*
G03X071687Y045739I000120J000042D01*
G01X071800Y045941D02*
G03X071687Y045739I000530J-000428D01*
G01X084395Y033317D02*
G03X085541Y034464I001143J000004D01*
G01X084395Y033317D02*
G03X084394Y033321I-000127J000000D01*
G01X084394Y033321D02*
G03X084395Y033324I-000126J000003D01*
G01X085534Y034464D02*
G03X084395Y033324I000004J-001143D01*
G01X085534Y034464D02*
G03X085538Y034464I000000J000127D01*
X085541Y034464I000003J000127*
G01X085541Y034718D02*
G03X084395Y035864I-000003J001143D01*
G01X085541Y034718D02*
G03X085538Y034717I000000J-000127D01*
G01X085538Y034717D02*
G03X085534Y034718I-000003J-000126D01*
G01X084395Y035857D02*
G03X085534Y034718I001143J000004D01*
G01X084395Y035857D02*
G03X084394Y035861I-000127J000000D01*
G01X084394Y035861D02*
G03X084395Y035864I-000126J000003D01*
G01X088713Y041195D02*
X088713Y039671D01*
X088332Y039289D02*
G03X088713Y039671I000000J000382D01*
G01X088332Y039289D02*
X086808Y039289D01*
X086426Y039671D02*
G03X086808Y039289I000382J000000D01*
G01X086426Y039671D02*
X086426Y040427D01*
X086426Y040427D02*
G03X086426Y040433I-000126J000000D01*
G01X086426Y040433D02*
G03X086426Y040438I-000126J000005D01*
G01X086426Y040438D02*
X086426Y041195D01*
X086808Y041576D02*
G03X086426Y041195I000000J-000381D01*
G01X086808Y041576D02*
X088332Y041576D01*
X088713Y041195D02*
G03X088332Y041576I-000381J000000D01*
G01X091681Y053387D02*
X091681Y044878D01*
X091300Y044496D02*
G03X091681Y044878I000000J000382D01*
G01X091300Y044496D02*
X088506Y044496D01*
X088125Y044878D02*
G03X088506Y044496I000381J000000D01*
G01X088125Y044878D02*
X088125Y053387D01*
X088506Y053768D02*
G03X088125Y053387I000000J-000381D01*
G01X088506Y053768D02*
X091300Y053768D01*
X091681Y053387D02*
G03X091300Y053768I-000380J000000D01*
G01X084141Y033321D02*
G03X084141Y033317I000127J-000003D01*
G01X081855Y033317D02*
G03X084141Y033317I001143J000004D01*
G01X081855Y033317D02*
G03X081854Y033321I-000127J000000D01*
G01X081854Y033321D02*
G03X081855Y033324I-000126J000003D01*
G01X082994Y034464D02*
G03X081855Y033324I000004J-001143D01*
G01X082994Y034464D02*
G03X082998Y034464I000000J000127D01*
X083001Y034464I000003J000127*
G01X084141Y033324D02*
G03X083001Y034464I-001143J-000003D01*
G01X084141Y033324D02*
G03X084141Y033321I000127J000000D01*
G01X084141Y035861D02*
G03X084141Y035857I000127J-000003D01*
G01X083001Y034718D02*
G03X084141Y035857I-000003J001143D01*
G01X083001Y034718D02*
G03X082998Y034717I000000J-000127D01*
G01X082998Y034717D02*
G03X082994Y034718I-000003J-000126D01*
G01X081855Y035857D02*
G03X082994Y034718I001143J000004D01*
G01X081855Y035857D02*
G03X081854Y035861I-000127J000000D01*
G01X081854Y035861D02*
G03X081855Y035864I-000126J000003D01*
G01X084141Y035864D02*
G03X081855Y035864I-001143J-000003D01*
G01X084141Y035864D02*
G03X084141Y035861I000127J000000D01*
G01X086173Y040433D02*
G03X086173Y040428I000126J-000005D01*
G01X083887Y040429D02*
G03X086173Y040428I001143J000004D01*
G01X083887Y040429D02*
G03X083886Y040433I-000127J000000D01*
G01X083886Y040433D02*
G03X083887Y040436I-000126J000003D01*
G01X086173Y040437D02*
G03X083887Y040436I-001143J-000004D01*
G01X086173Y040437D02*
G03X086173Y040433I000126J000001D01*
G01X081601Y033321D02*
G03X081601Y033317I000127J-000003D01*
G01X079315Y033317D02*
G03X081601Y033317I001143J000004D01*
G01X079315Y033317D02*
G03X079314Y033321I-000127J000000D01*
G01X079314Y033321D02*
G03X079315Y033324I-000126J000003D01*
G01X080454Y034464D02*
G03X079315Y033324I000004J-001143D01*
G01X080454Y034464D02*
G03X080458Y034464I000000J000127D01*
X080461Y034464I000003J000127*
G01X081601Y033324D02*
G03X080461Y034464I-001143J-000003D01*
G01X081601Y033324D02*
G03X081601Y033321I000127J000000D01*
G01X081601Y035861D02*
G03X081601Y035857I000127J-000003D01*
G01X080461Y034718D02*
G03X081601Y035857I-000003J001143D01*
G01X080461Y034718D02*
G03X080458Y034717I000000J-000127D01*
G01X080458Y034717D02*
G03X080454Y034718I-000003J-000126D01*
G01X079315Y035857D02*
G03X080454Y034718I001143J000004D01*
G01X079315Y035857D02*
G03X079314Y035861I-000127J000000D01*
G01X079314Y035861D02*
G03X079315Y035864I-000126J000003D01*
G01X081601Y035864D02*
G03X079315Y035864I-001143J-000003D01*
G01X081601Y035864D02*
G03X081601Y035861I000127J000000D01*
G01X083633Y040433D02*
G03X083633Y040429I000127J-000003D01*
G01X081347Y040429D02*
G03X083633Y040429I001143J000004D01*
G01X081347Y040429D02*
G03X081346Y040433I-000127J000000D01*
G01X081346Y040433D02*
G03X081347Y040436I-000126J000003D01*
G01X083633Y040436D02*
G03X081347Y040436I-001143J-000003D01*
G01X083633Y040436D02*
G03X083633Y040433I000127J000000D01*
G01X083633Y053637D02*
G03X084779Y054784I001143J000004D01*
G01X083633Y053637D02*
G03X083632Y053641I-000127J000000D01*
G01X083632Y053641D02*
G03X083633Y053644I-000126J000003D01*
G01X084772Y054784D02*
G03X083633Y053644I000004J-001143D01*
G01X084772Y054784D02*
G03X084776Y054784I000000J000127D01*
X084779Y054784I000003J000127*
G01X084779Y055038D02*
G03X083633Y056184I-000003J001143D01*
G01X084779Y055038D02*
G03X084776Y055037I000000J-000127D01*
G01X084776Y055037D02*
G03X084772Y055038I-000003J-000126D01*
G01X083633Y056177D02*
G03X084772Y055038I001143J000004D01*
G01X083633Y056177D02*
G03X083632Y056181I-000127J000000D01*
G01X083632Y056181D02*
G03X083633Y056184I-000126J000003D01*
G01X083425Y046275D02*
G03X083425Y046275I-000681J0D01*
G01X079061Y033321D02*
G03X079061Y033317I000127J-000003D01*
G01X076775Y033317D02*
G03X079061Y033317I001143J000004D01*
G01X076775Y033317D02*
G03X076774Y033321I-000127J000000D01*
G01X076774Y033321D02*
G03X076775Y033324I-000126J000003D01*
G01X077914Y034464D02*
G03X076775Y033324I000004J-001143D01*
G01X077914Y034464D02*
G03X077918Y034464I000000J000127D01*
X077921Y034464I000003J000127*
G01X079061Y033324D02*
G03X077921Y034464I-001143J-000003D01*
G01X079061Y033324D02*
G03X079061Y033321I000127J000000D01*
G01X079061Y035861D02*
G03X079061Y035857I000127J-000003D01*
G01X077921Y034718D02*
G03X079061Y035857I-000003J001143D01*
G01X077921Y034718D02*
G03X077918Y034717I000000J-000127D01*
G01X077918Y034717D02*
G03X077914Y034718I-000003J-000126D01*
G01X076775Y035857D02*
G03X077914Y034718I001143J000004D01*
G01X076775Y035857D02*
G03X076774Y035861I-000127J000000D01*
G01X076774Y035861D02*
G03X076775Y035864I-000126J000003D01*
G01X079061Y035864D02*
G03X076775Y035864I-001143J-000003D01*
G01X079061Y035864D02*
G03X079061Y035861I000127J000000D01*
G01X081093Y040433D02*
G03X081093Y040429I000127J-000003D01*
G01X078807Y040429D02*
G03X081093Y040429I001143J000004D01*
G01X078807Y040429D02*
G03X078806Y040433I-000127J000000D01*
G01X078806Y040433D02*
G03X078807Y040436I-000126J000003D01*
G01X081093Y040436D02*
G03X078807Y040436I-001143J-000003D01*
G01X081093Y040436D02*
G03X081093Y040433I000127J000000D01*
G01X081139Y046275D02*
G03X081139Y046275I-000681J0D01*
G01X083379Y053641D02*
G03X083379Y053637I000127J-000003D01*
G01X081093Y053637D02*
G03X083379Y053637I001143J000004D01*
G01X081093Y053637D02*
G03X081092Y053641I-000127J000000D01*
G01X081092Y053641D02*
G03X081093Y053644I-000126J000003D01*
G01X082232Y054784D02*
G03X081093Y053644I000004J-001143D01*
G01X082232Y054784D02*
G03X082236Y054784I000000J000127D01*
X082239Y054784I000003J000127*
G01X083379Y053644D02*
G03X082239Y054784I-001143J-000003D01*
G01X083379Y053644D02*
G03X083379Y053641I000127J000000D01*
G01X083379Y056181D02*
G03X083379Y056177I000127J-000003D01*
G01X082239Y055038D02*
G03X083379Y056177I-000003J001143D01*
G01X082239Y055038D02*
G03X082236Y055037I000000J-000127D01*
G01X082236Y055037D02*
G03X082232Y055038I-000003J-000126D01*
G01X081093Y056177D02*
G03X082232Y055038I001143J000004D01*
G01X081093Y056177D02*
G03X081092Y056181I-000127J000000D01*
G01X081092Y056181D02*
G03X081093Y056184I-000126J000003D01*
G01X083379Y056184D02*
G03X081093Y056184I-001143J-000003D01*
G01X083379Y056184D02*
G03X083379Y056181I000127J000000D01*
G01X076521Y033321D02*
G03X076521Y033317I000127J-000003D01*
G01X074235Y033317D02*
G03X076521Y033317I001143J000004D01*
G01X074235Y033317D02*
G03X074234Y033321I-000127J000000D01*
G01X074234Y033321D02*
G03X074235Y033324I-000126J000003D01*
G01X075374Y034464D02*
G03X074235Y033324I000004J-001143D01*
G01X075374Y034464D02*
G03X075378Y034464I000000J000127D01*
X075381Y034464I000003J000127*
G01X076521Y033324D02*
G03X075381Y034464I-001143J-000003D01*
G01X076521Y033324D02*
G03X076521Y033321I000127J000000D01*
G01X076521Y035861D02*
G03X076521Y035857I000127J-000003D01*
G01X075381Y034718D02*
G03X076521Y035857I-000003J001143D01*
G01X075381Y034718D02*
G03X075378Y034717I000000J-000127D01*
G01X075378Y034717D02*
G03X075374Y034718I-000003J-000126D01*
G01X074235Y035857D02*
G03X075374Y034718I001143J000004D01*
G01X074235Y035857D02*
G03X074234Y035861I-000127J000000D01*
G01X074234Y035861D02*
G03X074235Y035864I-000126J000003D01*
G01X076521Y035864D02*
G03X074235Y035864I-001143J-000003D01*
G01X076521Y035864D02*
G03X076521Y035861I000127J000000D01*
G01X078553Y040433D02*
G03X078553Y040429I000127J-000003D01*
G01X076282Y040242D02*
G03X078553Y040429I001128J000191D01*
G01X076282Y040242D02*
G03X076035Y040254I-000124J-000020D01*
G01X075074Y041042D02*
G03X076035Y040254I000304J-000609D01*
G01X075074Y041042D02*
G03X075034Y041281I-000056J000114D01*
G01X075427Y041347D02*
G03X075034Y041281I-000303J000610D01*
G01X075427Y041347D02*
G03X075467Y041108I000057J-000113D01*
G01X076035Y040611D02*
G03X075467Y041108I-000657J-000178D01*
G01X076035Y040611D02*
G03X076282Y040623I000122J000033D01*
G01X078553Y040436D02*
G03X076282Y040623I-001143J-000003D01*
G01X078553Y040436D02*
G03X078553Y040433I000127J000000D01*
G01X078853Y044243D02*
G03X078853Y044243I-000681J0D01*
G01X080839Y053641D02*
G03X080839Y053637I000127J-000003D01*
G01X078553Y053637D02*
G03X080839Y053637I001143J000004D01*
G01X078553Y053637D02*
G03X078552Y053641I-000127J000000D01*
G01X078552Y053641D02*
G03X078553Y053644I-000126J000003D01*
G01X079692Y054784D02*
G03X078553Y053644I000004J-001143D01*
G01X079692Y054784D02*
G03X079696Y054784I000000J000127D01*
X079699Y054784I000003J000127*
G01X080839Y053644D02*
G03X079699Y054784I-001143J-000003D01*
G01X080839Y053644D02*
G03X080839Y053641I000127J000000D01*
G01X080839Y056181D02*
G03X080839Y056177I000127J-000003D01*
G01X079699Y055038D02*
G03X080839Y056177I-000003J001143D01*
G01X079699Y055038D02*
G03X079696Y055037I000000J-000127D01*
G01X079696Y055037D02*
G03X079692Y055038I-000003J-000126D01*
G01X078553Y056177D02*
G03X079692Y055038I001143J000004D01*
G01X078553Y056177D02*
G03X078552Y056181I-000127J000000D01*
G01X078552Y056181D02*
G03X078553Y056184I-000126J000003D01*
G01X080839Y056184D02*
G03X078553Y056184I-001143J-000003D01*
G01X080839Y056184D02*
G03X080839Y056181I000127J000000D01*
G01X077583Y048053D02*
G03X077583Y048053I-000681J0D01*
G01X076059Y045513D02*
G03X076059Y045513I-000681J0D01*
G01X078299Y053641D02*
G03X078299Y053637I000127J-000003D01*
G01X076013Y053637D02*
G03X078299Y053637I001143J000004D01*
G01X076013Y053637D02*
G03X076012Y053641I-000127J000000D01*
G01X076012Y053641D02*
G03X076013Y053644I-000126J000003D01*
G01X077152Y054784D02*
G03X076013Y053644I000004J-001143D01*
G01X077152Y054784D02*
G03X077156Y054784I000000J000127D01*
X077159Y054784I000003J000127*
G01X078299Y053644D02*
G03X077159Y054784I-001143J-000003D01*
G01X078299Y053644D02*
G03X078299Y053641I000127J000000D01*
G01X078299Y056181D02*
G03X078299Y056177I000127J-000003D01*
G01X077159Y055038D02*
G03X078299Y056177I-000003J001143D01*
G01X077159Y055038D02*
G03X077156Y055037I000000J-000127D01*
G01X077156Y055037D02*
G03X077152Y055038I-000003J-000126D01*
G01X076013Y056177D02*
G03X077152Y055038I001143J000004D01*
G01X076013Y056177D02*
G03X076012Y056181I-000127J000000D01*
G01X076012Y056181D02*
G03X076013Y056184I-000126J000003D01*
G01X078299Y056184D02*
G03X076013Y056184I-001143J-000003D01*
G01X078299Y056184D02*
G03X078299Y056181I000127J000000D01*
G01X073981Y033321D02*
G03X073981Y033317I000127J-000003D01*
G01X071695Y033317D02*
G03X073981Y033317I001143J000004D01*
G01X071695Y033317D02*
G03X071694Y033321I-000127J000000D01*
G01X071694Y033321D02*
G03X071695Y033324I-000126J000003D01*
G01X072834Y034464D02*
G03X071695Y033324I000004J-001143D01*
G01X072834Y034464D02*
G03X072838Y034464I000000J000127D01*
X072841Y034464I000003J000127*
G01X073981Y033324D02*
G03X072841Y034464I-001143J-000003D01*
G01X073981Y033324D02*
G03X073981Y033321I000127J000000D01*
G01X073981Y035861D02*
G03X073981Y035857I000127J-000003D01*
G01X072841Y034718D02*
G03X073981Y035857I-000003J001143D01*
G01X072841Y034718D02*
G03X072838Y034717I000000J-000127D01*
G01X072838Y034717D02*
G03X072834Y034718I-000003J-000126D01*
G01X071695Y035857D02*
G03X072834Y034718I001143J000004D01*
G01X071695Y035857D02*
G03X071694Y035861I-000127J000000D01*
G01X071694Y035861D02*
G03X071695Y035864I-000126J000003D01*
G01X073981Y035864D02*
G03X071695Y035864I-001143J-000003D01*
G01X073981Y035864D02*
G03X073981Y035861I000127J000000D01*
G01X073773Y039417D02*
G03X073773Y039417I-000681J0D01*
G01X075759Y053641D02*
G03X075759Y053637I000127J-000003D01*
G01X073473Y053637D02*
G03X075759Y053637I001143J000004D01*
G01X073473Y053637D02*
G03X073472Y053641I-000127J000000D01*
G01X073472Y053641D02*
G03X073473Y053644I-000126J000003D01*
G01X074612Y054784D02*
G03X073473Y053644I000004J-001143D01*
G01X074612Y054784D02*
G03X074616Y054784I000000J000127D01*
X074619Y054784I000003J000127*
G01X075759Y053644D02*
G03X074619Y054784I-001143J-000003D01*
G01X075759Y053644D02*
G03X075759Y053641I000127J000000D01*
G01X075759Y056181D02*
G03X075759Y056177I000127J-000003D01*
G01X074619Y055038D02*
G03X075759Y056177I-000003J001143D01*
G01X074619Y055038D02*
G03X074616Y055037I000000J-000127D01*
G01X074616Y055037D02*
G03X074612Y055038I-000003J-000126D01*
G01X073473Y056177D02*
G03X074612Y055038I001143J000004D01*
G01X073473Y056177D02*
G03X073472Y056181I-000127J000000D01*
G01X073472Y056181D02*
G03X073473Y056184I-000126J000003D01*
G01X075759Y056184D02*
G03X073473Y056184I-001143J-000003D01*
G01X075759Y056184D02*
G03X075759Y056181I000127J000000D01*
G01X073011Y043227D02*
G03X073011Y043227I-000681J0D01*
G01X071487Y041449D02*
G03X071487Y041449I-000681J0D01*
G01X069709Y038147D02*
G03X069709Y038147I-000681J0D01*
G01X070471Y043227D02*
G03X070471Y043227I-000681J0D01*
G01X072859Y046100D02*
G03X071929Y047079I-000529J000429D01*
G01X072859Y046100D02*
G03X072859Y045941I000099J-000079D01*
G01X071687Y045286D02*
G03X072859Y045941I000643J000227D01*
G01X071687Y045286D02*
G03X071448Y045286I-000119J-000041D01*
G01X070716Y046188D02*
G03X071448Y045286I000090J-000675D01*
G01X070716Y046188D02*
G03X070756Y046427I-000016J000125D01*
G01X071729Y047159D02*
G03X070756Y046427I-000669J-000122D01*
G01X071729Y047159D02*
G03X071929Y047079I000125J000023D01*
G01X073219Y053641D02*
G03X073219Y053637I000127J-000003D01*
G01X072080Y052498D02*
G03X073219Y053637I-000004J001143D01*
G01X072080Y052498D02*
G03X071960Y052331I000001J-000127D01*
G01X071097Y052762D02*
G03X071960Y052331I000217J-000645D01*
G01X071097Y052762D02*
G03X071158Y052958I-000040J000121D01*
G01X070933Y053637D02*
G03X071158Y052958I001143J000004D01*
G01X070933Y053637D02*
G03X070932Y053641I-000127J000000D01*
G01X070932Y053641D02*
G03X070933Y053644I-000126J000003D01*
G01X072072Y054784D02*
G03X070933Y053644I000004J-001143D01*
G01X072072Y054784D02*
G03X072076Y054784I000000J000127D01*
X072079Y054784I000003J000127*
G01X073219Y053644D02*
G03X072079Y054784I-001143J-000003D01*
G01X073219Y053644D02*
G03X073219Y053641I000127J000000D01*
G01X073219Y056181D02*
G03X073219Y056177I000127J-000003D01*
G01X072079Y055038D02*
G03X073219Y056177I-000003J001143D01*
G01X072079Y055038D02*
G03X072076Y055037I000000J-000127D01*
G01X072076Y055037D02*
G03X072072Y055038I-000003J-000126D01*
G01X070933Y056177D02*
G03X072072Y055038I001143J000004D01*
G01X070933Y056177D02*
G03X070932Y056181I-000127J000000D01*
G01X070932Y056181D02*
G03X070933Y056184I-000126J000003D01*
G01X073219Y056184D02*
G03X070933Y056184I-001143J-000003D01*
G01X073219Y056184D02*
G03X073219Y056181I000127J000000D01*
G01X068185Y040687D02*
G03X068185Y040687I-000681J0D01*
G01X068266Y048615D02*
G03X068639Y049736I000508J000454D01*
G01X068266Y048615D02*
G03X068146Y048655I-000094J-000084D01*
G01X068519Y049776D02*
G03X068146Y048655I-000507J-000453D01*
G01X068519Y049776D02*
G03X068639Y049736I000095J000085D01*
G01X070679Y053641D02*
G03X070679Y053637I000127J-000003D01*
G01X068393Y053637D02*
G03X070679Y053637I001143J000004D01*
G01X068393Y053637D02*
G03X068392Y053641I-000127J000000D01*
G01X068392Y053641D02*
G03X068393Y053644I-000126J000003D01*
G01X069532Y054784D02*
G03X068393Y053644I000004J-001143D01*
G01X069532Y054784D02*
G03X069536Y054784I000000J000127D01*
X069539Y054784I000003J000127*
G01X070679Y053644D02*
G03X069539Y054784I-001143J-000003D01*
G01X070679Y053644D02*
G03X070679Y053641I000127J000000D01*
G01X070679Y056181D02*
G03X070679Y056177I000127J-000003D01*
G01X069539Y055038D02*
G03X070679Y056177I-000003J001143D01*
G01X069539Y055038D02*
G03X069536Y055037I000000J-000127D01*
G01X069536Y055037D02*
G03X069532Y055038I-000003J-000126D01*
G01X068393Y056177D02*
G03X069532Y055038I001143J000004D01*
G01X068393Y056177D02*
G03X068392Y056181I-000127J000000D01*
G01X068392Y056181D02*
G03X068393Y056184I-000126J000003D01*
G01X070679Y056184D02*
G03X068393Y056184I-001143J-000003D01*
G01X070679Y056184D02*
G03X070679Y056181I000127J000000D01*
G01X066433Y040941D02*
G03X065312Y041314I-000453J000508D01*
G01X066433Y040941D02*
G03X066393Y040821I000085J-000094D01*
G01X065272Y041194D02*
G03X066393Y040821I000454J-000507D01*
G01X065272Y041194D02*
G03X065312Y041314I-000084J000095D01*
G01X068139Y053641D02*
G03X068139Y053637I000127J-000003D01*
G01X065853Y053637D02*
G03X068139Y053637I001143J000004D01*
G01X065853Y053637D02*
G03X065852Y053641I-000127J000000D01*
G01X065852Y053641D02*
G03X065853Y053644I-000126J000003D01*
G01X066992Y054784D02*
G03X065853Y053644I000004J-001143D01*
G01X066992Y054784D02*
G03X066996Y054784I000000J000127D01*
X066999Y054784I000003J000127*
G01X068139Y053644D02*
G03X066999Y054784I-001143J-000003D01*
G01X068139Y053644D02*
G03X068139Y053641I000127J000000D01*
G01X068139Y056181D02*
G03X068139Y056177I000127J-000003D01*
G01X066999Y055038D02*
G03X068139Y056177I-000003J001143D01*
G01X066999Y055038D02*
G03X066996Y055037I000000J-000127D01*
G01X066996Y055037D02*
G03X066992Y055038I-000003J-000126D01*
G01X065853Y056177D02*
G03X066992Y055038I001143J000004D01*
G01X065853Y056177D02*
G03X065852Y056181I-000127J000000D01*
G01X065852Y056181D02*
G03X065853Y056184I-000126J000003D01*
G01X068139Y056184D02*
G03X065853Y056184I-001143J-000003D01*
G01X068139Y056184D02*
G03X068139Y056181I000127J000000D01*
G01X064294Y045445D02*
G03X063093Y045445I-000600J000322D01*
G01X064294Y045445D02*
G03X064294Y045326I000112J-000059D01*
G01X063920Y044362D02*
G03X064294Y045326I-000226J000643D01*
G01X063920Y044362D02*
G03X063920Y044123I000042J-000119D01*
G01X064294Y043159D02*
G03X063920Y044123I-000600J000322D01*
G01X064294Y043159D02*
G03X064294Y043040I000112J-000059D01*
G01X063093Y043040D02*
G03X064294Y043040I000601J-000321D01*
G01X063093Y043040D02*
G03X063093Y043159I-000111J000060D01*
G01X063467Y044123D02*
G03X063093Y043159I000227J-000642D01*
G01X063467Y044123D02*
G03X063467Y044362I-000041J000120D01*
G01X063093Y045326D02*
G03X063467Y044362I000601J-000321D01*
G01X063093Y045326D02*
G03X063093Y045445I-000111J000060D01*
G01X064294Y047985D02*
G03X063550Y048972I-000600J000322D01*
G01X064294Y047985D02*
G03X064294Y047866I000112J-000059D01*
G01X063093Y047866D02*
G03X064294Y047866I000601J-000321D01*
G01X063093Y047866D02*
G03X063093Y047985I-000111J000060D01*
G01X063409Y048925D02*
G03X063093Y047985I000285J-000618D01*
G01X063409Y048925D02*
G03X063469Y048981I-000052J000116D01*
G01X063469Y048981D02*
G03X063550Y048972I000054J000115D01*
G01X064354Y051559D02*
G03X065181Y052508I000610J000304D01*
G01X064354Y051559D02*
G03X064115Y051519I-000113J-000056D01*
G01X063893Y051101D02*
G03X064115Y051519I-000453J000508D01*
G01X063893Y051101D02*
G03X063853Y050981I000085J-000094D01*
G01X063715Y050418D02*
G03X063853Y050981I-000529J000429D01*
G01X063715Y050418D02*
G03X063715Y050259I000099J-000079D01*
G01X063470Y049212D02*
G03X063715Y050259I-000284J000619D01*
G01X063470Y049212D02*
G03X063410Y049156I000053J-000115D01*
G01X063410Y049156D02*
G03X063329Y049165I-000053J-000114D01*
G01X062656Y050259D02*
G03X063329Y049165I000530J-000428D01*
G01X062656Y050259D02*
G03X062656Y050418I-000098J000080D01*
G01X062732Y051354D02*
G03X062656Y050418I000454J-000507D01*
G01X062732Y051354D02*
G03X062772Y051474I-000084J000095D01*
G01X064049Y051912D02*
G03X062772Y051474I-000609J-000303D01*
G01X064049Y051912D02*
G03X064288Y051952I000114J000057D01*
G01X064438Y052295D02*
G03X064288Y051952I000526J-000432D01*
G01X064438Y052295D02*
G03X064351Y052502I-000098J000081D01*
G01X063313Y053637D02*
G03X064351Y052502I001143J000004D01*
G01X063313Y053637D02*
G03X063312Y053641I-000127J000000D01*
G01X063312Y053641D02*
G03X063313Y053644I-000126J000003D01*
G01X064452Y054784D02*
G03X063313Y053644I000004J-001143D01*
G01X064452Y054784D02*
G03X064456Y054784I000000J000127D01*
X064459Y054784I000003J000127*
G01X065599Y053644D02*
G03X064459Y054784I-001143J-000003D01*
G01X065599Y053644D02*
G03X065599Y053641I000127J000000D01*
X065599Y053637I000127J-000003*
G01X065145Y052729D02*
G03X065599Y053637I-000689J000912D01*
G01X065145Y052729D02*
G03X065181Y052508I000077J-000100D01*
G01X065599Y056181D02*
G03X065599Y056177I000127J-000003D01*
G01X064459Y055038D02*
G03X065599Y056177I-000003J001143D01*
G01X064459Y055038D02*
G03X064456Y055037I000000J-000127D01*
G01X064456Y055037D02*
G03X064452Y055038I-000003J-000126D01*
G01X063313Y056177D02*
G03X064452Y055038I001143J000004D01*
G01X063313Y056177D02*
G03X063312Y056181I-000127J000000D01*
G01X063312Y056181D02*
G03X063313Y056184I-000126J000003D01*
G01X065599Y056184D02*
G03X063313Y056184I-001143J-000003D01*
G01X065599Y056184D02*
G03X065599Y056181I000127J000000D01*
G01X061281Y033321D02*
G03X061281Y033317I000127J-000003D01*
G01X058995Y033317D02*
G03X061281Y033317I001143J000004D01*
G01X058995Y033317D02*
G03X058994Y033321I-000127J000000D01*
G01X058994Y033321D02*
G03X058995Y033324I-000126J000003D01*
G01X060134Y034464D02*
G03X058995Y033324I000004J-001143D01*
G01X060134Y034464D02*
G03X060138Y034464I000000J000127D01*
X060141Y034464I000003J000127*
G01X061281Y033324D02*
G03X060141Y034464I-001143J-000003D01*
G01X061281Y033324D02*
G03X061281Y033321I000127J000000D01*
G01X061181Y036704D02*
G03X060515Y037148I-000027J000681D01*
G01X061181Y036704D02*
G03X061081Y036505I000005J-000126D01*
G01X061281Y035864D02*
G03X061081Y036505I-001143J-000003D01*
G01X061281Y035864D02*
G03X061281Y035861I000127J000000D01*
X061281Y035857I000127J-000003*
G01X060141Y034718D02*
G03X061281Y035857I-000003J001143D01*
G01X060141Y034718D02*
G03X060138Y034717I000000J-000127D01*
G01X060138Y034717D02*
G03X060134Y034718I-000003J-000126D01*
G01X058995Y035857D02*
G03X060134Y034718I001143J000004D01*
G01X058995Y035857D02*
G03X058994Y035861I-000127J000000D01*
G01X058994Y035861D02*
G03X058995Y035864I-000126J000003D01*
G01X060370Y036980D02*
G03X058995Y035864I-000232J-001119D01*
G01X060370Y036980D02*
G03X060515Y037148I000026J000124D01*
G01X058741Y033321D02*
G03X058741Y033317I000127J-000003D01*
G01X056455Y033317D02*
G03X058741Y033317I001143J000004D01*
G01X056455Y033317D02*
G03X056454Y033321I-000127J000000D01*
G01X056454Y033321D02*
G03X056455Y033324I-000126J000003D01*
G01X057594Y034464D02*
G03X056455Y033324I000004J-001143D01*
G01X057594Y034464D02*
G03X057598Y034464I000000J000127D01*
X057601Y034464I000003J000127*
G01X058741Y033324D02*
G03X057601Y034464I-001143J-000003D01*
G01X058741Y033324D02*
G03X058741Y033321I000127J000000D01*
G01X058741Y035861D02*
G03X058741Y035857I000127J-000003D01*
G01X057601Y034718D02*
G03X058741Y035857I-000003J001143D01*
G01X057601Y034718D02*
G03X057598Y034717I000000J-000127D01*
G01X057598Y034717D02*
G03X057594Y034718I-000003J-000126D01*
G01X056455Y035857D02*
G03X057594Y034718I001143J000004D01*
G01X056455Y035857D02*
G03X056454Y035861I-000127J000000D01*
G01X056454Y035861D02*
G03X056455Y035864I-000126J000003D01*
G01X058741Y035864D02*
G03X056455Y035864I-001143J-000003D01*
G01X058741Y035864D02*
G03X058741Y035861I000127J000000D01*
G01X059996Y040640D02*
G03X059716Y041107I000396J000555D01*
G01X059996Y040640D02*
G03X059797Y040520I-000072J-000103D01*
G01X059732Y040130D02*
G03X059797Y040520I-000610J000303D01*
G01X059732Y040130D02*
G03X059772Y039970I000114J-000055D01*
G01X058765Y039719D02*
G03X059772Y039970I000611J-000302D01*
G01X058765Y039719D02*
G03X058725Y039879I-000113J000056D01*
G01X059517Y040987D02*
G03X058725Y039879I-000395J-000554D01*
G01X059517Y040987D02*
G03X059716Y041107I000073J000104D01*
G01X063059Y053641D02*
G03X063059Y053637I000127J-000003D01*
G01X060773Y053637D02*
G03X063059Y053637I001143J000004D01*
G01X060773Y053637D02*
G03X060772Y053641I-000127J000000D01*
G01X060772Y053641D02*
G03X060773Y053644I-000126J000003D01*
G01X061912Y054784D02*
G03X060773Y053644I000004J-001143D01*
G01X061912Y054784D02*
G03X061916Y054784I000000J000127D01*
X061919Y054784I000003J000127*
G01X063059Y053644D02*
G03X061919Y054784I-001143J-000003D01*
G01X063059Y053644D02*
G03X063059Y053641I000127J000000D01*
G01X063059Y056181D02*
G03X063059Y056177I000127J-000003D01*
G01X061919Y055038D02*
G03X063059Y056177I-000003J001143D01*
G01X061919Y055038D02*
G03X061916Y055037I000000J-000127D01*
G01X061916Y055037D02*
G03X061912Y055038I-000003J-000126D01*
G01X060773Y056177D02*
G03X061912Y055038I001143J000004D01*
G01X060773Y056177D02*
G03X060772Y056181I-000127J000000D01*
G01X060772Y056181D02*
G03X060773Y056184I-000126J000003D01*
G01X063059Y056184D02*
G03X060773Y056184I-001143J-000003D01*
G01X063059Y056184D02*
G03X063059Y056181I000127J000000D01*
G01X058489Y043228D02*
G03X059112Y044161I000633J000253D01*
G01X058489Y043228D02*
G03X058369Y043308I-000117J-000046D01*
G01X058992Y044241D02*
G03X058369Y043308I-000632J-000252D01*
G01X058992Y044241D02*
G03X059112Y044161I000118J000047D01*
G01X059549Y047037D02*
G03X059549Y047037I-000681J0D01*
G01X060519Y053641D02*
G03X060519Y053637I000127J-000003D01*
G01X058233Y053637D02*
G03X060519Y053637I001143J000004D01*
G01X058233Y053637D02*
G03X058232Y053641I-000127J000000D01*
G01X058232Y053641D02*
G03X058233Y053644I-000126J000003D01*
G01X059372Y054784D02*
G03X058233Y053644I000004J-001143D01*
G01X059372Y054784D02*
G03X059376Y054784I000000J000127D01*
X059379Y054784I000003J000127*
G01X060519Y053644D02*
G03X059379Y054784I-001143J-000003D01*
G01X060519Y053644D02*
G03X060519Y053641I000127J000000D01*
G01X060519Y056181D02*
G03X060519Y056177I000127J-000003D01*
G01X059379Y055038D02*
G03X060519Y056177I-000003J001143D01*
G01X059379Y055038D02*
G03X059376Y055037I000000J-000127D01*
G01X059376Y055037D02*
G03X059372Y055038I-000003J-000126D01*
G01X058233Y056177D02*
G03X059372Y055038I001143J000004D01*
G01X058233Y056177D02*
G03X058232Y056181I-000127J000000D01*
G01X058232Y056181D02*
G03X058233Y056184I-000126J000003D01*
G01X060519Y056184D02*
G03X058233Y056184I-001143J-000003D01*
G01X060519Y056184D02*
G03X060519Y056181I000127J000000D01*
G01X056201Y033321D02*
G03X056201Y033317I000127J-000003D01*
G01X053915Y033317D02*
G03X056201Y033317I001143J000004D01*
G01X053915Y033317D02*
G03X053914Y033321I-000127J000000D01*
G01X053914Y033321D02*
G03X053915Y033324I-000126J000003D01*
G01X055054Y034464D02*
G03X053915Y033324I000004J-001143D01*
G01X055054Y034464D02*
G03X055058Y034464I000000J000127D01*
X055061Y034464I000003J000127*
G01X056201Y033324D02*
G03X055061Y034464I-001143J-000003D01*
G01X056201Y033324D02*
G03X056201Y033321I000127J000000D01*
G01X056201Y035861D02*
G03X056201Y035857I000127J-000003D01*
G01X055061Y034718D02*
G03X056201Y035857I-000003J001143D01*
G01X055061Y034718D02*
G03X055058Y034717I000000J-000127D01*
G01X055058Y034717D02*
G03X055054Y034718I-000003J-000126D01*
G01X053915Y035857D02*
G03X055054Y034718I001143J000004D01*
G01X053915Y035857D02*
G03X053914Y035861I-000127J000000D01*
G01X053914Y035861D02*
G03X053915Y035864I-000126J000003D01*
G01X056201Y035864D02*
G03X053915Y035864I-001143J-000003D01*
G01X056201Y035864D02*
G03X056201Y035861I000127J000000D01*
G01X056664Y048777D02*
G03X057381Y049494I000680J000038D01*
G01X056664Y048777D02*
G03X056544Y048897I-000126J-000006D01*
G01X057261Y049614D02*
G03X056544Y048897I-000679J-000037D01*
G01X057261Y049614D02*
G03X057381Y049494I000127J000007D01*
G01X057979Y053641D02*
G03X057979Y053637I000127J-000003D01*
G01X055693Y053637D02*
G03X057979Y053637I001143J000004D01*
G01X055693Y053637D02*
G03X055692Y053641I-000127J000000D01*
G01X055692Y053641D02*
G03X055693Y053644I-000126J000003D01*
G01X056832Y054784D02*
G03X055693Y053644I000004J-001143D01*
G01X056832Y054784D02*
G03X056836Y054784I000000J000127D01*
X056839Y054784I000003J000127*
G01X057979Y053644D02*
G03X056839Y054784I-001143J-000003D01*
G01X057979Y053644D02*
G03X057979Y053641I000127J000000D01*
G01X057979Y056181D02*
G03X057979Y056177I000127J-000003D01*
G01X056839Y055038D02*
G03X057979Y056177I-000003J001143D01*
G01X056839Y055038D02*
G03X056836Y055037I000000J-000127D01*
G01X056836Y055037D02*
G03X056832Y055038I-000003J-000126D01*
G01X055693Y056177D02*
G03X056832Y055038I001143J000004D01*
G01X055693Y056177D02*
G03X055692Y056181I-000127J000000D01*
G01X055692Y056181D02*
G03X055693Y056184I-000126J000003D01*
G01X057979Y056184D02*
G03X055693Y056184I-001143J-000003D01*
G01X057979Y056184D02*
G03X057979Y056181I000127J000000D01*
G01X053661Y033321D02*
G03X053661Y033317I000127J-000003D01*
G01X051375Y033317D02*
G03X053661Y033317I001143J000004D01*
G01X051375Y033317D02*
G03X051374Y033321I-000127J000000D01*
G01X051374Y033321D02*
G03X051375Y033324I-000126J000003D01*
G01X052514Y034464D02*
G03X051375Y033324I000004J-001143D01*
G01X052514Y034464D02*
G03X052518Y034464I000000J000127D01*
X052521Y034464I000003J000127*
G01X053661Y033324D02*
G03X052521Y034464I-001143J-000003D01*
G01X053661Y033324D02*
G03X053661Y033321I000127J000000D01*
G01X053661Y035861D02*
G03X053661Y035857I000127J-000003D01*
G01X052521Y034718D02*
G03X053661Y035857I-000003J001143D01*
G01X052521Y034718D02*
G03X052518Y034717I000000J-000127D01*
G01X052518Y034717D02*
G03X052514Y034718I-000003J-000126D01*
G01X051375Y035857D02*
G03X052514Y034718I001143J000004D01*
G01X051375Y035857D02*
G03X051374Y035861I-000127J000000D01*
G01X051374Y035861D02*
G03X051375Y035864I-000126J000003D01*
G01X053661Y035864D02*
G03X051375Y035864I-001143J-000003D01*
G01X053661Y035864D02*
G03X053661Y035861I000127J000000D01*
G01X053453Y043481D02*
G03X053453Y043481I-000681J0D01*
G01X055439Y053641D02*
G03X055439Y053637I000127J-000003D01*
G01X053153Y053637D02*
G03X055439Y053637I001143J000004D01*
G01X053153Y053637D02*
G03X053152Y053641I-000127J000000D01*
G01X053152Y053641D02*
G03X053153Y053644I-000126J000003D01*
G01X054292Y054784D02*
G03X053153Y053644I000004J-001143D01*
G01X054292Y054784D02*
G03X054296Y054784I000000J000127D01*
X054299Y054784I000003J000127*
G01X055439Y053644D02*
G03X054299Y054784I-001143J-000003D01*
G01X055439Y053644D02*
G03X055439Y053641I000127J000000D01*
G01X055439Y056181D02*
G03X055439Y056177I000127J-000003D01*
G01X054299Y055038D02*
G03X055439Y056177I-000003J001143D01*
G01X054299Y055038D02*
G03X054296Y055037I000000J-000127D01*
G01X054296Y055037D02*
G03X054292Y055038I-000003J-000126D01*
G01X053153Y056177D02*
G03X054292Y055038I001143J000004D01*
G01X053153Y056177D02*
G03X053152Y056181I-000127J000000D01*
G01X053152Y056181D02*
G03X053153Y056184I-000126J000003D01*
G01X055439Y056184D02*
G03X053153Y056184I-001143J-000003D01*
G01X055439Y056184D02*
G03X055439Y056181I000127J000000D01*
G01X051121Y033321D02*
G03X051121Y033317I000127J-000003D01*
G01X048835Y033317D02*
G03X051121Y033317I001143J000004D01*
G01X048835Y033317D02*
G03X048834Y033321I-000127J000000D01*
G01X048834Y033321D02*
G03X048835Y033324I-000126J000003D01*
G01X049974Y034464D02*
G03X048835Y033324I000004J-001143D01*
G01X049974Y034464D02*
G03X049978Y034464I000000J000127D01*
X049981Y034464I000003J000127*
G01X051121Y033324D02*
G03X049981Y034464I-001143J-000003D01*
G01X051121Y033324D02*
G03X051121Y033321I000127J000000D01*
G01X050957Y036639D02*
G03X050342Y037796I-000471J000492D01*
G01X050957Y036639D02*
G03X050939Y036479I000088J-000090D01*
G01X051121Y035864D02*
G03X050939Y036479I-001143J-000003D01*
G01X051121Y035864D02*
G03X051121Y035861I000127J000000D01*
X051121Y035857I000127J-000003*
G01X049981Y034718D02*
G03X051121Y035857I-000003J001143D01*
G01X049981Y034718D02*
G03X049978Y034717I000000J-000127D01*
G01X049978Y034717D02*
G03X049974Y034718I-000003J-000126D01*
G01X048835Y035857D02*
G03X049974Y034718I001143J000004D01*
G01X048835Y035857D02*
G03X048834Y035861I-000127J000000D01*
G01X048834Y035861D02*
G03X048835Y035864I-000126J000003D01*
G01X049708Y036971D02*
G03X048835Y035864I000270J-001110D01*
G01X049708Y036971D02*
G03X049805Y037100I-000029J000124D01*
G01X050201Y037749D02*
G03X049805Y037100I000285J-000618D01*
G01X050201Y037749D02*
G03X050261Y037805I-000052J000116D01*
G01X050261Y037805D02*
G03X050342Y037796I000054J000115D01*
G01X048581Y033321D02*
G03X048581Y033317I000127J-000003D01*
G01X046295Y033317D02*
G03X048581Y033317I001143J000004D01*
G01X046295Y033317D02*
G03X046294Y033321I-000127J000000D01*
G01X046294Y033321D02*
G03X046295Y033324I-000126J000003D01*
G01X047434Y034464D02*
G03X046295Y033324I000004J-001143D01*
G01X047434Y034464D02*
G03X047438Y034464I000000J000127D01*
X047441Y034464I000003J000127*
G01X048581Y033324D02*
G03X047441Y034464I-001143J-000003D01*
G01X048581Y033324D02*
G03X048581Y033321I000127J000000D01*
G01X048581Y035861D02*
G03X048581Y035857I000127J-000003D01*
G01X047441Y034718D02*
G03X048581Y035857I-000003J001143D01*
G01X047441Y034718D02*
G03X047438Y034717I000000J-000127D01*
G01X047438Y034717D02*
G03X047434Y034718I-000003J-000126D01*
G01X046295Y035857D02*
G03X047434Y034718I001143J000004D01*
G01X046295Y035857D02*
G03X046294Y035861I-000127J000000D01*
G01X046294Y035861D02*
G03X046295Y035864I-000126J000003D01*
G01X048581Y035864D02*
G03X046295Y035864I-001143J-000003D01*
G01X048581Y035864D02*
G03X048581Y035861I000127J000000D01*
G01X050262Y038036D02*
G03X049302Y038567I-000284J000619D01*
G01X050262Y038036D02*
G03X050202Y037980I000053J-000115D01*
G01X050202Y037980D02*
G03X050121Y037989I-000053J-000114D01*
G01X049582Y038100D02*
G03X050121Y037989I000396J000555D01*
G01X049582Y038100D02*
G03X049383Y037980I-000072J-000103D01*
G01X049103Y038447D02*
G03X049383Y037980I-000395J-000554D01*
G01X049103Y038447D02*
G03X049302Y038567I000073J000104D01*
G01X051675Y051609D02*
G03X051675Y051609I-000681J0D01*
G01X052899Y053641D02*
G03X052899Y053637I000127J-000003D01*
G01X050613Y053637D02*
G03X052899Y053637I001143J000004D01*
G01X050613Y053637D02*
G03X050612Y053641I-000127J000000D01*
G01X050612Y053641D02*
G03X050613Y053644I-000126J000003D01*
G01X051752Y054784D02*
G03X050613Y053644I000004J-001143D01*
G01X051752Y054784D02*
G03X051756Y054784I000000J000127D01*
X051759Y054784I000003J000127*
G01X052899Y053644D02*
G03X051759Y054784I-001143J-000003D01*
G01X052899Y053644D02*
G03X052899Y053641I000127J000000D01*
G01X052899Y056181D02*
G03X052899Y056177I000127J-000003D01*
G01X051759Y055038D02*
G03X052899Y056177I-000003J001143D01*
G01X051759Y055038D02*
G03X051756Y055037I000000J-000127D01*
G01X051756Y055037D02*
G03X051752Y055038I-000003J-000126D01*
G01X050613Y056177D02*
G03X051752Y055038I001143J000004D01*
G01X050613Y056177D02*
G03X050612Y056181I-000127J000000D01*
G01X050612Y056181D02*
G03X050613Y056184I-000126J000003D01*
G01X052899Y056184D02*
G03X050613Y056184I-001143J-000003D01*
G01X052899Y056184D02*
G03X052899Y056181I000127J000000D01*
G01X048627Y039925D02*
G03X048627Y039925I-000681J0D01*
G01X050359Y053641D02*
G03X050359Y053637I000127J-000003D01*
G01X048073Y053637D02*
G03X050359Y053637I001143J000004D01*
G01X048073Y053637D02*
G03X048072Y053641I-000127J000000D01*
G01X048072Y053641D02*
G03X048073Y053644I-000126J000003D01*
G01X049212Y054784D02*
G03X048073Y053644I000004J-001143D01*
G01X049212Y054784D02*
G03X049216Y054784I000000J000127D01*
X049219Y054784I000003J000127*
G01X050359Y053644D02*
G03X049219Y054784I-001143J-000003D01*
G01X050359Y053644D02*
G03X050359Y053641I000127J000000D01*
G01X050359Y056181D02*
G03X050359Y056177I000127J-000003D01*
G01X049219Y055038D02*
G03X050359Y056177I-000003J001143D01*
G01X049219Y055038D02*
G03X049216Y055037I000000J-000127D01*
G01X049216Y055037D02*
G03X049212Y055038I-000003J-000126D01*
G01X048073Y056177D02*
G03X049212Y055038I001143J000004D01*
G01X048073Y056177D02*
G03X048072Y056181I-000127J000000D01*
G01X048072Y056181D02*
G03X048073Y056184I-000126J000003D01*
G01X050359Y056184D02*
G03X048073Y056184I-001143J-000003D01*
G01X050359Y056184D02*
G03X050359Y056181I000127J000000D01*
G01X046041Y033321D02*
G03X046041Y033317I000127J-000003D01*
G01X043755Y033317D02*
G03X046041Y033317I001143J000004D01*
G01X043755Y033317D02*
G03X043754Y033321I-000127J000000D01*
G01X043754Y033321D02*
G03X043755Y033324I-000126J000003D01*
G01X044894Y034464D02*
G03X043755Y033324I000004J-001143D01*
G01X044894Y034464D02*
G03X044898Y034464I000000J000127D01*
X044901Y034464I000003J000127*
G01X046041Y033324D02*
G03X044901Y034464I-001143J-000003D01*
G01X046041Y033324D02*
G03X046041Y033321I000127J000000D01*
G01X046041Y035861D02*
G03X046041Y035857I000127J-000003D01*
G01X044901Y034718D02*
G03X046041Y035857I-000003J001143D01*
G01X044901Y034718D02*
G03X044898Y034717I000000J-000127D01*
G01X044898Y034717D02*
G03X044894Y034718I-000003J-000126D01*
G01X043755Y035857D02*
G03X044894Y034718I001143J000004D01*
G01X043755Y035857D02*
G03X043754Y035861I-000127J000000D01*
G01X043754Y035861D02*
G03X043755Y035864I-000126J000003D01*
G01X046041Y035864D02*
G03X043755Y035864I-001143J-000003D01*
G01X046041Y035864D02*
G03X046041Y035861I000127J000000D01*
G01X046087Y041957D02*
G03X046087Y041957I-000681J0D01*
G01X047819Y053641D02*
G03X047819Y053637I000127J-000003D01*
G01X045533Y053637D02*
G03X047819Y053637I001143J000004D01*
G01X045533Y053637D02*
G03X045532Y053641I-000127J000000D01*
G01X045532Y053641D02*
G03X045533Y053644I-000126J000003D01*
G01X046672Y054784D02*
G03X045533Y053644I000004J-001143D01*
G01X046672Y054784D02*
G03X046676Y054784I000000J000127D01*
X046679Y054784I000003J000127*
G01X047819Y053644D02*
G03X046679Y054784I-001143J-000003D01*
G01X047819Y053644D02*
G03X047819Y053641I000127J000000D01*
G01X047819Y056181D02*
G03X047819Y056177I000127J-000003D01*
G01X046679Y055038D02*
G03X047819Y056177I-000003J001143D01*
G01X046679Y055038D02*
G03X046676Y055037I000000J-000127D01*
G01X046676Y055037D02*
G03X046672Y055038I-000003J-000126D01*
G01X045533Y056177D02*
G03X046672Y055038I001143J000004D01*
G01X045533Y056177D02*
G03X045532Y056181I-000127J000000D01*
G01X045532Y056181D02*
G03X045533Y056184I-000126J000003D01*
G01X047819Y056184D02*
G03X045533Y056184I-001143J-000003D01*
G01X047819Y056184D02*
G03X047819Y056181I000127J000000D01*
G01X043501Y033321D02*
G03X043501Y033317I000127J-000003D01*
G01X041215Y033317D02*
G03X043501Y033317I001143J000004D01*
G01X041215Y033317D02*
G03X041214Y033321I-000127J000000D01*
G01X041214Y033321D02*
G03X041215Y033324I-000126J000003D01*
G01X042354Y034464D02*
G03X041215Y033324I000004J-001143D01*
G01X042354Y034464D02*
G03X042358Y034464I000000J000127D01*
X042361Y034464I000003J000127*
G01X043501Y033324D02*
G03X042361Y034464I-001143J-000003D01*
G01X043501Y033324D02*
G03X043501Y033321I000127J000000D01*
G01X043501Y035861D02*
G03X043501Y035857I000127J-000003D01*
G01X042361Y034718D02*
G03X043501Y035857I-000003J001143D01*
G01X042361Y034718D02*
G03X042358Y034717I000000J-000127D01*
G01X042358Y034717D02*
G03X042354Y034718I-000003J-000126D01*
G01X041215Y035857D02*
G03X042354Y034718I001143J000004D01*
G01X041215Y035857D02*
G03X041214Y035861I-000127J000000D01*
G01X041214Y035861D02*
G03X041215Y035864I-000126J000003D01*
G01X043501Y035864D02*
G03X041215Y035864I-001143J-000003D01*
G01X043501Y035864D02*
G03X043501Y035861I000127J000000D01*
G01X045279Y053641D02*
G03X045279Y053637I000127J-000003D01*
G01X042993Y053637D02*
G03X045279Y053637I001143J000004D01*
G01X042993Y053637D02*
G03X042992Y053641I-000127J000000D01*
G01X042992Y053641D02*
G03X042993Y053644I-000126J000003D01*
G01X044132Y054784D02*
G03X042993Y053644I000004J-001143D01*
G01X044132Y054784D02*
G03X044136Y054784I000000J000127D01*
X044139Y054784I000003J000127*
G01X045279Y053644D02*
G03X044139Y054784I-001143J-000003D01*
G01X045279Y053644D02*
G03X045279Y053641I000127J000000D01*
G01X045279Y056181D02*
G03X045279Y056177I000127J-000003D01*
G01X044139Y055038D02*
G03X045279Y056177I-000003J001143D01*
G01X044139Y055038D02*
G03X044136Y055037I000000J-000127D01*
G01X044136Y055037D02*
G03X044132Y055038I-000003J-000126D01*
G01X042993Y056177D02*
G03X044132Y055038I001143J000004D01*
G01X042993Y056177D02*
G03X042992Y056181I-000127J000000D01*
G01X042992Y056181D02*
G03X042993Y056184I-000126J000003D01*
G01X045279Y056184D02*
G03X042993Y056184I-001143J-000003D01*
G01X045279Y056184D02*
G03X045279Y056181I000127J000000D01*
G01X040797Y036639D02*
G03X039645Y037100I-000471J000492D01*
G01X040797Y036639D02*
G03X040779Y036479I000088J-000090D01*
G01X040961Y035864D02*
G03X040779Y036479I-001143J-000003D01*
G01X040961Y035864D02*
G03X040961Y035861I000127J000000D01*
X040961Y035857I000127J-000003*
G01X039821Y034718D02*
G03X040961Y035857I-000003J001143D01*
G01X039821Y034718D02*
G03X039818Y034717I000000J-000127D01*
G01X039818Y034717D02*
G03X039814Y034718I-000003J-000126D01*
G01X038675Y035856D02*
G03X039814Y034718I001143J000005D01*
G01X038675Y035856D02*
G03X038674Y035861I-000126J-000000D01*
G01X038674Y035861D02*
G03X038675Y035865I-000125J000005D01*
G01X039548Y036971D02*
G03X038675Y035865I000270J-001110D01*
G01X039548Y036971D02*
G03X039645Y037100I-000029J000124D01*
G01X042023Y040941D02*
G03X042023Y040941I-000681J0D01*
G01X042739Y053641D02*
G03X042739Y053637I000127J-000003D01*
G01X042024Y052581D02*
G03X042739Y053637I-000428J001060D01*
G01X042024Y052581D02*
G03X041957Y052409I000047J-000117D01*
G01X040854Y052592D02*
G03X041957Y052409I000488J-000475D01*
G01X040854Y052592D02*
G03X040847Y052777I-000090J000089D01*
G01X040453Y053637D02*
G03X040847Y052777I001143J000004D01*
G01X040453Y053637D02*
G03X040452Y053641I-000127J000000D01*
G01X040452Y053641D02*
G03X040453Y053644I-000126J000003D01*
G01X041592Y054784D02*
G03X040453Y053644I000004J-001143D01*
G01X041592Y054784D02*
G03X041596Y054784I000000J000127D01*
X041599Y054784I000003J000127*
G01X042739Y053644D02*
G03X041599Y054784I-001143J-000003D01*
G01X042739Y053644D02*
G03X042739Y053641I000127J000000D01*
G01X042739Y056181D02*
G03X042739Y056177I000127J-000003D01*
G01X041599Y055038D02*
G03X042739Y056177I-000003J001143D01*
G01X041599Y055038D02*
G03X041596Y055037I000000J-000127D01*
G01X041596Y055037D02*
G03X041592Y055038I-000003J-000126D01*
G01X040453Y056177D02*
G03X041592Y055038I001143J000004D01*
G01X040453Y056177D02*
G03X040452Y056181I-000127J000000D01*
G01X040452Y056181D02*
G03X040453Y056184I-000126J000003D01*
G01X042739Y056184D02*
G03X040453Y056184I-001143J-000003D01*
G01X042739Y056184D02*
G03X042739Y056181I000127J000000D01*
G01X039991Y039163D02*
G03X039991Y039163I-000681J0D01*
G01X039991Y041195D02*
G03X039991Y041195I-000681J0D01*
G01X038421Y033321D02*
G03X038421Y033317I000127J-000003D01*
G01X037273Y034464D02*
G03X038421Y033317I000005J-001143D01*
G01X037273Y034464D02*
G03X037278Y034464I-000000J000126D01*
X037282Y034464I000005J000126*
G01X038421Y033324D02*
G03X037282Y034464I-001143J-000003D01*
G01X038421Y033324D02*
G03X038421Y033321I000127J000000D01*
G01X038421Y035861D02*
G03X038421Y035855I000127J-000005D01*
G01X038421Y035855D02*
X038421Y035099D01*
X038040Y034717D02*
G03X038421Y035099I000000J000382D01*
G01X038040Y034717D02*
X037283Y034717D01*
X037283Y034717D02*
G03X037278Y034717I000000J-000126D01*
G01X037278Y034717D02*
G03X037272Y034717I-000005J-000126D01*
G01X037272Y034717D02*
X036516Y034717D01*
X036134Y035099D02*
G03X036516Y034717I000382J000000D01*
G01X036134Y035099D02*
X036134Y036623D01*
X036516Y037004D02*
G03X036134Y036623I000000J-000381D01*
G01X036516Y037004D02*
X038040Y037004D01*
X038421Y036623D02*
G03X038040Y037004I-000381J000000D01*
G01X038421Y036623D02*
X038421Y035866D01*
G03X038421Y035861I000127J000000*
G01X038294Y048942D02*
X038294Y047418D01*
X037913Y047036D02*
G03X038294Y047418I000000J000382D01*
G01X037913Y047036D02*
X036389Y047036D01*
X036007Y047418D02*
G03X036389Y047036I000382J000000D01*
G01X036007Y047418D02*
X036007Y048174D01*
X036007Y048174D02*
G03X036007Y048180I-000126J000000D01*
G01X036007Y048180D02*
G03X036007Y048185I-000126J000005D01*
G01X036007Y048185D02*
X036007Y048942D01*
X036389Y049323D02*
G03X036007Y048942I000000J-000381D01*
G01X036389Y049323D02*
X037913Y049323D01*
X038294Y048942D02*
G03X037913Y049323I-000381J000000D01*
G01X040199Y053641D02*
G03X040199Y053637I000127J-000003D01*
G01X037913Y053637D02*
G03X040199Y053637I001143J000004D01*
G01X037913Y053637D02*
G03X037912Y053641I-000127J000000D01*
G01X037912Y053641D02*
G03X037913Y053644I-000126J000003D01*
G01X039052Y054784D02*
G03X037913Y053644I000004J-001143D01*
G01X039052Y054784D02*
G03X039056Y054784I000000J000127D01*
X039059Y054784I000003J000127*
G01X040199Y053644D02*
G03X039059Y054784I-001143J-000003D01*
G01X040199Y053644D02*
G03X040199Y053641I000127J000000D01*
G01X040199Y056181D02*
G03X040199Y056177I000127J-000003D01*
G01X039059Y055038D02*
G03X040199Y056177I-000003J001143D01*
G01X039059Y055038D02*
G03X039056Y055037I000000J-000127D01*
G01X039056Y055037D02*
G03X039052Y055038I-000003J-000126D01*
G01X037913Y056176D02*
G03X039052Y055038I001143J000005D01*
G01X037913Y056176D02*
G03X037912Y056181I-000126J-000000D01*
G01X037912Y056181D02*
G03X037913Y056185I-000125J000005D01*
G01X040199Y056184D02*
G03X037913Y056185I-001143J-000003D01*
G01X040199Y056184D02*
G03X040199Y056181I000127J000000D01*
G01X035754Y048180D02*
G03X035754Y048175I000126J-000005D01*
G01X035754Y048184D02*
G03X035754Y048175I-001143J-000004D01*
G01X035754Y048184D02*
G03X035754Y048180I000126J000001D01*
G01X037659Y053641D02*
G03X037659Y053637I000127J-000003D01*
G01X036511Y054784D02*
G03X037659Y053637I000005J-001143D01*
G01X036511Y054784D02*
G03X036516Y054784I-000000J000126D01*
X036520Y054784I000005J000126*
G01X037659Y053644D02*
G03X036520Y054784I-001143J-000003D01*
G01X037659Y053644D02*
G03X037659Y053641I000127J000000D01*
G01X037659Y056181D02*
G03X037659Y056175I000127J-000005D01*
G01X037659Y056175D02*
X037659Y055419D01*
X037278Y055037D02*
G03X037659Y055419I000000J000382D01*
G01X037278Y055037D02*
X036521Y055037D01*
X036521Y055037D02*
G03X036516Y055037I000000J-000126D01*
G01X036516Y055037D02*
G03X036510Y055037I-000005J-000126D01*
G01X036510Y055037D02*
X035754Y055037D01*
X035372Y055419D02*
G03X035754Y055037I000382J000000D01*
G01X035372Y055419D02*
X035372Y056943D01*
X035754Y057324D02*
G03X035372Y056943I000000J-000381D01*
G01X035754Y057324D02*
X037278Y057324D01*
X037659Y056943D02*
G03X037278Y057324I-000381J000000D01*
G01X037659Y056943D02*
X037659Y056186D01*
G03X037659Y056181I000127J000000*
G01X063821Y035861D02*
G03X063821Y035857I000127J-000003D01*
G01X062681Y034718D02*
G03X063821Y035857I-000003J001143D01*
G01X062681Y034718D02*
G03X062678Y034717I000000J-000127D01*
G01X062678Y034717D02*
G03X062674Y034718I-000003J-000126D01*
G01X061535Y035857D02*
G03X062674Y034718I001143J000004D01*
G01X061535Y035857D02*
G03X061534Y035861I-000127J000000D01*
G01X061534Y035861D02*
G03X061535Y035864I-000126J000003D01*
G01X063821Y035864D02*
G03X061535Y035864I-001143J-000003D01*
G01X063821Y035864D02*
G03X063821Y035861I000127J000000D01*
G01X030547Y058187D02*
X092014Y058187D01*
X030547Y057958D02*
X092014Y057958D01*
X030547Y057730D02*
X092014Y057730D01*
X030547Y057501D02*
X092014Y057501D01*
X085114Y057272D02*
X092014Y057272D01*
X085525Y057044D02*
X092014Y057044D01*
X085726Y056815D02*
X092014Y056815D01*
X085844Y056587D02*
X092014Y056587D01*
X085905Y056358D02*
X092014Y056358D01*
X085917Y056129D02*
X092014Y056129D01*
X085884Y055901D02*
X092014Y055901D01*
X085799Y055672D02*
X092014Y055672D01*
X085649Y055444D02*
X092014Y055444D01*
X085387Y055215D02*
X092014Y055215D01*
X030547Y054986D02*
X092014Y054986D01*
X085017Y054758D02*
X092014Y054758D01*
X085494Y054529D02*
X092014Y054529D01*
X085709Y054301D02*
X092014Y054301D01*
X085834Y054072D02*
X092014Y054072D01*
X085900Y053843D02*
X092014Y053843D01*
X091605Y053615D02*
X092014Y053615D01*
X091681Y053386D02*
X092014Y053386D01*
X091681Y053158D02*
X092014Y053158D01*
X091681Y052929D02*
X092014Y052929D01*
X091681Y052700D02*
X092014Y052700D01*
X091681Y052472D02*
X092014Y052472D01*
X091681Y052243D02*
X092014Y052243D01*
X091681Y052015D02*
X092014Y052015D01*
X091681Y051786D02*
X092014Y051786D01*
X091681Y051557D02*
X092014Y051557D01*
X091681Y051329D02*
X092014Y051329D01*
X091681Y051100D02*
X092014Y051100D01*
X091681Y050872D02*
X092014Y050872D01*
X091681Y050643D02*
X092014Y050643D01*
X091681Y050414D02*
X092014Y050414D01*
X091681Y050186D02*
X092014Y050186D01*
X091681Y049957D02*
X092014Y049957D01*
X091681Y049729D02*
X092014Y049729D01*
X091681Y049500D02*
X092014Y049500D01*
X091681Y049271D02*
X092014Y049271D01*
X091681Y049043D02*
X092014Y049043D01*
X091681Y048814D02*
X092014Y048814D01*
X091681Y048586D02*
X092014Y048586D01*
X091681Y048357D02*
X092014Y048357D01*
X091681Y048128D02*
X092014Y048128D01*
X091681Y047900D02*
X092014Y047900D01*
X091681Y047671D02*
X092014Y047671D01*
X091681Y047443D02*
X092014Y047443D01*
X091681Y047214D02*
X092014Y047214D01*
X091681Y046985D02*
X092014Y046985D01*
X091681Y046757D02*
X092014Y046757D01*
X091681Y046528D02*
X092014Y046528D01*
X091681Y046300D02*
X092014Y046300D01*
X091681Y046071D02*
X092014Y046071D01*
X091681Y045842D02*
X092014Y045842D01*
X091681Y045614D02*
X092014Y045614D01*
X091681Y045385D02*
X092014Y045385D01*
X091681Y045157D02*
X092014Y045157D01*
X091681Y044928D02*
X092014Y044928D01*
X091637Y044699D02*
X092014Y044699D01*
X078813Y044471D02*
X092014Y044471D01*
X078853Y044242D02*
X092014Y044242D01*
X078813Y044014D02*
X092014Y044014D01*
X078676Y043785D02*
X092014Y043785D01*
X072925Y043556D02*
X092014Y043556D01*
X073003Y043328D02*
X092014Y043328D01*
X072999Y043099D02*
X092014Y043099D01*
X072910Y042871D02*
X092014Y042871D01*
X072679Y042642D02*
X092014Y042642D01*
X075629Y042413D02*
X092014Y042413D01*
X075765Y042185D02*
X092014Y042185D01*
X075805Y041956D02*
X092014Y041956D01*
X075765Y041728D02*
X092014Y041728D01*
X088561Y041499D02*
X092014Y041499D01*
X088705Y041270D02*
X092014Y041270D01*
X088713Y041042D02*
X092014Y041042D01*
X088713Y040813D02*
X092014Y040813D01*
X088713Y040585D02*
X092014Y040585D01*
X088713Y040356D02*
X092014Y040356D01*
X088713Y040127D02*
X092014Y040127D01*
X088713Y039899D02*
X092014Y039899D01*
X088713Y039670D02*
X092014Y039670D01*
X088636Y039442D02*
X092014Y039442D01*
X073741Y039213D02*
X092014Y039213D01*
X073618Y038984D02*
X092014Y038984D01*
X073256Y038756D02*
X092014Y038756D01*
X069592Y038527D02*
X092014Y038527D01*
X069691Y038299D02*
X092014Y038299D01*
X069704Y038070D02*
X092014Y038070D01*
X069636Y037841D02*
X092014Y037841D01*
X069450Y037613D02*
X092014Y037613D01*
X067169Y037384D02*
X092014Y037384D01*
X067129Y037156D02*
X092014Y037156D01*
X085949Y036927D02*
X092014Y036927D01*
X086315Y036698D02*
X092014Y036698D01*
X086505Y036470D02*
X092014Y036470D01*
X086615Y036241D02*
X092014Y036241D01*
X090931Y036013D02*
X092014Y036013D01*
X091402Y035784D02*
X092014Y035784D01*
X091672Y035555D02*
X092014Y035555D01*
X091593Y033041D02*
X092014Y033041D01*
X091279Y032812D02*
X092014Y032812D01*
X090511Y032584D02*
X092014Y032584D01*
X086149Y032355D02*
X092014Y032355D01*
X066891Y032126D02*
X092014Y032126D01*
X066780Y031898D02*
X092014Y031898D01*
X091806Y033269D02*
X091969Y033269D01*
X086411Y032584D02*
X090304Y032584D01*
X086670Y036013D02*
X089884Y036013D01*
X086561Y032812D02*
X089536Y032812D01*
X086678Y035784D02*
X089413Y035784D01*
X086646Y033041D02*
X089222Y033041D01*
X086639Y035555D02*
X089143Y035555D01*
X086679Y033269D02*
X089013Y033269D01*
X086548Y035327D02*
X088957Y035327D01*
X086667Y033498D02*
X088865Y033498D01*
X086389Y035098D02*
X088825Y035098D01*
X086606Y033727D02*
X088761Y033727D01*
X086107Y034870D02*
X088734Y034870D01*
X086488Y033955D02*
X088693Y033955D01*
X070186Y034641D02*
X088678Y034641D01*
X086287Y034184D02*
X088658Y034184D01*
X085876Y034412D02*
X088653Y034412D01*
X085918Y053615D02*
X088201Y053615D01*
X078677Y044699D02*
X088169Y044699D01*
X085890Y053386D02*
X088125Y053386D01*
X085811Y053158D02*
X088125Y053158D01*
X085670Y052929D02*
X088125Y052929D01*
X085426Y052700D02*
X088125Y052700D01*
X072004Y052472D02*
X088125Y052472D01*
X071983Y052243D02*
X088125Y052243D01*
X071987Y052015D02*
X088125Y052015D01*
X071909Y051786D02*
X088125Y051786D01*
X071702Y051557D02*
X088125Y051557D01*
X065386Y051329D02*
X088125Y051329D01*
X063893Y051100D02*
X088125Y051100D01*
X063866Y050872D02*
X088125Y050872D01*
X063835Y050643D02*
X088125Y050643D01*
X063712Y050414D02*
X088125Y050414D01*
X063766Y050186D02*
X088125Y050186D01*
X068258Y049957D02*
X088125Y049957D01*
X068941Y049729D02*
X088125Y049729D01*
X069300Y049500D02*
X088125Y049500D01*
X069424Y049271D02*
X088125Y049271D01*
X069454Y049043D02*
X088125Y049043D01*
X069405Y048814D02*
X088125Y048814D01*
X077325Y048586D02*
X088125Y048586D01*
X077511Y048357D02*
X088125Y048357D01*
X077578Y048128D02*
X088125Y048128D01*
X077565Y047900D02*
X088125Y047900D01*
X077466Y047671D02*
X088125Y047671D01*
X077204Y047443D02*
X088125Y047443D01*
X071717Y047214D02*
X088125Y047214D01*
X072835Y046985D02*
X088125Y046985D01*
X083224Y046757D02*
X088125Y046757D01*
X083376Y046528D02*
X088125Y046528D01*
X083424Y046300D02*
X088125Y046300D01*
X083393Y046071D02*
X088125Y046071D01*
X083270Y045842D02*
X088125Y045842D01*
X082908Y045614D02*
X088125Y045614D01*
X076047Y045385D02*
X088125Y045385D01*
X075958Y045157D02*
X088125Y045157D01*
X075727Y044928D02*
X088125Y044928D01*
X085441Y041499D02*
X086578Y041499D01*
X085599Y039442D02*
X086503Y039442D01*
X085807Y041270D02*
X086434Y041270D01*
X085997Y041042D02*
X086426Y041042D01*
X086107Y040813D02*
X086426Y040813D01*
X086162Y040585D02*
X086426Y040585D01*
X086170Y040356D02*
X086426Y040356D01*
X086131Y040127D02*
X086426Y040127D01*
X086040Y039899D02*
X086426Y039899D01*
X085881Y039670D02*
X086426Y039670D01*
X083336Y034412D02*
X085199Y034412D01*
X083409Y036927D02*
X085126Y036927D01*
X083567Y034870D02*
X084968Y034870D01*
X083609Y032355D02*
X084926Y032355D01*
X083747Y034184D02*
X084788Y034184D01*
X083775Y036698D02*
X084760Y036698D01*
X083849Y035098D02*
X084686Y035098D01*
X083871Y032584D02*
X084664Y032584D01*
X082901Y041499D02*
X084618Y041499D01*
X083948Y033955D02*
X084587Y033955D01*
X083965Y036470D02*
X084570Y036470D01*
X082477Y054758D02*
X084534Y054758D01*
X084008Y035327D02*
X084527Y035327D01*
X084021Y032812D02*
X084514Y032812D01*
X084066Y033727D02*
X084469Y033727D01*
X083059Y039442D02*
X084460Y039442D01*
X084075Y036241D02*
X084460Y036241D01*
X082574Y057272D02*
X084437Y057272D01*
X084099Y035555D02*
X084436Y035555D01*
X084106Y033041D02*
X084429Y033041D01*
X084127Y033498D02*
X084408Y033498D01*
X084130Y036013D02*
X084405Y036013D01*
X084138Y035784D02*
X084397Y035784D01*
X084139Y033269D02*
X084396Y033269D01*
X083267Y041270D02*
X084252Y041270D01*
X083341Y039670D02*
X084178Y039670D01*
X082847Y055215D02*
X084164Y055215D01*
X082886Y052700D02*
X084125Y052700D01*
X083457Y041042D02*
X084062Y041042D01*
X082954Y054529D02*
X084057Y054529D01*
X082985Y057044D02*
X084026Y057044D01*
X083500Y039899D02*
X084019Y039899D01*
X083567Y040813D02*
X083952Y040813D01*
X083591Y040127D02*
X083928Y040127D01*
X083109Y055444D02*
X083902Y055444D01*
X083622Y040585D02*
X083897Y040585D01*
X083630Y040356D02*
X083889Y040356D01*
X083130Y052929D02*
X083881Y052929D01*
X083169Y054301D02*
X083842Y054301D01*
X083186Y056815D02*
X083825Y056815D01*
X083259Y055672D02*
X083752Y055672D01*
X083271Y053158D02*
X083740Y053158D01*
X083294Y054072D02*
X083717Y054072D01*
X083304Y056587D02*
X083707Y056587D01*
X083344Y055901D02*
X083667Y055901D01*
X083350Y053386D02*
X083661Y053386D01*
X083360Y053843D02*
X083651Y053843D01*
X083365Y056358D02*
X083646Y056358D01*
X083377Y056129D02*
X083634Y056129D01*
X083378Y053615D02*
X083633Y053615D01*
X080796Y034412D02*
X082659Y034412D01*
X080869Y036927D02*
X082586Y036927D01*
X080622Y045614D02*
X082579Y045614D01*
X081027Y034870D02*
X082428Y034870D01*
X081069Y032355D02*
X082386Y032355D01*
X080938Y046757D02*
X082263Y046757D01*
X081207Y034184D02*
X082248Y034184D01*
X081235Y036698D02*
X082220Y036698D01*
X080984Y045842D02*
X082217Y045842D01*
X081309Y035098D02*
X082146Y035098D01*
X081331Y032584D02*
X082124Y032584D01*
X081090Y046528D02*
X082112Y046528D01*
X081107Y046071D02*
X082094Y046071D01*
X080361Y041499D02*
X082078Y041499D01*
X081138Y046300D02*
X082063Y046300D01*
X081408Y033955D02*
X082047Y033955D01*
X081425Y036470D02*
X082030Y036470D01*
X079937Y054758D02*
X081994Y054758D01*
X081468Y035327D02*
X081987Y035327D01*
X081481Y032812D02*
X081974Y032812D01*
X081526Y033727D02*
X081929Y033727D01*
X080519Y039442D02*
X081920Y039442D01*
X081535Y036241D02*
X081920Y036241D01*
X080034Y057272D02*
X081897Y057272D01*
X081559Y035555D02*
X081896Y035555D01*
X081566Y033041D02*
X081889Y033041D01*
X081587Y033498D02*
X081868Y033498D01*
X081590Y036013D02*
X081865Y036013D01*
X081598Y035784D02*
X081857Y035784D01*
X081599Y033269D02*
X081856Y033269D01*
X080727Y041270D02*
X081712Y041270D01*
X080801Y039670D02*
X081638Y039670D01*
X080307Y055215D02*
X081624Y055215D01*
X080346Y052700D02*
X081585Y052700D01*
X080917Y041042D02*
X081522Y041042D01*
X080414Y054529D02*
X081517Y054529D01*
X080445Y057044D02*
X081486Y057044D01*
X080960Y039899D02*
X081479Y039899D01*
X081027Y040813D02*
X081412Y040813D01*
X081051Y040127D02*
X081388Y040127D01*
X080569Y055444D02*
X081362Y055444D01*
X081082Y040585D02*
X081357Y040585D01*
X081090Y040356D02*
X081349Y040356D01*
X080590Y052929D02*
X081341Y052929D01*
X080629Y054301D02*
X081302Y054301D01*
X080646Y056815D02*
X081285Y056815D01*
X080719Y055672D02*
X081212Y055672D01*
X080731Y053158D02*
X081200Y053158D01*
X080754Y054072D02*
X081177Y054072D01*
X080764Y056587D02*
X081167Y056587D01*
X080804Y055901D02*
X081127Y055901D01*
X080810Y053386D02*
X081121Y053386D01*
X080820Y053843D02*
X081111Y053843D01*
X080825Y056358D02*
X081106Y056358D01*
X080837Y056129D02*
X081094Y056129D01*
X080838Y053615D02*
X081093Y053615D01*
X076051Y045614D02*
X080293Y045614D01*
X078256Y034412D02*
X080119Y034412D01*
X078329Y036927D02*
X080046Y036927D01*
X072971Y046757D02*
X079977Y046757D01*
X075973Y045842D02*
X079931Y045842D01*
X078487Y034870D02*
X079888Y034870D01*
X078529Y032355D02*
X079846Y032355D01*
X073011Y046528D02*
X079826Y046528D01*
X075767Y046071D02*
X079808Y046071D01*
X072971Y046300D02*
X079777Y046300D01*
X078667Y034184D02*
X079708Y034184D01*
X078695Y036698D02*
X079680Y036698D01*
X078769Y035098D02*
X079606Y035098D01*
X078791Y032584D02*
X079584Y032584D01*
X077821Y041499D02*
X079538Y041499D01*
X078868Y033955D02*
X079507Y033955D01*
X078885Y036470D02*
X079490Y036470D01*
X077397Y054758D02*
X079454Y054758D01*
X078928Y035327D02*
X079447Y035327D01*
X078941Y032812D02*
X079434Y032812D01*
X078986Y033727D02*
X079389Y033727D01*
X077979Y039442D02*
X079380Y039442D01*
X078995Y036241D02*
X079380Y036241D01*
X077494Y057272D02*
X079357Y057272D01*
X079019Y035555D02*
X079356Y035555D01*
X079026Y033041D02*
X079349Y033041D01*
X079047Y033498D02*
X079328Y033498D01*
X079050Y036013D02*
X079325Y036013D01*
X079058Y035784D02*
X079317Y035784D01*
X079059Y033269D02*
X079316Y033269D01*
X078187Y041270D02*
X079172Y041270D01*
X078261Y039670D02*
X079098Y039670D01*
X077767Y055215D02*
X079084Y055215D01*
X077806Y052700D02*
X079045Y052700D01*
X078377Y041042D02*
X078982Y041042D01*
X077874Y054529D02*
X078977Y054529D01*
X077905Y057044D02*
X078946Y057044D01*
X078420Y039899D02*
X078939Y039899D01*
X078487Y040813D02*
X078872Y040813D01*
X078511Y040127D02*
X078848Y040127D01*
X078029Y055444D02*
X078822Y055444D01*
X078542Y040585D02*
X078817Y040585D01*
X078550Y040356D02*
X078809Y040356D01*
X078050Y052929D02*
X078801Y052929D01*
X078089Y054301D02*
X078762Y054301D01*
X078106Y056815D02*
X078745Y056815D01*
X078179Y055672D02*
X078672Y055672D01*
X078191Y053158D02*
X078660Y053158D01*
X078214Y054072D02*
X078637Y054072D01*
X078224Y056587D02*
X078627Y056587D01*
X078264Y055901D02*
X078587Y055901D01*
X078270Y053386D02*
X078581Y053386D01*
X078280Y053843D02*
X078571Y053843D01*
X078285Y056358D02*
X078566Y056358D01*
X078297Y056129D02*
X078554Y056129D01*
X078298Y053615D02*
X078553Y053615D01*
X072719Y043785D02*
X077667Y043785D01*
X064302Y044699D02*
X077666Y044699D01*
X075716Y034412D02*
X077579Y034412D01*
X064117Y044014D02*
X077530Y044014D01*
X064116Y044471D02*
X077530Y044471D01*
X075789Y036927D02*
X077506Y036927D01*
X063835Y044242D02*
X077490Y044242D01*
X075947Y034870D02*
X077348Y034870D01*
X075989Y032355D02*
X077306Y032355D01*
X076127Y034184D02*
X077168Y034184D01*
X076155Y036698D02*
X077140Y036698D01*
X076229Y035098D02*
X077066Y035098D01*
X076251Y032584D02*
X077044Y032584D01*
X075628Y041499D02*
X076998Y041499D01*
X076328Y033955D02*
X076967Y033955D01*
X076345Y036470D02*
X076950Y036470D01*
X074857Y054758D02*
X076914Y054758D01*
X076388Y035327D02*
X076907Y035327D01*
X076401Y032812D02*
X076894Y032812D01*
X076446Y033727D02*
X076849Y033727D01*
X073772Y039442D02*
X076840Y039442D01*
X076455Y036241D02*
X076840Y036241D01*
X074954Y057272D02*
X076817Y057272D01*
X076479Y035555D02*
X076816Y035555D01*
X076486Y033041D02*
X076809Y033041D01*
X076507Y033498D02*
X076788Y033498D01*
X076510Y036013D02*
X076785Y036013D01*
X076518Y035784D02*
X076777Y035784D01*
X076519Y033269D02*
X076776Y033269D01*
X075363Y041270D02*
X076632Y041270D01*
X071606Y047443D02*
X076599Y047443D01*
X073724Y039670D02*
X076558Y039670D01*
X075227Y055215D02*
X076544Y055215D01*
X075266Y052700D02*
X076505Y052700D01*
X069254Y048586D02*
X076478Y048586D01*
X075682Y041042D02*
X076442Y041042D01*
X075334Y054529D02*
X076437Y054529D01*
X075365Y057044D02*
X076406Y057044D01*
X075800Y039899D02*
X076399Y039899D01*
X071306Y047671D02*
X076337Y047671D01*
X075942Y040813D02*
X076332Y040813D01*
X075986Y040127D02*
X076308Y040127D01*
X064373Y048357D02*
X076292Y048357D01*
X075489Y055444D02*
X076282Y055444D01*
X076045Y040585D02*
X076269Y040585D01*
X075510Y052929D02*
X076261Y052929D01*
X064282Y047900D02*
X076238Y047900D01*
X064351Y048128D02*
X076225Y048128D01*
X075549Y054301D02*
X076222Y054301D01*
X075566Y056815D02*
X076205Y056815D01*
X075639Y055672D02*
X076132Y055672D01*
X075651Y053158D02*
X076120Y053158D01*
X075674Y054072D02*
X076097Y054072D01*
X075684Y056587D02*
X076087Y056587D01*
X075724Y055901D02*
X076047Y055901D01*
X075730Y053386D02*
X076041Y053386D01*
X075740Y053843D02*
X076031Y053843D01*
X075745Y056358D02*
X076026Y056358D01*
X075757Y056129D02*
X076014Y056129D01*
X075758Y053615D02*
X076013Y053615D01*
X071352Y041042D02*
X075073Y041042D01*
X071463Y041270D02*
X075071Y041270D01*
X073176Y034412D02*
X075039Y034412D01*
X072679Y044928D02*
X075028Y044928D01*
X072841Y046071D02*
X074988Y046071D01*
X073249Y036927D02*
X074966Y036927D01*
X073572Y039899D02*
X074955Y039899D01*
X071051Y040813D02*
X074813Y040813D01*
X073407Y034870D02*
X074808Y034870D01*
X072910Y045157D02*
X074797Y045157D01*
X072925Y045842D02*
X074782Y045842D01*
X067892Y040127D02*
X074769Y040127D01*
X073449Y032355D02*
X074766Y032355D01*
X068177Y040585D02*
X074714Y040585D01*
X072999Y045385D02*
X074709Y045385D01*
X073003Y045614D02*
X074704Y045614D01*
X068099Y040356D02*
X074701Y040356D01*
X073587Y034184D02*
X074628Y034184D01*
X071485Y041499D02*
X074619Y041499D01*
X064302Y042413D02*
X074618Y042413D01*
X073615Y036698D02*
X074600Y036698D01*
X073689Y035098D02*
X074526Y035098D01*
X073711Y032584D02*
X074504Y032584D01*
X071427Y041728D02*
X074482Y041728D01*
X064116Y042185D02*
X074482Y042185D01*
X071259Y041956D02*
X074442Y041956D01*
X073788Y033955D02*
X074427Y033955D01*
X073805Y036470D02*
X074410Y036470D01*
X072317Y054758D02*
X074374Y054758D01*
X073848Y035327D02*
X074367Y035327D01*
X073861Y032812D02*
X074354Y032812D01*
X073906Y033727D02*
X074309Y033727D01*
X073915Y036241D02*
X074300Y036241D01*
X072414Y057272D02*
X074277Y057272D01*
X073939Y035555D02*
X074276Y035555D01*
X073946Y033041D02*
X074269Y033041D01*
X073967Y033498D02*
X074248Y033498D01*
X073970Y036013D02*
X074245Y036013D01*
X073978Y035784D02*
X074237Y035784D01*
X073979Y033269D02*
X074236Y033269D01*
X072687Y055215D02*
X074004Y055215D01*
X072726Y052700D02*
X073965Y052700D01*
X072794Y054529D02*
X073897Y054529D01*
X072825Y057044D02*
X073866Y057044D01*
X072949Y055444D02*
X073742Y055444D01*
X072970Y052929D02*
X073721Y052929D01*
X073009Y054301D02*
X073682Y054301D01*
X073026Y056815D02*
X073665Y056815D01*
X073099Y055672D02*
X073592Y055672D01*
X073111Y053158D02*
X073580Y053158D01*
X073134Y054072D02*
X073557Y054072D01*
X073144Y056587D02*
X073547Y056587D01*
X073184Y055901D02*
X073507Y055901D01*
X073190Y053386D02*
X073501Y053386D01*
X073200Y053843D02*
X073491Y053843D01*
X073205Y056358D02*
X073486Y056358D01*
X073217Y056129D02*
X073474Y056129D01*
X073218Y053615D02*
X073473Y053615D01*
X069332Y038756D02*
X072927Y038756D01*
X059856Y039899D02*
X072611Y039899D01*
X059902Y038984D02*
X072565Y038984D01*
X070636Y034412D02*
X072499Y034412D01*
X060008Y039670D02*
X072460Y039670D01*
X060025Y039213D02*
X072442Y039213D01*
X070709Y036927D02*
X072426Y036927D01*
X060056Y039442D02*
X072411Y039442D01*
X070867Y034870D02*
X072268Y034870D01*
X070909Y032355D02*
X072226Y032355D01*
X071047Y034184D02*
X072088Y034184D01*
X071075Y036698D02*
X072060Y036698D01*
X071149Y035098D02*
X071986Y035098D01*
X071155Y044928D02*
X071980Y044928D01*
X070139Y042642D02*
X071980Y042642D01*
X071171Y032584D02*
X071964Y032584D01*
X070179Y043785D02*
X071940Y043785D01*
X071248Y033955D02*
X071887Y033955D01*
X071265Y036470D02*
X071870Y036470D01*
X069777Y054758D02*
X071834Y054758D01*
X071308Y035327D02*
X071827Y035327D01*
X071321Y032812D02*
X071814Y032812D01*
X071366Y033727D02*
X071769Y033727D01*
X071375Y036241D02*
X071760Y036241D01*
X071386Y045157D02*
X071749Y045157D01*
X070370Y042871D02*
X071749Y042871D01*
X069874Y057272D02*
X071737Y057272D01*
X071399Y035555D02*
X071736Y035555D01*
X070385Y043556D02*
X071734Y043556D01*
X071406Y033041D02*
X071729Y033041D01*
X071427Y033498D02*
X071708Y033498D01*
X071430Y036013D02*
X071705Y036013D01*
X071438Y035784D02*
X071697Y035784D01*
X071439Y033269D02*
X071696Y033269D01*
X070459Y043099D02*
X071661Y043099D01*
X070463Y043328D02*
X071656Y043328D01*
X070147Y055215D02*
X071464Y055215D01*
X070254Y054529D02*
X071357Y054529D01*
X070285Y057044D02*
X071326Y057044D01*
X070409Y055444D02*
X071202Y055444D01*
X070430Y052929D02*
X071175Y052929D01*
X070469Y054301D02*
X071142Y054301D01*
X070486Y056815D02*
X071125Y056815D01*
X070559Y055672D02*
X071052Y055672D01*
X070571Y053158D02*
X071040Y053158D01*
X070594Y054072D02*
X071017Y054072D01*
X070604Y056587D02*
X071007Y056587D01*
X070644Y055901D02*
X070967Y055901D01*
X070186Y052700D02*
X070963Y052700D01*
X070650Y053386D02*
X070961Y053386D01*
X070660Y053843D02*
X070951Y053843D01*
X070665Y056358D02*
X070946Y056358D01*
X070677Y056129D02*
X070934Y056129D01*
X070678Y053615D02*
X070933Y053615D01*
X065572Y051557D02*
X070925Y051557D01*
X064117Y046300D02*
X070825Y046300D01*
X064363Y047671D02*
X070813Y047671D01*
X065268Y052472D02*
X070733Y052472D01*
X065640Y051786D02*
X070718Y051786D01*
X065528Y052243D02*
X070644Y052243D01*
X065627Y052015D02*
X070640Y052015D01*
X059321Y046528D02*
X070606Y046528D01*
X068173Y040813D02*
X070560Y040813D01*
X064367Y047443D02*
X070513Y047443D01*
X064370Y044928D02*
X070456Y044928D01*
X059488Y046757D02*
X070439Y046757D01*
X064303Y046071D02*
X070416Y046071D01*
X064289Y047214D02*
X070402Y047214D01*
X064082Y046985D02*
X070380Y046985D01*
X066433Y041956D02*
X070352Y041956D01*
X068084Y041042D02*
X070259Y041042D01*
X064357Y045157D02*
X070225Y045157D01*
X064370Y045842D02*
X070210Y045842D01*
X066601Y041728D02*
X070184Y041728D01*
X067854Y041270D02*
X070148Y041270D01*
X064279Y045385D02*
X070137Y045385D01*
X064357Y045614D02*
X070132Y045614D01*
X066659Y041499D02*
X070126Y041499D01*
X068169Y036927D02*
X069886Y036927D01*
X068369Y032355D02*
X069686Y032355D01*
X068535Y036698D02*
X069520Y036698D01*
X064370Y042642D02*
X069440Y042642D01*
X068631Y032584D02*
X069424Y032584D01*
X064303Y043785D02*
X069400Y043785D01*
X068725Y036470D02*
X069330Y036470D01*
X067237Y054758D02*
X069294Y054758D01*
X068781Y032812D02*
X069274Y032812D01*
X068835Y036241D02*
X069220Y036241D01*
X064357Y042871D02*
X069209Y042871D01*
X067334Y057272D02*
X069197Y057272D01*
X068859Y035555D02*
X069196Y035555D01*
X064370Y043556D02*
X069194Y043556D01*
X068866Y033041D02*
X069189Y033041D01*
X068890Y036013D02*
X069165Y036013D01*
X068898Y035784D02*
X069157Y035784D01*
X068899Y033269D02*
X069156Y033269D01*
X064279Y043099D02*
X069121Y043099D01*
X064357Y043328D02*
X069116Y043328D01*
X068823Y035327D02*
X069055Y035327D01*
X067607Y055215D02*
X068924Y055215D01*
X068609Y035098D02*
X068891Y035098D01*
X067646Y052700D02*
X068885Y052700D01*
X068327Y034870D02*
X068855Y034870D01*
X067714Y054529D02*
X068817Y054529D01*
X067745Y057044D02*
X068786Y057044D01*
X066792Y038756D02*
X068723Y038756D01*
X067869Y055444D02*
X068662Y055444D01*
X067890Y052929D02*
X068641Y052929D01*
X034154Y034641D02*
X068638Y034641D01*
X067129Y037613D02*
X068605Y037613D01*
X067929Y054301D02*
X068602Y054301D01*
X067946Y056815D02*
X068585Y056815D01*
X068019Y055672D02*
X068512Y055672D01*
X068031Y053158D02*
X068500Y053158D01*
X068054Y054072D02*
X068477Y054072D01*
X068064Y056587D02*
X068467Y056587D01*
X067052Y038527D02*
X068463Y038527D01*
X068096Y034412D02*
X068432Y034412D01*
X068104Y055901D02*
X068427Y055901D01*
X068110Y053386D02*
X068421Y053386D01*
X067096Y037841D02*
X068419Y037841D01*
X068120Y053843D02*
X068411Y053843D01*
X068125Y056358D02*
X068406Y056358D01*
X068137Y056129D02*
X068394Y056129D01*
X068138Y053615D02*
X068393Y053615D01*
X067151Y038299D02*
X068364Y038299D01*
X067164Y038070D02*
X068351Y038070D01*
X064315Y048586D02*
X068293Y048586D01*
X063855Y049957D02*
X067765Y049957D01*
X064147Y048814D02*
X067558Y048814D01*
X063859Y049729D02*
X067465Y049729D01*
X065556Y034412D02*
X067419Y034412D01*
X057985Y049043D02*
X067391Y049043D01*
X063781Y049500D02*
X067354Y049500D01*
X067095Y036927D02*
X067346Y036927D01*
X063574Y049271D02*
X067332Y049271D01*
X065787Y034870D02*
X067188Y034870D01*
X066637Y041270D02*
X067153Y041270D01*
X066945Y032355D02*
X067146Y032355D01*
X066114Y040127D02*
X067115Y040127D01*
X065967Y034184D02*
X067008Y034184D01*
X066526Y041042D02*
X066923Y041042D01*
X066321Y040356D02*
X066908Y040356D01*
X066069Y035098D02*
X066906Y035098D01*
X066395Y040813D02*
X066834Y040813D01*
X066142Y036698D02*
X066833Y036698D01*
X066399Y040585D02*
X066830Y040585D01*
X066168Y033955D02*
X066807Y033955D01*
X066185Y036470D02*
X066790Y036470D01*
X064697Y054758D02*
X066754Y054758D01*
X066228Y035327D02*
X066747Y035327D01*
X066286Y033727D02*
X066689Y033727D01*
X066295Y036241D02*
X066680Y036241D01*
X064794Y057272D02*
X066657Y057272D01*
X066319Y035555D02*
X066656Y035555D01*
X066343Y033041D02*
X066639Y033041D01*
X066347Y033498D02*
X066628Y033498D01*
X066350Y036013D02*
X066625Y036013D01*
X066358Y035784D02*
X066617Y035784D01*
X066359Y033269D02*
X066616Y033269D01*
X065067Y055215D02*
X066384Y055215D01*
X065118Y052700D02*
X066345Y052700D01*
X065174Y054529D02*
X066277Y054529D01*
X065205Y057044D02*
X066246Y057044D01*
X059540Y038756D02*
X066183Y038756D01*
X065329Y055444D02*
X066122Y055444D01*
X065350Y052929D02*
X066101Y052929D01*
X065389Y054301D02*
X066062Y054301D01*
X065406Y056815D02*
X066045Y056815D01*
X065479Y055672D02*
X065972Y055672D01*
X065491Y053158D02*
X065960Y053158D01*
X065514Y054072D02*
X065937Y054072D01*
X065524Y056587D02*
X065927Y056587D01*
X050647Y038527D02*
X065923Y038527D01*
X065564Y055901D02*
X065887Y055901D01*
X065570Y053386D02*
X065881Y053386D01*
X065629Y036927D02*
X065880Y036927D01*
X064961Y037841D02*
X065879Y037841D01*
X065580Y053843D02*
X065871Y053843D01*
X065585Y056358D02*
X065866Y056358D01*
X065597Y056129D02*
X065854Y056129D01*
X065598Y053615D02*
X065853Y053615D01*
X065098Y037156D02*
X065846Y037156D01*
X065097Y037613D02*
X065846Y037613D01*
X050558Y038299D02*
X065824Y038299D01*
X050327Y038070D02*
X065811Y038070D01*
X065137Y037384D02*
X065806Y037384D01*
X039475Y031898D02*
X065687Y031898D01*
X039442Y032126D02*
X065575Y032126D01*
X046087Y041956D02*
X065526Y041956D01*
X060815Y041728D02*
X065358Y041728D01*
X059730Y040127D02*
X065337Y040127D01*
X061068Y041270D02*
X065313Y041270D01*
X061001Y041499D02*
X065300Y041499D01*
X061055Y041042D02*
X065145Y041042D01*
X059798Y040356D02*
X065130Y040356D01*
X060956Y040813D02*
X065056Y040813D01*
X060694Y040585D02*
X065052Y040585D01*
X063016Y034412D02*
X064879Y034412D01*
X063247Y034870D02*
X064648Y034870D01*
X063289Y032355D02*
X064606Y032355D01*
X064060Y051329D02*
X064541Y051329D01*
X063427Y034184D02*
X064468Y034184D01*
X041945Y052472D02*
X064423Y052472D01*
X063686Y052243D02*
X064399Y052243D01*
X063529Y035098D02*
X064366Y035098D01*
X064126Y051557D02*
X064355Y051557D01*
X063986Y052015D02*
X064300Y052015D01*
X063455Y036698D02*
X064297Y036698D01*
X063628Y033955D02*
X064267Y033955D01*
X063645Y036470D02*
X064250Y036470D01*
X062157Y054758D02*
X064214Y054758D01*
X063688Y035327D02*
X064207Y035327D01*
X063755Y036241D02*
X064140Y036241D01*
X062254Y057272D02*
X064117Y057272D01*
X063779Y035555D02*
X064116Y035555D01*
X063810Y036013D02*
X064085Y036013D01*
X063818Y035784D02*
X064077Y035784D01*
X063089Y036927D02*
X063951Y036927D01*
X061659Y037841D02*
X063950Y037841D01*
X062527Y055215D02*
X063844Y055215D01*
X061795Y037156D02*
X063814Y037156D01*
X061795Y037613D02*
X063814Y037613D01*
X062566Y052700D02*
X063805Y052700D01*
X061835Y037384D02*
X063774Y037384D01*
X062634Y054529D02*
X063737Y054529D01*
X062665Y057044D02*
X063706Y057044D01*
X062789Y055444D02*
X063582Y055444D01*
X062810Y052929D02*
X063561Y052929D01*
X058992Y044242D02*
X063552Y044242D01*
X062849Y054301D02*
X063522Y054301D01*
X062866Y056815D02*
X063505Y056815D01*
X062939Y055672D02*
X063432Y055672D01*
X062951Y053158D02*
X063420Y053158D01*
X062974Y054072D02*
X063397Y054072D01*
X062984Y056587D02*
X063387Y056587D01*
X063024Y055901D02*
X063347Y055901D01*
X063030Y053386D02*
X063341Y053386D01*
X063040Y053843D02*
X063331Y053843D01*
X063045Y056358D02*
X063326Y056358D01*
X063057Y056129D02*
X063314Y056129D01*
X063058Y053615D02*
X063313Y053615D01*
X059547Y046985D02*
X063305Y046985D01*
X058840Y044471D02*
X063271Y044471D01*
X046047Y042185D02*
X063271Y042185D01*
X030547Y046300D02*
X063270Y046300D01*
X059545Y044014D02*
X063270Y044014D01*
X058025Y048814D02*
X063240Y048814D01*
X051240Y052243D02*
X063193Y052243D01*
X030547Y045385D02*
X063108Y045385D01*
X059686Y043099D02*
X063108Y043099D01*
X038294Y047900D02*
X063105Y047900D01*
X059525Y047214D02*
X063098Y047214D01*
X030547Y044699D02*
X063085Y044699D01*
X045911Y042413D02*
X063085Y042413D01*
X030547Y046071D02*
X063084Y046071D01*
X059731Y043785D02*
X063084Y043785D01*
X057985Y048586D02*
X063072Y048586D01*
X038294Y048128D02*
X063036Y048128D01*
X030547Y045614D02*
X063030Y045614D01*
X059785Y043328D02*
X063030Y043328D01*
X030547Y045157D02*
X063030Y045157D01*
X059424Y042871D02*
X063030Y042871D01*
X059114Y047671D02*
X063024Y047671D01*
X059414Y047443D02*
X063020Y047443D01*
X030547Y044928D02*
X063017Y044928D01*
X030547Y042642D02*
X063017Y042642D01*
X030547Y045842D02*
X063017Y045842D01*
X059798Y043556D02*
X063017Y043556D01*
X057848Y048357D02*
X063014Y048357D01*
X051540Y052015D02*
X062893Y052015D01*
X057849Y049271D02*
X062797Y049271D01*
X051651Y051786D02*
X062782Y051786D01*
X051673Y051557D02*
X062760Y051557D01*
X051614Y051329D02*
X062705Y051329D01*
X030547Y050414D02*
X062659Y050414D01*
X056886Y050186D02*
X062605Y050186D01*
X057351Y049500D02*
X062590Y049500D01*
X051447Y051100D02*
X062554Y051100D01*
X030547Y050643D02*
X062536Y050643D01*
X057146Y049957D02*
X062516Y049957D01*
X057245Y049729D02*
X062512Y049729D01*
X030547Y050872D02*
X062505Y050872D01*
X060476Y034412D02*
X062339Y034412D01*
X061658Y036927D02*
X062266Y036927D01*
X060707Y034870D02*
X062108Y034870D01*
X060749Y032355D02*
X062066Y032355D01*
X060887Y034184D02*
X061928Y034184D01*
X061148Y036698D02*
X061900Y036698D01*
X060989Y035098D02*
X061826Y035098D01*
X061011Y032584D02*
X061804Y032584D01*
X061088Y033955D02*
X061727Y033955D01*
X061105Y036470D02*
X061710Y036470D01*
X059617Y054758D02*
X061674Y054758D01*
X061148Y035327D02*
X061667Y035327D01*
X061161Y032812D02*
X061654Y032812D01*
X061206Y033727D02*
X061609Y033727D01*
X061215Y036241D02*
X061600Y036241D01*
X059714Y057272D02*
X061577Y057272D01*
X061239Y035555D02*
X061576Y035555D01*
X061246Y033041D02*
X061569Y033041D01*
X061267Y033498D02*
X061548Y033498D01*
X061270Y036013D02*
X061545Y036013D01*
X061278Y035784D02*
X061537Y035784D01*
X061279Y033269D02*
X061536Y033269D01*
X059987Y055215D02*
X061304Y055215D01*
X060026Y052700D02*
X061265Y052700D01*
X060094Y054529D02*
X061197Y054529D01*
X060125Y057044D02*
X061166Y057044D01*
X060249Y055444D02*
X061042Y055444D01*
X060270Y052929D02*
X061021Y052929D01*
X060309Y054301D02*
X060982Y054301D01*
X060326Y056815D02*
X060965Y056815D01*
X060399Y055672D02*
X060892Y055672D01*
X060411Y053158D02*
X060880Y053158D01*
X060434Y054072D02*
X060857Y054072D01*
X060444Y056587D02*
X060847Y056587D01*
X060484Y055901D02*
X060807Y055901D01*
X060490Y053386D02*
X060801Y053386D01*
X060500Y053843D02*
X060791Y053843D01*
X060505Y056358D02*
X060786Y056358D01*
X060517Y056129D02*
X060774Y056129D01*
X060518Y053615D02*
X060773Y053615D01*
X049387Y037841D02*
X060648Y037841D01*
X051166Y037156D02*
X060512Y037156D01*
X050966Y037613D02*
X060512Y037613D01*
X051118Y037384D02*
X060472Y037384D01*
X059805Y040585D02*
X060089Y040585D01*
X046047Y041728D02*
X059968Y041728D01*
X057936Y034412D02*
X059799Y034412D01*
X045910Y041499D02*
X059782Y041499D01*
X058009Y036927D02*
X059726Y036927D01*
X041937Y041270D02*
X059715Y041270D01*
X059426Y041042D02*
X059707Y041042D01*
X058167Y034870D02*
X059568Y034870D01*
X058209Y032355D02*
X059526Y032355D01*
X058347Y034184D02*
X059388Y034184D01*
X058375Y036698D02*
X059360Y036698D01*
X058449Y035098D02*
X059286Y035098D01*
X058471Y032584D02*
X059264Y032584D01*
X050651Y038756D02*
X059211Y038756D01*
X058548Y033955D02*
X059187Y033955D01*
X058565Y036470D02*
X059170Y036470D01*
X057077Y054758D02*
X059134Y054758D01*
X058608Y035327D02*
X059127Y035327D01*
X058621Y032812D02*
X059114Y032812D01*
X058666Y033727D02*
X059069Y033727D01*
X058675Y036241D02*
X059060Y036241D01*
X057174Y057272D02*
X059037Y057272D01*
X058699Y035555D02*
X059036Y035555D01*
X058706Y033041D02*
X059029Y033041D01*
X058727Y033498D02*
X059008Y033498D01*
X058730Y036013D02*
X059005Y036013D01*
X058738Y035784D02*
X058997Y035784D01*
X058739Y033269D02*
X058996Y033269D01*
X050573Y038984D02*
X058849Y038984D01*
X053074Y042871D02*
X058819Y042871D01*
X042015Y041042D02*
X058817Y041042D01*
X057447Y055215D02*
X058764Y055215D01*
X048577Y039670D02*
X058744Y039670D01*
X050367Y039213D02*
X058726Y039213D01*
X057486Y052700D02*
X058725Y052700D01*
X048626Y039899D02*
X058699Y039899D01*
X048426Y039442D02*
X058695Y039442D01*
X057554Y054529D02*
X058657Y054529D01*
X057585Y057044D02*
X058626Y057044D01*
X038294Y047671D02*
X058621Y047671D01*
X053336Y043099D02*
X058557Y043099D01*
X042011Y040813D02*
X058557Y040813D01*
X048596Y040127D02*
X058513Y040127D01*
X057709Y055444D02*
X058502Y055444D01*
X057730Y052929D02*
X058481Y052929D01*
X048113Y040585D02*
X058458Y040585D01*
X048472Y040356D02*
X058445Y040356D01*
X057769Y054301D02*
X058442Y054301D01*
X057786Y056815D02*
X058425Y056815D01*
X030547Y046528D02*
X058414Y046528D01*
X057859Y055672D02*
X058352Y055672D01*
X057871Y053158D02*
X058340Y053158D01*
X038294Y047443D02*
X058321Y047443D01*
X057894Y054072D02*
X058317Y054072D01*
X057904Y056587D02*
X058307Y056587D01*
X057944Y055901D02*
X058267Y055901D01*
X057950Y053386D02*
X058261Y053386D01*
X057960Y053843D02*
X058251Y053843D01*
X030547Y046757D02*
X058247Y046757D01*
X057965Y056358D02*
X058246Y056358D01*
X057977Y056129D02*
X058234Y056129D01*
X057978Y053615D02*
X058233Y053615D01*
X038235Y047214D02*
X058210Y047214D01*
X053435Y043328D02*
X058195Y043328D01*
X030547Y046985D02*
X058188Y046985D01*
X030547Y044471D02*
X057879Y044471D01*
X053448Y043556D02*
X057833Y043556D01*
X030547Y044242D02*
X057728Y044242D01*
X053381Y043785D02*
X057710Y043785D01*
X053195Y044014D02*
X057679Y044014D01*
X055396Y034412D02*
X057259Y034412D01*
X055469Y036927D02*
X057186Y036927D01*
X055627Y034870D02*
X057028Y034870D01*
X055669Y032355D02*
X056986Y032355D01*
X055807Y034184D02*
X056848Y034184D01*
X038294Y048357D02*
X056839Y048357D01*
X055835Y036698D02*
X056820Y036698D01*
X055909Y035098D02*
X056746Y035098D01*
X055931Y032584D02*
X056724Y032584D01*
X038294Y048586D02*
X056702Y048586D01*
X038294Y048814D02*
X056656Y048814D01*
X056008Y033955D02*
X056647Y033955D01*
X056025Y036470D02*
X056630Y036470D01*
X054537Y054758D02*
X056594Y054758D01*
X056068Y035327D02*
X056587Y035327D01*
X056081Y032812D02*
X056574Y032812D01*
X056126Y033727D02*
X056529Y033727D01*
X056135Y036241D02*
X056520Y036241D01*
X054634Y057272D02*
X056497Y057272D01*
X056159Y035555D02*
X056496Y035555D01*
X056166Y033041D02*
X056489Y033041D01*
X056187Y033498D02*
X056468Y033498D01*
X056190Y036013D02*
X056465Y036013D01*
X056198Y035784D02*
X056457Y035784D01*
X056199Y033269D02*
X056456Y033269D01*
X030547Y050186D02*
X056277Y050186D01*
X054907Y055215D02*
X056224Y055215D01*
X054946Y052700D02*
X056185Y052700D01*
X038280Y049043D02*
X056159Y049043D01*
X055014Y054529D02*
X056117Y054529D01*
X055045Y057044D02*
X056086Y057044D01*
X030547Y049957D02*
X056017Y049957D01*
X038103Y049271D02*
X055973Y049271D01*
X055169Y055444D02*
X055962Y055444D01*
X055190Y052929D02*
X055941Y052929D01*
X030547Y049729D02*
X055918Y049729D01*
X030547Y049500D02*
X055905Y049500D01*
X055229Y054301D02*
X055902Y054301D01*
X055246Y056815D02*
X055885Y056815D01*
X055319Y055672D02*
X055812Y055672D01*
X055331Y053158D02*
X055800Y053158D01*
X055354Y054072D02*
X055777Y054072D01*
X055364Y056587D02*
X055767Y056587D01*
X055404Y055901D02*
X055727Y055901D01*
X055410Y053386D02*
X055721Y053386D01*
X055420Y053843D02*
X055711Y053843D01*
X055425Y056358D02*
X055706Y056358D01*
X055437Y056129D02*
X055694Y056129D01*
X055438Y053615D02*
X055693Y053615D01*
X052856Y034412D02*
X054719Y034412D01*
X052929Y036927D02*
X054646Y036927D01*
X053087Y034870D02*
X054488Y034870D01*
X053129Y032355D02*
X054446Y032355D01*
X053267Y034184D02*
X054308Y034184D01*
X053295Y036698D02*
X054280Y036698D01*
X053369Y035098D02*
X054206Y035098D01*
X053391Y032584D02*
X054184Y032584D01*
X053468Y033955D02*
X054107Y033955D01*
X053485Y036470D02*
X054090Y036470D01*
X051997Y054758D02*
X054054Y054758D01*
X053528Y035327D02*
X054047Y035327D01*
X053541Y032812D02*
X054034Y032812D01*
X053586Y033727D02*
X053989Y033727D01*
X053595Y036241D02*
X053980Y036241D01*
X052094Y057272D02*
X053957Y057272D01*
X053619Y035555D02*
X053956Y035555D01*
X053626Y033041D02*
X053949Y033041D01*
X053647Y033498D02*
X053928Y033498D01*
X053650Y036013D02*
X053925Y036013D01*
X053658Y035784D02*
X053917Y035784D01*
X053659Y033269D02*
X053916Y033269D01*
X052367Y055215D02*
X053684Y055215D01*
X052406Y052700D02*
X053645Y052700D01*
X052474Y054529D02*
X053577Y054529D01*
X052505Y057044D02*
X053546Y057044D01*
X052629Y055444D02*
X053422Y055444D01*
X052650Y052929D02*
X053401Y052929D01*
X052689Y054301D02*
X053362Y054301D01*
X052706Y056815D02*
X053345Y056815D01*
X052779Y055672D02*
X053272Y055672D01*
X052791Y053158D02*
X053260Y053158D01*
X052814Y054072D02*
X053237Y054072D01*
X052824Y056587D02*
X053227Y056587D01*
X052864Y055901D02*
X053187Y055901D01*
X052870Y053386D02*
X053181Y053386D01*
X052880Y053843D02*
X053171Y053843D01*
X052885Y056358D02*
X053166Y056358D01*
X052897Y056129D02*
X053154Y056129D01*
X052898Y053615D02*
X053153Y053615D01*
X030547Y042871D02*
X052469Y042871D01*
X030547Y044014D02*
X052348Y044014D01*
X030547Y043099D02*
X052207Y043099D01*
X050316Y034412D02*
X052179Y034412D01*
X030547Y043785D02*
X052162Y043785D01*
X030547Y043328D02*
X052108Y043328D01*
X051135Y036927D02*
X052106Y036927D01*
X030547Y043556D02*
X052095Y043556D01*
X050547Y034870D02*
X051948Y034870D01*
X050589Y032355D02*
X051906Y032355D01*
X050727Y034184D02*
X051768Y034184D01*
X051012Y036698D02*
X051740Y036698D01*
X050829Y035098D02*
X051666Y035098D01*
X050851Y032584D02*
X051644Y032584D01*
X050928Y033955D02*
X051567Y033955D01*
X050945Y036470D02*
X051550Y036470D01*
X049457Y054758D02*
X051514Y054758D01*
X050988Y035327D02*
X051507Y035327D01*
X051001Y032812D02*
X051494Y032812D01*
X051046Y033727D02*
X051449Y033727D01*
X051055Y036241D02*
X051440Y036241D01*
X049554Y057272D02*
X051417Y057272D01*
X051079Y035555D02*
X051416Y035555D01*
X051086Y033041D02*
X051409Y033041D01*
X051107Y033498D02*
X051388Y033498D01*
X051110Y036013D02*
X051385Y036013D01*
X051118Y035784D02*
X051377Y035784D01*
X051119Y033269D02*
X051376Y033269D01*
X049827Y055215D02*
X051144Y055215D01*
X049866Y052700D02*
X051105Y052700D01*
X049934Y054529D02*
X051037Y054529D01*
X049965Y057044D02*
X051006Y057044D01*
X050089Y055444D02*
X050882Y055444D01*
X050110Y052929D02*
X050861Y052929D01*
X050149Y054301D02*
X050822Y054301D01*
X050166Y056815D02*
X050805Y056815D01*
X042011Y052243D02*
X050747Y052243D01*
X050239Y055672D02*
X050732Y055672D01*
X050251Y053158D02*
X050720Y053158D01*
X050274Y054072D02*
X050697Y054072D01*
X050284Y056587D02*
X050687Y056587D01*
X050324Y055901D02*
X050647Y055901D01*
X050330Y053386D02*
X050641Y053386D01*
X050340Y053843D02*
X050631Y053843D01*
X050345Y056358D02*
X050626Y056358D01*
X050357Y056129D02*
X050614Y056129D01*
X050358Y053615D02*
X050613Y053615D01*
X030547Y051100D02*
X050540Y051100D01*
X042015Y052015D02*
X050447Y052015D01*
X030547Y051329D02*
X050373Y051329D01*
X041937Y051786D02*
X050336Y051786D01*
X041730Y051557D02*
X050314Y051557D01*
X049328Y037613D02*
X050005Y037613D01*
X049161Y037384D02*
X049854Y037384D01*
X041006Y037156D02*
X049805Y037156D01*
X047776Y034412D02*
X049639Y034412D01*
X049405Y038070D02*
X049628Y038070D01*
X039989Y039213D02*
X049588Y039213D01*
X047849Y036927D02*
X049566Y036927D01*
X048007Y034870D02*
X049408Y034870D01*
X039967Y038984D02*
X049382Y038984D01*
X048049Y032355D02*
X049366Y032355D01*
X039856Y038756D02*
X049304Y038756D01*
X048954Y038527D02*
X049301Y038527D01*
X048187Y034184D02*
X049228Y034184D01*
X048215Y036698D02*
X049200Y036698D01*
X048289Y035098D02*
X049126Y035098D01*
X048311Y032584D02*
X049104Y032584D01*
X048388Y033955D02*
X049027Y033955D01*
X048405Y036470D02*
X049010Y036470D01*
X046917Y054758D02*
X048974Y054758D01*
X048448Y035327D02*
X048967Y035327D01*
X048461Y032812D02*
X048954Y032812D01*
X048506Y033727D02*
X048909Y033727D01*
X048515Y036241D02*
X048900Y036241D01*
X047014Y057272D02*
X048877Y057272D01*
X048539Y035555D02*
X048876Y035555D01*
X048546Y033041D02*
X048869Y033041D01*
X048567Y033498D02*
X048848Y033498D01*
X048570Y036013D02*
X048845Y036013D01*
X048578Y035784D02*
X048837Y035784D01*
X048579Y033269D02*
X048836Y033269D01*
X047287Y055215D02*
X048604Y055215D01*
X047326Y052700D02*
X048565Y052700D01*
X047394Y054529D02*
X048497Y054529D01*
X047425Y057044D02*
X048466Y057044D01*
X039555Y038527D02*
X048461Y038527D01*
X047549Y055444D02*
X048342Y055444D01*
X047570Y052929D02*
X048321Y052929D01*
X047609Y054301D02*
X048282Y054301D01*
X047626Y056815D02*
X048265Y056815D01*
X040958Y037384D02*
X048254Y037384D01*
X047699Y055672D02*
X048192Y055672D01*
X047711Y053158D02*
X048180Y053158D01*
X030547Y038299D02*
X048161Y038299D01*
X047734Y054072D02*
X048157Y054072D01*
X047744Y056587D02*
X048147Y056587D01*
X047784Y055901D02*
X048107Y055901D01*
X047790Y053386D02*
X048101Y053386D01*
X047800Y053843D02*
X048091Y053843D01*
X040806Y037613D02*
X048087Y037613D01*
X047805Y056358D02*
X048086Y056358D01*
X047817Y056129D02*
X048074Y056129D01*
X047818Y053615D02*
X048073Y053615D01*
X030547Y038070D02*
X048050Y038070D01*
X030547Y037841D02*
X048028Y037841D01*
X041922Y040585D02*
X047778Y040585D01*
X039931Y039442D02*
X047465Y039442D01*
X041691Y040356D02*
X047419Y040356D01*
X039763Y039670D02*
X047314Y039670D01*
X030547Y040127D02*
X047295Y040127D01*
X030547Y039899D02*
X047265Y039899D01*
X045236Y034412D02*
X047099Y034412D01*
X045309Y036927D02*
X047026Y036927D01*
X045467Y034870D02*
X046868Y034870D01*
X045509Y032355D02*
X046826Y032355D01*
X045647Y034184D02*
X046688Y034184D01*
X045675Y036698D02*
X046660Y036698D01*
X045749Y035098D02*
X046586Y035098D01*
X045771Y032584D02*
X046564Y032584D01*
X045848Y033955D02*
X046487Y033955D01*
X045865Y036470D02*
X046470Y036470D01*
X044377Y054758D02*
X046434Y054758D01*
X045908Y035327D02*
X046427Y035327D01*
X045921Y032812D02*
X046414Y032812D01*
X045966Y033727D02*
X046369Y033727D01*
X045975Y036241D02*
X046360Y036241D01*
X044474Y057272D02*
X046337Y057272D01*
X045999Y035555D02*
X046336Y035555D01*
X046006Y033041D02*
X046329Y033041D01*
X046027Y033498D02*
X046308Y033498D01*
X046030Y036013D02*
X046305Y036013D01*
X046038Y035784D02*
X046297Y035784D01*
X046039Y033269D02*
X046296Y033269D01*
X044747Y055215D02*
X046064Y055215D01*
X044786Y052700D02*
X046025Y052700D01*
X044854Y054529D02*
X045957Y054529D01*
X044885Y057044D02*
X045926Y057044D01*
X045009Y055444D02*
X045802Y055444D01*
X045030Y052929D02*
X045781Y052929D01*
X045069Y054301D02*
X045742Y054301D01*
X045086Y056815D02*
X045725Y056815D01*
X045159Y055672D02*
X045652Y055672D01*
X045171Y053158D02*
X045640Y053158D01*
X045194Y054072D02*
X045617Y054072D01*
X045204Y056587D02*
X045607Y056587D01*
X045244Y055901D02*
X045567Y055901D01*
X045250Y053386D02*
X045561Y053386D01*
X045260Y053843D02*
X045551Y053843D01*
X045265Y056358D02*
X045546Y056358D01*
X045277Y056129D02*
X045534Y056129D01*
X045278Y053615D02*
X045533Y053615D01*
X041731Y041499D02*
X044901Y041499D01*
X030547Y042413D02*
X044900Y042413D01*
X039733Y041728D02*
X044764Y041728D01*
X030547Y042185D02*
X044764Y042185D01*
X030547Y041956D02*
X044724Y041956D01*
X042696Y034412D02*
X044559Y034412D01*
X042769Y036927D02*
X044486Y036927D01*
X042927Y034870D02*
X044328Y034870D01*
X042969Y032355D02*
X044286Y032355D01*
X043107Y034184D02*
X044148Y034184D01*
X043135Y036698D02*
X044120Y036698D01*
X043209Y035098D02*
X044046Y035098D01*
X043231Y032584D02*
X044024Y032584D01*
X043308Y033955D02*
X043947Y033955D01*
X043325Y036470D02*
X043930Y036470D01*
X041837Y054758D02*
X043894Y054758D01*
X043368Y035327D02*
X043887Y035327D01*
X043381Y032812D02*
X043874Y032812D01*
X043426Y033727D02*
X043829Y033727D01*
X043435Y036241D02*
X043820Y036241D01*
X041934Y057272D02*
X043797Y057272D01*
X043459Y035555D02*
X043796Y035555D01*
X043466Y033041D02*
X043789Y033041D01*
X043487Y033498D02*
X043768Y033498D01*
X043490Y036013D02*
X043765Y036013D01*
X043498Y035784D02*
X043757Y035784D01*
X043499Y033269D02*
X043756Y033269D01*
X042207Y055215D02*
X043524Y055215D01*
X042246Y052700D02*
X043485Y052700D01*
X042314Y054529D02*
X043417Y054529D01*
X042345Y057044D02*
X043386Y057044D01*
X042469Y055444D02*
X043262Y055444D01*
X042490Y052929D02*
X043241Y052929D01*
X042529Y054301D02*
X043202Y054301D01*
X042546Y056815D02*
X043185Y056815D01*
X042619Y055672D02*
X043112Y055672D01*
X042631Y053158D02*
X043100Y053158D01*
X042654Y054072D02*
X043077Y054072D01*
X042664Y056587D02*
X043067Y056587D01*
X042704Y055901D02*
X043027Y055901D01*
X042710Y053386D02*
X043021Y053386D01*
X042720Y053843D02*
X043011Y053843D01*
X042725Y056358D02*
X043006Y056358D01*
X042737Y056129D02*
X042994Y056129D01*
X042738Y053615D02*
X042993Y053615D01*
X040156Y034412D02*
X042019Y034412D01*
X040975Y036927D02*
X041946Y036927D01*
X040387Y034870D02*
X041788Y034870D01*
X040429Y032355D02*
X041746Y032355D01*
X040567Y034184D02*
X041608Y034184D01*
X040852Y036698D02*
X041580Y036698D01*
X040669Y035098D02*
X041506Y035098D01*
X040691Y032584D02*
X041484Y032584D01*
X040768Y033955D02*
X041407Y033955D01*
X040785Y036470D02*
X041390Y036470D01*
X039297Y054758D02*
X041354Y054758D01*
X040828Y035327D02*
X041347Y035327D01*
X040841Y032812D02*
X041334Y032812D01*
X040886Y033727D02*
X041289Y033727D01*
X040895Y036241D02*
X041280Y036241D01*
X039394Y057272D02*
X041257Y057272D01*
X040919Y035555D02*
X041256Y035555D01*
X040926Y033041D02*
X041249Y033041D01*
X040947Y033498D02*
X041228Y033498D01*
X040950Y036013D02*
X041225Y036013D01*
X040958Y035784D02*
X041217Y035784D01*
X040959Y033269D02*
X041216Y033269D01*
X030547Y040356D02*
X040992Y040356D01*
X039667Y055215D02*
X040984Y055215D01*
X030547Y051557D02*
X040953Y051557D01*
X039919Y041499D02*
X040952Y041499D01*
X039706Y052700D02*
X040889Y052700D01*
X039774Y054529D02*
X040877Y054529D01*
X039805Y057044D02*
X040846Y057044D01*
X039612Y040585D02*
X040761Y040585D01*
X030547Y052472D02*
X040761Y052472D01*
X030547Y051786D02*
X040746Y051786D01*
X039986Y041270D02*
X040746Y041270D01*
X039929Y055444D02*
X040722Y055444D01*
X039950Y052929D02*
X040701Y052929D01*
X039874Y040813D02*
X040673Y040813D01*
X030547Y052243D02*
X040672Y052243D01*
X030547Y052015D02*
X040668Y052015D01*
X039973Y041042D02*
X040668Y041042D01*
X039989Y054301D02*
X040662Y054301D01*
X040006Y056815D02*
X040645Y056815D01*
X040079Y055672D02*
X040572Y055672D01*
X040091Y053158D02*
X040560Y053158D01*
X040114Y054072D02*
X040537Y054072D01*
X040124Y056587D02*
X040527Y056587D01*
X040164Y055901D02*
X040487Y055901D01*
X040170Y053386D02*
X040481Y053386D01*
X040180Y053843D02*
X040471Y053843D01*
X040185Y056358D02*
X040466Y056358D01*
X040197Y056129D02*
X040454Y056129D01*
X040198Y053615D02*
X040453Y053615D01*
X030547Y037613D02*
X039845Y037613D01*
X030547Y037384D02*
X039694Y037384D01*
X030547Y037156D02*
X039645Y037156D01*
X037616Y034412D02*
X039479Y034412D01*
X038269Y036927D02*
X039406Y036927D01*
X038344Y034870D02*
X039248Y034870D01*
X038027Y034184D02*
X039068Y034184D01*
X030547Y038527D02*
X039064Y038527D01*
X038413Y036698D02*
X039040Y036698D01*
X030547Y040585D02*
X039007Y040585D01*
X038421Y035098D02*
X038966Y035098D01*
X038151Y032584D02*
X038894Y032584D01*
X030547Y041728D02*
X038886Y041728D01*
X038228Y033955D02*
X038867Y033955D01*
X030547Y039670D02*
X038856Y039670D01*
X038421Y036470D02*
X038850Y036470D01*
X036757Y054758D02*
X038814Y054758D01*
X038421Y035327D02*
X038807Y035327D01*
X038301Y032812D02*
X038794Y032812D01*
X030547Y038756D02*
X038763Y038756D01*
X038346Y033727D02*
X038749Y033727D01*
X030547Y040813D02*
X038745Y040813D01*
X038421Y036241D02*
X038740Y036241D01*
X037468Y057272D02*
X038717Y057272D01*
X038421Y035555D02*
X038716Y035555D01*
X038386Y033041D02*
X038709Y033041D01*
X030547Y041499D02*
X038700Y041499D01*
X038407Y033498D02*
X038688Y033498D01*
X030547Y039442D02*
X038688Y039442D01*
X038421Y036013D02*
X038685Y036013D01*
X038421Y035784D02*
X038677Y035784D01*
X038419Y033269D02*
X038676Y033269D01*
X030547Y038984D02*
X038652Y038984D01*
X030547Y041042D02*
X038646Y041042D01*
X030547Y041270D02*
X038633Y041270D01*
X030547Y039213D02*
X038630Y039213D01*
X037600Y055215D02*
X038444Y055215D01*
X037889Y032355D02*
X038412Y032355D01*
X037166Y052700D02*
X038405Y052700D01*
X037234Y054529D02*
X038337Y054529D01*
X037645Y057044D02*
X038306Y057044D01*
X030547Y032126D02*
X038206Y032126D01*
X037659Y055444D02*
X038182Y055444D01*
X037410Y052929D02*
X038161Y052929D01*
X030547Y031898D02*
X038128Y031898D01*
X037449Y054301D02*
X038122Y054301D01*
X037659Y056815D02*
X038105Y056815D01*
X037659Y055672D02*
X038032Y055672D01*
X037551Y053158D02*
X038020Y053158D01*
X037574Y054072D02*
X037997Y054072D01*
X037659Y056587D02*
X037987Y056587D01*
X037659Y055901D02*
X037947Y055901D01*
X037630Y053386D02*
X037941Y053386D01*
X037640Y053843D02*
X037931Y053843D01*
X037659Y056358D02*
X037926Y056358D01*
X037659Y056129D02*
X037914Y056129D01*
X037658Y053615D02*
X037913Y053615D01*
X034163Y034412D02*
X036939Y034412D01*
X030547Y032355D02*
X036666Y032355D01*
X034142Y034184D02*
X036528Y034184D01*
X030547Y032584D02*
X036404Y032584D01*
X034089Y033955D02*
X036327Y033955D01*
X030547Y036927D02*
X036286Y036927D01*
X030547Y054758D02*
X036274Y054758D01*
X033013Y032812D02*
X036254Y032812D01*
X034115Y034870D02*
X036211Y034870D01*
X034003Y033727D02*
X036209Y033727D01*
X034949Y049271D02*
X036198Y049271D01*
X033441Y033041D02*
X036169Y033041D01*
X033876Y033498D02*
X036148Y033498D01*
X030547Y036698D02*
X036142Y036698D01*
X033698Y033269D02*
X036136Y033269D01*
X030547Y036470D02*
X036134Y036470D01*
X030547Y036241D02*
X036134Y036241D01*
X033229Y036013D02*
X036134Y036013D01*
X033562Y035784D02*
X036134Y035784D01*
X033780Y035555D02*
X036134Y035555D01*
X033935Y035327D02*
X036134Y035327D01*
X034044Y035098D02*
X036134Y035098D01*
X035222Y047214D02*
X036066Y047214D01*
X035360Y049043D02*
X036021Y049043D01*
X035561Y048814D02*
X036007Y048814D01*
X035679Y048586D02*
X036007Y048586D01*
X035740Y048357D02*
X036007Y048357D01*
X035752Y048128D02*
X036007Y048128D01*
X035719Y047900D02*
X036007Y047900D01*
X035634Y047671D02*
X036007Y047671D01*
X035484Y047443D02*
X036007Y047443D01*
X030547Y052700D02*
X035865Y052700D01*
X030547Y054529D02*
X035797Y054529D01*
X030547Y052929D02*
X035621Y052929D01*
X030547Y054301D02*
X035582Y054301D01*
X030547Y057272D02*
X035563Y057272D01*
X030547Y053158D02*
X035480Y053158D01*
X030547Y054072D02*
X035457Y054072D01*
X030547Y055215D02*
X035431Y055215D01*
X030547Y053386D02*
X035401Y053386D01*
X030547Y053843D02*
X035391Y053843D01*
X030547Y057044D02*
X035386Y057044D01*
X030547Y053615D02*
X035373Y053615D01*
X030547Y056815D02*
X035372Y056815D01*
X030547Y056587D02*
X035372Y056587D01*
X030547Y056358D02*
X035372Y056358D01*
X030547Y056129D02*
X035372Y056129D01*
X030547Y055901D02*
X035372Y055901D01*
X030547Y055672D02*
X035372Y055672D01*
X030547Y055444D02*
X035372Y055444D01*
X030547Y049271D02*
X034272Y049271D01*
X030547Y047214D02*
X033999Y047214D01*
X030547Y049043D02*
X033861Y049043D01*
X030547Y047443D02*
X033737Y047443D01*
X030547Y048814D02*
X033660Y048814D01*
X030547Y047671D02*
X033587Y047671D01*
X030547Y048586D02*
X033542Y048586D01*
X030547Y047900D02*
X033502Y047900D01*
X030547Y048357D02*
X033481Y048357D01*
X030547Y048128D02*
X033469Y048128D01*
X030547Y032812D02*
X031802Y032812D01*
X030547Y036013D02*
X031586Y036013D01*
X030547Y033041D02*
X031374Y033041D01*
X030547Y035784D02*
X031253Y035784D01*
X030547Y033269D02*
X031117Y033269D01*
X030547Y035555D02*
X031035Y035555D01*
X030547Y033498D02*
X030939Y033498D01*
X030547Y035327D02*
X030880Y035327D01*
X030547Y033727D02*
X030812Y033727D01*
X030591Y035098D02*
X030756Y035098D01*
X071130Y046111D02*
X071791Y046111D01*
X071377Y045883D02*
X071758Y045883D01*
X071093Y046340D02*
X071675Y046340D01*
X029912Y031035D02*
X092396Y031035D01*
X092396Y058975*
X029912Y058975*
X029912Y031035*
G54D15*
X029450Y028450D02*
G03X029450Y028450I-001000J0D01*
G01X030450Y028450D02*
G03X030450Y028450I-002000J0D01*
G01X095617Y060454D02*
G03X095617Y060454I-001000J0D01*
G01X096617Y060454D02*
G03X096617Y060454I-002000J0D01*
G54D16*
G01X025450Y028450D02*
X031450Y028450D01*
X028450Y025450D02*
X028450Y031450D01*
X091617Y060454D02*
X097617Y060454D01*
X094617Y057454D02*
X094617Y063454D01*
G54D24*
X037278Y033321D03*
G54D61*
X038086Y032512D02*
X037816Y032782D01*
X036469Y032512D02*
X036739Y032782D01*
X036469Y034129D02*
X036739Y033859D01*
X038086Y034129D02*
X037816Y033859D01*
G54D81*
X035754Y039163D03*
X062678Y040179D03*
X035754Y041195D03*
X059376Y042719D03*
X069536Y040687D03*
X057344Y045259D03*
X072330Y044243D03*
X076394Y043481D03*
X077918Y046021D03*
X059630Y050339D03*
X064710Y049323D03*
X077918Y050085D03*
X080458Y049831D03*
X082744Y049831D03*
G74*
X000000Y000000D02*
M02*
