*
*
G04 PADS 9.4.1 Build Number: 494907 generated Gerber (RS-274-X) file*
G04 PC Version=2.1*
*
%IN "PASIDE_B.pcb"*%
*
%MOMM*%
*
%FSDAX33Y33*%
*
*
*
*
G04 PC Standard Apertures*
*
*
G04 Thermal Relief Aperture macro.*
%AMTER*
1,1,$1,0,0*
1,0,$1-$2,0,0*
21,0,$3,$4,0,0,45*
21,0,$3,$4,0,0,135*
%
*
*
G04 Annular Aperture macro.*
%AMANN*
1,1,$1,0,0*
1,0,$2,0,0*
%
*
*
G04 Odd Aperture macro.*
%AMODD*
1,1,$1,0,0*
1,0,$1-0.005,0,0*
%
*
*
G04 PC Custom Aperture Macros*
*
*
*
*
*
*
G04 PC Aperture Table*
*
%ADD010C,0.0254*%
%ADD011C,0.254*%
%ADD015C,0.2*%
%ADD016C,0.1*%
%ADD023R,1.524X1.524*%
%ADD024C,1.524*%
*
*
*
*
G04 PC Circuitry*
G04 Layer Name PASIDE_B.pcb - circuitry*
%LPD*%
*
*
G04 PC Custom Flashes*
G04 Layer Name PASIDE_B.pcb - flashes*
%LPD*%
*
*
G04 PC Circuitry*
G04 Layer Name PASIDE_B.pcb - circuitry*
%LPD*%
*
G54D10*
G54D11*
G01X032752Y029161D02*
X032636Y029320D01*
X032636Y029320D02*
X032463Y029399D01*
X032463Y029399D02*
X032232Y029399D01*
X032232Y029399D02*
X032059Y029320D01*
X032059Y029320D02*
X031944Y029161D01*
X031944Y029161D02*
X031944Y029003D01*
X032001Y028844*
X032001Y028844D02*
X032059Y028764D01*
X032059Y028764D02*
X032174Y028685D01*
X032174Y028685D02*
X032521Y028526D01*
X032521Y028526D02*
X032636Y028447D01*
X032636Y028447D02*
X032694Y028368D01*
X032752Y028209*
X032752Y027971*
X032636Y027812*
X032636Y027812D02*
X032463Y027733D01*
X032463Y027733D02*
X032232Y027733D01*
X032232Y027733D02*
X032059Y027812D01*
X031944Y027971*
X033560Y028844D02*
X033444Y028764D01*
X033444Y028764D02*
X033329Y028606D01*
X033271Y028368*
X033271Y028368D02*
X033271Y028209D01*
X033271Y028209D02*
X033329Y027971D01*
X033444Y027812*
X033444Y027812D02*
X033560Y027733D01*
X033733Y027733*
X033733Y027733D02*
X033849Y027812D01*
X033964Y027971*
X034022Y028209*
X034022Y028368*
X033964Y028606*
X033849Y028764*
X033849Y028764D02*
X033733Y028844D01*
X033733Y028844D02*
X033560Y028844D01*
X034541Y029399D02*
X034541Y027733D01*
X035754Y029399D02*
X035754Y027733D01*
X035754Y028606D02*
X035638Y028764D01*
X035638Y028764D02*
X035523Y028844D01*
X035349Y028844*
X035349Y028844D02*
X035234Y028764D01*
X035234Y028764D02*
X035119Y028606D01*
X035061Y028368*
X035061Y028209*
X035119Y027971*
X035234Y027812*
X035349Y027733*
X035349Y027733D02*
X035523Y027733D01*
X035638Y027812*
X035638Y027812D02*
X035754Y027971D01*
X036273Y028368D02*
X036966Y028368D01*
X036966Y028526*
X036966Y028526D02*
X036908Y028685D01*
X036908Y028685D02*
X036850Y028764D01*
X036850Y028764D02*
X036735Y028844D01*
X036562Y028844*
X036446Y028764*
X036446Y028764D02*
X036331Y028606D01*
X036273Y028368*
X036273Y028368D02*
X036273Y028209D01*
X036273Y028209D02*
X036331Y027971D01*
X036446Y027812*
X036446Y027812D02*
X036562Y027733D01*
X036735Y027733*
X036850Y027812*
X036850Y027812D02*
X036966Y027971D01*
X037485Y028844D02*
X037485Y027733D01*
X037485Y028368D02*
X037543Y028606D01*
X037543Y028606D02*
X037659Y028764D01*
X037659Y028764D02*
X037774Y028844D01*
X037947Y028844*
X038467Y028844D02*
X038467Y027733D01*
X038467Y028526D02*
X038640Y028764D01*
X038640Y028764D02*
X038755Y028844D01*
X038755Y028844D02*
X038929Y028844D01*
X039044Y028764*
X039044Y028764D02*
X039102Y028526D01*
X039102Y028526D02*
X039102Y027733D01*
X039102Y028526D02*
X039275Y028764D01*
X039275Y028764D02*
X039390Y028844D01*
X039390Y028844D02*
X039564Y028844D01*
X039679Y028764*
X039679Y028764D02*
X039737Y028526D01*
X039737Y028526D02*
X039737Y027733D01*
X040949Y028844D02*
X040949Y027733D01*
X040949Y028606D02*
X040834Y028764D01*
X040834Y028764D02*
X040718Y028844D01*
X040718Y028844D02*
X040545Y028844D01*
X040429Y028764*
X040429Y028764D02*
X040314Y028606D01*
X040256Y028368*
X040256Y028368D02*
X040256Y028209D01*
X040256Y028209D02*
X040314Y027971D01*
X040429Y027812*
X040429Y027812D02*
X040545Y027733D01*
X040718Y027733*
X040718Y027733D02*
X040834Y027812D01*
X040949Y027971*
X042104Y028606D02*
X042046Y028764D01*
X042046Y028764D02*
X041873Y028844D01*
X041699Y028844*
X041699Y028844D02*
X041526Y028764D01*
X041526Y028764D02*
X041469Y028606D01*
X041526Y028447*
X041526Y028447D02*
X041642Y028368D01*
X041930Y028288*
X041930Y028288D02*
X042046Y028209D01*
X042104Y028050*
X042104Y028050D02*
X042104Y027971D01*
X042046Y027812*
X041873Y027733*
X041699Y027733*
X041699Y027733D02*
X041526Y027812D01*
X041526Y027812D02*
X041469Y027971D01*
X042623Y029399D02*
X042623Y027733D01*
X043200Y028844D02*
X042623Y028050D01*
X042854Y028368D02*
X043258Y027733D01*
X045509Y029399D02*
X045509Y027733D01*
X045105Y029399D02*
X045914Y029399D01*
X046722Y028844D02*
X046606Y028764D01*
X046606Y028764D02*
X046491Y028606D01*
X046433Y028368*
X046433Y028368D02*
X046433Y028209D01*
X046433Y028209D02*
X046491Y027971D01*
X046606Y027812*
X046606Y027812D02*
X046722Y027733D01*
X046895Y027733*
X047010Y027812*
X047010Y027812D02*
X047126Y027971D01*
X047184Y028209*
X047184Y028368*
X047126Y028606*
X047010Y028764*
X047010Y028764D02*
X046895Y028844D01*
X046722Y028844*
X047703Y028844D02*
X047703Y027177D01*
X047703Y028606D02*
X047819Y028764D01*
X047819Y028764D02*
X047934Y028844D01*
X048107Y028844*
X048107Y028844D02*
X048223Y028764D01*
X048223Y028764D02*
X048338Y028606D01*
X048338Y028606D02*
X048396Y028368D01*
X048396Y028209*
X048338Y027971*
X048338Y027971D02*
X048223Y027812D01*
X048107Y027733*
X048107Y027733D02*
X047934Y027733D01*
X047819Y027812*
X047703Y027971*
X029912Y031035D02*
X092396Y031035D01*
X092396Y058975*
X029912Y058975*
X029912Y031035*
G54D15*
X029450Y028450D02*
G75*
G03X029450Y028450I-001000J0D01*
G01X030450Y028450D02*
G03X030450Y028450I-002000J0D01*
G01X095617Y060454D02*
G03X095617Y060454I-001000J0D01*
G01X096617Y060454D02*
G03X096617Y060454I-002000J0D01*
G54D16*
G01X025450Y028450D02*
X031450Y028450D01*
X028450Y025450D02*
X028450Y031450D01*
X091617Y060454D02*
X097617Y060454D01*
X094617Y057454D02*
X094617Y063454D01*
G54D23*
X087570Y040433D03*
X037151Y048180D03*
X037278Y035861D03*
X036516Y056181D03*
G54D24*
X085030Y040433D03*
X082490Y040433D03*
X079950Y040433D03*
X077410Y040433D03*
X067504Y042211D03*
X064456Y041449D03*
X059884Y045513D03*
X059884Y048307D03*
X064964Y046783D03*
X034611Y048180D03*
X037278Y033321D03*
X039818Y035861D03*
X039818Y033321D03*
X042358Y035861D03*
X042358Y033321D03*
X044898Y035861D03*
X044898Y033321D03*
X047438Y035861D03*
X047438Y033321D03*
X049978Y035861D03*
X049978Y033321D03*
X052518Y035861D03*
X052518Y033321D03*
X055058Y035861D03*
X055058Y033321D03*
X057598Y035861D03*
X057598Y033321D03*
X060138Y035861D03*
X060138Y033321D03*
X062678Y035861D03*
X062678Y033321D03*
X065218Y035861D03*
X065218Y033321D03*
X067758Y035861D03*
X067758Y033321D03*
X070298Y035861D03*
X070298Y033321D03*
X072838Y035861D03*
X072838Y033321D03*
X075378Y035861D03*
X075378Y033321D03*
X077918Y035861D03*
X077918Y033321D03*
X080458Y035861D03*
X080458Y033321D03*
X082998Y035861D03*
X082998Y033321D03*
X085538Y035861D03*
X085538Y033321D03*
X036516Y053641D03*
X039056Y056181D03*
X039056Y053641D03*
X041596Y056181D03*
X041596Y053641D03*
X044136Y056181D03*
X044136Y053641D03*
X046676Y056181D03*
X046676Y053641D03*
X049216Y056181D03*
X049216Y053641D03*
X051756Y056181D03*
X051756Y053641D03*
X054296Y056181D03*
X054296Y053641D03*
X056836Y056181D03*
X056836Y053641D03*
X059376Y056181D03*
X059376Y053641D03*
X061916Y056181D03*
X061916Y053641D03*
X064456Y056181D03*
X064456Y053641D03*
X066996Y056181D03*
X066996Y053641D03*
X069536Y056181D03*
X069536Y053641D03*
X072076Y056181D03*
X072076Y053641D03*
X074616Y056181D03*
X074616Y053641D03*
X077156Y056181D03*
X077156Y053641D03*
X079696Y056181D03*
X079696Y053641D03*
X082236Y056181D03*
X082236Y053641D03*
X084776Y056181D03*
X084776Y053641D03*
G74*
X000000Y000000D02*
M02*
