*
*
G04 PADS 9.4.1 Build Number: 494907 generated Gerber (RS-274-X) file*
G04 PC Version=2.1*
*
%IN "PASIDE_B.pcb"*%
*
%MOMM*%
*
%FSDAX33Y33*%
*
*
*
*
G04 PC Standard Apertures*
*
*
G04 Thermal Relief Aperture macro.*
%AMTER*
1,1,$1,0,0*
1,0,$1-$2,0,0*
21,0,$3,$4,0,0,45*
21,0,$3,$4,0,0,135*
%
*
*
G04 Annular Aperture macro.*
%AMANN*
1,1,$1,0,0*
1,0,$2,0,0*
%
*
*
G04 Odd Aperture macro.*
%AMODD*
1,1,$1,0,0*
1,0,$1-0.005,0,0*
%
*
*
G04 PC Custom Aperture Macros*
*
*
*
*
*
*
G04 PC Aperture Table*
*
%ADD010C,0.0254*%
%ADD011C,0.254*%
%ADD012C,0.3048*%
%ADD015C,0.2*%
%ADD016C,0.1*%
%ADD062C,0.25*%
*
*
*
*
G04 PC Circuitry*
G04 Layer Name PASIDE_B.pcb - circuitry*
%LPD*%
*
*
G04 PC Custom Flashes*
G04 Layer Name PASIDE_B.pcb - flashes*
%LPD*%
*
*
G04 PC Circuitry*
G04 Layer Name PASIDE_B.pcb - circuitry*
%LPD*%
*
G54D10*
G54D11*
G01X037227Y038274D02*
X035754Y038274D01*
X035754Y040052*
X037227Y040052*
X037836Y038274D02*
X039310Y038274D01*
X039310Y040052*
X037836Y040052*
X037227Y040306D02*
X035754Y040306D01*
X035754Y042084*
X037227Y042084*
X037836Y040306D02*
X039310Y040306D01*
X039310Y042084*
X037836Y042084*
X061458Y040052D02*
X062932Y040052D01*
X062932Y038274*
X061458Y038274*
X060849Y040052D02*
X059376Y040052D01*
X059376Y038274*
X060849Y038274*
X076089Y043354D02*
X074616Y043354D01*
X074616Y045132*
X076089Y045132*
X076698Y043354D02*
X078172Y043354D01*
X078172Y045132*
X076698Y045132*
X059503Y043277D02*
X059503Y044751D01*
X061281Y044751*
X061281Y043277*
X059503Y042668D02*
X059503Y041195D01*
X061281Y041195*
X061281Y042668*
X061103Y049958D02*
X059630Y049958D01*
X059630Y051736*
X061103Y051736*
X061712Y049958D02*
X063186Y049958D01*
X063186Y051736*
X061712Y051736*
X079569Y048357D02*
X079569Y049831D01*
X081347Y049831*
X081347Y048357*
X079569Y047748D02*
X079569Y046275D01*
X081347Y046275*
X081347Y047748*
X081855Y048357D02*
X081855Y049831D01*
X083633Y049831*
X083633Y048357*
X081855Y047748D02*
X081855Y046275D01*
X083633Y046275*
X083633Y047748*
X058741Y047341D02*
X058741Y048815D01*
X060519Y048815*
X060519Y047341*
X058741Y046732D02*
X058741Y045259D01*
X060519Y045259*
X060519Y046732*
X078807Y044293D02*
X078807Y045767D01*
X080585Y045767*
X080585Y044293*
X078807Y043684D02*
X078807Y042211D01*
X080585Y042211*
X080585Y043684*
X081093Y044293D02*
X081093Y045767D01*
X082871Y045767*
X082871Y044293*
X081093Y043684D02*
X081093Y042211D01*
X082871Y042211*
X082871Y043684*
X058233Y046732D02*
X058233Y045259D01*
X056455Y045259*
X056455Y046732*
X058233Y047341D02*
X058233Y048815D01*
X056455Y048815*
X056455Y047341*
X053534Y044827D02*
X053534Y043354D01*
X051756Y043354*
X051756Y044827*
X053534Y045436D02*
X053534Y046910D01*
X051756Y046910*
X051756Y045436*
X052736Y048756D02*
X052736Y047089D01*
X052736Y048756D02*
X052217Y048756D01*
X052217Y048756D02*
X052044Y048677D01*
X051986Y048597*
X051986Y048597D02*
X051928Y048439D01*
X051928Y048439D02*
X051928Y048280D01*
X051928Y048280D02*
X051986Y048121D01*
X051986Y048121D02*
X052044Y048042D01*
X052217Y047962*
X052217Y047962D02*
X052736Y047962D01*
X052332Y047962D02*
X051928Y047089D01*
X050831Y048756D02*
X051409Y047645D01*
X050543Y047645*
X050831Y048756D02*
X050831Y047089D01*
X032375Y049172D02*
X032375Y047902D01*
X032375Y047902D02*
X032433Y047664D01*
X032491Y047584*
X032491Y047584D02*
X032606Y047505D01*
X032606Y047505D02*
X032721Y047505D01*
X032721Y047505D02*
X032837Y047584D01*
X032837Y047584D02*
X032895Y047664D01*
X032952Y047902*
X032952Y047902D02*
X032952Y048061D01*
X031278Y049172D02*
X031856Y048061D01*
X030990Y048061*
X031278Y049172D02*
X031278Y047505D01*
X038294Y046116D02*
X038294Y045005D01*
X038294Y045640D02*
X038236Y045878D01*
X038120Y046036*
X038120Y046036D02*
X038005Y046116D01*
X037832Y046116*
X037312Y045640D02*
X036619Y045640D01*
X036619Y045640D02*
X036619Y045798D01*
X036619Y045798D02*
X036677Y045957D01*
X036677Y045957D02*
X036735Y046036D01*
X036735Y046036D02*
X036850Y046116D01*
X036850Y046116D02*
X037024Y046116D01*
X037139Y046036*
X037139Y046036D02*
X037254Y045878D01*
X037254Y045878D02*
X037312Y045640D01*
X037312Y045640D02*
X037312Y045481D01*
X037312Y045481D02*
X037254Y045243D01*
X037254Y045243D02*
X037139Y045084D01*
X037024Y045005*
X036850Y045005*
X036850Y045005D02*
X036735Y045084D01*
X036619Y045243*
X035465Y045878D02*
X035523Y046036D01*
X035523Y046036D02*
X035696Y046116D01*
X035869Y046116*
X036042Y046036*
X036042Y046036D02*
X036100Y045878D01*
X036042Y045719*
X036042Y045719D02*
X035927Y045640D01*
X035638Y045560*
X035638Y045560D02*
X035523Y045481D01*
X035465Y045322*
X035465Y045322D02*
X035465Y045243D01*
X035523Y045084*
X035696Y045005*
X035869Y045005*
X036042Y045084*
X036042Y045084D02*
X036100Y045243D01*
X034945Y045640D02*
X034253Y045640D01*
X034253Y045798*
X034253Y045798D02*
X034310Y045957D01*
X034310Y045957D02*
X034368Y046036D01*
X034368Y046036D02*
X034484Y046116D01*
X034657Y046116*
X034772Y046036*
X034772Y046036D02*
X034888Y045878D01*
X034945Y045640*
X034945Y045640D02*
X034945Y045481D01*
X034945Y045481D02*
X034888Y045243D01*
X034772Y045084*
X034772Y045084D02*
X034657Y045005D01*
X034484Y045005*
X034368Y045084*
X034368Y045084D02*
X034253Y045243D01*
X033560Y046671D02*
X033560Y045322D01*
X033560Y045322D02*
X033502Y045084D01*
X033502Y045084D02*
X033387Y045005D01*
X033271Y045005*
X033733Y046116D02*
X033329Y046116D01*
X032752Y029161D02*
X032636Y029320D01*
X032636Y029320D02*
X032463Y029399D01*
X032463Y029399D02*
X032232Y029399D01*
X032232Y029399D02*
X032059Y029320D01*
X032059Y029320D02*
X031944Y029161D01*
X031944Y029161D02*
X031944Y029003D01*
X032001Y028844*
X032001Y028844D02*
X032059Y028764D01*
X032059Y028764D02*
X032174Y028685D01*
X032174Y028685D02*
X032521Y028526D01*
X032521Y028526D02*
X032636Y028447D01*
X032636Y028447D02*
X032694Y028368D01*
X032752Y028209*
X032752Y027971*
X032636Y027812*
X032636Y027812D02*
X032463Y027733D01*
X032463Y027733D02*
X032232Y027733D01*
X032232Y027733D02*
X032059Y027812D01*
X031944Y027971*
X033271Y029399D02*
X033329Y029320D01*
X033329Y029320D02*
X033387Y029399D01*
X033387Y029399D02*
X033329Y029479D01*
X033271Y029399*
X033329Y028844D02*
X033329Y027733D01*
X033906Y029399D02*
X033906Y027733D01*
X034426Y029399D02*
X034426Y027733D01*
X035003Y028844D02*
X034426Y028050D01*
X034657Y028368D02*
X035061Y027733D01*
X036215Y028606D02*
X036158Y028764D01*
X036158Y028764D02*
X035984Y028844D01*
X035984Y028844D02*
X035811Y028844D01*
X035811Y028844D02*
X035638Y028764D01*
X035638Y028764D02*
X035580Y028606D01*
X035580Y028606D02*
X035638Y028447D01*
X035638Y028447D02*
X035754Y028368D01*
X036042Y028288*
X036042Y028288D02*
X036158Y028209D01*
X036215Y028050*
X036215Y028050D02*
X036215Y027971D01*
X036215Y027971D02*
X036158Y027812D01*
X035984Y027733*
X035984Y027733D02*
X035811Y027733D01*
X035811Y027733D02*
X035638Y027812D01*
X035638Y027812D02*
X035580Y027971D01*
X037428Y028606D02*
X037312Y028764D01*
X037312Y028764D02*
X037197Y028844D01*
X037024Y028844*
X036908Y028764*
X036908Y028764D02*
X036793Y028606D01*
X036735Y028368*
X036735Y028209*
X036793Y027971*
X036908Y027812*
X036908Y027812D02*
X037024Y027733D01*
X037197Y027733*
X037312Y027812*
X037312Y027812D02*
X037428Y027971D01*
X037947Y028844D02*
X037947Y027733D01*
X037947Y028368D02*
X038005Y028606D01*
X038120Y028764*
X038120Y028764D02*
X038236Y028844D01*
X038409Y028844*
X038929Y028368D02*
X039621Y028368D01*
X039621Y028368D02*
X039621Y028526D01*
X039621Y028526D02*
X039564Y028685D01*
X039564Y028685D02*
X039506Y028764D01*
X039506Y028764D02*
X039390Y028844D01*
X039390Y028844D02*
X039217Y028844D01*
X039217Y028844D02*
X039102Y028764D01*
X039102Y028764D02*
X038986Y028606D01*
X038986Y028606D02*
X038929Y028368D01*
X038929Y028209*
X038986Y027971*
X038986Y027971D02*
X039102Y027812D01*
X039217Y027733*
X039217Y027733D02*
X039390Y027733D01*
X039390Y027733D02*
X039506Y027812D01*
X039621Y027971*
X040141Y028368D02*
X040834Y028368D01*
X040834Y028526*
X040834Y028526D02*
X040776Y028685D01*
X040776Y028685D02*
X040718Y028764D01*
X040718Y028764D02*
X040603Y028844D01*
X040429Y028844*
X040429Y028844D02*
X040314Y028764D01*
X040314Y028764D02*
X040199Y028606D01*
X040141Y028368*
X040141Y028209*
X040199Y027971*
X040314Y027812*
X040429Y027733*
X040429Y027733D02*
X040603Y027733D01*
X040718Y027812*
X040718Y027812D02*
X040834Y027971D01*
X041353Y028844D02*
X041353Y027733D01*
X041353Y028526D02*
X041526Y028764D01*
X041526Y028764D02*
X041642Y028844D01*
X041815Y028844*
X041930Y028764*
X041930Y028764D02*
X041988Y028526D01*
X041988Y028526D02*
X041988Y027733D01*
X043835Y029399D02*
X043835Y027733D01*
X043835Y029399D02*
X044355Y029399D01*
X044355Y029399D02*
X044528Y029320D01*
X044528Y029320D02*
X044586Y029241D01*
X044644Y029082*
X044644Y028923*
X044644Y028923D02*
X044586Y028764D01*
X044586Y028764D02*
X044528Y028685D01*
X044528Y028685D02*
X044355Y028606D01*
X043835Y028606D02*
X044355Y028606D01*
X044528Y028526*
X044528Y028526D02*
X044586Y028447D01*
X044644Y028288*
X044644Y028288D02*
X044644Y028050D01*
X044644Y028050D02*
X044586Y027891D01*
X044586Y027891D02*
X044528Y027812D01*
X044528Y027812D02*
X044355Y027733D01*
X043835Y027733*
X045452Y028844D02*
X045336Y028764D01*
X045336Y028764D02*
X045221Y028606D01*
X045163Y028368*
X045163Y028368D02*
X045163Y028209D01*
X045163Y028209D02*
X045221Y027971D01*
X045336Y027812*
X045336Y027812D02*
X045452Y027733D01*
X045625Y027733*
X045740Y027812*
X045740Y027812D02*
X045856Y027971D01*
X045914Y028209*
X045914Y028368*
X045856Y028606*
X045740Y028764*
X045740Y028764D02*
X045625Y028844D01*
X045452Y028844*
X046606Y029399D02*
X046606Y028050D01*
X046606Y028050D02*
X046664Y027812D01*
X046779Y027733*
X046779Y027733D02*
X046895Y027733D01*
X046433Y028844D02*
X046837Y028844D01*
X047588Y029399D02*
X047588Y028050D01*
X047588Y028050D02*
X047645Y027812D01*
X047645Y027812D02*
X047761Y027733D01*
X047876Y027733*
X047414Y028844D02*
X047819Y028844D01*
X048684Y028844D02*
X048569Y028764D01*
X048569Y028764D02*
X048454Y028606D01*
X048396Y028368*
X048396Y028209*
X048454Y027971*
X048569Y027812*
X048684Y027733*
X048684Y027733D02*
X048858Y027733D01*
X048973Y027812*
X048973Y027812D02*
X049089Y027971D01*
X049146Y028209*
X049146Y028209D02*
X049146Y028368D01*
X049146Y028368D02*
X049089Y028606D01*
X048973Y028764*
X048973Y028764D02*
X048858Y028844D01*
X048684Y028844*
X049666Y028844D02*
X049666Y027733D01*
X049666Y028526D02*
X049839Y028764D01*
X049839Y028764D02*
X049954Y028844D01*
X049954Y028844D02*
X050128Y028844D01*
X050243Y028764*
X050243Y028764D02*
X050301Y028526D01*
X050301Y028526D02*
X050301Y027733D01*
X050301Y028526D02*
X050474Y028764D01*
X050474Y028764D02*
X050589Y028844D01*
X050589Y028844D02*
X050763Y028844D01*
X050878Y028764*
X050878Y028764D02*
X050936Y028526D01*
X050936Y028526D02*
X050936Y027733D01*
X029912Y031035D02*
X092396Y031035D01*
X092396Y058975*
X029912Y058975*
X029912Y031035*
G54D12*
X088840Y041703D02*
X076013Y041703D01*
X076013Y039163*
X088840Y039163*
X088840Y041703*
X038421Y049450D02*
X033251Y049450D01*
X033251Y046910*
X037659Y046910*
X038421Y047672*
X038421Y049450*
X036008Y032051D02*
X086808Y032051D01*
X086808Y037131*
X036770Y037131*
X036008Y036369*
X036008Y032051*
X035246Y052371D02*
X086046Y052371D01*
X086046Y057451*
X036008Y057451*
X035246Y056689*
X035246Y052371*
G54D15*
X072462Y040555D02*
X063562Y040555D01*
X063562Y049455*
X072462Y049455*
X072462Y049230*
X072012Y049005*
X072462Y048780*
X072462Y040555*
X029450Y028450D02*
G75*
G03X029450Y028450I-001000J0D01*
G01X030450Y028450D02*
G03X030450Y028450I-002000J0D01*
G01X095617Y060454D02*
G03X095617Y060454I-001000J0D01*
G01X096617Y060454D02*
G03X096617Y060454I-002000J0D01*
G54D16*
G01X025450Y028450D02*
X031450Y028450D01*
X028450Y025450D02*
X028450Y031450D01*
X091617Y060454D02*
X097617Y060454D01*
X094617Y057454D02*
X094617Y063454D01*
G54D62*
X034559Y039518D02*
X034616Y039675D01*
X034730Y039831*
X034843Y039909*
X034843Y039909D02*
X035070Y039909D01*
X035070Y039909D02*
X035184Y039831D01*
X035184Y039831D02*
X035298Y039675D01*
X035355Y039518*
X035355Y039518D02*
X035411Y039284D01*
X035411Y039284D02*
X035411Y038893D01*
X035411Y038893D02*
X035355Y038659D01*
X035355Y038659D02*
X035298Y038503D01*
X035184Y038347*
X035184Y038347D02*
X035070Y038268D01*
X035070Y038268D02*
X034843Y038268D01*
X034843Y038268D02*
X034730Y038347D01*
X034616Y038503*
X034559Y038659*
X034048Y039597D02*
X033934Y039675D01*
X033934Y039675D02*
X033764Y039909D01*
X033764Y039909D02*
X033764Y038268D01*
X034617Y041869D02*
X034674Y042025D01*
X034674Y042025D02*
X034788Y042181D01*
X034788Y042181D02*
X034901Y042259D01*
X034901Y042259D02*
X035129Y042259D01*
X035129Y042259D02*
X035242Y042181D01*
X035242Y042181D02*
X035356Y042025D01*
X035356Y042025D02*
X035413Y041869D01*
X035469Y041634*
X035469Y041634D02*
X035469Y041244D01*
X035469Y041244D02*
X035413Y041009D01*
X035413Y041009D02*
X035356Y040853D01*
X035356Y040853D02*
X035242Y040697D01*
X035242Y040697D02*
X035129Y040619D01*
X034901Y040619*
X034901Y040619D02*
X034788Y040697D01*
X034674Y040853*
X034674Y040853D02*
X034617Y041009D01*
X034049Y041869D02*
X034049Y041947D01*
X033992Y042103*
X033992Y042103D02*
X033935Y042181D01*
X033935Y042181D02*
X033822Y042259D01*
X033822Y042259D02*
X033594Y042259D01*
X033594Y042259D02*
X033481Y042181D01*
X033481Y042181D02*
X033424Y042103D01*
X033424Y042103D02*
X033367Y041947D01*
X033367Y041947D02*
X033367Y041791D01*
X033367Y041791D02*
X033424Y041634D01*
X033424Y041634D02*
X033538Y041400D01*
X033538Y041400D02*
X034106Y040619D01*
X033310Y040619*
X058211Y039611D02*
X058268Y039767D01*
X058268Y039767D02*
X058382Y039923D01*
X058382Y039923D02*
X058496Y040001D01*
X058496Y040001D02*
X058723Y040001D01*
X058723Y040001D02*
X058836Y039923D01*
X058836Y039923D02*
X058950Y039767D01*
X058950Y039767D02*
X059007Y039611D01*
X059064Y039376*
X059064Y039376D02*
X059064Y038986D01*
X059007Y038751*
X059007Y038751D02*
X058950Y038595D01*
X058950Y038595D02*
X058836Y038439D01*
X058836Y038439D02*
X058723Y038361D01*
X058496Y038361*
X058382Y038439*
X058268Y038595*
X058268Y038595D02*
X058211Y038751D01*
X057586Y040001D02*
X056961Y040001D01*
X056961Y040001D02*
X057302Y039376D01*
X057302Y039376D02*
X057132Y039376D01*
X057132Y039376D02*
X057018Y039298D01*
X057018Y039298D02*
X056961Y039220D01*
X056961Y039220D02*
X056905Y038986D01*
X056905Y038829*
X056905Y038829D02*
X056961Y038595D01*
X056961Y038595D02*
X057075Y038439D01*
X057075Y038439D02*
X057246Y038361D01*
X057416Y038361*
X057416Y038361D02*
X057586Y038439D01*
X057586Y038439D02*
X057643Y038517D01*
X057643Y038517D02*
X057700Y038673D01*
X076052Y042772D02*
X076109Y042929D01*
X076109Y042929D02*
X076223Y043085D01*
X076336Y043163*
X076336Y043163D02*
X076564Y043163D01*
X076677Y043085*
X076677Y043085D02*
X076791Y042929D01*
X076848Y042772*
X076848Y042772D02*
X076904Y042538D01*
X076904Y042538D02*
X076904Y042147D01*
X076904Y042147D02*
X076848Y041913D01*
X076791Y041757*
X076677Y041600*
X076677Y041600D02*
X076564Y041522D01*
X076564Y041522D02*
X076336Y041522D01*
X076336Y041522D02*
X076223Y041600D01*
X076223Y041600D02*
X076109Y041757D01*
X076109Y041757D02*
X076052Y041913D01*
X074973Y043163D02*
X075541Y042069D01*
X075541Y042069D02*
X074689Y042069D01*
X074973Y043163D02*
X074973Y041522D01*
X057699Y043349D02*
X057542Y043406D01*
X057542Y043406D02*
X057386Y043519D01*
X057386Y043519D02*
X057308Y043633D01*
X057308Y043633D02*
X057308Y043860D01*
X057308Y043860D02*
X057386Y043974D01*
X057386Y043974D02*
X057542Y044088D01*
X057542Y044088D02*
X057699Y044144D01*
X057699Y044144D02*
X057933Y044201D01*
X057933Y044201D02*
X058324Y044201D01*
X058324Y044201D02*
X058558Y044144D01*
X058558Y044144D02*
X058714Y044088D01*
X058714Y044088D02*
X058871Y043974D01*
X058949Y043860*
X058949Y043860D02*
X058949Y043633D01*
X058949Y043633D02*
X058871Y043519D01*
X058871Y043519D02*
X058714Y043406D01*
X058714Y043406D02*
X058558Y043349D01*
X057308Y042099D02*
X057308Y042667D01*
X057308Y042667D02*
X058011Y042724D01*
X058011Y042724D02*
X057933Y042667D01*
X057933Y042667D02*
X057855Y042497D01*
X057855Y042326*
X057855Y042326D02*
X057933Y042156D01*
X057933Y042156D02*
X058089Y042042D01*
X058089Y042042D02*
X058324Y041985D01*
X058324Y041985D02*
X058480Y042042D01*
X058480Y042042D02*
X058714Y042099D01*
X058714Y042099D02*
X058871Y042213D01*
X058949Y042383*
X058949Y042383D02*
X058949Y042554D01*
X058871Y042724*
X058792Y042781*
X058792Y042781D02*
X058636Y042838D01*
X058582Y051794D02*
X058639Y051950D01*
X058639Y051950D02*
X058753Y052106D01*
X058753Y052106D02*
X058866Y052184D01*
X058866Y052184D02*
X059094Y052184D01*
X059094Y052184D02*
X059207Y052106D01*
X059207Y052106D02*
X059321Y051950D01*
X059378Y051794*
X059435Y051559*
X059435Y051559D02*
X059435Y051169D01*
X059378Y050934*
X059378Y050934D02*
X059321Y050778D01*
X059207Y050622*
X059207Y050622D02*
X059094Y050544D01*
X058866Y050544*
X058866Y050544D02*
X058753Y050622D01*
X058639Y050778*
X058639Y050778D02*
X058582Y050934D01*
X057389Y051950D02*
X057446Y052106D01*
X057446Y052106D02*
X057616Y052184D01*
X057616Y052184D02*
X057730Y052184D01*
X057730Y052184D02*
X057900Y052106D01*
X057900Y052106D02*
X058014Y051872D01*
X058014Y051872D02*
X058071Y051481D01*
X058071Y051481D02*
X058071Y051090D01*
X058071Y051090D02*
X058014Y050778D01*
X058014Y050778D02*
X057900Y050622D01*
X057900Y050622D02*
X057730Y050544D01*
X057673Y050544*
X057673Y050544D02*
X057503Y050622D01*
X057389Y050778*
X057389Y050778D02*
X057332Y051012D01*
X057332Y051012D02*
X057332Y051090D01*
X057332Y051090D02*
X057389Y051325D01*
X057389Y051325D02*
X057503Y051481D01*
X057503Y051481D02*
X057673Y051559D01*
X057673Y051559D02*
X057730Y051559D01*
X057730Y051559D02*
X057900Y051481D01*
X057900Y051481D02*
X058014Y051325D01*
X058014Y051325D02*
X058071Y051090D01*
X080586Y051517D02*
X080643Y051674D01*
X080756Y051830*
X080756Y051830D02*
X080870Y051908D01*
X080870Y051908D02*
X081097Y051908D01*
X081097Y051908D02*
X081211Y051830D01*
X081325Y051674*
X081381Y051517*
X081381Y051517D02*
X081438Y051283D01*
X081438Y051283D02*
X081438Y050892D01*
X081438Y050892D02*
X081381Y050658D01*
X081381Y050658D02*
X081325Y050502D01*
X081211Y050346*
X081097Y050267*
X081097Y050267D02*
X080870Y050267D01*
X080870Y050267D02*
X080756Y050346D01*
X080756Y050346D02*
X080643Y050502D01*
X080586Y050658*
X079279Y051908D02*
X079847Y050267D01*
X080075Y051908D02*
X079279Y051908D01*
X083720Y051584D02*
X083777Y051741D01*
X083891Y051897*
X084004Y051975*
X084004Y051975D02*
X084232Y051975D01*
X084345Y051897*
X084345Y051897D02*
X084459Y051741D01*
X084516Y051584*
X084516Y051584D02*
X084572Y051350D01*
X084572Y051350D02*
X084572Y050959D01*
X084572Y050959D02*
X084516Y050725D01*
X084459Y050569*
X084345Y050412*
X084345Y050412D02*
X084232Y050334D01*
X084232Y050334D02*
X084004Y050334D01*
X084004Y050334D02*
X083891Y050412D01*
X083891Y050412D02*
X083777Y050569D01*
X083720Y050725*
X082925Y051975D02*
X083095Y051897D01*
X083095Y051897D02*
X083152Y051741D01*
X083152Y051584*
X083152Y051584D02*
X083095Y051428D01*
X083095Y051428D02*
X082982Y051350D01*
X082754Y051272*
X082754Y051272D02*
X082584Y051194D01*
X082470Y051037*
X082470Y051037D02*
X082413Y050881D01*
X082413Y050881D02*
X082413Y050647D01*
X082413Y050647D02*
X082470Y050491D01*
X082470Y050491D02*
X082527Y050412D01*
X082527Y050412D02*
X082697Y050334D01*
X082697Y050334D02*
X082925Y050334D01*
X082925Y050334D02*
X083095Y050412D01*
X083095Y050412D02*
X083152Y050491D01*
X083209Y050647*
X083209Y050881*
X083209Y050881D02*
X083152Y051037D01*
X083152Y051037D02*
X083038Y051194D01*
X083038Y051194D02*
X082868Y051272D01*
X082641Y051350*
X082527Y051428*
X082527Y051428D02*
X082470Y051584D01*
X082470Y051584D02*
X082470Y051741D01*
X082470Y051741D02*
X082527Y051897D01*
X082697Y051975*
X082697Y051975D02*
X082925Y051975D01*
X057973Y050284D02*
X058030Y050441D01*
X058030Y050441D02*
X058144Y050597D01*
X058258Y050675*
X058258Y050675D02*
X058485Y050675D01*
X058485Y050675D02*
X058598Y050597D01*
X058598Y050597D02*
X058712Y050441D01*
X058712Y050441D02*
X058769Y050284D01*
X058769Y050284D02*
X058826Y050050D01*
X058826Y050050D02*
X058826Y049659D01*
X058826Y049659D02*
X058769Y049425D01*
X058769Y049425D02*
X058712Y049269D01*
X058712Y049269D02*
X058598Y049113D01*
X058598Y049113D02*
X058485Y049034D01*
X058485Y049034D02*
X058258Y049034D01*
X058258Y049034D02*
X058144Y049113D01*
X058030Y049269*
X058030Y049269D02*
X057973Y049425D01*
X056723Y050128D02*
X056780Y049894D01*
X056780Y049894D02*
X056894Y049738D01*
X057064Y049659*
X057064Y049659D02*
X057121Y049659D01*
X057121Y049659D02*
X057292Y049738D01*
X057405Y049894*
X057405Y049894D02*
X057462Y050128D01*
X057462Y050128D02*
X057462Y050206D01*
X057462Y050206D02*
X057405Y050441D01*
X057405Y050441D02*
X057292Y050597D01*
X057121Y050675*
X057121Y050675D02*
X057064Y050675D01*
X057064Y050675D02*
X056894Y050597D01*
X056780Y050441*
X056780Y050441D02*
X056723Y050128D01*
X056723Y050128D02*
X056723Y049738D01*
X056723Y049738D02*
X056780Y049347D01*
X056780Y049347D02*
X056894Y049113D01*
X057064Y049034*
X057064Y049034D02*
X057178Y049034D01*
X057178Y049034D02*
X057348Y049113D01*
X057348Y049113D02*
X057405Y049269D01*
X090931Y041318D02*
X090931Y040068D01*
X090931Y040068D02*
X090988Y039834D01*
X091045Y039756*
X091158Y039678*
X091158Y039678D02*
X091272Y039678D01*
X091386Y039756*
X091442Y039834*
X091442Y039834D02*
X091499Y040068D01*
X091499Y040068D02*
X091499Y040225D01*
X090306Y041318D02*
X089681Y041318D01*
X089681Y041318D02*
X090022Y040693D01*
X090022Y040693D02*
X089852Y040693D01*
X089852Y040693D02*
X089738Y040615D01*
X089738Y040615D02*
X089681Y040537D01*
X089681Y040537D02*
X089624Y040303D01*
X089624Y040303D02*
X089624Y040146D01*
X089624Y040146D02*
X089681Y039912D01*
X089681Y039912D02*
X089795Y039756D01*
X089965Y039678*
X089965Y039678D02*
X090136Y039678D01*
X090306Y039756*
X090306Y039756D02*
X090363Y039834D01*
X090420Y039990*
X085049Y043457D02*
X085049Y041816D01*
X085049Y043457D02*
X084537Y043457D01*
X084537Y043457D02*
X084367Y043379D01*
X084310Y043300*
X084310Y043300D02*
X084253Y043144D01*
X084253Y043144D02*
X084253Y042988D01*
X084253Y042988D02*
X084310Y042832D01*
X084310Y042832D02*
X084367Y042754D01*
X084537Y042675*
X084537Y042675D02*
X085049Y042675D01*
X084651Y042675D02*
X084253Y041816D01*
X083742Y043144D02*
X083628Y043222D01*
X083628Y043222D02*
X083458Y043457D01*
X083458Y041816*
X085246Y045727D02*
X085246Y044086D01*
X085246Y045727D02*
X084735Y045727D01*
X084564Y045648*
X084564Y045648D02*
X084508Y045570D01*
X084508Y045570D02*
X084451Y045414D01*
X084451Y045414D02*
X084451Y045258D01*
X084508Y045102*
X084564Y045023*
X084564Y045023D02*
X084735Y044945D01*
X084735Y044945D02*
X085246Y044945D01*
X084849Y044945D02*
X084451Y044086D01*
X083883Y045336D02*
X083883Y045414D01*
X083883Y045414D02*
X083826Y045570D01*
X083826Y045570D02*
X083769Y045648D01*
X083769Y045648D02*
X083655Y045727D01*
X083655Y045727D02*
X083428Y045727D01*
X083428Y045727D02*
X083314Y045648D01*
X083314Y045648D02*
X083258Y045570D01*
X083258Y045570D02*
X083201Y045414D01*
X083201Y045414D02*
X083201Y045258D01*
X083258Y045102*
X083371Y044867*
X083371Y044867D02*
X083939Y044086D01*
X083939Y044086D02*
X083144Y044086D01*
X056350Y047654D02*
X056350Y046013D01*
X056350Y047654D02*
X055839Y047654D01*
X055839Y047654D02*
X055668Y047576D01*
X055668Y047576D02*
X055611Y047498D01*
X055611Y047498D02*
X055555Y047342D01*
X055555Y047185*
X055555Y047185D02*
X055611Y047029D01*
X055611Y047029D02*
X055668Y046951D01*
X055668Y046951D02*
X055839Y046873D01*
X056350Y046873*
X055952Y046873D02*
X055555Y046013D01*
X054930Y047654D02*
X054305Y047654D01*
X054305Y047654D02*
X054646Y047029D01*
X054646Y047029D02*
X054475Y047029D01*
X054475Y047029D02*
X054361Y046951D01*
X054361Y046951D02*
X054305Y046873D01*
X054248Y046638*
X054248Y046638D02*
X054248Y046482D01*
X054248Y046482D02*
X054305Y046248D01*
X054418Y046092*
X054418Y046092D02*
X054589Y046013D01*
X054589Y046013D02*
X054759Y046013D01*
X054759Y046013D02*
X054930Y046092D01*
X054986Y046170*
X054986Y046170D02*
X055043Y046326D01*
X075310Y040088D02*
X075310Y038916D01*
X075310Y038916D02*
X075253Y038682D01*
X075253Y038682D02*
X075140Y038525D01*
X075140Y038525D02*
X074969Y038447D01*
X074969Y038447D02*
X074856Y038447D01*
X074856Y038447D02*
X074685Y038525D01*
X074685Y038525D02*
X074571Y038682D01*
X074571Y038682D02*
X074515Y038916D01*
X074515Y040088*
X074003Y039775D02*
X073890Y039853D01*
X073890Y039853D02*
X073719Y040088D01*
X073719Y040088D02*
X073719Y038447D01*
X078672Y051813D02*
X078672Y050641D01*
X078672Y050641D02*
X078615Y050407D01*
X078615Y050407D02*
X078502Y050251D01*
X078331Y050172*
X078331Y050172D02*
X078218Y050172D01*
X078218Y050172D02*
X078047Y050251D01*
X078047Y050251D02*
X077934Y050407D01*
X077877Y050641*
X077877Y050641D02*
X077877Y051813D01*
X077309Y051422D02*
X077309Y051501D01*
X077252Y051657*
X077195Y051735*
X077081Y051813*
X077081Y051813D02*
X076854Y051813D01*
X076854Y051813D02*
X076740Y051735D01*
X076740Y051735D02*
X076684Y051657D01*
X076627Y051501*
X076627Y051344*
X076627Y051344D02*
X076684Y051188D01*
X076684Y051188D02*
X076797Y050954D01*
X076797Y050954D02*
X077365Y050172D01*
X077365Y050172D02*
X076570Y050172D01*
X034960Y035366D02*
X034960Y034116D01*
X034960Y034116D02*
X035017Y033882D01*
X035073Y033804*
X035073Y033804D02*
X035187Y033726D01*
X035187Y033726D02*
X035301Y033726D01*
X035414Y033804*
X035414Y033804D02*
X035471Y033882D01*
X035471Y033882D02*
X035528Y034116D01*
X035528Y034116D02*
X035528Y034272D01*
X034448Y035054D02*
X034335Y035132D01*
X034164Y035366*
X034164Y035366D02*
X034164Y033726D01*
X033744Y056541D02*
X033744Y055291D01*
X033744Y055291D02*
X033801Y055057D01*
X033858Y054979*
X033971Y054901*
X033971Y054901D02*
X034085Y054901D01*
X034198Y054979*
X034198Y054979D02*
X034255Y055057D01*
X034255Y055057D02*
X034312Y055291D01*
X034312Y055291D02*
X034312Y055448D01*
X033176Y056151D02*
X033176Y056229D01*
X033119Y056385*
X033119Y056385D02*
X033062Y056463D01*
X033062Y056463D02*
X032948Y056541D01*
X032948Y056541D02*
X032721Y056541D01*
X032721Y056541D02*
X032608Y056463D01*
X032608Y056463D02*
X032551Y056385D01*
X032551Y056385D02*
X032494Y056229D01*
X032494Y056073*
X032551Y055916*
X032551Y055916D02*
X032664Y055682D01*
X032664Y055682D02*
X033233Y054901D01*
X032437Y054901*
G74*
X000000Y000000D02*
M02*
