*
*
G04 PADS 9.4.1 Build Number: 494907 generated Gerber (RS-274-X) file*
G04 PC Version=2.1*
*
%IN "PASIDE_B.pcb"*%
*
%MOMM*%
*
%FSDAX33Y33*%
*
*
*
*
G04 PC Standard Apertures*
*
*
G04 Thermal Relief Aperture macro.*
%AMTER*
1,1,$1,0,0*
1,0,$1-$2,0,0*
21,0,$3,$4,0,0,45*
21,0,$3,$4,0,0,135*
%
*
*
G04 Annular Aperture macro.*
%AMANN*
1,1,$1,0,0*
1,0,$2,0,0*
%
*
*
G04 Odd Aperture macro.*
%AMODD*
1,1,$1,0,0*
1,0,$1-0.005,0,0*
%
*
*
G04 PC Custom Aperture Macros*
*
*
*
*
*
*
G04 PC Aperture Table*
*
%ADD010C,0.0254*%
%ADD011C,0.254*%
%ADD015C,0.2*%
%ADD016C,0.1*%
%ADD062C,0.25*%
*
*
*
*
G04 PC Circuitry*
G04 Layer Name PASIDE_B.pcb - circuitry*
%LPD*%
*
G54D10*
G01X056240Y041196D02*
X056091Y041196D01*
X056091Y041196D02*
X056078Y041209D01*
X056078Y041989*
X055790Y041989*
X055790Y041989D02*
X055149Y041204D01*
X055149Y041204D02*
X055149Y040933D01*
X055149Y040933D02*
X055784Y040933D01*
X055784Y040933D02*
X055797Y040921D01*
X055797Y040921D02*
X055797Y040699D01*
X055797Y040699D02*
X056078Y040699D01*
X056078Y040699D02*
X056078Y040921D01*
X056091Y040933*
X056091Y040933D02*
X056240Y040933D01*
X056240Y040933D02*
X056240Y041196D01*
X055797Y041605D02*
X055797Y041209D01*
X055797Y041209D02*
X055784Y041196D01*
X055784Y041196D02*
X055442Y041196D01*
X055442Y041196D02*
X055432Y041217D01*
X055432Y041217D02*
X055775Y041614D01*
X055797Y041605*
X056276Y043655D02*
X056241Y043796D01*
X056241Y043796D02*
X056187Y043920D01*
X056187Y043920D02*
X056118Y044025D01*
X056118Y044025D02*
X055978Y044113D01*
X055890Y044130*
X055890Y044130D02*
X055766Y044148D01*
X055766Y044148D02*
X055642Y044130D01*
X055642Y044130D02*
X055537Y044112D01*
X055537Y044112D02*
X055361Y044007D01*
X055361Y044007D02*
X055310Y043921D01*
X055310Y043921D02*
X055274Y043815D01*
X055274Y043815D02*
X055239Y043673D01*
X055239Y043494*
X055239Y043494D02*
X055257Y043226D01*
X055257Y043226D02*
X055292Y043121D01*
X055292Y043121D02*
X055344Y043033D01*
X055344Y043033D02*
X055415Y042945D01*
X055415Y042945D02*
X055501Y042893D01*
X055501Y042893D02*
X055607Y042858D01*
X055607Y042858D02*
X055748Y042840D01*
X055748Y042840D02*
X055891Y042858D01*
X055891Y042858D02*
X055996Y042876D01*
X055996Y042876D02*
X056083Y042928D01*
X056153Y042997*
X056153Y042997D02*
X056205Y043085D01*
X056276Y043334*
X056276Y043334D02*
X056276Y043655D01*
X055941Y043602D02*
X055941Y043332D01*
X055941Y043332D02*
X055941Y043330D01*
X055941Y043330D02*
X055923Y043222D01*
X055923Y043221*
X055905Y043149*
X055903Y043145*
X055903Y043145D02*
X055867Y043091D01*
X055863Y043087*
X055863Y043087D02*
X055809Y043051D01*
X055809Y043051D02*
X055802Y043049D01*
X055802Y043049D02*
X055748Y043049D01*
X055748Y043049D02*
X055745Y043049D01*
X055745Y043049D02*
X055673Y043067D01*
X055673Y043067D02*
X055666Y043072D01*
X055666Y043072D02*
X055612Y043144D01*
X055612Y043144D02*
X055610Y043148D01*
X055610Y043148D02*
X055592Y043202D01*
X055592Y043202D02*
X055592Y043206D01*
X055592Y043277*
X055574Y043384*
X055574Y043386*
X055574Y043602*
X055574Y043602D02*
X055574Y043604D01*
X055574Y043604D02*
X055592Y043711D01*
X055592Y043711D02*
X055592Y043782D01*
X055592Y043782D02*
X055592Y043786D01*
X055592Y043786D02*
X055610Y043840D01*
X055610Y043840D02*
X055612Y043844D01*
X055612Y043844D02*
X055666Y043916D01*
X055666Y043916D02*
X055673Y043921D01*
X055673Y043921D02*
X055745Y043939D01*
X055745Y043939D02*
X055751Y043939D01*
X055841Y043921*
X055849Y043916*
X055903Y043844*
X055905Y043840*
X055905Y043840D02*
X055923Y043786D01*
X055923Y043786D02*
X055923Y043782D01*
X055923Y043782D02*
X055923Y043711D01*
X055923Y043711D02*
X055941Y043604D01*
X055941Y043604D02*
X055941Y043602D01*
X054763Y041989D02*
X054495Y041989D01*
X054426Y041869*
X054426Y041869D02*
X054424Y041866D01*
X054424Y041866D02*
X054334Y041776D01*
X054334Y041776D02*
X054332Y041774D01*
X054332Y041774D02*
X054205Y041702D01*
X054205Y041702D02*
X054204Y041702D01*
X054204Y041702D02*
X054050Y041633D01*
X054050Y041371*
X054248Y041437*
X054408Y041544*
X054408Y041544D02*
X054428Y041533D01*
X054428Y041533D02*
X054428Y040699D01*
X054428Y040699D02*
X054763Y040699D01*
X054763Y040699D02*
X054763Y041989D01*
X055015Y043193D02*
X054680Y043193D01*
X054680Y043193D02*
X054680Y042858D01*
X054680Y042858D02*
X055015Y042858D01*
X055015Y042858D02*
X055015Y043193D01*
X054220Y038748D02*
X053885Y038748D01*
X053885Y038748D02*
X053885Y038413D01*
X053885Y038413D02*
X054220Y038413D01*
X054220Y038413D02*
X054220Y038748D01*
X054222Y044148D02*
X053954Y044148D01*
X053954Y044148D02*
X053886Y044028D01*
X053886Y044028D02*
X053884Y044025D01*
X053884Y044025D02*
X053794Y043935D01*
X053794Y043935D02*
X053791Y043933D01*
X053791Y043933D02*
X053665Y043861D01*
X053665Y043861D02*
X053664Y043861D01*
X053509Y043792*
X053509Y043792D02*
X053509Y043530D01*
X053509Y043530D02*
X053707Y043596D01*
X053707Y043596D02*
X053868Y043703D01*
X053888Y043692*
X053888Y043692D02*
X053888Y042858D01*
X053888Y042858D02*
X054222Y042858D01*
X054222Y042858D02*
X054222Y044148D01*
X053643Y039685D02*
X053308Y039685D01*
X053308Y039685D02*
X053308Y039247D01*
X053308Y039247D02*
X053288Y039237D01*
X053288Y039237D02*
X053165Y039325D01*
X053165Y039325D02*
X053026Y039342D01*
X053026Y039342D02*
X052869Y039307D01*
X052869Y039307D02*
X052747Y039221D01*
X052747Y039221D02*
X052677Y039081D01*
X052677Y039081D02*
X052642Y038868D01*
X052642Y038868D02*
X052660Y038693D01*
X052748Y038534*
X052800Y038464*
X052800Y038464D02*
X052851Y038430D01*
X052851Y038430D02*
X052938Y038395D01*
X052938Y038395D02*
X053113Y038395D01*
X053113Y038395D02*
X053251Y038465D01*
X053251Y038465D02*
X053304Y038534D01*
X053304Y038534D02*
X053326Y038527D01*
X053326Y038527D02*
X053326Y038413D01*
X053326Y038413D02*
X053643Y038413D01*
X053643Y038413D02*
X053643Y039685D01*
X053308Y038977D02*
X053308Y038761D01*
X053308Y038761D02*
X053308Y038756D01*
X053308Y038756D02*
X053271Y038666D01*
X053271Y038666D02*
X053267Y038660D01*
X053267Y038660D02*
X053213Y038624D01*
X053213Y038624D02*
X053209Y038622D01*
X053209Y038622D02*
X053137Y038604D01*
X053137Y038604D02*
X053130Y038605D01*
X053076Y038623*
X053073Y038624*
X053073Y038624D02*
X053018Y038660D01*
X053018Y038660D02*
X053013Y038668D01*
X053013Y038668D02*
X052995Y038740D01*
X052995Y038740D02*
X052995Y038741D01*
X052977Y038867*
X052977Y038867D02*
X052977Y038869D01*
X052977Y038871*
X052995Y038979*
X052995Y038979D02*
X052995Y038979D01*
X052995Y038979D02*
X053013Y039070D01*
X053013Y039070D02*
X053018Y039078D01*
X053018Y039078D02*
X053073Y039114D01*
X053076Y039115*
X053076Y039115D02*
X053130Y039133D01*
X053130Y039133D02*
X053137Y039133D01*
X053137Y039133D02*
X053209Y039115D01*
X053209Y039115D02*
X053213Y039114D01*
X053267Y039078*
X053271Y039072*
X053271Y039072D02*
X053308Y038982D01*
X053308Y038977*
X053808Y041496D02*
X053773Y041637D01*
X053773Y041637D02*
X053720Y041761D01*
X053720Y041761D02*
X053650Y041866D01*
X053650Y041866D02*
X053510Y041954D01*
X053422Y041971*
X053422Y041971D02*
X053298Y041989D01*
X053298Y041989D02*
X053174Y041971D01*
X053174Y041971D02*
X053069Y041953D01*
X053069Y041953D02*
X052893Y041848D01*
X052893Y041848D02*
X052842Y041762D01*
X052842Y041762D02*
X052806Y041656D01*
X052806Y041656D02*
X052771Y041514D01*
X052771Y041335*
X052771Y041335D02*
X052789Y041067D01*
X052789Y041067D02*
X052824Y040962D01*
X052824Y040962D02*
X052877Y040874D01*
X052947Y040786*
X052947Y040786D02*
X053034Y040734D01*
X053034Y040734D02*
X053139Y040699D01*
X053139Y040699D02*
X053280Y040681D01*
X053280Y040681D02*
X053423Y040699D01*
X053423Y040699D02*
X053528Y040717D01*
X053528Y040717D02*
X053615Y040769D01*
X053685Y040838*
X053685Y040838D02*
X053737Y040926D01*
X053737Y040926D02*
X053808Y041175D01*
X053808Y041175D02*
X053808Y041496D01*
X053473Y041443D02*
X053473Y041173D01*
X053473Y041173D02*
X053473Y041171D01*
X053473Y041171D02*
X053455Y041063D01*
X053455Y041063D02*
X053455Y041062D01*
X053437Y040990*
X053435Y040986*
X053435Y040986D02*
X053399Y040932D01*
X053399Y040932D02*
X053396Y040928D01*
X053396Y040928D02*
X053341Y040892D01*
X053341Y040892D02*
X053334Y040890D01*
X053334Y040890D02*
X053280Y040890D01*
X053280Y040890D02*
X053277Y040890D01*
X053277Y040890D02*
X053205Y040908D01*
X053205Y040908D02*
X053198Y040913D01*
X053198Y040913D02*
X053144Y040985D01*
X053144Y040985D02*
X053142Y040989D01*
X053142Y040989D02*
X053124Y041043D01*
X053124Y041043D02*
X053124Y041047D01*
X053124Y041118*
X053106Y041225*
X053106Y041227*
X053106Y041443*
X053106Y041443D02*
X053106Y041445D01*
X053106Y041445D02*
X053124Y041552D01*
X053124Y041552D02*
X053124Y041623D01*
X053124Y041623D02*
X053124Y041627D01*
X053124Y041627D02*
X053142Y041681D01*
X053142Y041681D02*
X053144Y041685D01*
X053144Y041685D02*
X053198Y041757D01*
X053198Y041757D02*
X053205Y041762D01*
X053205Y041762D02*
X053277Y041780D01*
X053277Y041780D02*
X053283Y041780D01*
X053373Y041762*
X053381Y041757*
X053435Y041685*
X053437Y041681*
X053437Y041681D02*
X053455Y041627D01*
X053455Y041627D02*
X053455Y041623D01*
X053455Y041623D02*
X053455Y041552D01*
X053455Y041552D02*
X053473Y041445D01*
X053473Y041445D02*
X053473Y041443D01*
X052507Y038412D02*
X052491Y038620D01*
X052491Y038620D02*
X052379Y038604D01*
X052379Y038604D02*
X052370Y038606D01*
X052370Y038606D02*
X052316Y038642D01*
X052316Y038642D02*
X052314Y038644D01*
X052296Y038662*
X052292Y038671*
X052292Y038671D02*
X052292Y039067D01*
X052292Y039067D02*
X052305Y039080D01*
X052490Y039080*
X052490Y039080D02*
X052490Y039325D01*
X052490Y039325D02*
X052305Y039325D01*
X052292Y039337*
X052292Y039337D02*
X052292Y039677D01*
X052292Y039677D02*
X051957Y039510D01*
X051957Y039510D02*
X051957Y039337D01*
X051957Y039337D02*
X051945Y039325D01*
X051831Y039325*
X051831Y039325D02*
X051831Y039080D01*
X051831Y039080D02*
X051945Y039080D01*
X051957Y039067*
X051957Y039067D02*
X051957Y038601D01*
X051957Y038601D02*
X051992Y038515D01*
X052026Y038464*
X052077Y038430*
X052163Y038395*
X052163Y038395D02*
X052268Y038395D01*
X052268Y038395D02*
X052507Y038412D01*
X051698Y038712D02*
X051080Y038712D01*
X051080Y038712D02*
X051067Y038725D01*
X051067Y038725D02*
X051067Y039685D01*
X051067Y039685D02*
X050696Y039685D01*
X050696Y039685D02*
X050696Y038413D01*
X050696Y038413D02*
X051698Y038413D01*
X051698Y038413D02*
X051698Y038712D01*
X052601Y040962D02*
X052055Y040962D01*
X052055Y040962D02*
X052046Y040984D01*
X052046Y040984D02*
X052173Y041110D01*
X052175Y041112*
X052175Y041112D02*
X052264Y041165D01*
X052264Y041165D02*
X052424Y041290D01*
X052424Y041290D02*
X052513Y041414D01*
X052566Y041519*
X052566Y041519D02*
X052583Y041623D01*
X052583Y041623D02*
X052566Y041728D01*
X052531Y041814*
X052531Y041814D02*
X052462Y041884D01*
X052357Y041953*
X052357Y041953D02*
X052234Y041971D01*
X052073Y041989*
X052073Y041989D02*
X051914Y041971D01*
X051914Y041971D02*
X051790Y041936D01*
X051790Y041936D02*
X051703Y041883D01*
X051703Y041883D02*
X051634Y041814D01*
X051634Y041814D02*
X051599Y041727D01*
X051599Y041727D02*
X051567Y041616D01*
X051567Y041616D02*
X051901Y041583D01*
X051901Y041583D02*
X051917Y041662D01*
X051919Y041666*
X051919Y041666D02*
X051955Y041720D01*
X051955Y041720D02*
X051958Y041724D01*
X051958Y041724D02*
X052012Y041760D01*
X052012Y041760D02*
X052015Y041761D01*
X052015Y041761D02*
X052069Y041779D01*
X052069Y041779D02*
X052077Y041780D01*
X052149Y041762*
X052150Y041761*
X052150Y041761D02*
X052204Y041743D01*
X052204Y041743D02*
X052212Y041735D01*
X052212Y041735D02*
X052248Y041627D01*
X052248Y041627D02*
X052248Y041619D01*
X052248Y041619D02*
X052230Y041566D01*
X052212Y041494*
X052212Y041494D02*
X052209Y041488D01*
X052209Y041488D02*
X052136Y041416D01*
X052136Y041416D02*
X052136Y041415D01*
X052136Y041415D02*
X052010Y041307D01*
X052010Y041307D02*
X052009Y041307D01*
X051884Y041217*
X051884Y041217D02*
X051794Y041128D01*
X051794Y041128D02*
X051793Y041127D01*
X051793Y041127D02*
X051704Y041056D01*
X051704Y041056D02*
X051652Y040986D01*
X051652Y040986D02*
X051581Y040826D01*
X051581Y040826D02*
X051549Y040699D01*
X051549Y040699D02*
X052601Y040699D01*
X052601Y040699D02*
X052601Y040962D01*
X052739Y043770D02*
X052389Y043770D01*
X052389Y043770D02*
X052230Y043184D01*
X052230Y043184D02*
X052206Y043184D01*
X052010Y043770*
X052010Y043770D02*
X051678Y043770D01*
X052046Y042858*
X052046Y042858D02*
X052353Y042858D01*
X052353Y042858D02*
X052739Y043770D01*
X050782Y041155D02*
X050764Y041369D01*
X050710Y041583*
X050710Y041583D02*
X050603Y041779D01*
X050603Y041779D02*
X050463Y041989D01*
X050463Y041989D02*
X050273Y041989D01*
X050273Y041989D02*
X050374Y041754D01*
X050374Y041754D02*
X050374Y041753D01*
X050374Y041753D02*
X050446Y041537D01*
X050446Y041537D02*
X050447Y041534D01*
X050447Y041534D02*
X050483Y041138D01*
X050483Y041138D02*
X050483Y041136D01*
X050465Y040938*
X050465Y040937*
X050429Y040720*
X050429Y040720D02*
X050428Y040718D01*
X050428Y040718D02*
X050356Y040520D01*
X050356Y040520D02*
X050356Y040519D01*
X050356Y040519D02*
X050273Y040321D01*
X050273Y040321D02*
X050464Y040321D01*
X050621Y040549*
X050621Y040549D02*
X050710Y040745D01*
X050710Y040745D02*
X050764Y040941D01*
X050782Y041155*
X051592Y043277D02*
X051575Y043438D01*
X051539Y043561*
X051539Y043561D02*
X051470Y043665D01*
X051366Y043734*
X051366Y043734D02*
X051225Y043770D01*
X051047Y043787*
X051047Y043787D02*
X050835Y043752D01*
X050835Y043752D02*
X050677Y043647D01*
X050677Y043647D02*
X050572Y043507D01*
X050572Y043507D02*
X050537Y043314D01*
X050537Y043314D02*
X050555Y043173D01*
X050555Y043173D02*
X050608Y043050D01*
X050677Y042945*
X050677Y042945D02*
X050781Y042893D01*
X050781Y042893D02*
X050905Y042858D01*
X050905Y042858D02*
X051065Y042840D01*
X051065Y042840D02*
X051242Y042858D01*
X051382Y042911*
X051382Y042911D02*
X051488Y042998D01*
X051488Y042998D02*
X051564Y043105D01*
X051564Y043105D02*
X051233Y043138D01*
X051233Y043138D02*
X051183Y043072D01*
X051183Y043072D02*
X051175Y043067D01*
X051175Y043067D02*
X051067Y043049D01*
X051067Y043049D02*
X051062Y043049D01*
X051062Y043049D02*
X050990Y043067D01*
X050990Y043067D02*
X050986Y043069D01*
X050986Y043069D02*
X050932Y043105D01*
X050932Y043105D02*
X050928Y043109D01*
X050892Y043163*
X050890Y043167*
X050890Y043167D02*
X050872Y043239D01*
X050872Y043239D02*
X050885Y043255D01*
X051592Y043255*
X051592Y043255D02*
X051592Y043277D01*
X051245Y043409D02*
X050885Y043409D01*
X050885Y043409D02*
X050873Y043427D01*
X050909Y043517*
X050915Y043523*
X050915Y043523D02*
X050987Y043559D01*
X050987Y043559D02*
X050990Y043560D01*
X050990Y043560D02*
X051062Y043578D01*
X051062Y043578D02*
X051068Y043578D01*
X051068Y043578D02*
X051194Y043542D01*
X051194Y043542D02*
X051200Y043539D01*
X051200Y043539D02*
X051236Y043503D01*
X051239Y043497*
X051239Y043497D02*
X051257Y043425D01*
X051257Y043425D02*
X051245Y043409D01*
X049892Y038714D02*
X049556Y038747D01*
X049556Y038747D02*
X049524Y038683D01*
X049524Y038683D02*
X049522Y038680D01*
X049450Y038608*
X049441Y038604*
X049369Y038604*
X049366Y038604*
X049366Y038604D02*
X049293Y038622D01*
X049293Y038622D02*
X049290Y038624D01*
X049290Y038624D02*
X049235Y038660D01*
X049235Y038660D02*
X049231Y038666D01*
X049195Y038756*
X049195Y038756D02*
X049194Y038758D01*
X049194Y038758D02*
X049176Y038848D01*
X049176Y038848D02*
X049176Y038851D01*
X049176Y038853*
X049194Y038979*
X049195Y038983*
X049195Y038983D02*
X049231Y039055D01*
X049231Y039055D02*
X049234Y039058D01*
X049288Y039112*
X049288Y039112D02*
X049293Y039115D01*
X049293Y039115D02*
X049366Y039133D01*
X049366Y039133D02*
X049373Y039133D01*
X049373Y039133D02*
X049481Y039097D01*
X049481Y039097D02*
X049488Y039092D01*
X049537Y039009*
X049537Y039009D02*
X049871Y039059D01*
X049809Y039168*
X049721Y039272*
X049721Y039272D02*
X049564Y039325D01*
X049564Y039325D02*
X049369Y039342D01*
X049369Y039342D02*
X049226Y039325D01*
X049226Y039325D02*
X049103Y039307D01*
X049103Y039307D02*
X048981Y039220D01*
X048981Y039220D02*
X048894Y039097D01*
X048894Y039097D02*
X048859Y038992D01*
X048859Y038992D02*
X048841Y038869D01*
X048841Y038869D02*
X048859Y038745D01*
X048876Y038640*
X048876Y038640D02*
X048981Y038500D01*
X048981Y038500D02*
X049068Y038448D01*
X049068Y038448D02*
X049156Y038413D01*
X049262Y038395*
X049262Y038395D02*
X049404Y038395D01*
X049404Y038395D02*
X049653Y038431D01*
X049739Y038483*
X049739Y038483D02*
X049809Y038553D01*
X049809Y038553D02*
X049862Y038623D01*
X049892Y038714*
X050111Y041000D02*
X049775Y041033D01*
X049775Y041033D02*
X049743Y040969D01*
X049743Y040969D02*
X049741Y040966D01*
X049669Y040894*
X049660Y040890*
X049587Y040890*
X049587Y040890D02*
X049584Y040890D01*
X049584Y040890D02*
X049512Y040908D01*
X049512Y040908D02*
X049508Y040910D01*
X049508Y040910D02*
X049454Y040946D01*
X049454Y040946D02*
X049450Y040952D01*
X049414Y041042*
X049414Y041042D02*
X049413Y041044D01*
X049413Y041044D02*
X049395Y041134D01*
X049395Y041134D02*
X049395Y041137D01*
X049395Y041139*
X049413Y041265*
X049414Y041269*
X049414Y041269D02*
X049450Y041341D01*
X049450Y041341D02*
X049452Y041344D01*
X049452Y041344D02*
X049506Y041398D01*
X049506Y041398D02*
X049512Y041401D01*
X049512Y041401D02*
X049584Y041419D01*
X049584Y041419D02*
X049592Y041419D01*
X049592Y041419D02*
X049700Y041383D01*
X049700Y041383D02*
X049706Y041378D01*
X049706Y041378D02*
X049756Y041295D01*
X049756Y041295D02*
X050090Y041345D01*
X050027Y041454*
X050027Y041454D02*
X049940Y041558D01*
X049940Y041558D02*
X049783Y041611D01*
X049783Y041611D02*
X049588Y041628D01*
X049588Y041628D02*
X049445Y041611D01*
X049445Y041611D02*
X049322Y041593D01*
X049322Y041593D02*
X049200Y041506D01*
X049200Y041506D02*
X049113Y041383D01*
X049113Y041383D02*
X049077Y041278D01*
X049077Y041278D02*
X049060Y041155D01*
X049078Y041031*
X049095Y040926*
X049095Y040926D02*
X049200Y040786D01*
X049200Y040786D02*
X049287Y040734D01*
X049375Y040699*
X049480Y040681*
X049480Y040681D02*
X049623Y040681D01*
X049623Y040681D02*
X049871Y040717D01*
X049871Y040717D02*
X049958Y040769D01*
X050028Y040839*
X050028Y040839D02*
X050080Y040909D01*
X050080Y040909D02*
X050111Y041000D01*
X050431Y042858D02*
X050243Y043218D01*
X050190Y043306*
X050120Y043375*
X050120Y043375D02*
X050086Y043393D01*
X050086Y043393D02*
X050085Y043393D01*
X050085Y043393D02*
X050031Y043429D01*
X050031Y043429D02*
X050035Y043452D01*
X050035Y043452D02*
X050106Y043470D01*
X050106Y043470D02*
X050158Y043487D01*
X050158Y043487D02*
X050227Y043539D01*
X050227Y043539D02*
X050279Y043608D01*
X050279Y043608D02*
X050314Y043696D01*
X050331Y043783*
X050331Y043783D02*
X050314Y043905D01*
X050314Y043905D02*
X050279Y043991D01*
X050279Y043991D02*
X050211Y044060D01*
X050124Y044094*
X050124Y044094D02*
X050018Y044112D01*
X050018Y044112D02*
X049857Y044130D01*
X049857Y044130D02*
X049204Y044130D01*
X049204Y042858*
X049204Y042858D02*
X049575Y042858D01*
X049575Y042858D02*
X049575Y043386D01*
X049587Y043399*
X049587Y043399D02*
X049624Y043399D01*
X049628Y043398*
X049628Y043398D02*
X049718Y043362D01*
X049718Y043362D02*
X049723Y043359D01*
X049759Y043323*
X049760Y043321*
X049760Y043321D02*
X049796Y043267D01*
X049796Y043267D02*
X049797Y043266D01*
X049797Y043266D02*
X050027Y042858D01*
X050027Y042858D02*
X050431Y042858D01*
X049960Y043818D02*
X049960Y043764D01*
X049960Y043764D02*
X049960Y043761D01*
X049960Y043761D02*
X049942Y043689D01*
X049942Y043689D02*
X049935Y043681D01*
X049935Y043681D02*
X049863Y043645D01*
X049863Y043645D02*
X049861Y043644D01*
X049789Y043626*
X049786Y043625*
X049786Y043625D02*
X049587Y043625D01*
X049587Y043625D02*
X049575Y043638D01*
X049575Y043638D02*
X049575Y043890D01*
X049575Y043890D02*
X049587Y043903D01*
X049587Y043903D02*
X049768Y043903D01*
X049768Y043903D02*
X049770Y043903D01*
X049770Y043903D02*
X049860Y043885D01*
X049860Y043885D02*
X049862Y043884D01*
X049862Y043884D02*
X049916Y043866D01*
X049916Y043866D02*
X049921Y043863D01*
X049921Y043863D02*
X049957Y043827D01*
X049957Y043827D02*
X049960Y043818D01*
X048635Y039325D02*
X048300Y039325D01*
X048300Y039325D02*
X048300Y038413D01*
X048300Y038413D02*
X048635Y038413D01*
X048635Y038413D02*
X048635Y039325D01*
X048635Y039685D02*
X048300Y039685D01*
X048300Y039685D02*
X048300Y039458D01*
X048300Y039458D02*
X048635Y039458D01*
X048635Y039458D02*
X048635Y039685D01*
X048884Y040321D02*
X048801Y040519D01*
X048801Y040519D02*
X048801Y040520D01*
X048801Y040520D02*
X048729Y040718D01*
X048729Y040718D02*
X048728Y040720D01*
X048728Y040720D02*
X048692Y040937D01*
X048692Y040937D02*
X048692Y040938D01*
X048692Y040938D02*
X048674Y041136D01*
X048674Y041136D02*
X048674Y041138D01*
X048674Y041138D02*
X048710Y041534D01*
X048710Y041534D02*
X048711Y041537D01*
X048711Y041537D02*
X048783Y041753D01*
X048783Y041753D02*
X048783Y041754D01*
X048783Y041754D02*
X048884Y041989D01*
X048694Y041989*
X048554Y041779*
X048447Y041583*
X048393Y041369*
X048393Y041369D02*
X048375Y041155D01*
X048375Y041155D02*
X048393Y040941D01*
X048393Y040941D02*
X048446Y040745D01*
X048446Y040745D02*
X048554Y040549D01*
X048694Y040321*
X048884Y040321*
X048041Y039325D02*
X047724Y039325D01*
X047724Y039325D02*
X047724Y039211D01*
X047724Y039211D02*
X047701Y039204D01*
X047701Y039204D02*
X047649Y039273D01*
X047649Y039273D02*
X047581Y039307D01*
X047581Y039307D02*
X047511Y039325D01*
X047406Y039342*
X047406Y039342D02*
X047266Y039307D01*
X047266Y039307D02*
X047145Y039238D01*
X047145Y039238D02*
X047075Y039099D01*
X047040Y038904*
X047040Y038904D02*
X047057Y038729D01*
X047057Y038729D02*
X047127Y038606D01*
X047127Y038606D02*
X047180Y038536D01*
X047250Y038483*
X047250Y038483D02*
X047318Y038449D01*
X047318Y038449D02*
X047493Y038449D01*
X047493Y038449D02*
X047579Y038484D01*
X047579Y038484D02*
X047631Y038518D01*
X047631Y038518D02*
X047684Y038572D01*
X047684Y038572D02*
X047706Y038563D01*
X047706Y038563D02*
X047706Y038346D01*
X047706Y038346D02*
X047704Y038339D01*
X047704Y038339D02*
X047668Y038285D01*
X047668Y038285D02*
X047664Y038282D01*
X047664Y038282D02*
X047610Y038246D01*
X047610Y038246D02*
X047603Y038244D01*
X047603Y038244D02*
X047549Y038244D01*
X047549Y038244D02*
X047547Y038244D01*
X047547Y038244D02*
X047439Y038262D01*
X047439Y038262D02*
X047430Y038269D01*
X047397Y038335*
X047057Y038368*
X047057Y038368D02*
X047057Y038330D01*
X047057Y038330D02*
X047092Y038208D01*
X047092Y038208D02*
X047162Y038122D01*
X047213Y038088*
X047300Y038053*
X047300Y038053D02*
X047406Y038035D01*
X047406Y038035D02*
X047531Y038035D01*
X047762Y038053*
X047902Y038122*
X047902Y038122D02*
X048007Y038245D01*
X048007Y038245D02*
X048041Y038331D01*
X048041Y039325*
X047706Y038995D02*
X047706Y038797D01*
X047706Y038797D02*
X047705Y038791D01*
X047705Y038791D02*
X047669Y038719D01*
X047669Y038719D02*
X047664Y038714D01*
X047664Y038714D02*
X047610Y038678D01*
X047610Y038678D02*
X047607Y038677D01*
X047607Y038677D02*
X047553Y038659D01*
X047553Y038659D02*
X047546Y038658D01*
X047546Y038658D02*
X047474Y038676D01*
X047474Y038676D02*
X047470Y038678D01*
X047470Y038678D02*
X047416Y038714D01*
X047416Y038714D02*
X047411Y038722D01*
X047393Y038794*
X047393Y038794*
X047393Y038794D02*
X047375Y038884D01*
X047375Y038884D02*
X047374Y038887D01*
X047374Y038887D02*
X047375Y038889D01*
X047393Y038997*
X047393Y038997D02*
X047393Y038998D01*
X047393Y038998D02*
X047411Y039070D01*
X047411Y039070D02*
X047416Y039078D01*
X047416Y039078D02*
X047470Y039114D01*
X047470Y039114D02*
X047473Y039115D01*
X047473Y039115D02*
X047527Y039133D01*
X047527Y039133D02*
X047534Y039133D01*
X047534Y039133D02*
X047606Y039115D01*
X047606Y039115D02*
X047610Y039114D01*
X047610Y039114D02*
X047664Y039078D01*
X047664Y039078D02*
X047669Y039073D01*
X047705Y039001*
X047706Y038995*
X047628Y040698D02*
X047612Y040906D01*
X047612Y040906D02*
X047500Y040890D01*
X047500Y040890D02*
X047491Y040892D01*
X047491Y040892D02*
X047437Y040928D01*
X047437Y040928D02*
X047435Y040930D01*
X047417Y040948*
X047413Y040957*
X047413Y040957D02*
X047413Y041353D01*
X047413Y041353D02*
X047426Y041366D01*
X047611Y041366*
X047611Y041366D02*
X047611Y041611D01*
X047611Y041611D02*
X047426Y041611D01*
X047413Y041623*
X047413Y041623D02*
X047413Y041963D01*
X047413Y041963D02*
X047078Y041796D01*
X047078Y041796D02*
X047078Y041623D01*
X047078Y041623D02*
X047066Y041611D01*
X046952Y041611*
X046952Y041611D02*
X046952Y041366D01*
X046952Y041366D02*
X047066Y041366D01*
X047078Y041353*
X047078Y041353D02*
X047078Y040887D01*
X047078Y040887D02*
X047113Y040801D01*
X047147Y040750*
X047198Y040716*
X047284Y040681*
X047284Y040681D02*
X047389Y040681D01*
X047389Y040681D02*
X047628Y040698D01*
X048350Y043139D02*
X047678Y043139D01*
X047678Y043139D02*
X047665Y043152D01*
X047665Y043152D02*
X047665Y043386D01*
X047665Y043386D02*
X047678Y043399D01*
X048278Y043399*
X048278Y043643*
X048278Y043643D02*
X047678Y043643D01*
X047678Y043643D02*
X047665Y043656D01*
X047665Y043656D02*
X047665Y043836D01*
X047665Y043836D02*
X047678Y043849D01*
X048332Y043849*
X048332Y044130*
X047294Y044130*
X047294Y044130D02*
X047294Y042858D01*
X047294Y042858D02*
X048350Y042858D01*
X048350Y042858D02*
X048350Y043139D01*
X046870Y038869D02*
X046835Y039045D01*
X046764Y039185*
X046764Y039185D02*
X046677Y039255D01*
X046677Y039255D02*
X046590Y039307D01*
X046590Y039307D02*
X046485Y039325D01*
X046343Y039342*
X046343Y039342D02*
X046131Y039307D01*
X046131Y039307D02*
X045973Y039202D01*
X045868Y039062*
X045850Y038957*
X045850Y038957D02*
X045850Y038956D01*
X045850Y038956D02*
X045833Y038869D01*
X045868Y038657*
X045868Y038657D02*
X045920Y038571D01*
X045989Y038501*
X045989Y038501D02*
X046148Y038431D01*
X046342Y038395*
X046342Y038395D02*
X046573Y038431D01*
X046573Y038431D02*
X046659Y038465D01*
X046659Y038465D02*
X046729Y038535D01*
X046835Y038676*
X046870Y038869*
X046535Y038867D02*
X046517Y038759D01*
X046516Y038756*
X046516Y038756D02*
X046480Y038666D01*
X046480Y038666D02*
X046475Y038660D01*
X046475Y038660D02*
X046421Y038624D01*
X046421Y038624D02*
X046418Y038623D01*
X046418Y038623D02*
X046364Y038605D01*
X046364Y038605D02*
X046357Y038604D01*
X046357Y038604D02*
X046285Y038622D01*
X046285Y038622D02*
X046281Y038624D01*
X046281Y038624D02*
X046227Y038660D01*
X046227Y038660D02*
X046222Y038666D01*
X046222Y038666D02*
X046186Y038756D01*
X046186Y038756D02*
X046186Y038759D01*
X046168Y038867*
X046168Y038871*
X046186Y038979*
X046186Y038979D02*
X046187Y038983D01*
X046223Y039055*
X046225Y039058*
X046225Y039058D02*
X046279Y039112D01*
X046279Y039112D02*
X046285Y039115D01*
X046285Y039115D02*
X046357Y039133D01*
X046357Y039133D02*
X046364Y039133D01*
X046364Y039133D02*
X046418Y039115D01*
X046418Y039115D02*
X046421Y039114D01*
X046421Y039114D02*
X046475Y039078D01*
X046475Y039078D02*
X046480Y039072D01*
X046480Y039072D02*
X046516Y038982D01*
X046516Y038982D02*
X046517Y038979D01*
X046517Y038979D02*
X046535Y038871D01*
X046535Y038867*
X046765Y041280D02*
X046747Y041439D01*
X046678Y041543*
X046592Y041611*
X046592Y041611D02*
X046471Y041628D01*
X046471Y041628D02*
X046295Y041593D01*
X046295Y041593D02*
X046226Y041559D01*
X046226Y041559D02*
X046156Y041488D01*
X046156Y041488D02*
X046134Y041497D01*
X046134Y041497D02*
X046134Y041971D01*
X046134Y041971D02*
X045799Y041971D01*
X045799Y041971D02*
X045799Y040699D01*
X045799Y040699D02*
X046134Y040699D01*
X046134Y040699D02*
X046134Y041137D01*
X046134Y041137D02*
X046134Y041139D01*
X046134Y041139D02*
X046152Y041229D01*
X046152Y041229D02*
X046152Y041230D01*
X046152Y041230D02*
X046170Y041302D01*
X046170Y041302D02*
X046176Y041310D01*
X046230Y041346*
X046233Y041347*
X046233Y041347D02*
X046287Y041365D01*
X046287Y041365D02*
X046296Y041365D01*
X046386Y041329*
X046392Y041324*
X046392Y041324D02*
X046428Y041270D01*
X046430Y041263*
X046430Y040699*
X046430Y040699D02*
X046765Y040699D01*
X046765Y040699D02*
X046765Y041280D01*
X047071Y043494D02*
X047035Y043743D01*
X047035Y043743D02*
X047000Y043849D01*
X047000Y043849D02*
X046947Y043954D01*
X046947Y043954D02*
X046860Y044024D01*
X046860Y044024D02*
X046772Y044077D01*
X046772Y044077D02*
X046649Y044112D01*
X046649Y044112D02*
X046488Y044130D01*
X046488Y044130D02*
X045907Y044130D01*
X045907Y044130D02*
X045907Y042858D01*
X045907Y042858D02*
X046595Y042858D01*
X046595Y042858D02*
X046719Y042894D01*
X046719Y042894D02*
X046807Y042929D01*
X046895Y042999*
X046895Y042999D02*
X046965Y043069D01*
X046965Y043069D02*
X047018Y043174D01*
X047018Y043174D02*
X047053Y043316D01*
X047053Y043316D02*
X047071Y043494D01*
X046700Y043494D02*
X046700Y043350D01*
X046699Y043344*
X046699Y043344D02*
X046627Y043200D01*
X046627Y043200D02*
X046624Y043197D01*
X046624Y043197D02*
X046588Y043161D01*
X046588Y043161D02*
X046582Y043157D01*
X046582Y043157D02*
X046510Y043139D01*
X046510Y043139D02*
X046507Y043139D01*
X046507Y043139D02*
X046291Y043139D01*
X046291Y043139D02*
X046278Y043152D01*
X046278Y043152D02*
X046278Y043836D01*
X046278Y043836D02*
X046291Y043849D01*
X046399Y043849*
X046401Y043849*
X046527Y043831*
X046532Y043829*
X046532Y043829D02*
X046622Y043775D01*
X046622Y043775D02*
X046627Y043770D01*
X046681Y043662*
X046682Y043658*
X046700Y043495*
X046700Y043495D02*
X046700Y043494D01*
X045681Y038712D02*
X045063Y038712D01*
X045063Y038712D02*
X045051Y038725D01*
X045051Y039685*
X044680Y039685*
X044680Y038413*
X044680Y038413D02*
X045681Y038413D01*
X045681Y038413D02*
X045681Y038712D01*
X045558Y041611D02*
X045241Y041611D01*
X045241Y041497*
X045241Y041497D02*
X045218Y041490D01*
X045166Y041559*
X045166Y041559D02*
X045098Y041593D01*
X045098Y041593D02*
X045027Y041611D01*
X045027Y041611D02*
X044922Y041628D01*
X044922Y041628D02*
X044782Y041593D01*
X044782Y041593D02*
X044661Y041524D01*
X044661Y041524D02*
X044592Y041385D01*
X044556Y041190*
X044556Y041190D02*
X044574Y041015D01*
X044644Y040892*
X044644Y040892D02*
X044697Y040822D01*
X044766Y040769*
X044766Y040769D02*
X044835Y040735D01*
X044835Y040735D02*
X045009Y040735D01*
X045009Y040735D02*
X045096Y040770D01*
X045096Y040770D02*
X045148Y040804D01*
X045148Y040804D02*
X045201Y040858D01*
X045201Y040858D02*
X045223Y040849D01*
X045223Y040632*
X045223Y040632D02*
X045221Y040625D01*
X045221Y040625D02*
X045185Y040571D01*
X045185Y040571D02*
X045181Y040568D01*
X045181Y040568D02*
X045127Y040532D01*
X045127Y040532D02*
X045120Y040530D01*
X045066Y040530*
X045064Y040530*
X044956Y040548*
X044946Y040555*
X044946Y040555D02*
X044914Y040621D01*
X044574Y040654*
X044574Y040654D02*
X044574Y040616D01*
X044574Y040616D02*
X044609Y040494D01*
X044609Y040494D02*
X044678Y040408D01*
X044678Y040408D02*
X044730Y040374D01*
X044817Y040339*
X044817Y040339D02*
X044923Y040321D01*
X045047Y040321*
X045047Y040321D02*
X045279Y040339D01*
X045418Y040408*
X045418Y040408D02*
X045523Y040531D01*
X045523Y040531D02*
X045558Y040617D01*
X045558Y041611*
X045223Y041281D02*
X045223Y041083D01*
X045221Y041077*
X045221Y041077D02*
X045185Y041005D01*
X045185Y041005D02*
X045181Y041000D01*
X045181Y041000D02*
X045127Y040964D01*
X045127Y040964D02*
X045124Y040963D01*
X045070Y040945*
X045063Y040944*
X045063Y040944D02*
X044991Y040962D01*
X044991Y040962D02*
X044987Y040964D01*
X044987Y040964D02*
X044933Y041000D01*
X044933Y041000D02*
X044928Y041008D01*
X044910Y041080*
X044909Y041080*
X044909Y041080D02*
X044891Y041170D01*
X044891Y041170D02*
X044891Y041173D01*
X044891Y041173D02*
X044891Y041175D01*
X044891Y041175D02*
X044909Y041283D01*
X044909Y041283D02*
X044910Y041284D01*
X044910Y041284D02*
X044928Y041356D01*
X044928Y041356D02*
X044933Y041364D01*
X044987Y041400*
X044990Y041401*
X044990Y041401D02*
X045044Y041419D01*
X045044Y041419D02*
X045051Y041419D01*
X045051Y041419D02*
X045123Y041401D01*
X045123Y041401D02*
X045127Y041400D01*
X045127Y041400D02*
X045181Y041364D01*
X045181Y041364D02*
X045185Y041359D01*
X045185Y041359D02*
X045221Y041287D01*
X045221Y041287D02*
X045223Y041281D01*
X045576Y044130D02*
X045205Y044130D01*
X045205Y042858*
X045205Y042858D02*
X045576Y042858D01*
X045576Y042858D02*
X045576Y044130D01*
X044351Y041611D02*
X044016Y041611D01*
X044016Y040699*
X044016Y040699D02*
X044351Y040699D01*
X044351Y040699D02*
X044351Y041611D01*
X044351Y041971D02*
X044016Y041971D01*
X044016Y041744*
X044016Y041744D02*
X044351Y041744D01*
X044351Y041744D02*
X044351Y041971D01*
X043826Y038994D02*
X043808Y039153D01*
X043739Y039257*
X043653Y039325*
X043653Y039325D02*
X043514Y039342D01*
X043514Y039342D02*
X043339Y039307D01*
X043339Y039307D02*
X043271Y039256D01*
X043200Y039167*
X043200Y039167D02*
X043177Y039175D01*
X043177Y039175D02*
X043177Y039325D01*
X043177Y039325D02*
X042860Y039325D01*
X042860Y039325D02*
X042860Y038413D01*
X042860Y038413D02*
X043195Y038413D01*
X043195Y038413D02*
X043195Y038851D01*
X043195Y038851D02*
X043195Y038853D01*
X043195Y038853D02*
X043213Y038943D01*
X043213Y038943D02*
X043213Y038944D01*
X043213Y038944D02*
X043231Y039016D01*
X043231Y039016D02*
X043237Y039024D01*
X043291Y039060*
X043294Y039061*
X043294Y039061D02*
X043348Y039079D01*
X043348Y039079D02*
X043357Y039079D01*
X043447Y039043*
X043453Y039038*
X043453Y039038D02*
X043489Y038984D01*
X043491Y038977*
X043491Y038413*
X043491Y038413D02*
X043826Y038413D01*
X043826Y038413D02*
X043826Y038994D01*
X043914Y041580D02*
X043837Y041611D01*
X043837Y041611D02*
X043751Y041628D01*
X043751Y041628D02*
X043682Y041611D01*
X043682Y041611D02*
X043632Y041594D01*
X043632Y041594D02*
X043582Y041544D01*
X043582Y041544D02*
X043547Y041456D01*
X043547Y041456D02*
X043522Y041461D01*
X043522Y041461D02*
X043522Y041611D01*
X043522Y041611D02*
X043205Y041611D01*
X043205Y041611D02*
X043205Y040699D01*
X043205Y040699D02*
X043540Y040699D01*
X043540Y040699D02*
X043540Y040993D01*
X043540Y040993D02*
X043540Y040994D01*
X043540Y040994D02*
X043558Y041174D01*
X043558Y041174D02*
X043559Y041176D01*
X043559Y041176D02*
X043595Y041302D01*
X043595Y041302D02*
X043600Y041310D01*
X043654Y041346*
X043657Y041347*
X043657Y041347D02*
X043711Y041365D01*
X043711Y041365D02*
X043717Y041366D01*
X043815Y041349*
X043815Y041349D02*
X043914Y041580D01*
X044368Y043314D02*
X044333Y043490D01*
X044333Y043490D02*
X044263Y043630D01*
X044263Y043630D02*
X044176Y043700D01*
X044089Y043752*
X044089Y043752D02*
X043983Y043770D01*
X043983Y043770D02*
X043841Y043787D01*
X043841Y043787D02*
X043630Y043752D01*
X043630Y043752D02*
X043472Y043647D01*
X043367Y043507*
X043349Y043402*
X043349Y043402D02*
X043349Y043401D01*
X043349Y043401D02*
X043331Y043314D01*
X043331Y043314D02*
X043367Y043102D01*
X043367Y043102D02*
X043419Y043016D01*
X043488Y042946*
X043488Y042946D02*
X043647Y042876D01*
X043841Y042840*
X043841Y042840D02*
X044072Y042876D01*
X044158Y042910*
X044158Y042910D02*
X044228Y042980D01*
X044333Y043121*
X044333Y043121D02*
X044368Y043314D01*
X044034Y043312D02*
X044016Y043204D01*
X044015Y043201*
X044015Y043201D02*
X043979Y043111D01*
X043974Y043105*
X043974Y043105D02*
X043920Y043069D01*
X043920Y043069D02*
X043917Y043068D01*
X043917Y043068D02*
X043863Y043050D01*
X043856Y043049*
X043856Y043049D02*
X043784Y043067D01*
X043784Y043067D02*
X043780Y043069D01*
X043780Y043069D02*
X043726Y043105D01*
X043726Y043105D02*
X043721Y043111D01*
X043721Y043111D02*
X043685Y043201D01*
X043685Y043201D02*
X043684Y043204D01*
X043684Y043204D02*
X043666Y043312D01*
X043666Y043312D02*
X043666Y043316D01*
X043666Y043316D02*
X043684Y043424D01*
X043684Y043424D02*
X043686Y043428D01*
X043722Y043500*
X043724Y043503*
X043778Y043557*
X043778Y043557D02*
X043784Y043560D01*
X043784Y043560D02*
X043856Y043578D01*
X043856Y043578D02*
X043863Y043578D01*
X043863Y043578D02*
X043917Y043560D01*
X043917Y043560D02*
X043920Y043559D01*
X043920Y043559D02*
X043974Y043523D01*
X043974Y043523D02*
X043979Y043517D01*
X044015Y043427*
X044016Y043424*
X044016Y043424D02*
X044034Y043316D01*
X044034Y043312*
X042673Y038832D02*
X042655Y038993D01*
X042620Y039116*
X042550Y039220*
X042550Y039220D02*
X042446Y039289D01*
X042446Y039289D02*
X042305Y039325D01*
X042127Y039342*
X042127Y039342D02*
X041916Y039307D01*
X041916Y039307D02*
X041757Y039202D01*
X041757Y039202D02*
X041652Y039062D01*
X041652Y039062D02*
X041617Y038869D01*
X041617Y038869D02*
X041635Y038728D01*
X041635Y038728D02*
X041688Y038605D01*
X041757Y038500*
X041757Y038500D02*
X041861Y038448D01*
X041861Y038448D02*
X041985Y038413D01*
X041985Y038413D02*
X042145Y038395D01*
X042145Y038395D02*
X042322Y038413D01*
X042322Y038413D02*
X042463Y038466D01*
X042568Y038553*
X042568Y038553D02*
X042644Y038660D01*
X042644Y038660D02*
X042313Y038693D01*
X042313Y038693D02*
X042263Y038627D01*
X042263Y038627D02*
X042255Y038622D01*
X042255Y038622D02*
X042147Y038604D01*
X042147Y038604D02*
X042142Y038604D01*
X042142Y038604D02*
X042070Y038622D01*
X042070Y038622D02*
X042066Y038624D01*
X042066Y038624D02*
X042012Y038660D01*
X042012Y038660D02*
X042008Y038664D01*
X042008Y038664D02*
X041972Y038718D01*
X041972Y038718D02*
X041970Y038722D01*
X041970Y038722D02*
X041952Y038794D01*
X041952Y038794D02*
X041965Y038810D01*
X042673Y038810*
X042673Y038832*
X042325Y038964D02*
X041965Y038964D01*
X041965Y038964D02*
X041953Y038982D01*
X041989Y039072*
X041989Y039072D02*
X041995Y039078D01*
X041995Y039078D02*
X042067Y039114D01*
X042067Y039114D02*
X042070Y039115D01*
X042070Y039115D02*
X042142Y039133D01*
X042142Y039133D02*
X042148Y039133D01*
X042148Y039133D02*
X042275Y039097D01*
X042275Y039097D02*
X042280Y039094D01*
X042280Y039094D02*
X042316Y039058D01*
X042316Y039058D02*
X042319Y039052D01*
X042319Y039052D02*
X042337Y038980D01*
X042337Y038980D02*
X042325Y038964D01*
X043066Y041611D02*
X042752Y041611D01*
X042574Y040989*
X042574Y040989D02*
X042550Y040989D01*
X042354Y041611*
X042354Y041611D02*
X042005Y041611D01*
X042394Y040691*
X042394Y040691D02*
X042393Y040681D01*
X042393Y040681D02*
X042357Y040609D01*
X042357Y040609D02*
X042355Y040605D01*
X042355Y040605D02*
X042319Y040569D01*
X042319Y040569D02*
X042314Y040566D01*
X042314Y040566D02*
X042206Y040530D01*
X042206Y040530D02*
X042200Y040530D01*
X042200Y040530D02*
X042055Y040546D01*
X042087Y040337*
X042087Y040337D02*
X042203Y040321D01*
X042309Y040321*
X042309Y040321D02*
X042467Y040339D01*
X042467Y040339D02*
X042572Y040408D01*
X042572Y040408D02*
X042641Y040477D01*
X042641Y040477D02*
X043066Y041611D01*
X043197Y042857D02*
X043181Y043065D01*
X043181Y043065D02*
X043068Y043049D01*
X043068Y043049D02*
X043059Y043051D01*
X043059Y043051D02*
X043005Y043087D01*
X043005Y043087D02*
X043003Y043089D01*
X043003Y043089D02*
X042985Y043107D01*
X042985Y043107D02*
X042982Y043116D01*
X042982Y043512*
X042982Y043512D02*
X042994Y043525D01*
X042994Y043525D02*
X043180Y043525D01*
X043180Y043770*
X042994Y043770*
X042994Y043770D02*
X042982Y043782D01*
X042982Y043782D02*
X042982Y044122D01*
X042647Y043955*
X042647Y043782*
X042647Y043782D02*
X042634Y043770D01*
X042634Y043770D02*
X042521Y043770D01*
X042521Y043525*
X042634Y043525*
X042634Y043525D02*
X042647Y043512D01*
X042647Y043512D02*
X042647Y043046D01*
X042647Y043046D02*
X042681Y042960D01*
X042681Y042960D02*
X042715Y042909D01*
X042715Y042909D02*
X042766Y042875D01*
X042766Y042875D02*
X042853Y042840D01*
X042853Y042840D02*
X042958Y042840D01*
X042958Y042840D02*
X043197Y042857D01*
X041430Y039685D02*
X040464Y039685D01*
X040464Y039685D02*
X040464Y038413D01*
X040464Y038413D02*
X040835Y038413D01*
X040835Y038413D02*
X040835Y038923D01*
X040835Y038923D02*
X040848Y038936D01*
X041340Y038936*
X041340Y039162*
X041340Y039162D02*
X040848Y039162D01*
X040848Y039162D02*
X040835Y039175D01*
X040835Y039175D02*
X040835Y039391D01*
X040835Y039391D02*
X040848Y039404D01*
X041430Y039404*
X041430Y039685*
X041901Y041137D02*
X041883Y041331D01*
X041883Y041331D02*
X041795Y041489D01*
X041795Y041489D02*
X041691Y041594D01*
X041691Y041594D02*
X041517Y041628D01*
X041517Y041628D02*
X041359Y041593D01*
X041359Y041593D02*
X041291Y041559D01*
X041291Y041559D02*
X041239Y041490D01*
X041239Y041490D02*
X041216Y041497D01*
X041216Y041497D02*
X041216Y041611D01*
X041216Y041611D02*
X040899Y041611D01*
X040899Y041611D02*
X040899Y040339D01*
X040899Y040339D02*
X041234Y040339D01*
X041234Y040339D02*
X041234Y040759D01*
X041234Y040759D02*
X041253Y040770D01*
X041253Y040770D02*
X041377Y040699D01*
X041377Y040699D02*
X041517Y040681D01*
X041517Y040681D02*
X041674Y040716D01*
X041674Y040716D02*
X041795Y040803D01*
X041795Y040803D02*
X041865Y040943D01*
X041865Y040943D02*
X041901Y041137D01*
X041566Y041155D02*
X041566Y041153D01*
X041566Y041153D02*
X041548Y041027D01*
X041547Y041026*
X041547Y041026D02*
X041529Y040954D01*
X041529Y040954D02*
X041524Y040946D01*
X041524Y040946D02*
X041470Y040910D01*
X041470Y040910D02*
X041467Y040909D01*
X041467Y040909D02*
X041413Y040891D01*
X041413Y040891D02*
X041406Y040890D01*
X041406Y040890D02*
X041334Y040908D01*
X041334Y040908D02*
X041330Y040910D01*
X041330Y040910D02*
X041276Y040946D01*
X041276Y040946D02*
X041271Y040952D01*
X041271Y040952D02*
X041235Y041042D01*
X041235Y041042D02*
X041234Y041047D01*
X041234Y041047D02*
X041234Y041263D01*
X041234Y041263D02*
X041235Y041268D01*
X041235Y041268D02*
X041271Y041358D01*
X041271Y041358D02*
X041276Y041364D01*
X041330Y041400*
X041334Y041401*
X041334Y041401D02*
X041406Y041419D01*
X041406Y041419D02*
X041413Y041419D01*
X041413Y041419D02*
X041467Y041401D01*
X041467Y041401D02*
X041470Y041400D01*
X041470Y041400D02*
X041524Y041364D01*
X041524Y041364D02*
X041530Y041356D01*
X041548Y041265*
X041548Y041265D02*
X041548Y041265D01*
X041548Y041265D02*
X041566Y041157D01*
X041566Y041155*
X041685Y044130D02*
X041314Y044130D01*
X041314Y042858*
X041314Y042858D02*
X041685Y042858D01*
X041685Y042858D02*
X041685Y044130D01*
X041018Y044130D02*
X040518Y044130D01*
X040518Y044130D02*
X040323Y043347D01*
X040298Y043347*
X040102Y044130*
X040102Y044130D02*
X039602Y044130D01*
X039602Y044130D02*
X039602Y042858D01*
X039602Y042858D02*
X039901Y042858D01*
X039901Y042858D02*
X039901Y043836D01*
X039901Y043836D02*
X039926Y043839D01*
X039926Y043839D02*
X040176Y042858D01*
X040176Y042858D02*
X040444Y042858D01*
X040444Y042858D02*
X040694Y043839D01*
X040694Y043839D02*
X040719Y043836D01*
X040719Y043836D02*
X040719Y042858D01*
X040719Y042858D02*
X041018Y042858D01*
X041018Y042858D02*
X041018Y044130D01*
X040694Y041155D02*
X040658Y041331D01*
X040658Y041331D02*
X040588Y041471D01*
X040588Y041471D02*
X040501Y041541D01*
X040501Y041541D02*
X040414Y041593D01*
X040414Y041593D02*
X040308Y041611D01*
X040308Y041611D02*
X040166Y041628D01*
X040166Y041628D02*
X039955Y041593D01*
X039955Y041593D02*
X039797Y041488D01*
X039692Y041348*
X039674Y041243*
X039674Y041243D02*
X039674Y041242D01*
X039674Y041242D02*
X039657Y041155D01*
X039692Y040943*
X039692Y040943D02*
X039744Y040857D01*
X039813Y040787*
X039813Y040787D02*
X039972Y040717D01*
X040166Y040681*
X040166Y040681D02*
X040397Y040717D01*
X040483Y040751*
X040483Y040751D02*
X040553Y040821D01*
X040659Y040962*
X040694Y041155*
X040359Y041153D02*
X040341Y041045D01*
X040340Y041042*
X040340Y041042D02*
X040304Y040952D01*
X040299Y040946*
X040299Y040946D02*
X040245Y040910D01*
X040245Y040910D02*
X040242Y040909D01*
X040242Y040909D02*
X040188Y040891D01*
X040188Y040891D02*
X040181Y040890D01*
X040181Y040890D02*
X040109Y040908D01*
X040109Y040908D02*
X040105Y040910D01*
X040105Y040910D02*
X040051Y040946D01*
X040051Y040946D02*
X040046Y040952D01*
X040046Y040952D02*
X040010Y041042D01*
X040010Y041042D02*
X040009Y041045D01*
X040009Y041045D02*
X039991Y041153D01*
X039991Y041153D02*
X039991Y041157D01*
X039991Y041157D02*
X040009Y041265D01*
X040009Y041265D02*
X040011Y041269D01*
X040047Y041341*
X040049Y041344*
X040049Y041344D02*
X040103Y041398D01*
X040103Y041398D02*
X040109Y041401D01*
X040109Y041401D02*
X040181Y041419D01*
X040181Y041419D02*
X040188Y041419D01*
X040188Y041419D02*
X040242Y041401D01*
X040242Y041401D02*
X040245Y041400D01*
X040245Y041400D02*
X040299Y041364D01*
X040299Y041364D02*
X040304Y041358D01*
X040340Y041268*
X040341Y041265*
X040341Y041265D02*
X040359Y041157D01*
X040359Y041153*
X039502Y041110D02*
X039183Y041211D01*
X039183Y041211D02*
X039151Y041115D01*
X039151Y041115D02*
X039150Y041112D01*
X039150Y041112D02*
X039096Y041022D01*
X039096Y041022D02*
X039091Y041017D01*
X039091Y041017D02*
X039019Y040981D01*
X039019Y040981D02*
X039015Y040980D01*
X039015Y040980D02*
X038907Y040962D01*
X038907Y040962D02*
X038903Y040962D01*
X038903Y040962D02*
X038795Y040980D01*
X038795Y040980D02*
X038789Y040983D01*
X038789Y040983D02*
X038717Y041037D01*
X038717Y041037D02*
X038714Y041041D01*
X038714Y041041D02*
X038660Y041149D01*
X038660Y041149D02*
X038658Y041154D01*
X038658Y041154D02*
X038640Y041334D01*
X038640Y041334D02*
X038640Y041335D01*
X038640Y041335D02*
X038640Y041337D01*
X038640Y041337D02*
X038658Y041481D01*
X038658Y041481D02*
X038659Y041483D01*
X038659Y041483D02*
X038695Y041591D01*
X038695Y041591D02*
X038699Y041597D01*
X038699Y041597D02*
X038789Y041669D01*
X038789Y041669D02*
X038793Y041671D01*
X038793Y041671D02*
X038901Y041707D01*
X038901Y041707D02*
X038907Y041708D01*
X038907Y041708D02*
X039015Y041690D01*
X039015Y041690D02*
X039021Y041687D01*
X039021Y041687D02*
X039111Y041615D01*
X039111Y041615D02*
X039115Y041610D01*
X039115Y041610D02*
X039147Y041530D01*
X039147Y041530D02*
X039481Y041596D01*
X039481Y041596D02*
X039399Y041760D01*
X039399Y041760D02*
X039293Y041883D01*
X039293Y041883D02*
X039118Y041971D01*
X039118Y041971D02*
X038905Y041989D01*
X038905Y041989D02*
X038763Y041971D01*
X038639Y041953*
X038639Y041953D02*
X038534Y041901D01*
X038428Y041812*
X038428Y041812D02*
X038357Y041724D01*
X038357Y041724D02*
X038305Y041620D01*
X038269Y041335*
X038269Y041335D02*
X038287Y041122D01*
X038287Y041122D02*
X038358Y040945D01*
X038358Y040945D02*
X038463Y040822D01*
X038463Y040822D02*
X038586Y040734D01*
X038586Y040734D02*
X038745Y040699D01*
X038745Y040699D02*
X038923Y040681D01*
X038923Y040681D02*
X039083Y040699D01*
X039083Y040699D02*
X039207Y040734D01*
X039207Y040734D02*
X039312Y040787D01*
X039312Y040787D02*
X039400Y040875D01*
X039470Y040980*
X039502Y041110*
X039379Y043277D02*
X039361Y043364D01*
X039361Y043364D02*
X039326Y043452D01*
X039326Y043452D02*
X039274Y043538D01*
X039274Y043538D02*
X039099Y043626D01*
X039099Y043626D02*
X039028Y043644D01*
X039028Y043644D02*
X039027Y043644D01*
X039027Y043644D02*
X038919Y043680D01*
X038919Y043680D02*
X038794Y043716D01*
X038722Y043734*
X038719Y043735*
X038719Y043735D02*
X038683Y043753D01*
X038683Y043753D02*
X038677Y043760D01*
X038677Y043760D02*
X038659Y043814D01*
X038659Y043814D02*
X038660Y043824D01*
X038696Y043896*
X038696Y043896D02*
X038702Y043902D01*
X038702Y043902D02*
X038792Y043938D01*
X038792Y043938D02*
X038801Y043938D01*
X038801Y043938D02*
X038909Y043902D01*
X038909Y043902D02*
X038916Y043896D01*
X038916Y043896D02*
X038952Y043824D01*
X038952Y043824D02*
X038953Y043821D01*
X038953Y043821D02*
X038969Y043759D01*
X038969Y043759D02*
X039339Y043776D01*
X039339Y043776D02*
X039290Y043938D01*
X039290Y043938D02*
X039185Y044060D01*
X039185Y044060D02*
X039046Y044130D01*
X039046Y044130D02*
X038815Y044148D01*
X038815Y044148D02*
X038637Y044130D01*
X038637Y044130D02*
X038513Y044095D01*
X038513Y044095D02*
X038409Y044042D01*
X038409Y044042D02*
X038340Y043956D01*
X038305Y043869*
X038288Y043783*
X038322Y043643*
X038322Y043643D02*
X038391Y043540D01*
X038391Y043540D02*
X038460Y043505D01*
X038460Y043505D02*
X038461Y043505D01*
X038461Y043505D02*
X038550Y043451D01*
X038550Y043451D02*
X038638Y043416D01*
X038638Y043416D02*
X038763Y043399D01*
X038766Y043398*
X038892Y043344*
X038892Y043344D02*
X038893Y043343D01*
X038893Y043343D02*
X038965Y043307D01*
X038965Y043307D02*
X038968Y043305D01*
X038968Y043305D02*
X039004Y043269D01*
X039004Y043269D02*
X039008Y043260D01*
X039008Y043206*
X039007Y043200*
X039007Y043200D02*
X038989Y043165D01*
X038971Y043112*
X038971Y043112D02*
X038966Y043105D01*
X038966Y043105D02*
X038912Y043069D01*
X038912Y043069D02*
X038905Y043067D01*
X038905Y043067D02*
X038833Y043067D01*
X038833Y043067D02*
X038831Y043067D01*
X038831Y043067D02*
X038740Y043085D01*
X038740Y043085D02*
X038735Y043088D01*
X038735Y043088D02*
X038663Y043142D01*
X038663Y043142D02*
X038660Y043145D01*
X038660Y043145D02*
X038624Y043199D01*
X038624Y043199D02*
X038622Y043203D01*
X038622Y043203D02*
X038607Y043283D01*
X038236Y043266*
X038268Y043103*
X038268Y043103D02*
X038374Y042963D01*
X038443Y042911*
X038549Y042876*
X038673Y042840*
X038673Y042840D02*
X038814Y042840D01*
X038814Y042840D02*
X038993Y042858D01*
X038993Y042858D02*
X039134Y042893D01*
X039134Y042893D02*
X039239Y042963D01*
X039239Y042963D02*
X039309Y043051D01*
X039361Y043156*
X039361Y043156D02*
X039379Y043277D01*
X038252Y043186D02*
X038252Y043267D01*
X038277Y041239D02*
X038277Y041398D01*
X038277Y043091D02*
X038277Y043268D01*
X038303Y041083D02*
X038303Y041602D01*
X038303Y043057D02*
X038303Y043269D01*
X038303Y043722D02*
X038303Y043858D01*
X038328Y041019D02*
X038328Y041666D01*
X038328Y043023D02*
X038328Y043270D01*
X038328Y043635D02*
X038328Y043927D01*
X038354Y040956D02*
X038354Y041717D01*
X038354Y042990D02*
X038354Y043271D01*
X038354Y043597D02*
X038354Y043973D01*
X038379Y040921D02*
X038379Y041751D01*
X038379Y042959D02*
X038379Y043272D01*
X038379Y043559D02*
X038379Y044005D01*
X038404Y040891D02*
X038404Y041783D01*
X038404Y042940D02*
X038404Y043273D01*
X038404Y043533D02*
X038404Y044037D01*
X038430Y040861D02*
X038430Y041814D01*
X038430Y042921D02*
X038430Y043275D01*
X038430Y043521D02*
X038430Y044053D01*
X038455Y040832D02*
X038455Y041835D01*
X038455Y042907D02*
X038455Y043276D01*
X038455Y043508D02*
X038455Y044065D01*
X038481Y040810D02*
X038481Y041856D01*
X038481Y042898D02*
X038481Y043277D01*
X038481Y043493D02*
X038481Y044078D01*
X038506Y040792D02*
X038506Y041878D01*
X038506Y042890D02*
X038506Y043278D01*
X038506Y043478D02*
X038506Y044091D01*
X038531Y040774D02*
X038531Y041899D01*
X038531Y042881D02*
X038531Y043279D01*
X038531Y043463D02*
X038531Y044100D01*
X038557Y040755D02*
X038557Y041912D01*
X038557Y042873D02*
X038557Y043280D01*
X038557Y043449D02*
X038557Y044107D01*
X038582Y040737D02*
X038582Y041925D01*
X038582Y042866D02*
X038582Y043282D01*
X038582Y043439D02*
X038582Y044114D01*
X038608Y040730D02*
X038608Y041938D01*
X038608Y042859D02*
X038608Y043278D01*
X038608Y043429D02*
X038608Y044121D01*
X038633Y040724D02*
X038633Y041950D01*
X038633Y042852D02*
X038633Y043186D01*
X038633Y043418D02*
X038633Y044129D01*
X038658Y040718D02*
X038658Y041153D01*
X038658Y041481D02*
X038658Y041956D01*
X038658Y042844D02*
X038658Y043148D01*
X038658Y043413D02*
X038658Y043817D01*
X038658Y043820D02*
X038658Y044132D01*
X038684Y040713D02*
X038684Y041101D01*
X038684Y041558D02*
X038684Y041960D01*
X038684Y042840D02*
X038684Y043126D01*
X038684Y043410D02*
X038684Y043753D01*
X038684Y043872D02*
X038684Y044135D01*
X038709Y040707D02*
X038709Y041050D01*
X038709Y041605D02*
X038709Y041963D01*
X038709Y042840D02*
X038709Y043107D01*
X038709Y043406D02*
X038709Y043740D01*
X038709Y043905D02*
X038709Y044137D01*
X038735Y040701D02*
X038735Y041024D01*
X038735Y041626D02*
X038735Y041967D01*
X038735Y042840D02*
X038735Y043088D01*
X038735Y043403D02*
X038735Y043731D01*
X038735Y043915D02*
X038735Y044140D01*
X038760Y040698D02*
X038760Y041005D01*
X038760Y041646D02*
X038760Y041971D01*
X038760Y042840D02*
X038760Y043081D01*
X038760Y043399D02*
X038760Y043724D01*
X038760Y043925D02*
X038760Y044142D01*
X038785Y040695D02*
X038785Y040986D01*
X038785Y041666D02*
X038785Y041974D01*
X038785Y042840D02*
X038785Y043076D01*
X038785Y043389D02*
X038785Y043718D01*
X038785Y043935D02*
X038785Y044145D01*
X038811Y040692D02*
X038811Y040978D01*
X038811Y041677D02*
X038811Y041977D01*
X038811Y042840D02*
X038811Y043071D01*
X038811Y043378D02*
X038811Y043711D01*
X038811Y043935D02*
X038811Y044147D01*
X038836Y040690D02*
X038836Y040973D01*
X038836Y041686D02*
X038836Y041980D01*
X038836Y042842D02*
X038836Y043067D01*
X038836Y043368D02*
X038836Y043704D01*
X038836Y043927D02*
X038836Y044146D01*
X038862Y040687D02*
X038862Y040969D01*
X038862Y041694D02*
X038862Y041983D01*
X038862Y042845D02*
X038862Y043067D01*
X038862Y043357D02*
X038862Y043697D01*
X038862Y043918D02*
X038862Y044144D01*
X038887Y040685D02*
X038887Y040965D01*
X038887Y041703D02*
X038887Y041986D01*
X038887Y042847D02*
X038887Y043067D01*
X038887Y043346D02*
X038887Y043689D01*
X038887Y043910D02*
X038887Y044142D01*
X038912Y040682D02*
X038912Y040963D01*
X038912Y041707D02*
X038912Y041988D01*
X038912Y042850D02*
X038912Y043069D01*
X038912Y043333D02*
X038912Y043682D01*
X038912Y043901D02*
X038912Y044140D01*
X038938Y040683D02*
X038938Y040967D01*
X038938Y041703D02*
X038938Y041986D01*
X038938Y042853D02*
X038938Y043086D01*
X038938Y043321D02*
X038938Y043674D01*
X038938Y043853D02*
X038938Y044138D01*
X038963Y040686D02*
X038963Y040972D01*
X038963Y041699D02*
X038963Y041984D01*
X038963Y042855D02*
X038963Y043103D01*
X038963Y043308D02*
X038963Y043665D01*
X038963Y043783D02*
X038963Y044136D01*
X038989Y040689D02*
X038989Y040976D01*
X038989Y041694D02*
X038989Y041982D01*
X038989Y042858D02*
X038989Y043164D01*
X038989Y043284D02*
X038989Y043657D01*
X038989Y043760D02*
X038989Y044134D01*
X039014Y040691D02*
X039014Y040980D01*
X039014Y041690D02*
X039014Y041980D01*
X039014Y042863D02*
X039014Y043649D01*
X039014Y043761D02*
X039014Y044133D01*
X039039Y040694D02*
X039039Y040992D01*
X039039Y041673D02*
X039039Y041978D01*
X039039Y042870D02*
X039039Y043641D01*
X039039Y043763D02*
X039039Y044131D01*
X039065Y040697D02*
X039065Y041004D01*
X039065Y041652D02*
X039065Y041975D01*
X039065Y042876D02*
X039065Y043635D01*
X039065Y043764D02*
X039065Y044121D01*
X039090Y040701D02*
X039090Y041017D01*
X039090Y041632D02*
X039090Y041973D01*
X039090Y042882D02*
X039090Y043628D01*
X039090Y043765D02*
X039090Y044108D01*
X039116Y040708D02*
X039116Y041055D01*
X039116Y041609D02*
X039116Y041971D01*
X039116Y042889D02*
X039116Y043618D01*
X039116Y043766D02*
X039116Y044095D01*
X039141Y040716D02*
X039141Y041097D01*
X039141Y041545D02*
X039141Y041960D01*
X039141Y042898D02*
X039141Y043605D01*
X039141Y043767D02*
X039141Y044082D01*
X039166Y040723D02*
X039166Y041160D01*
X039166Y041534D02*
X039166Y041947D01*
X039166Y042915D02*
X039166Y043592D01*
X039166Y043768D02*
X039166Y044070D01*
X039192Y040730D02*
X039192Y041208D01*
X039192Y041539D02*
X039192Y041934D01*
X039192Y042932D02*
X039192Y043580D01*
X039192Y043769D02*
X039192Y044053D01*
X039217Y040740D02*
X039217Y041200D01*
X039217Y041544D02*
X039217Y041921D01*
X039217Y042949D02*
X039217Y043567D01*
X039217Y043771D02*
X039217Y044023D01*
X039243Y040752D02*
X039243Y041192D01*
X039243Y041549D02*
X039243Y041909D01*
X039243Y042968D02*
X039243Y043554D01*
X039243Y043772D02*
X039243Y043994D01*
X039268Y040765D02*
X039268Y041184D01*
X039268Y041554D02*
X039268Y041896D01*
X039268Y043000D02*
X039268Y043542D01*
X039268Y043773D02*
X039268Y043964D01*
X039293Y040778D02*
X039293Y041176D01*
X039293Y041559D02*
X039293Y041883D01*
X039293Y043031D02*
X039293Y043507D01*
X039293Y043774D02*
X039293Y043927D01*
X039319Y040794D02*
X039319Y041168D01*
X039319Y041564D02*
X039319Y041854D01*
X039319Y043071D02*
X039319Y043465D01*
X039319Y043775D02*
X039319Y043842D01*
X039344Y040819D02*
X039344Y041160D01*
X039344Y041569D02*
X039344Y041824D01*
X039344Y043121D02*
X039344Y043407D01*
X039370Y040845D02*
X039370Y041152D01*
X039370Y041574D02*
X039370Y041794D01*
X039370Y043214D02*
X039370Y043323D01*
X039395Y040870D02*
X039395Y041144D01*
X039395Y041579D02*
X039395Y041765D01*
X039420Y040906D02*
X039420Y041136D01*
X039420Y041584D02*
X039420Y041717D01*
X039446Y040944D02*
X039446Y041128D01*
X039446Y041589D02*
X039446Y041667D01*
X039471Y040985D02*
X039471Y041120D01*
X039471Y041594D02*
X039471Y041616D01*
X039497Y041087D02*
X039497Y041112D01*
X039624Y042858D02*
X039624Y044130D01*
X039649Y042858D02*
X039649Y044130D01*
X039674Y041048D02*
X039674Y041243D01*
X039674Y042858D02*
X039674Y044130D01*
X039700Y040930D02*
X039700Y041359D01*
X039700Y042858D02*
X039700Y044130D01*
X039725Y040888D02*
X039725Y041392D01*
X039725Y042858D02*
X039725Y044130D01*
X039751Y040850D02*
X039751Y041426D01*
X039751Y042858D02*
X039751Y044130D01*
X039776Y040824D02*
X039776Y041460D01*
X039776Y042858D02*
X039776Y044130D01*
X039801Y040799D02*
X039801Y041491D01*
X039801Y042858D02*
X039801Y044130D01*
X039827Y040781D02*
X039827Y041508D01*
X039827Y042858D02*
X039827Y044130D01*
X039852Y040770D02*
X039852Y041525D01*
X039852Y042858D02*
X039852Y044130D01*
X039878Y040759D02*
X039878Y041542D01*
X039878Y042858D02*
X039878Y044130D01*
X039903Y040747D02*
X039903Y041559D01*
X039903Y043843D02*
X039903Y044130D01*
X039928Y040736D02*
X039928Y041576D01*
X039928Y043831D02*
X039928Y044130D01*
X039954Y040725D02*
X039954Y041592D01*
X039954Y043731D02*
X039954Y044130D01*
X039979Y040715D02*
X039979Y041597D01*
X039979Y043632D02*
X039979Y044130D01*
X040005Y040711D02*
X040005Y041074D01*
X040005Y041235D02*
X040005Y041601D01*
X040005Y043532D02*
X040005Y044130D01*
X040030Y040706D02*
X040030Y040993D01*
X040030Y041307D02*
X040030Y041606D01*
X040030Y043432D02*
X040030Y044130D01*
X040055Y040702D02*
X040055Y040943D01*
X040055Y041350D02*
X040055Y041610D01*
X040055Y043332D02*
X040055Y044130D01*
X040081Y040697D02*
X040081Y040926D01*
X040081Y041376D02*
X040081Y041614D01*
X040081Y043232D02*
X040081Y044130D01*
X040106Y040692D02*
X040106Y040909D01*
X040106Y041400D02*
X040106Y041618D01*
X040106Y043133D02*
X040106Y044114D01*
X040132Y040688D02*
X040132Y040903D01*
X040132Y041407D02*
X040132Y041623D01*
X040132Y043033D02*
X040132Y044012D01*
X040157Y040683D02*
X040157Y040896D01*
X040157Y041413D02*
X040157Y041627D01*
X040157Y042933D02*
X040157Y043911D01*
X040182Y040684D02*
X040182Y040890D01*
X040182Y041420D02*
X040182Y041626D01*
X040182Y042858D02*
X040182Y043809D01*
X040208Y040688D02*
X040208Y040897D01*
X040208Y041413D02*
X040208Y041623D01*
X040208Y042858D02*
X040208Y043707D01*
X040233Y040692D02*
X040233Y040906D01*
X040233Y041404D02*
X040233Y041620D01*
X040233Y042858D02*
X040233Y043606D01*
X040259Y040696D02*
X040259Y040919D01*
X040259Y041391D02*
X040259Y041617D01*
X040259Y042858D02*
X040259Y043504D01*
X040284Y040699D02*
X040284Y040936D01*
X040284Y041374D02*
X040284Y041614D01*
X040284Y042858D02*
X040284Y043403D01*
X040309Y040703D02*
X040309Y040965D01*
X040309Y041344D02*
X040309Y041611D01*
X040309Y042858D02*
X040309Y043337D01*
X040335Y040707D02*
X040335Y041029D01*
X040335Y041281D02*
X040335Y041606D01*
X040335Y042858D02*
X040335Y043396D01*
X040360Y040711D02*
X040360Y041602D01*
X040360Y042858D02*
X040360Y043497D01*
X040386Y040715D02*
X040386Y041598D01*
X040386Y042858D02*
X040386Y043599D01*
X040411Y040722D02*
X040411Y041594D01*
X040411Y042858D02*
X040411Y043700D01*
X040436Y040733D02*
X040436Y041580D01*
X040436Y042858D02*
X040436Y043802D01*
X040462Y040743D02*
X040462Y041564D01*
X040462Y042926D02*
X040462Y043904D01*
X040487Y038413D02*
X040487Y039685D01*
X040487Y040755D02*
X040487Y041549D01*
X040487Y043026D02*
X040487Y044005D01*
X040513Y038413D02*
X040513Y039685D01*
X040513Y040781D02*
X040513Y041532D01*
X040513Y043126D02*
X040513Y044107D01*
X040538Y038413D02*
X040538Y039685D01*
X040538Y040806D02*
X040538Y041511D01*
X040538Y043225D02*
X040538Y044130D01*
X040563Y038413D02*
X040563Y039685D01*
X040563Y040835D02*
X040563Y041491D01*
X040563Y043325D02*
X040563Y044130D01*
X040589Y038413D02*
X040589Y039685D01*
X040589Y040869D02*
X040589Y041470D01*
X040589Y043425D02*
X040589Y044130D01*
X040614Y038413D02*
X040614Y039685D01*
X040614Y040903D02*
X040614Y041419D01*
X040614Y043525D02*
X040614Y044130D01*
X040640Y038413D02*
X040640Y039685D01*
X040640Y040937D02*
X040640Y041369D01*
X040640Y043625D02*
X040640Y044130D01*
X040665Y038413D02*
X040665Y039685D01*
X040665Y040997D02*
X040665Y041298D01*
X040665Y043724D02*
X040665Y044130D01*
X040690Y038413D02*
X040690Y039685D01*
X040690Y041137D02*
X040690Y041171D01*
X040690Y043824D02*
X040690Y044130D01*
X040716Y038413D02*
X040716Y039685D01*
X040716Y043845D02*
X040716Y044130D01*
X040741Y038413D02*
X040741Y039685D01*
X040741Y042858D02*
X040741Y044130D01*
X040767Y038413D02*
X040767Y039685D01*
X040767Y042858D02*
X040767Y044130D01*
X040792Y038413D02*
X040792Y039685D01*
X040792Y042858D02*
X040792Y044130D01*
X040817Y038413D02*
X040817Y039685D01*
X040817Y042858D02*
X040817Y044130D01*
X040843Y038934D02*
X040843Y039164D01*
X040843Y039403D02*
X040843Y039685D01*
X040843Y042858D02*
X040843Y044130D01*
X040868Y038936D02*
X040868Y039162D01*
X040868Y039404D02*
X040868Y039685D01*
X040868Y042858D02*
X040868Y044130D01*
X040894Y038936D02*
X040894Y039162D01*
X040894Y039404D02*
X040894Y039685D01*
X040894Y042858D02*
X040894Y044130D01*
X040919Y038936D02*
X040919Y039162D01*
X040919Y039404D02*
X040919Y039685D01*
X040919Y040339D02*
X040919Y041611D01*
X040919Y042858D02*
X040919Y044130D01*
X040944Y038936D02*
X040944Y039162D01*
X040944Y039404D02*
X040944Y039685D01*
X040944Y040339D02*
X040944Y041611D01*
X040944Y042858D02*
X040944Y044130D01*
X040970Y038936D02*
X040970Y039162D01*
X040970Y039404D02*
X040970Y039685D01*
X040970Y040339D02*
X040970Y041611D01*
X040970Y042858D02*
X040970Y044130D01*
X040995Y038936D02*
X040995Y039162D01*
X040995Y039404D02*
X040995Y039685D01*
X040995Y040339D02*
X040995Y041611D01*
X040995Y042858D02*
X040995Y044130D01*
X041021Y038936D02*
X041021Y039162D01*
X041021Y039404D02*
X041021Y039685D01*
X041021Y040339D02*
X041021Y041611D01*
X041046Y038936D02*
X041046Y039162D01*
X041046Y039404D02*
X041046Y039685D01*
X041046Y040339D02*
X041046Y041611D01*
X041071Y038936D02*
X041071Y039162D01*
X041071Y039404D02*
X041071Y039685D01*
X041071Y040339D02*
X041071Y041611D01*
X041097Y038936D02*
X041097Y039162D01*
X041097Y039404D02*
X041097Y039685D01*
X041097Y040339D02*
X041097Y041611D01*
X041122Y038936D02*
X041122Y039162D01*
X041122Y039404D02*
X041122Y039685D01*
X041122Y040339D02*
X041122Y041611D01*
X041148Y038936D02*
X041148Y039162D01*
X041148Y039404D02*
X041148Y039685D01*
X041148Y040339D02*
X041148Y041611D01*
X041173Y038936D02*
X041173Y039162D01*
X041173Y039404D02*
X041173Y039685D01*
X041173Y040339D02*
X041173Y041611D01*
X041198Y038936D02*
X041198Y039162D01*
X041198Y039404D02*
X041198Y039685D01*
X041198Y040339D02*
X041198Y041611D01*
X041224Y038936D02*
X041224Y039162D01*
X041224Y039404D02*
X041224Y039685D01*
X041224Y040339D02*
X041224Y041486D01*
X041249Y038936D02*
X041249Y039162D01*
X041249Y039404D02*
X041249Y039685D01*
X041249Y040771D02*
X041249Y041007D01*
X041249Y041303D02*
X041249Y041503D01*
X041275Y038936D02*
X041275Y039162D01*
X041275Y039404D02*
X041275Y039685D01*
X041275Y040757D02*
X041275Y040947D01*
X041275Y041363D02*
X041275Y041537D01*
X041300Y038936D02*
X041300Y039162D01*
X041300Y039404D02*
X041300Y039685D01*
X041300Y040743D02*
X041300Y040930D01*
X041300Y041380D02*
X041300Y041563D01*
X041325Y038936D02*
X041325Y039162D01*
X041325Y039404D02*
X041325Y039685D01*
X041325Y040728D02*
X041325Y040913D01*
X041325Y041397D02*
X041325Y041576D01*
X041325Y042858D02*
X041325Y044130D01*
X041351Y039404D02*
X041351Y039685D01*
X041351Y040714D02*
X041351Y040904D01*
X041351Y041406D02*
X041351Y041589D01*
X041351Y042858D02*
X041351Y044130D01*
X041376Y039404D02*
X041376Y039685D01*
X041376Y040699D02*
X041376Y040898D01*
X041376Y041412D02*
X041376Y041597D01*
X041376Y042858D02*
X041376Y044130D01*
X041402Y039404D02*
X041402Y039685D01*
X041402Y040696D02*
X041402Y040891D01*
X041402Y041418D02*
X041402Y041603D01*
X041402Y042858D02*
X041402Y044130D01*
X041427Y039404D02*
X041427Y039685D01*
X041427Y040693D02*
X041427Y040895D01*
X041427Y041415D02*
X041427Y041608D01*
X041427Y042858D02*
X041427Y044130D01*
X041452Y040689D02*
X041452Y040904D01*
X041452Y041406D02*
X041452Y041614D01*
X041452Y042858D02*
X041452Y044130D01*
X041478Y040686D02*
X041478Y040915D01*
X041478Y041395D02*
X041478Y041619D01*
X041478Y042858D02*
X041478Y044130D01*
X041503Y040683D02*
X041503Y040932D01*
X041503Y041378D02*
X041503Y041625D01*
X041503Y042858D02*
X041503Y044130D01*
X041529Y040684D02*
X041529Y040951D01*
X041529Y041359D02*
X041529Y041626D01*
X041529Y042858D02*
X041529Y044130D01*
X041554Y040690D02*
X041554Y041070D01*
X041554Y041228D02*
X041554Y041621D01*
X041554Y042858D02*
X041554Y044130D01*
X041579Y040695D02*
X041579Y041616D01*
X041579Y042858D02*
X041579Y044130D01*
X041605Y040701D02*
X041605Y041611D01*
X041605Y042858D02*
X041605Y044130D01*
X041630Y038767D02*
X041630Y038939D01*
X041630Y040707D02*
X041630Y041606D01*
X041630Y042858D02*
X041630Y044130D01*
X041656Y038680D02*
X041656Y039066D01*
X041656Y040712D02*
X041656Y041601D01*
X041656Y042858D02*
X041656Y044130D01*
X041681Y038621D02*
X041681Y039100D01*
X041681Y040721D02*
X041681Y041596D01*
X041681Y042858D02*
X041681Y044130D01*
X041706Y038577D02*
X041706Y039134D01*
X041706Y040739D02*
X041706Y041578D01*
X041732Y038539D02*
X041732Y039167D01*
X041732Y040758D02*
X041732Y041553D01*
X041757Y038501D02*
X041757Y039201D01*
X041757Y040776D02*
X041757Y041527D01*
X041783Y038488D02*
X041783Y039218D01*
X041783Y040794D02*
X041783Y041502D01*
X041808Y038475D02*
X041808Y039235D01*
X041808Y040828D02*
X041808Y041466D01*
X041833Y038462D02*
X041833Y039252D01*
X041833Y040879D02*
X041833Y041421D01*
X041859Y038450D02*
X041859Y039269D01*
X041859Y040930D02*
X041859Y041375D01*
X041884Y038442D02*
X041884Y039286D01*
X041884Y041046D02*
X041884Y041319D01*
X041910Y038435D02*
X041910Y039303D01*
X041935Y038427D02*
X041935Y039310D01*
X041960Y038420D02*
X041960Y038762D01*
X041960Y038809D02*
X041960Y038965D01*
X041960Y039000D02*
X041960Y039315D01*
X041986Y038413D02*
X041986Y038698D01*
X041986Y038810D02*
X041986Y038964D01*
X041986Y039063D02*
X041986Y039319D01*
X042011Y038410D02*
X042011Y038661D01*
X042011Y038810D02*
X042011Y038964D01*
X042011Y039086D02*
X042011Y039323D01*
X042011Y041595D02*
X042011Y041611D01*
X042037Y038407D02*
X042037Y038644D01*
X042037Y038810D02*
X042037Y038964D01*
X042037Y039099D02*
X042037Y039327D01*
X042037Y041535D02*
X042037Y041611D01*
X042062Y038404D02*
X042062Y038627D01*
X042062Y038810D02*
X042062Y038964D01*
X042062Y039112D02*
X042062Y039332D01*
X042062Y040499D02*
X042062Y040545D01*
X042062Y041475D02*
X042062Y041611D01*
X042087Y038402D02*
X042087Y038618D01*
X042087Y038810D02*
X042087Y038964D01*
X042087Y039120D02*
X042087Y039336D01*
X042087Y040337D02*
X042087Y040542D01*
X042087Y041415D02*
X042087Y041611D01*
X042113Y038399D02*
X042113Y038612D01*
X042113Y038810D02*
X042113Y038964D01*
X042113Y039126D02*
X042113Y039340D01*
X042113Y040334D02*
X042113Y040540D01*
X042113Y041355D02*
X042113Y041611D01*
X042138Y038396D02*
X042138Y038605D01*
X042138Y038810D02*
X042138Y038964D01*
X042138Y039132D02*
X042138Y039341D01*
X042138Y040330D02*
X042138Y040537D01*
X042138Y041295D02*
X042138Y041611D01*
X042164Y038397D02*
X042164Y038607D01*
X042164Y038810D02*
X042164Y038964D01*
X042164Y039129D02*
X042164Y039339D01*
X042164Y040326D02*
X042164Y040534D01*
X042164Y041235D02*
X042164Y041611D01*
X042189Y038400D02*
X042189Y038611D01*
X042189Y038810D02*
X042189Y038964D01*
X042189Y039122D02*
X042189Y039336D01*
X042189Y040323D02*
X042189Y040531D01*
X042189Y041175D02*
X042189Y041611D01*
X042214Y038402D02*
X042214Y038615D01*
X042214Y038810D02*
X042214Y038964D01*
X042214Y039114D02*
X042214Y039334D01*
X042214Y040321D02*
X042214Y040533D01*
X042214Y041115D02*
X042214Y041611D01*
X042240Y038405D02*
X042240Y038620D01*
X042240Y038810D02*
X042240Y038964D01*
X042240Y039107D02*
X042240Y039331D01*
X042240Y040321D02*
X042240Y040542D01*
X042240Y041055D02*
X042240Y041611D01*
X042265Y038407D02*
X042265Y038630D01*
X042265Y038810D02*
X042265Y038964D01*
X042265Y039100D02*
X042265Y039329D01*
X042265Y040321D02*
X042265Y040550D01*
X042265Y040995D02*
X042265Y041611D01*
X042291Y038410D02*
X042291Y038663D01*
X042291Y038810D02*
X042291Y038964D01*
X042291Y039084D02*
X042291Y039326D01*
X042291Y040321D02*
X042291Y040559D01*
X042291Y040935D02*
X042291Y041611D01*
X042316Y038412D02*
X042316Y038693D01*
X042316Y038810D02*
X042316Y038964D01*
X042316Y039058D02*
X042316Y039322D01*
X042316Y040322D02*
X042316Y040567D01*
X042316Y040875D02*
X042316Y041611D01*
X042341Y038420D02*
X042341Y038691D01*
X042341Y038810D02*
X042341Y039316D01*
X042341Y040324D02*
X042341Y040592D01*
X042341Y040815D02*
X042341Y041611D01*
X042367Y038430D02*
X042367Y038688D01*
X042367Y038810D02*
X042367Y039309D01*
X042367Y040327D02*
X042367Y040628D01*
X042367Y040755D02*
X042367Y041572D01*
X042392Y038439D02*
X042392Y038685D01*
X042392Y038810D02*
X042392Y039303D01*
X042392Y040330D02*
X042392Y040679D01*
X042392Y040695D02*
X042392Y041491D01*
X042418Y038449D02*
X042418Y038683D01*
X042418Y038810D02*
X042418Y039297D01*
X042418Y040333D02*
X042418Y041410D01*
X042443Y038458D02*
X042443Y038680D01*
X042443Y038810D02*
X042443Y039290D01*
X042443Y040336D02*
X042443Y041329D01*
X042468Y038470D02*
X042468Y038678D01*
X042468Y038810D02*
X042468Y039275D01*
X042468Y040339D02*
X042468Y041248D01*
X042494Y038492D02*
X042494Y038675D01*
X042494Y038810D02*
X042494Y039258D01*
X042494Y040356D02*
X042494Y041168D01*
X042519Y038513D02*
X042519Y038673D01*
X042519Y038810D02*
X042519Y039241D01*
X042519Y040373D02*
X042519Y041087D01*
X042545Y038534D02*
X042545Y038670D01*
X042545Y038810D02*
X042545Y039224D01*
X042545Y040390D02*
X042545Y041006D01*
X042545Y043525D02*
X042545Y043770D01*
X042570Y038556D02*
X042570Y038668D01*
X042570Y038810D02*
X042570Y039190D01*
X042570Y040407D02*
X042570Y040983D01*
X042570Y043525D02*
X042570Y043770D01*
X042595Y038592D02*
X042595Y038665D01*
X042595Y038810D02*
X042595Y039152D01*
X042595Y040432D02*
X042595Y041063D01*
X042595Y043525D02*
X042595Y043770D01*
X042621Y038627D02*
X042621Y038663D01*
X042621Y038810D02*
X042621Y039112D01*
X042621Y040457D02*
X042621Y041152D01*
X042621Y043525D02*
X042621Y043770D01*
X042646Y038810D02*
X042646Y039023D01*
X042646Y040491D02*
X042646Y041241D01*
X042646Y043516D02*
X042646Y043778D01*
X042672Y038810D02*
X042672Y038843D01*
X042672Y040558D02*
X042672Y041330D01*
X042672Y042984D02*
X042672Y043967D01*
X042697Y040626D02*
X042697Y041419D01*
X042697Y042936D02*
X042697Y043980D01*
X042722Y040694D02*
X042722Y041508D01*
X042722Y042904D02*
X042722Y043992D01*
X042748Y040762D02*
X042748Y041597D01*
X042748Y042887D02*
X042748Y044005D01*
X042773Y040829D02*
X042773Y041611D01*
X042773Y042872D02*
X042773Y044018D01*
X042799Y040897D02*
X042799Y041611D01*
X042799Y042862D02*
X042799Y044030D01*
X042824Y040965D02*
X042824Y041611D01*
X042824Y042852D02*
X042824Y044043D01*
X042849Y041033D02*
X042849Y041611D01*
X042849Y042842D02*
X042849Y044056D01*
X042875Y038413D02*
X042875Y039325D01*
X042875Y041100D02*
X042875Y041611D01*
X042875Y042840D02*
X042875Y044069D01*
X042900Y038413D02*
X042900Y039325D01*
X042900Y041168D02*
X042900Y041611D01*
X042900Y042840D02*
X042900Y044081D01*
X042926Y038413D02*
X042926Y039325D01*
X042926Y041236D02*
X042926Y041611D01*
X042926Y042840D02*
X042926Y044094D01*
X042951Y038413D02*
X042951Y039325D01*
X042951Y041303D02*
X042951Y041611D01*
X042951Y042840D02*
X042951Y044107D01*
X042976Y038413D02*
X042976Y039325D01*
X042976Y041371D02*
X042976Y041611D01*
X042976Y042842D02*
X042976Y044119D01*
X043002Y038413D02*
X043002Y039325D01*
X043002Y041439D02*
X043002Y041611D01*
X043002Y042843D02*
X043002Y043090D01*
X043002Y043525D02*
X043002Y043770D01*
X043027Y038413D02*
X043027Y039325D01*
X043027Y041507D02*
X043027Y041611D01*
X043027Y042845D02*
X043027Y043073D01*
X043027Y043525D02*
X043027Y043770D01*
X043053Y038413D02*
X043053Y039325D01*
X043053Y041574D02*
X043053Y041611D01*
X043053Y042847D02*
X043053Y043056D01*
X043053Y043525D02*
X043053Y043770D01*
X043078Y038413D02*
X043078Y039325D01*
X043078Y042849D02*
X043078Y043050D01*
X043078Y043525D02*
X043078Y043770D01*
X043103Y038413D02*
X043103Y039325D01*
X043103Y042851D02*
X043103Y043054D01*
X043103Y043525D02*
X043103Y043770D01*
X043129Y038413D02*
X043129Y039325D01*
X043129Y042852D02*
X043129Y043058D01*
X043129Y043525D02*
X043129Y043770D01*
X043154Y038413D02*
X043154Y039325D01*
X043154Y042854D02*
X043154Y043061D01*
X043154Y043525D02*
X043154Y043770D01*
X043180Y038413D02*
X043180Y039168D01*
X043180Y042856D02*
X043180Y043065D01*
X043180Y043525D02*
X043180Y043770D01*
X043205Y038901D02*
X043205Y039174D01*
X043230Y039011D02*
X043230Y039205D01*
X043230Y040699D02*
X043230Y041611D01*
X043256Y039036D02*
X043256Y039237D01*
X043256Y040699D02*
X043256Y041611D01*
X043281Y039053D02*
X043281Y039264D01*
X043281Y040699D02*
X043281Y041611D01*
X043307Y039065D02*
X043307Y039283D01*
X043307Y040699D02*
X043307Y041611D01*
X043332Y039074D02*
X043332Y039302D01*
X043332Y040699D02*
X043332Y041611D01*
X043332Y043311D02*
X043332Y043316D01*
X043357Y039079D02*
X043357Y039311D01*
X043357Y040699D02*
X043357Y041611D01*
X043357Y043159D02*
X043357Y043451D01*
X043383Y039068D02*
X043383Y039316D01*
X043383Y040699D02*
X043383Y041611D01*
X043383Y043076D02*
X043383Y043528D01*
X043408Y039058D02*
X043408Y039321D01*
X043408Y040699D02*
X043408Y041611D01*
X043408Y043033D02*
X043408Y043562D01*
X043434Y039048D02*
X043434Y039326D01*
X043434Y040699D02*
X043434Y041611D01*
X043434Y043001D02*
X043434Y043596D01*
X043459Y039028D02*
X043459Y039331D01*
X043459Y040699D02*
X043459Y041611D01*
X043459Y042975D02*
X043459Y043630D01*
X043484Y038990D02*
X043484Y039336D01*
X043484Y040699D02*
X043484Y041611D01*
X043484Y042950D02*
X043484Y043655D01*
X043510Y038413D02*
X043510Y039341D01*
X043510Y040699D02*
X043510Y041611D01*
X043510Y042937D02*
X043510Y043672D01*
X043535Y038413D02*
X043535Y039340D01*
X043535Y040699D02*
X043535Y041448D01*
X043535Y042925D02*
X043535Y043689D01*
X043561Y038413D02*
X043561Y039337D01*
X043561Y041183D02*
X043561Y041491D01*
X043561Y042914D02*
X043561Y043706D01*
X043586Y038413D02*
X043586Y039333D01*
X043586Y041272D02*
X043586Y041548D01*
X043586Y042903D02*
X043586Y043723D01*
X043611Y038413D02*
X043611Y039330D01*
X043611Y041317D02*
X043611Y041574D01*
X043611Y042891D02*
X043611Y043740D01*
X043637Y038413D02*
X043637Y039327D01*
X043637Y041334D02*
X043637Y041596D01*
X043637Y042880D02*
X043637Y043753D01*
X043662Y038413D02*
X043662Y039318D01*
X043662Y041349D02*
X043662Y041604D01*
X043662Y042873D02*
X043662Y043758D01*
X043688Y038413D02*
X043688Y039297D01*
X043688Y041357D02*
X043688Y041612D01*
X043688Y042868D02*
X043688Y043195D01*
X043688Y043432D02*
X043688Y043762D01*
X043713Y038413D02*
X043713Y039277D01*
X043713Y041366D02*
X043713Y041619D01*
X043713Y042864D02*
X043713Y043131D01*
X043713Y043482D02*
X043713Y043766D01*
X043738Y038413D02*
X043738Y039257D01*
X043738Y041362D02*
X043738Y041625D01*
X043738Y042859D02*
X043738Y043097D01*
X043738Y043517D02*
X043738Y043770D01*
X043764Y038413D02*
X043764Y039219D01*
X043764Y041358D02*
X043764Y041626D01*
X043764Y042854D02*
X043764Y043080D01*
X043764Y043543D02*
X043764Y043775D01*
X043789Y038413D02*
X043789Y039181D01*
X043789Y041354D02*
X043789Y041621D01*
X043789Y042850D02*
X043789Y043066D01*
X043789Y043562D02*
X043789Y043779D01*
X043815Y038413D02*
X043815Y039094D01*
X043815Y041349D02*
X043815Y041616D01*
X043815Y042845D02*
X043815Y043060D01*
X043815Y043568D02*
X043815Y043783D01*
X043840Y041407D02*
X043840Y041610D01*
X043840Y042841D02*
X043840Y043053D01*
X043840Y043574D02*
X043840Y043787D01*
X043865Y041466D02*
X043865Y041600D01*
X043865Y042844D02*
X043865Y043050D01*
X043865Y043577D02*
X043865Y043784D01*
X043891Y041525D02*
X043891Y041590D01*
X043891Y042848D02*
X043891Y043059D01*
X043891Y043569D02*
X043891Y043781D01*
X043916Y042852D02*
X043916Y043067D01*
X043916Y043560D02*
X043916Y043778D01*
X043942Y042856D02*
X043942Y043083D01*
X043942Y043544D02*
X043942Y043775D01*
X043967Y042860D02*
X043967Y043100D01*
X043967Y043527D02*
X043967Y043772D01*
X043992Y042864D02*
X043992Y043145D01*
X043992Y043483D02*
X043992Y043768D01*
X044018Y040699D02*
X044018Y041611D01*
X044018Y041744D02*
X044018Y041971D01*
X044018Y042868D02*
X044018Y043216D01*
X044018Y043412D02*
X044018Y043764D01*
X044043Y040699D02*
X044043Y041611D01*
X044043Y041744D02*
X044043Y041971D01*
X044043Y042871D02*
X044043Y043760D01*
X044069Y040699D02*
X044069Y041611D01*
X044069Y041744D02*
X044069Y041971D01*
X044069Y042875D02*
X044069Y043755D01*
X044094Y040699D02*
X044094Y041611D01*
X044094Y041744D02*
X044094Y041971D01*
X044094Y042885D02*
X044094Y043749D01*
X044119Y040699D02*
X044119Y041611D01*
X044119Y041744D02*
X044119Y041971D01*
X044119Y042895D02*
X044119Y043734D01*
X044145Y040699D02*
X044145Y041611D01*
X044145Y041744D02*
X044145Y041971D01*
X044145Y042905D02*
X044145Y043718D01*
X044170Y040699D02*
X044170Y041611D01*
X044170Y041744D02*
X044170Y041971D01*
X044170Y042922D02*
X044170Y043703D01*
X044196Y040699D02*
X044196Y041611D01*
X044196Y041744D02*
X044196Y041971D01*
X044196Y042948D02*
X044196Y043684D01*
X044221Y040699D02*
X044221Y041611D01*
X044221Y041744D02*
X044221Y041971D01*
X044221Y042973D02*
X044221Y043664D01*
X044246Y040699D02*
X044246Y041611D01*
X044246Y041744D02*
X044246Y041971D01*
X044246Y043005D02*
X044246Y043643D01*
X044272Y040699D02*
X044272Y041611D01*
X044272Y041744D02*
X044272Y041971D01*
X044272Y043039D02*
X044272Y043613D01*
X044297Y040699D02*
X044297Y041611D01*
X044297Y041744D02*
X044297Y041971D01*
X044297Y043073D02*
X044297Y043562D01*
X044323Y040699D02*
X044323Y041611D01*
X044323Y041744D02*
X044323Y041971D01*
X044323Y043106D02*
X044323Y043511D01*
X044348Y040699D02*
X044348Y041611D01*
X044348Y041744D02*
X044348Y041971D01*
X044348Y043201D02*
X044348Y043417D01*
X044577Y040608D02*
X044577Y040654D01*
X044577Y041010D02*
X044577Y041301D01*
X044602Y040519D02*
X044602Y040652D01*
X044602Y040966D02*
X044602Y041405D01*
X044627Y040472D02*
X044627Y040649D01*
X044627Y040921D02*
X044627Y041456D01*
X044653Y040440D02*
X044653Y040647D01*
X044653Y040880D02*
X044653Y041507D01*
X044678Y040408D02*
X044678Y040644D01*
X044678Y040846D02*
X044678Y041534D01*
X044704Y038413D02*
X044704Y039685D01*
X044704Y040391D02*
X044704Y040642D01*
X044704Y040817D02*
X044704Y041548D01*
X044729Y038413D02*
X044729Y039685D01*
X044729Y040374D02*
X044729Y040639D01*
X044729Y040798D02*
X044729Y041563D01*
X044754Y038413D02*
X044754Y039685D01*
X044754Y040364D02*
X044754Y040636D01*
X044754Y040778D02*
X044754Y041577D01*
X044780Y038413D02*
X044780Y039685D01*
X044780Y040354D02*
X044780Y040634D01*
X044780Y040763D02*
X044780Y041592D01*
X044805Y038413D02*
X044805Y039685D01*
X044805Y040343D02*
X044805Y040631D01*
X044805Y040750D02*
X044805Y041599D01*
X044831Y038413D02*
X044831Y039685D01*
X044831Y040336D02*
X044831Y040629D01*
X044831Y040737D02*
X044831Y041605D01*
X044856Y038413D02*
X044856Y039685D01*
X044856Y040332D02*
X044856Y040626D01*
X044856Y040735D02*
X044856Y041612D01*
X044881Y038413D02*
X044881Y039685D01*
X044881Y040328D02*
X044881Y040624D01*
X044881Y040735D02*
X044881Y041618D01*
X044907Y038413D02*
X044907Y039685D01*
X044907Y040324D02*
X044907Y040621D01*
X044907Y040735D02*
X044907Y041094D01*
X044907Y041268D02*
X044907Y041624D01*
X044932Y038413D02*
X044932Y039685D01*
X044932Y040321D02*
X044932Y040584D01*
X044932Y040735D02*
X044932Y041001D01*
X044932Y041363D02*
X044932Y041627D01*
X044958Y038413D02*
X044958Y039685D01*
X044958Y040321D02*
X044958Y040548D01*
X044958Y040735D02*
X044958Y040984D01*
X044958Y041380D02*
X044958Y041622D01*
X044983Y038413D02*
X044983Y039685D01*
X044983Y040321D02*
X044983Y040543D01*
X044983Y040735D02*
X044983Y040967D01*
X044983Y041397D02*
X044983Y041618D01*
X045008Y038413D02*
X045008Y039685D01*
X045008Y040321D02*
X045008Y040539D01*
X045008Y040735D02*
X045008Y040958D01*
X045008Y041407D02*
X045008Y041614D01*
X045034Y038413D02*
X045034Y039685D01*
X045034Y040321D02*
X045034Y040535D01*
X045034Y040745D02*
X045034Y040952D01*
X045034Y041416D02*
X045034Y041609D01*
X045059Y038413D02*
X045059Y038713D01*
X045059Y040322D02*
X045059Y040531D01*
X045059Y040755D02*
X045059Y040945D01*
X045059Y041417D02*
X045059Y041603D01*
X045085Y038413D02*
X045085Y038712D01*
X045085Y040324D02*
X045085Y040530D01*
X045085Y040765D02*
X045085Y040950D01*
X045085Y041411D02*
X045085Y041597D01*
X045110Y038413D02*
X045110Y038712D01*
X045110Y040326D02*
X045110Y040530D01*
X045110Y040779D02*
X045110Y040958D01*
X045110Y041405D02*
X045110Y041587D01*
X045135Y038413D02*
X045135Y038712D01*
X045135Y040328D02*
X045135Y040537D01*
X045135Y040796D02*
X045135Y040970D01*
X045135Y041394D02*
X045135Y041574D01*
X045161Y038413D02*
X045161Y038712D01*
X045161Y040330D02*
X045161Y040554D01*
X045161Y040817D02*
X045161Y040987D01*
X045161Y041377D02*
X045161Y041562D01*
X045186Y038413D02*
X045186Y038712D01*
X045186Y040332D02*
X045186Y040574D01*
X045186Y040843D02*
X045186Y041007D01*
X045186Y041357D02*
X045186Y041532D01*
X045212Y038413D02*
X045212Y038712D01*
X045212Y040334D02*
X045212Y040612D01*
X045212Y040861D02*
X045212Y041057D01*
X045212Y041306D02*
X045212Y041498D01*
X045212Y042858D02*
X045212Y044130D01*
X045237Y038413D02*
X045237Y038712D01*
X045237Y040335D02*
X045237Y041488D01*
X045237Y042858D02*
X045237Y044130D01*
X045262Y038413D02*
X045262Y038712D01*
X045262Y040337D02*
X045262Y041611D01*
X045262Y042858D02*
X045262Y044130D01*
X045288Y038413D02*
X045288Y038712D01*
X045288Y040343D02*
X045288Y041611D01*
X045288Y042858D02*
X045288Y044130D01*
X045313Y038413D02*
X045313Y038712D01*
X045313Y040356D02*
X045313Y041611D01*
X045313Y042858D02*
X045313Y044130D01*
X045339Y038413D02*
X045339Y038712D01*
X045339Y040369D02*
X045339Y041611D01*
X045339Y042858D02*
X045339Y044130D01*
X045364Y038413D02*
X045364Y038712D01*
X045364Y040381D02*
X045364Y041611D01*
X045364Y042858D02*
X045364Y044130D01*
X045389Y038413D02*
X045389Y038712D01*
X045389Y040394D02*
X045389Y041611D01*
X045389Y042858D02*
X045389Y044130D01*
X045415Y038413D02*
X045415Y038712D01*
X045415Y040407D02*
X045415Y041611D01*
X045415Y042858D02*
X045415Y044130D01*
X045440Y038413D02*
X045440Y038712D01*
X045440Y040434D02*
X045440Y041611D01*
X045440Y042858D02*
X045440Y044130D01*
X045466Y038413D02*
X045466Y038712D01*
X045466Y040464D02*
X045466Y041611D01*
X045466Y042858D02*
X045466Y044130D01*
X045491Y038413D02*
X045491Y038712D01*
X045491Y040493D02*
X045491Y041611D01*
X045491Y042858D02*
X045491Y044130D01*
X045516Y038413D02*
X045516Y038712D01*
X045516Y040523D02*
X045516Y041611D01*
X045516Y042858D02*
X045516Y044130D01*
X045542Y038413D02*
X045542Y038712D01*
X045542Y040577D02*
X045542Y041611D01*
X045542Y042858D02*
X045542Y044130D01*
X045567Y038413D02*
X045567Y038712D01*
X045567Y042858D02*
X045567Y044130D01*
X045593Y038413D02*
X045593Y038712D01*
X045618Y038413D02*
X045618Y038712D01*
X045643Y038413D02*
X045643Y038712D01*
X045669Y038413D02*
X045669Y038712D01*
X045821Y040699D02*
X045821Y041971D01*
X045847Y038786D02*
X045847Y038937D01*
X045847Y040699D02*
X045847Y041971D01*
X045872Y038651D02*
X045872Y039067D01*
X045872Y040699D02*
X045872Y041971D01*
X045897Y038608D02*
X045897Y039101D01*
X045897Y040699D02*
X045897Y041971D01*
X045923Y038568D02*
X045923Y039135D01*
X045923Y040699D02*
X045923Y041971D01*
X045923Y042858D02*
X045923Y044130D01*
X045948Y038542D02*
X045948Y039169D01*
X045948Y040699D02*
X045948Y041971D01*
X045948Y042858D02*
X045948Y044130D01*
X045974Y038517D02*
X045974Y039202D01*
X045974Y040699D02*
X045974Y041971D01*
X045974Y042858D02*
X045974Y044130D01*
X045999Y038497D02*
X045999Y039219D01*
X045999Y040699D02*
X045999Y041971D01*
X045999Y042858D02*
X045999Y044130D01*
X046024Y038486D02*
X046024Y039236D01*
X046024Y040699D02*
X046024Y041971D01*
X046024Y042858D02*
X046024Y044130D01*
X046050Y038474D02*
X046050Y039253D01*
X046050Y040699D02*
X046050Y041971D01*
X046050Y042858D02*
X046050Y044130D01*
X046075Y038463D02*
X046075Y039270D01*
X046075Y040699D02*
X046075Y041971D01*
X046075Y042858D02*
X046075Y044130D01*
X046101Y038452D02*
X046101Y039287D01*
X046101Y040699D02*
X046101Y041971D01*
X046101Y042858D02*
X046101Y044130D01*
X046126Y038440D02*
X046126Y039304D01*
X046126Y040699D02*
X046126Y041971D01*
X046126Y042858D02*
X046126Y044130D01*
X046151Y038430D02*
X046151Y039311D01*
X046151Y041224D02*
X046151Y041485D01*
X046151Y042858D02*
X046151Y044130D01*
X046177Y038425D02*
X046177Y038812D01*
X046177Y038926D02*
X046177Y039315D01*
X046177Y041310D02*
X046177Y041509D01*
X046177Y042858D02*
X046177Y044130D01*
X046202Y038421D02*
X046202Y038717D01*
X046202Y039013D02*
X046202Y039319D01*
X046202Y041327D02*
X046202Y041534D01*
X046202Y042858D02*
X046202Y044130D01*
X046228Y038416D02*
X046228Y038660D01*
X046228Y039060D02*
X046228Y039323D01*
X046228Y041344D02*
X046228Y041559D01*
X046228Y042858D02*
X046228Y044130D01*
X046253Y038412D02*
X046253Y038643D01*
X046253Y039086D02*
X046253Y039327D01*
X046253Y041354D02*
X046253Y041572D01*
X046253Y042858D02*
X046253Y044130D01*
X046278Y038407D02*
X046278Y038626D01*
X046278Y039111D02*
X046278Y039332D01*
X046278Y041362D02*
X046278Y041585D01*
X046278Y042858D02*
X046278Y043150D01*
X046278Y043838D02*
X046278Y044130D01*
X046304Y038402D02*
X046304Y038618D01*
X046304Y039120D02*
X046304Y039336D01*
X046304Y041362D02*
X046304Y041595D01*
X046304Y042858D02*
X046304Y043139D01*
X046304Y043849D02*
X046304Y044130D01*
X046329Y038398D02*
X046329Y038611D01*
X046329Y039126D02*
X046329Y039340D01*
X046329Y041351D02*
X046329Y041600D01*
X046329Y042858D02*
X046329Y043139D01*
X046329Y043849D02*
X046329Y044130D01*
X046355Y038397D02*
X046355Y038605D01*
X046355Y039133D02*
X046355Y039341D01*
X046355Y041341D02*
X046355Y041605D01*
X046355Y042858D02*
X046355Y043139D01*
X046355Y043849D02*
X046355Y044130D01*
X046380Y038401D02*
X046380Y038610D01*
X046380Y039128D02*
X046380Y039338D01*
X046380Y041331D02*
X046380Y041610D01*
X046380Y042858D02*
X046380Y043139D01*
X046380Y043849D02*
X046380Y044130D01*
X046405Y038405D02*
X046405Y038618D01*
X046405Y039119D02*
X046405Y039335D01*
X046405Y041303D02*
X046405Y041615D01*
X046405Y042858D02*
X046405Y043139D01*
X046405Y043848D02*
X046405Y044130D01*
X046431Y038409D02*
X046431Y038630D01*
X046431Y039107D02*
X046431Y039331D01*
X046431Y040699D02*
X046431Y041620D01*
X046431Y042858D02*
X046431Y043139D01*
X046431Y043845D02*
X046431Y044130D01*
X046456Y038413D02*
X046456Y038647D01*
X046456Y039090D02*
X046456Y039328D01*
X046456Y040699D02*
X046456Y041625D01*
X046456Y042858D02*
X046456Y043139D01*
X046456Y043841D02*
X046456Y044130D01*
X046482Y038417D02*
X046482Y038669D01*
X046482Y039068D02*
X046482Y039325D01*
X046482Y040699D02*
X046482Y041627D01*
X046482Y042858D02*
X046482Y043139D01*
X046482Y043837D02*
X046482Y044130D01*
X046507Y038421D02*
X046507Y038733D01*
X046507Y039005D02*
X046507Y039321D01*
X046507Y040699D02*
X046507Y041623D01*
X046507Y042858D02*
X046507Y043139D01*
X046507Y043834D02*
X046507Y044128D01*
X046532Y038425D02*
X046532Y038851D01*
X046532Y038887D02*
X046532Y039317D01*
X046532Y040699D02*
X046532Y041620D01*
X046532Y042858D02*
X046532Y043145D01*
X046532Y043829D02*
X046532Y044125D01*
X046558Y038428D02*
X046558Y039312D01*
X046558Y040699D02*
X046558Y041616D01*
X046558Y042858D02*
X046558Y043151D01*
X046558Y043814D02*
X046558Y044122D01*
X046583Y038435D02*
X046583Y039308D01*
X046583Y040699D02*
X046583Y041612D01*
X046583Y042858D02*
X046583Y043158D01*
X046583Y043798D02*
X046583Y044119D01*
X046609Y038445D02*
X046609Y039296D01*
X046609Y040699D02*
X046609Y041598D01*
X046609Y042862D02*
X046609Y043181D01*
X046609Y043783D02*
X046609Y044116D01*
X046634Y038455D02*
X046634Y039281D01*
X046634Y040699D02*
X046634Y041578D01*
X046634Y042869D02*
X046634Y043215D01*
X046634Y043755D02*
X046634Y044114D01*
X046659Y038465D02*
X046659Y039265D01*
X046659Y040699D02*
X046659Y041557D01*
X046659Y042876D02*
X046659Y043266D01*
X046659Y043704D02*
X046659Y044109D01*
X046685Y038491D02*
X046685Y039249D01*
X046685Y040699D02*
X046685Y041532D01*
X046685Y042884D02*
X046685Y043316D01*
X046685Y043632D02*
X046685Y044102D01*
X046710Y038516D02*
X046710Y039228D01*
X046710Y040699D02*
X046710Y041494D01*
X046710Y042891D02*
X046710Y044094D01*
X046736Y038544D02*
X046736Y039208D01*
X046736Y040699D02*
X046736Y041456D01*
X046736Y042900D02*
X046736Y044087D01*
X046761Y038578D02*
X046761Y039188D01*
X046761Y040699D02*
X046761Y041313D01*
X046761Y042910D02*
X046761Y044080D01*
X046786Y038611D02*
X046786Y039141D01*
X046786Y042920D02*
X046786Y044068D01*
X046812Y038645D02*
X046812Y039090D01*
X046812Y042933D02*
X046812Y044053D01*
X046837Y038689D02*
X046837Y039032D01*
X046837Y042953D02*
X046837Y044038D01*
X046863Y038829D02*
X046863Y038905D01*
X046863Y042973D02*
X046863Y044022D01*
X046888Y042993D02*
X046888Y044002D01*
X046913Y043017D02*
X046913Y043981D01*
X046939Y043043D02*
X046939Y043961D01*
X046964Y041366D02*
X046964Y041611D01*
X046964Y043068D02*
X046964Y043921D01*
X046990Y041366D02*
X046990Y041611D01*
X046990Y043118D02*
X046990Y043870D01*
X047015Y041366D02*
X047015Y041611D01*
X047015Y043169D02*
X047015Y043804D01*
X047040Y038897D02*
X047040Y038908D01*
X047040Y041366D02*
X047040Y041611D01*
X047040Y043265D02*
X047040Y043707D01*
X047066Y038301D02*
X047066Y038368D01*
X047066Y038714D02*
X047066Y039048D01*
X047066Y041366D02*
X047066Y041611D01*
X047066Y043443D02*
X047066Y043529D01*
X047091Y038213D02*
X047091Y038365D01*
X047091Y038669D02*
X047091Y039131D01*
X047091Y040855D02*
X047091Y041802D01*
X047117Y038178D02*
X047117Y038363D01*
X047117Y038625D02*
X047117Y039182D01*
X047117Y040795D02*
X047117Y041815D01*
X047142Y038146D02*
X047142Y038360D01*
X047142Y038586D02*
X047142Y039233D01*
X047142Y040757D02*
X047142Y041827D01*
X047167Y038118D02*
X047167Y038357D01*
X047167Y038553D02*
X047167Y039251D01*
X047167Y040736D02*
X047167Y041840D01*
X047193Y038101D02*
X047193Y038355D01*
X047193Y038526D02*
X047193Y039266D01*
X047193Y040719D02*
X047193Y041853D01*
X047218Y038085D02*
X047218Y038352D01*
X047218Y038507D02*
X047218Y039280D01*
X047218Y040708D02*
X047218Y041865D01*
X047244Y038075D02*
X047244Y038350D01*
X047244Y038488D02*
X047244Y039295D01*
X047244Y040697D02*
X047244Y041878D01*
X047269Y038065D02*
X047269Y038347D01*
X047269Y038474D02*
X047269Y039308D01*
X047269Y040687D02*
X047269Y041891D01*
X047294Y038055D02*
X047294Y038345D01*
X047294Y038461D02*
X047294Y039314D01*
X047294Y040681D02*
X047294Y041904D01*
X047320Y038049D02*
X047320Y038342D01*
X047320Y038449D02*
X047320Y039321D01*
X047320Y040681D02*
X047320Y041916D01*
X047320Y042858D02*
X047320Y044130D01*
X047345Y038045D02*
X047345Y038340D01*
X047345Y038449D02*
X047345Y039327D01*
X047345Y040681D02*
X047345Y041929D01*
X047345Y042858D02*
X047345Y044130D01*
X047371Y038041D02*
X047371Y038337D01*
X047371Y038449D02*
X047371Y039334D01*
X047371Y040681D02*
X047371Y041942D01*
X047371Y042858D02*
X047371Y044130D01*
X047396Y038037D02*
X047396Y038335D01*
X047396Y038449D02*
X047396Y038781D01*
X047396Y039011D02*
X047396Y039340D01*
X047396Y040682D02*
X047396Y041954D01*
X047396Y042858D02*
X047396Y044130D01*
X047421Y038035D02*
X047421Y038286D01*
X047421Y038449D02*
X047421Y038711D01*
X047421Y039081D02*
X047421Y039340D01*
X047421Y040683D02*
X047421Y040943D01*
X047421Y041365D02*
X047421Y041611D01*
X047421Y042858D02*
X047421Y044130D01*
X047447Y038035D02*
X047447Y038261D01*
X047447Y038449D02*
X047447Y038694D01*
X047447Y039098D02*
X047447Y039335D01*
X047447Y040685D02*
X047447Y040922D01*
X047447Y041366D02*
X047447Y041611D01*
X047447Y042858D02*
X047447Y044130D01*
X047472Y038035D02*
X047472Y038256D01*
X047472Y038449D02*
X047472Y038677D01*
X047472Y039115D02*
X047472Y039331D01*
X047472Y040687D02*
X047472Y040905D01*
X047472Y041366D02*
X047472Y041611D01*
X047472Y042858D02*
X047472Y044130D01*
X047498Y038035D02*
X047498Y038252D01*
X047498Y038451D02*
X047498Y038671D01*
X047498Y039123D02*
X047498Y039327D01*
X047498Y040689D02*
X047498Y040890D01*
X047498Y041366D02*
X047498Y041611D01*
X047498Y042858D02*
X047498Y044130D01*
X047523Y038035D02*
X047523Y038248D01*
X047523Y038461D02*
X047523Y038664D01*
X047523Y039132D02*
X047523Y039322D01*
X047523Y040691D02*
X047523Y040893D01*
X047523Y041366D02*
X047523Y041611D01*
X047523Y042858D02*
X047523Y044130D01*
X047548Y038036D02*
X047548Y038244D01*
X047548Y038471D02*
X047548Y038658D01*
X047548Y039130D02*
X047548Y039315D01*
X047548Y040693D02*
X047548Y040897D01*
X047548Y041366D02*
X047548Y041611D01*
X047548Y042858D02*
X047548Y044130D01*
X047574Y038038D02*
X047574Y038244D01*
X047574Y038482D02*
X047574Y038666D01*
X047574Y039124D02*
X047574Y039309D01*
X047574Y040694D02*
X047574Y040901D01*
X047574Y041366D02*
X047574Y041611D01*
X047574Y042858D02*
X047574Y044130D01*
X047599Y038040D02*
X047599Y038244D01*
X047599Y038497D02*
X047599Y038674D01*
X047599Y039117D02*
X047599Y039298D01*
X047599Y040696D02*
X047599Y040904D01*
X047599Y041366D02*
X047599Y041611D01*
X047599Y042858D02*
X047599Y044130D01*
X047625Y038042D02*
X047625Y038255D01*
X047625Y038514D02*
X047625Y038688D01*
X047625Y039104D02*
X047625Y039285D01*
X047625Y040698D02*
X047625Y040748D01*
X047625Y042858D02*
X047625Y044130D01*
X047650Y038044D02*
X047650Y038272D01*
X047650Y038537D02*
X047650Y038705D01*
X047650Y039087D02*
X047650Y039272D01*
X047650Y042858D02*
X047650Y044130D01*
X047675Y038046D02*
X047675Y038297D01*
X047675Y038563D02*
X047675Y038732D01*
X047675Y039059D02*
X047675Y039238D01*
X047675Y042858D02*
X047675Y043139D01*
X047675Y043398D02*
X047675Y043644D01*
X047675Y043849D02*
X047675Y044130D01*
X047701Y038048D02*
X047701Y038335D01*
X047701Y038573D02*
X047701Y038783D01*
X047701Y039009D02*
X047701Y039204D01*
X047701Y042858D02*
X047701Y043139D01*
X047701Y043399D02*
X047701Y043643D01*
X047701Y043849D02*
X047701Y044130D01*
X047726Y038050D02*
X047726Y039325D01*
X047726Y042858D02*
X047726Y043139D01*
X047726Y043399D02*
X047726Y043643D01*
X047726Y043849D02*
X047726Y044130D01*
X047752Y038052D02*
X047752Y039325D01*
X047752Y042858D02*
X047752Y043139D01*
X047752Y043399D02*
X047752Y043643D01*
X047752Y043849D02*
X047752Y044130D01*
X047777Y038060D02*
X047777Y039325D01*
X047777Y042858D02*
X047777Y043139D01*
X047777Y043399D02*
X047777Y043643D01*
X047777Y043849D02*
X047777Y044130D01*
X047802Y038073D02*
X047802Y039325D01*
X047802Y042858D02*
X047802Y043139D01*
X047802Y043399D02*
X047802Y043643D01*
X047802Y043849D02*
X047802Y044130D01*
X047828Y038086D02*
X047828Y039325D01*
X047828Y042858D02*
X047828Y043139D01*
X047828Y043399D02*
X047828Y043643D01*
X047828Y043849D02*
X047828Y044130D01*
X047853Y038098D02*
X047853Y039325D01*
X047853Y042858D02*
X047853Y043139D01*
X047853Y043399D02*
X047853Y043643D01*
X047853Y043849D02*
X047853Y044130D01*
X047879Y038111D02*
X047879Y039325D01*
X047879Y042858D02*
X047879Y043139D01*
X047879Y043399D02*
X047879Y043643D01*
X047879Y043849D02*
X047879Y044130D01*
X047904Y038125D02*
X047904Y039325D01*
X047904Y042858D02*
X047904Y043139D01*
X047904Y043399D02*
X047904Y043643D01*
X047904Y043849D02*
X047904Y044130D01*
X047929Y038155D02*
X047929Y039325D01*
X047929Y042858D02*
X047929Y043139D01*
X047929Y043399D02*
X047929Y043643D01*
X047929Y043849D02*
X047929Y044130D01*
X047955Y038185D02*
X047955Y039325D01*
X047955Y042858D02*
X047955Y043139D01*
X047955Y043399D02*
X047955Y043643D01*
X047955Y043849D02*
X047955Y044130D01*
X047980Y038214D02*
X047980Y039325D01*
X047980Y042858D02*
X047980Y043139D01*
X047980Y043399D02*
X047980Y043643D01*
X047980Y043849D02*
X047980Y044130D01*
X048006Y038244D02*
X048006Y039325D01*
X048006Y042858D02*
X048006Y043139D01*
X048006Y043399D02*
X048006Y043643D01*
X048006Y043849D02*
X048006Y044130D01*
X048031Y038306D02*
X048031Y039325D01*
X048031Y042858D02*
X048031Y043139D01*
X048031Y043399D02*
X048031Y043643D01*
X048031Y043849D02*
X048031Y044130D01*
X048056Y042858D02*
X048056Y043139D01*
X048056Y043399D02*
X048056Y043643D01*
X048056Y043849D02*
X048056Y044130D01*
X048082Y042858D02*
X048082Y043139D01*
X048082Y043399D02*
X048082Y043643D01*
X048082Y043849D02*
X048082Y044130D01*
X048107Y042858D02*
X048107Y043139D01*
X048107Y043399D02*
X048107Y043643D01*
X048107Y043849D02*
X048107Y044130D01*
X048133Y042858D02*
X048133Y043139D01*
X048133Y043399D02*
X048133Y043643D01*
X048133Y043849D02*
X048133Y044130D01*
X048158Y042858D02*
X048158Y043139D01*
X048158Y043399D02*
X048158Y043643D01*
X048158Y043849D02*
X048158Y044130D01*
X048183Y042858D02*
X048183Y043139D01*
X048183Y043399D02*
X048183Y043643D01*
X048183Y043849D02*
X048183Y044130D01*
X048209Y042858D02*
X048209Y043139D01*
X048209Y043399D02*
X048209Y043643D01*
X048209Y043849D02*
X048209Y044130D01*
X048234Y042858D02*
X048234Y043139D01*
X048234Y043399D02*
X048234Y043643D01*
X048234Y043849D02*
X048234Y044130D01*
X048260Y042858D02*
X048260Y043139D01*
X048260Y043399D02*
X048260Y043643D01*
X048260Y043849D02*
X048260Y044130D01*
X048285Y042858D02*
X048285Y043139D01*
X048285Y043849D02*
X048285Y044130D01*
X048310Y038413D02*
X048310Y039325D01*
X048310Y039458D02*
X048310Y039685D01*
X048310Y042858D02*
X048310Y043139D01*
X048310Y043849D02*
X048310Y044130D01*
X048336Y038413D02*
X048336Y039325D01*
X048336Y039458D02*
X048336Y039685D01*
X048336Y042858D02*
X048336Y043139D01*
X048361Y038413D02*
X048361Y039325D01*
X048361Y039458D02*
X048361Y039685D01*
X048387Y038413D02*
X048387Y039325D01*
X048387Y039458D02*
X048387Y039685D01*
X048387Y041020D02*
X048387Y041290D01*
X048412Y038413D02*
X048412Y039325D01*
X048412Y039458D02*
X048412Y039685D01*
X048412Y040872D02*
X048412Y041444D01*
X048437Y038413D02*
X048437Y039325D01*
X048437Y039458D02*
X048437Y039685D01*
X048437Y040779D02*
X048437Y041546D01*
X048463Y038413D02*
X048463Y039325D01*
X048463Y039458D02*
X048463Y039685D01*
X048463Y040716D02*
X048463Y041612D01*
X048488Y038413D02*
X048488Y039325D01*
X048488Y039458D02*
X048488Y039685D01*
X048488Y040669D02*
X048488Y041659D01*
X048514Y038413D02*
X048514Y039325D01*
X048514Y039458D02*
X048514Y039685D01*
X048514Y040622D02*
X048514Y041705D01*
X048539Y038413D02*
X048539Y039325D01*
X048539Y039458D02*
X048539Y039685D01*
X048539Y040576D02*
X048539Y041752D01*
X048564Y038413D02*
X048564Y039325D01*
X048564Y039458D02*
X048564Y039685D01*
X048564Y040531D02*
X048564Y041795D01*
X048590Y038413D02*
X048590Y039325D01*
X048590Y039458D02*
X048590Y039685D01*
X048590Y040490D02*
X048590Y041833D01*
X048615Y038413D02*
X048615Y039325D01*
X048615Y039458D02*
X048615Y039685D01*
X048615Y040449D02*
X048615Y041871D01*
X048641Y040408D02*
X048641Y041909D01*
X048666Y040366D02*
X048666Y041947D01*
X048691Y040325D02*
X048691Y040947D01*
X048691Y041327D02*
X048691Y041985D01*
X048717Y040321D02*
X048717Y040790D01*
X048717Y041555D02*
X048717Y041989D01*
X048742Y040321D02*
X048742Y040682D01*
X048742Y041631D02*
X048742Y041989D01*
X048768Y040321D02*
X048768Y040612D01*
X048768Y041707D02*
X048768Y041989D01*
X048793Y040321D02*
X048793Y040542D01*
X048793Y041777D02*
X048793Y041989D01*
X048818Y040321D02*
X048818Y040478D01*
X048818Y041836D02*
X048818Y041989D01*
X048844Y038850D02*
X048844Y038888D01*
X048844Y040321D02*
X048844Y040417D01*
X048844Y041896D02*
X048844Y041989D01*
X048869Y038683D02*
X048869Y039023D01*
X048869Y040321D02*
X048869Y040356D01*
X048869Y041955D02*
X048869Y041989D01*
X048895Y038615D02*
X048895Y039098D01*
X048920Y038582D02*
X048920Y039134D01*
X048945Y038548D02*
X048945Y039169D01*
X048971Y038514D02*
X048971Y039205D01*
X048996Y038491D02*
X048996Y039231D01*
X049022Y038476D02*
X049022Y039249D01*
X049047Y038461D02*
X049047Y039267D01*
X049072Y038446D02*
X049072Y039285D01*
X049072Y041068D02*
X049072Y041242D01*
X049098Y038436D02*
X049098Y039303D01*
X049098Y040922D02*
X049098Y041339D01*
X049123Y038426D02*
X049123Y039310D01*
X049123Y040889D02*
X049123Y041398D01*
X049149Y038416D02*
X049149Y039314D01*
X049149Y040855D02*
X049149Y041434D01*
X049174Y038410D02*
X049174Y039317D01*
X049174Y040821D02*
X049174Y041469D01*
X049199Y038406D02*
X049199Y038745D01*
X049199Y038991D02*
X049199Y039321D01*
X049199Y040787D02*
X049199Y041505D01*
X049225Y038401D02*
X049225Y038681D01*
X049225Y039042D02*
X049225Y039324D01*
X049225Y040771D02*
X049225Y041523D01*
X049225Y042858D02*
X049225Y044130D01*
X049250Y038397D02*
X049250Y038650D01*
X049250Y039075D02*
X049250Y039328D01*
X049250Y040756D02*
X049250Y041542D01*
X049250Y042858D02*
X049250Y044130D01*
X049276Y038395D02*
X049276Y038633D01*
X049276Y039100D02*
X049276Y039331D01*
X049276Y040741D02*
X049276Y041560D01*
X049276Y042858D02*
X049276Y044130D01*
X049301Y038395D02*
X049301Y038621D01*
X049301Y039117D02*
X049301Y039334D01*
X049301Y040728D02*
X049301Y041578D01*
X049301Y042858D02*
X049301Y044130D01*
X049326Y038395D02*
X049326Y038614D01*
X049326Y039124D02*
X049326Y039337D01*
X049326Y040718D02*
X049326Y041594D01*
X049326Y042858D02*
X049326Y044130D01*
X049352Y038395D02*
X049352Y038608D01*
X049352Y039130D02*
X049352Y039340D01*
X049352Y040708D02*
X049352Y041597D01*
X049352Y042858D02*
X049352Y044130D01*
X049377Y038395D02*
X049377Y038604D01*
X049377Y039132D02*
X049377Y039342D01*
X049377Y040698D02*
X049377Y041601D01*
X049377Y042858D02*
X049377Y044130D01*
X049403Y038395D02*
X049403Y038604D01*
X049403Y039123D02*
X049403Y039339D01*
X049403Y040694D02*
X049403Y041096D01*
X049403Y041193D02*
X049403Y041605D01*
X049403Y042858D02*
X049403Y044130D01*
X049428Y038399D02*
X049428Y038604D01*
X049428Y039115D02*
X049428Y039337D01*
X049428Y040690D02*
X049428Y041006D01*
X049428Y041296D02*
X049428Y041608D01*
X049428Y042858D02*
X049428Y044130D01*
X049453Y038402D02*
X049453Y038611D01*
X049453Y039106D02*
X049453Y039335D01*
X049453Y040686D02*
X049453Y040947D01*
X049453Y041345D02*
X049453Y041612D01*
X049453Y042858D02*
X049453Y044130D01*
X049479Y038406D02*
X049479Y038637D01*
X049479Y039098D02*
X049479Y039332D01*
X049479Y040681D02*
X049479Y040930D01*
X049479Y041370D02*
X049479Y041615D01*
X049479Y042858D02*
X049479Y044130D01*
X049504Y038410D02*
X049504Y038662D01*
X049504Y039064D02*
X049504Y039330D01*
X049504Y040681D02*
X049504Y040913D01*
X049504Y041396D02*
X049504Y041618D01*
X049504Y042858D02*
X049504Y044130D01*
X049530Y038413D02*
X049530Y038694D01*
X049530Y039022D02*
X049530Y039328D01*
X049530Y040681D02*
X049530Y040904D01*
X049530Y041406D02*
X049530Y041621D01*
X049530Y042858D02*
X049530Y044130D01*
X049555Y038417D02*
X049555Y038745D01*
X049555Y039011D02*
X049555Y039326D01*
X049555Y040681D02*
X049555Y040898D01*
X049555Y041412D02*
X049555Y041624D01*
X049555Y042858D02*
X049555Y044130D01*
X049580Y038420D02*
X049580Y038745D01*
X049580Y039015D02*
X049580Y039319D01*
X049580Y040681D02*
X049580Y040891D01*
X049580Y041418D02*
X049580Y041628D01*
X049580Y043396D02*
X049580Y043628D01*
X049580Y043901D02*
X049580Y044130D01*
X049606Y038424D02*
X049606Y038742D01*
X049606Y039019D02*
X049606Y039311D01*
X049606Y040681D02*
X049606Y040890D01*
X049606Y041414D02*
X049606Y041627D01*
X049606Y043399D02*
X049606Y043625D01*
X049606Y043903D02*
X049606Y044130D01*
X049631Y038428D02*
X049631Y038740D01*
X049631Y039023D02*
X049631Y039302D01*
X049631Y040682D02*
X049631Y040890D01*
X049631Y041406D02*
X049631Y041625D01*
X049631Y043397D02*
X049631Y043625D01*
X049631Y043903D02*
X049631Y044130D01*
X049657Y038433D02*
X049657Y038737D01*
X049657Y039027D02*
X049657Y039294D01*
X049657Y040686D02*
X049657Y040890D01*
X049657Y041397D02*
X049657Y041622D01*
X049657Y043386D02*
X049657Y043625D01*
X049657Y043903D02*
X049657Y044130D01*
X049682Y038448D02*
X049682Y038735D01*
X049682Y039030D02*
X049682Y039285D01*
X049682Y040690D02*
X049682Y040907D01*
X049682Y041389D02*
X049682Y041620D01*
X049682Y043376D02*
X049682Y043625D01*
X049682Y043903D02*
X049682Y044130D01*
X049707Y038464D02*
X049707Y038732D01*
X049707Y039034D02*
X049707Y039277D01*
X049707Y040693D02*
X049707Y040932D01*
X049707Y041376D02*
X049707Y041618D01*
X049707Y043366D02*
X049707Y043625D01*
X049707Y043903D02*
X049707Y044130D01*
X049733Y038479D02*
X049733Y038730D01*
X049733Y039038D02*
X049733Y039259D01*
X049733Y040697D02*
X049733Y040958D01*
X049733Y041334D02*
X049733Y041615D01*
X049733Y043349D02*
X049733Y043625D01*
X049733Y043903D02*
X049733Y044130D01*
X049758Y038502D02*
X049758Y038727D01*
X049758Y039042D02*
X049758Y039228D01*
X049758Y040701D02*
X049758Y040999D01*
X049758Y041295D02*
X049758Y041613D01*
X049758Y043323D02*
X049758Y043625D01*
X049758Y043903D02*
X049758Y044130D01*
X049784Y038527D02*
X049784Y038725D01*
X049784Y039046D02*
X049784Y039198D01*
X049784Y040704D02*
X049784Y041032D01*
X049784Y041299D02*
X049784Y041611D01*
X049784Y043286D02*
X049784Y043625D01*
X049784Y043900D02*
X049784Y044130D01*
X049809Y038553D02*
X049809Y038722D01*
X049809Y039050D02*
X049809Y039167D01*
X049809Y040708D02*
X049809Y041030D01*
X049809Y041303D02*
X049809Y041602D01*
X049809Y043245D02*
X049809Y043631D01*
X049809Y043895D02*
X049809Y044130D01*
X049834Y038586D02*
X049834Y038719D01*
X049834Y039053D02*
X049834Y039123D01*
X049834Y040711D02*
X049834Y041027D01*
X049834Y041307D02*
X049834Y041594D01*
X049834Y043200D02*
X049834Y043637D01*
X049834Y043890D02*
X049834Y044130D01*
X049860Y038620D02*
X049860Y038717D01*
X049860Y039057D02*
X049860Y039078D01*
X049860Y040715D02*
X049860Y041025D01*
X049860Y041310D02*
X049860Y041585D01*
X049860Y043155D02*
X049860Y043644D01*
X049860Y043885D02*
X049860Y044130D01*
X049885Y038693D02*
X049885Y038714D01*
X049885Y040725D02*
X049885Y041022D01*
X049885Y041314D02*
X049885Y041577D01*
X049885Y043110D02*
X049885Y043656D01*
X049885Y043877D02*
X049885Y044127D01*
X049911Y040740D02*
X049911Y041020D01*
X049911Y041318D02*
X049911Y041568D01*
X049911Y043065D02*
X049911Y043668D01*
X049911Y043868D02*
X049911Y044124D01*
X049936Y040755D02*
X049936Y041017D01*
X049936Y041322D02*
X049936Y041560D01*
X049936Y043020D02*
X049936Y043681D01*
X049936Y043848D02*
X049936Y044121D01*
X049961Y040772D02*
X049961Y041015D01*
X049961Y041326D02*
X049961Y041533D01*
X049961Y042975D02*
X049961Y044118D01*
X049987Y040797D02*
X049987Y041012D01*
X049987Y041329D02*
X049987Y041503D01*
X049987Y042930D02*
X049987Y044115D01*
X050012Y040823D02*
X050012Y041010D01*
X050012Y041333D02*
X050012Y041472D01*
X050012Y042885D02*
X050012Y044113D01*
X050038Y040851D02*
X050038Y041007D01*
X050038Y041337D02*
X050038Y041436D01*
X050038Y042858D02*
X050038Y043425D01*
X050038Y043453D02*
X050038Y044109D01*
X050063Y040885D02*
X050063Y041004D01*
X050063Y041341D02*
X050063Y041392D01*
X050063Y042858D02*
X050063Y043408D01*
X050063Y043459D02*
X050063Y044104D01*
X050088Y040932D02*
X050088Y041002D01*
X050088Y041345D02*
X050088Y041347D01*
X050088Y042858D02*
X050088Y043392D01*
X050088Y043466D02*
X050088Y044100D01*
X050114Y042858D02*
X050114Y043379D01*
X050114Y043473D02*
X050114Y044096D01*
X050139Y042858D02*
X050139Y043357D01*
X050139Y043481D02*
X050139Y044088D01*
X050165Y042858D02*
X050165Y043331D01*
X050165Y043492D02*
X050165Y044078D01*
X050190Y042858D02*
X050190Y043306D01*
X050190Y043511D02*
X050190Y044068D01*
X050215Y042858D02*
X050215Y043264D01*
X050215Y043530D02*
X050215Y044055D01*
X050241Y042858D02*
X050241Y043221D01*
X050241Y043557D02*
X050241Y044030D01*
X050266Y042858D02*
X050266Y043173D01*
X050266Y043591D02*
X050266Y044004D01*
X050292Y040321D02*
X050292Y040365D01*
X050292Y041946D02*
X050292Y041989D01*
X050292Y042858D02*
X050292Y043125D01*
X050292Y043640D02*
X050292Y043961D01*
X050317Y040321D02*
X050317Y040426D01*
X050317Y041887D02*
X050317Y041989D01*
X050317Y042858D02*
X050317Y043076D01*
X050317Y043711D02*
X050317Y043883D01*
X050342Y040321D02*
X050342Y040487D01*
X050342Y041828D02*
X050342Y041989D01*
X050342Y042858D02*
X050342Y043028D01*
X050368Y040321D02*
X050368Y040552D01*
X050368Y041769D02*
X050368Y041989D01*
X050368Y042858D02*
X050368Y042979D01*
X050393Y040321D02*
X050393Y040622D01*
X050393Y041697D02*
X050393Y041989D01*
X050393Y042858D02*
X050393Y042931D01*
X050419Y040321D02*
X050419Y040692D01*
X050419Y041620D02*
X050419Y041989D01*
X050419Y042858D02*
X050419Y042882D01*
X050444Y040321D02*
X050444Y040812D01*
X050444Y041544D02*
X050444Y041989D01*
X050469Y040329D02*
X050469Y040987D01*
X050469Y041287D02*
X050469Y041980D01*
X050495Y040366D02*
X050495Y041942D01*
X050520Y040403D02*
X050520Y041904D01*
X050546Y040439D02*
X050546Y041866D01*
X050546Y043246D02*
X050546Y043360D01*
X050571Y040476D02*
X050571Y041828D01*
X050571Y043135D02*
X050571Y043500D01*
X050596Y040513D02*
X050596Y041789D01*
X050596Y043076D02*
X050596Y043539D01*
X050622Y040550D02*
X050622Y041745D01*
X050622Y043028D02*
X050622Y043573D01*
X050647Y040606D02*
X050647Y041699D01*
X050647Y042990D02*
X050647Y043607D01*
X050673Y040661D02*
X050673Y041652D01*
X050673Y042952D02*
X050673Y043641D01*
X050698Y038413D02*
X050698Y039685D01*
X050698Y040717D02*
X050698Y041606D01*
X050698Y042935D02*
X050698Y043661D01*
X050723Y038413D02*
X050723Y039685D01*
X050723Y040792D02*
X050723Y041531D01*
X050723Y042922D02*
X050723Y043678D01*
X050749Y038413D02*
X050749Y039685D01*
X050749Y040885D02*
X050749Y041430D01*
X050749Y042910D02*
X050749Y043694D01*
X050774Y038413D02*
X050774Y039685D01*
X050774Y041064D02*
X050774Y041246D01*
X050774Y042897D02*
X050774Y043711D01*
X050800Y038413D02*
X050800Y039685D01*
X050800Y042888D02*
X050800Y043728D01*
X050825Y038413D02*
X050825Y039685D01*
X050825Y042881D02*
X050825Y043745D01*
X050850Y038413D02*
X050850Y039685D01*
X050850Y042874D02*
X050850Y043755D01*
X050876Y038413D02*
X050876Y039685D01*
X050876Y042866D02*
X050876Y043225D01*
X050876Y043251D02*
X050876Y043413D01*
X050876Y043434D02*
X050876Y043759D01*
X050901Y038413D02*
X050901Y039685D01*
X050901Y042859D02*
X050901Y043149D01*
X050901Y043255D02*
X050901Y043409D01*
X050901Y043498D02*
X050901Y043763D01*
X050927Y038413D02*
X050927Y039685D01*
X050927Y042856D02*
X050927Y043111D01*
X050927Y043255D02*
X050927Y043409D01*
X050927Y043529D02*
X050927Y043767D01*
X050952Y038413D02*
X050952Y039685D01*
X050952Y042853D02*
X050952Y043092D01*
X050952Y043255D02*
X050952Y043409D01*
X050952Y043542D02*
X050952Y043772D01*
X050977Y038413D02*
X050977Y039685D01*
X050977Y042850D02*
X050977Y043075D01*
X050977Y043255D02*
X050977Y043409D01*
X050977Y043555D02*
X050977Y043776D01*
X051003Y038413D02*
X051003Y039685D01*
X051003Y042847D02*
X051003Y043064D01*
X051003Y043255D02*
X051003Y043409D01*
X051003Y043564D02*
X051003Y043780D01*
X051028Y038413D02*
X051028Y039685D01*
X051028Y042844D02*
X051028Y043058D01*
X051028Y043255D02*
X051028Y043409D01*
X051028Y043570D02*
X051028Y043784D01*
X051054Y038413D02*
X051054Y039685D01*
X051054Y042842D02*
X051054Y043051D01*
X051054Y043255D02*
X051054Y043409D01*
X051054Y043576D02*
X051054Y043787D01*
X051079Y038413D02*
X051079Y038712D01*
X051079Y042842D02*
X051079Y043051D01*
X051079Y043255D02*
X051079Y043409D01*
X051079Y043575D02*
X051079Y043784D01*
X051104Y038413D02*
X051104Y038712D01*
X051104Y042844D02*
X051104Y043055D01*
X051104Y043255D02*
X051104Y043409D01*
X051104Y043568D02*
X051104Y043782D01*
X051130Y038413D02*
X051130Y038712D01*
X051130Y042847D02*
X051130Y043060D01*
X051130Y043255D02*
X051130Y043409D01*
X051130Y043561D02*
X051130Y043779D01*
X051155Y038413D02*
X051155Y038712D01*
X051155Y042849D02*
X051155Y043064D01*
X051155Y043255D02*
X051155Y043409D01*
X051155Y043553D02*
X051155Y043777D01*
X051181Y038413D02*
X051181Y038712D01*
X051181Y042852D02*
X051181Y043070D01*
X051181Y043255D02*
X051181Y043409D01*
X051181Y043546D02*
X051181Y043774D01*
X051206Y038413D02*
X051206Y038712D01*
X051206Y042854D02*
X051206Y043103D01*
X051206Y043255D02*
X051206Y043409D01*
X051206Y043533D02*
X051206Y043772D01*
X051231Y038413D02*
X051231Y038712D01*
X051231Y042857D02*
X051231Y043137D01*
X051231Y043255D02*
X051231Y043409D01*
X051231Y043507D02*
X051231Y043768D01*
X051257Y038413D02*
X051257Y038712D01*
X051257Y042864D02*
X051257Y043136D01*
X051257Y043255D02*
X051257Y043418D01*
X051257Y043427D02*
X051257Y043762D01*
X051282Y038413D02*
X051282Y038712D01*
X051282Y042873D02*
X051282Y043133D01*
X051282Y043255D02*
X051282Y043755D01*
X051308Y038413D02*
X051308Y038712D01*
X051308Y042883D02*
X051308Y043131D01*
X051308Y043255D02*
X051308Y043749D01*
X051333Y038413D02*
X051333Y038712D01*
X051333Y042892D02*
X051333Y043128D01*
X051333Y043255D02*
X051333Y043743D01*
X051358Y038413D02*
X051358Y038712D01*
X051358Y042902D02*
X051358Y043126D01*
X051358Y043255D02*
X051358Y043736D01*
X051384Y038413D02*
X051384Y038712D01*
X051384Y042912D02*
X051384Y043123D01*
X051384Y043255D02*
X051384Y043722D01*
X051409Y038413D02*
X051409Y038712D01*
X051409Y042933D02*
X051409Y043121D01*
X051409Y043255D02*
X051409Y043705D01*
X051435Y038413D02*
X051435Y038712D01*
X051435Y042954D02*
X051435Y043118D01*
X051435Y043255D02*
X051435Y043689D01*
X051460Y038413D02*
X051460Y038712D01*
X051460Y042975D02*
X051460Y043116D01*
X051460Y043255D02*
X051460Y043672D01*
X051485Y038413D02*
X051485Y038712D01*
X051485Y042996D02*
X051485Y043113D01*
X051485Y043255D02*
X051485Y043642D01*
X051511Y038413D02*
X051511Y038712D01*
X051511Y043031D02*
X051511Y043111D01*
X051511Y043255D02*
X051511Y043604D01*
X051536Y038413D02*
X051536Y038712D01*
X051536Y043066D02*
X051536Y043108D01*
X051536Y043255D02*
X051536Y043566D01*
X051562Y038413D02*
X051562Y038712D01*
X051562Y040699D02*
X051562Y040748D01*
X051562Y043102D02*
X051562Y043106D01*
X051562Y043255D02*
X051562Y043483D01*
X051587Y038413D02*
X051587Y038712D01*
X051587Y040699D02*
X051587Y040840D01*
X051587Y041614D02*
X051587Y041685D01*
X051587Y043255D02*
X051587Y043326D01*
X051612Y038413D02*
X051612Y038712D01*
X051612Y040699D02*
X051612Y040897D01*
X051612Y041612D02*
X051612Y041760D01*
X051638Y038413D02*
X051638Y038712D01*
X051638Y040699D02*
X051638Y040954D01*
X051638Y041609D02*
X051638Y041818D01*
X051663Y038413D02*
X051663Y038712D01*
X051663Y040699D02*
X051663Y041001D01*
X051663Y041607D02*
X051663Y041843D01*
X051689Y038413D02*
X051689Y038712D01*
X051689Y040699D02*
X051689Y041035D01*
X051689Y041604D02*
X051689Y041869D01*
X051689Y043743D02*
X051689Y043770D01*
X051714Y040699D02*
X051714Y041064D01*
X051714Y041602D02*
X051714Y041890D01*
X051714Y043681D02*
X051714Y043770D01*
X051739Y040699D02*
X051739Y041084D01*
X051739Y041599D02*
X051739Y041905D01*
X051739Y043618D02*
X051739Y043770D01*
X051765Y040699D02*
X051765Y041104D01*
X051765Y041597D02*
X051765Y041920D01*
X051765Y043555D02*
X051765Y043770D01*
X051790Y040699D02*
X051790Y041124D01*
X051790Y041594D02*
X051790Y041936D01*
X051790Y043492D02*
X051790Y043770D01*
X051816Y040699D02*
X051816Y041149D01*
X051816Y041592D02*
X051816Y041943D01*
X051816Y043429D02*
X051816Y043770D01*
X051841Y039080D02*
X051841Y039325D01*
X051841Y040699D02*
X051841Y041175D01*
X051841Y041589D02*
X051841Y041950D01*
X051841Y043366D02*
X051841Y043770D01*
X051866Y039080D02*
X051866Y039325D01*
X051866Y040699D02*
X051866Y041200D01*
X051866Y041586D02*
X051866Y041957D01*
X051866Y043303D02*
X051866Y043770D01*
X051892Y039080D02*
X051892Y039325D01*
X051892Y040699D02*
X051892Y041223D01*
X051892Y041584D02*
X051892Y041965D01*
X051892Y043240D02*
X051892Y043770D01*
X051917Y039080D02*
X051917Y039325D01*
X051917Y040699D02*
X051917Y041241D01*
X051917Y041663D02*
X051917Y041971D01*
X051917Y043177D02*
X051917Y043770D01*
X051943Y039080D02*
X051943Y039325D01*
X051943Y040699D02*
X051943Y041259D01*
X051943Y041702D02*
X051943Y041974D01*
X051943Y043114D02*
X051943Y043770D01*
X051968Y038575D02*
X051968Y039515D01*
X051968Y040699D02*
X051968Y041277D01*
X051968Y041730D02*
X051968Y041977D01*
X051968Y043052D02*
X051968Y043770D01*
X051993Y038513D02*
X051993Y039528D01*
X051993Y040699D02*
X051993Y041296D01*
X051993Y041747D02*
X051993Y041980D01*
X051993Y042989D02*
X051993Y043770D01*
X052019Y038474D02*
X052019Y039540D01*
X052019Y040699D02*
X052019Y041315D01*
X052019Y041762D02*
X052019Y041983D01*
X052019Y042926D02*
X052019Y043744D01*
X052044Y038452D02*
X052044Y039553D01*
X052044Y040699D02*
X052044Y040969D01*
X052044Y040980D02*
X052044Y041337D01*
X052044Y041771D02*
X052044Y041986D01*
X052044Y042863D02*
X052044Y043668D01*
X052070Y038435D02*
X052070Y039566D01*
X052070Y040699D02*
X052070Y040962D01*
X052070Y041007D02*
X052070Y041359D01*
X052070Y041779D02*
X052070Y041988D01*
X052070Y042858D02*
X052070Y043592D01*
X052095Y038423D02*
X052095Y039578D01*
X052095Y040699D02*
X052095Y040962D01*
X052095Y041032D02*
X052095Y041380D01*
X052095Y041775D02*
X052095Y041986D01*
X052095Y042858D02*
X052095Y043516D01*
X052120Y038412D02*
X052120Y039591D01*
X052120Y040699D02*
X052120Y040962D01*
X052120Y041058D02*
X052120Y041402D01*
X052120Y041769D02*
X052120Y041984D01*
X052120Y042858D02*
X052120Y043439D01*
X052146Y038402D02*
X052146Y039604D01*
X052146Y040699D02*
X052146Y040962D01*
X052146Y041083D02*
X052146Y041425D01*
X052146Y041762D02*
X052146Y041981D01*
X052146Y042858D02*
X052146Y043363D01*
X052171Y038395D02*
X052171Y039616D01*
X052171Y040699D02*
X052171Y040962D01*
X052171Y041108D02*
X052171Y041451D01*
X052171Y041754D02*
X052171Y041978D01*
X052171Y042858D02*
X052171Y043287D01*
X052197Y038395D02*
X052197Y039629D01*
X052197Y040699D02*
X052197Y040962D01*
X052197Y041125D02*
X052197Y041476D01*
X052197Y041746D02*
X052197Y041975D01*
X052197Y042858D02*
X052197Y043211D01*
X052222Y038395D02*
X052222Y039642D01*
X052222Y040699D02*
X052222Y040962D01*
X052222Y041140D02*
X052222Y041534D01*
X052222Y041704D02*
X052222Y041972D01*
X052222Y042858D02*
X052222Y043176D01*
X052247Y038395D02*
X052247Y039655D01*
X052247Y040699D02*
X052247Y040962D01*
X052247Y041155D02*
X052247Y041618D01*
X052247Y041628D02*
X052247Y041969D01*
X052247Y042858D02*
X052247Y043249D01*
X052273Y038395D02*
X052273Y039667D01*
X052273Y040699D02*
X052273Y040962D01*
X052273Y041172D02*
X052273Y041965D01*
X052273Y042858D02*
X052273Y043342D01*
X052298Y038397D02*
X052298Y038660D01*
X052298Y039078D02*
X052298Y039327D01*
X052298Y040699D02*
X052298Y040962D01*
X052298Y041192D02*
X052298Y041962D01*
X052298Y042858D02*
X052298Y043435D01*
X052324Y038399D02*
X052324Y038637D01*
X052324Y039080D02*
X052324Y039325D01*
X052324Y040699D02*
X052324Y040962D01*
X052324Y041211D02*
X052324Y041958D01*
X052324Y042858D02*
X052324Y043528D01*
X052349Y038401D02*
X052349Y038620D01*
X052349Y039080D02*
X052349Y039325D01*
X052349Y040699D02*
X052349Y040962D01*
X052349Y041231D02*
X052349Y041955D01*
X052349Y042858D02*
X052349Y043621D01*
X052374Y038403D02*
X052374Y038604D01*
X052374Y039080D02*
X052374Y039325D01*
X052374Y040699D02*
X052374Y040962D01*
X052374Y041251D02*
X052374Y041942D01*
X052374Y042908D02*
X052374Y043714D01*
X052400Y038405D02*
X052400Y038607D01*
X052400Y039080D02*
X052400Y039325D01*
X052400Y040699D02*
X052400Y040962D01*
X052400Y041271D02*
X052400Y041925D01*
X052400Y042968D02*
X052400Y043770D01*
X052425Y038406D02*
X052425Y038611D01*
X052425Y039080D02*
X052425Y039325D01*
X052425Y040699D02*
X052425Y040962D01*
X052425Y041291D02*
X052425Y041908D01*
X052425Y043028D02*
X052425Y043770D01*
X052451Y038408D02*
X052451Y038614D01*
X052451Y039080D02*
X052451Y039325D01*
X052451Y040699D02*
X052451Y040962D01*
X052451Y041326D02*
X052451Y041891D01*
X052451Y043088D02*
X052451Y043770D01*
X052476Y038410D02*
X052476Y038618D01*
X052476Y039080D02*
X052476Y039325D01*
X052476Y040699D02*
X052476Y040962D01*
X052476Y041362D02*
X052476Y041869D01*
X052476Y043148D02*
X052476Y043770D01*
X052501Y038412D02*
X052501Y038492D01*
X052501Y040699D02*
X052501Y040962D01*
X052501Y041397D02*
X052501Y041844D01*
X052501Y043208D02*
X052501Y043770D01*
X052527Y040699D02*
X052527Y040962D01*
X052527Y041441D02*
X052527Y041819D01*
X052527Y043268D02*
X052527Y043770D01*
X052552Y040699D02*
X052552Y040962D01*
X052552Y041492D02*
X052552Y041762D01*
X052552Y043328D02*
X052552Y043770D01*
X052578Y040699D02*
X052578Y040962D01*
X052578Y041590D02*
X052578Y041656D01*
X052578Y043388D02*
X052578Y043770D01*
X052603Y043448D02*
X052603Y043770D01*
X052628Y043508D02*
X052628Y043770D01*
X052654Y038751D02*
X052654Y038939D01*
X052654Y043568D02*
X052654Y043770D01*
X052679Y038657D02*
X052679Y039084D01*
X052679Y043628D02*
X052679Y043770D01*
X052705Y038612D02*
X052705Y039135D01*
X052705Y043688D02*
X052705Y043770D01*
X052730Y038566D02*
X052730Y039186D01*
X052730Y043748D02*
X052730Y043770D01*
X052755Y038524D02*
X052755Y039226D01*
X052781Y038490D02*
X052781Y039245D01*
X052781Y041185D02*
X052781Y041554D01*
X052806Y038460D02*
X052806Y039263D01*
X052806Y041015D02*
X052806Y041655D01*
X052832Y038443D02*
X052832Y039281D01*
X052832Y040949D02*
X052832Y041732D01*
X052857Y038428D02*
X052857Y039299D01*
X052857Y040907D02*
X052857Y041787D01*
X052882Y038417D02*
X052882Y039310D01*
X052882Y040867D02*
X052882Y041830D01*
X052908Y038407D02*
X052908Y039316D01*
X052908Y040835D02*
X052908Y041857D01*
X052933Y038397D02*
X052933Y039322D01*
X052933Y040803D02*
X052933Y041872D01*
X052959Y038395D02*
X052959Y039327D01*
X052959Y040779D02*
X052959Y041887D01*
X052984Y038395D02*
X052984Y038818D01*
X052984Y038913D02*
X052984Y039333D01*
X052984Y040764D02*
X052984Y041903D01*
X053009Y038395D02*
X053009Y038683D01*
X053009Y039051D02*
X053009Y039339D01*
X053009Y040749D02*
X053009Y041918D01*
X053035Y038395D02*
X053035Y038649D01*
X053035Y039088D02*
X053035Y039341D01*
X053035Y040734D02*
X053035Y041933D01*
X053060Y038395D02*
X053060Y038632D01*
X053060Y039105D02*
X053060Y039338D01*
X053060Y040725D02*
X053060Y041948D01*
X053086Y038395D02*
X053086Y038619D01*
X053086Y039118D02*
X053086Y039335D01*
X053086Y040717D02*
X053086Y041956D01*
X053111Y038395D02*
X053111Y038611D01*
X053111Y039127D02*
X053111Y039332D01*
X053111Y040708D02*
X053111Y041194D01*
X053111Y041476D02*
X053111Y041960D01*
X053136Y038407D02*
X053136Y038604D01*
X053136Y039133D02*
X053136Y039329D01*
X053136Y040700D02*
X053136Y041007D01*
X053136Y041663D02*
X053136Y041965D01*
X053162Y038420D02*
X053162Y038611D01*
X053162Y039127D02*
X053162Y039325D01*
X053162Y040696D02*
X053162Y040962D01*
X053162Y041708D02*
X053162Y041969D01*
X053187Y038432D02*
X053187Y038617D01*
X053187Y039121D02*
X053187Y039309D01*
X053187Y040693D02*
X053187Y040928D01*
X053187Y041742D02*
X053187Y041973D01*
X053213Y038445D02*
X053213Y038624D01*
X053213Y039114D02*
X053213Y039291D01*
X053213Y040690D02*
X053213Y040907D01*
X053213Y041763D02*
X053213Y041976D01*
X053238Y038458D02*
X053238Y038641D01*
X053238Y039097D02*
X053238Y039273D01*
X053238Y040687D02*
X053238Y040900D01*
X053238Y041770D02*
X053238Y041980D01*
X053263Y038481D02*
X053263Y038658D01*
X053263Y039080D02*
X053263Y039255D01*
X053263Y040683D02*
X053263Y040894D01*
X053263Y041776D02*
X053263Y041984D01*
X053289Y038514D02*
X053289Y038709D01*
X053289Y039029D02*
X053289Y039237D01*
X053289Y040682D02*
X053289Y040890D01*
X053289Y041779D02*
X053289Y041987D01*
X053314Y038539D02*
X053314Y039685D01*
X053314Y040686D02*
X053314Y040890D01*
X053314Y041774D02*
X053314Y041986D01*
X053340Y038413D02*
X053340Y039685D01*
X053340Y040689D02*
X053340Y040891D01*
X053340Y041768D02*
X053340Y041983D01*
X053365Y038413D02*
X053365Y039685D01*
X053365Y040692D02*
X053365Y040908D01*
X053365Y041763D02*
X053365Y041979D01*
X053390Y038413D02*
X053390Y039685D01*
X053390Y040695D02*
X053390Y040925D01*
X053390Y041744D02*
X053390Y041976D01*
X053416Y038413D02*
X053416Y039685D01*
X053416Y040698D02*
X053416Y040957D01*
X053416Y041710D02*
X053416Y041972D01*
X053441Y038413D02*
X053441Y039685D01*
X053441Y040702D02*
X053441Y041007D01*
X053441Y041668D02*
X053441Y041967D01*
X053467Y038413D02*
X053467Y039685D01*
X053467Y040706D02*
X053467Y041131D01*
X053467Y041485D02*
X053467Y041962D01*
X053492Y038413D02*
X053492Y039685D01*
X053492Y040711D02*
X053492Y041957D01*
X053517Y038413D02*
X053517Y039685D01*
X053517Y040715D02*
X053517Y041949D01*
X053517Y043532D02*
X053517Y043796D01*
X053543Y038413D02*
X053543Y039685D01*
X053543Y040725D02*
X053543Y041933D01*
X053543Y043541D02*
X053543Y043807D01*
X053568Y038413D02*
X053568Y039685D01*
X053568Y040741D02*
X053568Y041917D01*
X053568Y043549D02*
X053568Y043818D01*
X053594Y038413D02*
X053594Y039685D01*
X053594Y040756D02*
X053594Y041901D01*
X053594Y043558D02*
X053594Y043829D01*
X053619Y038413D02*
X053619Y039685D01*
X053619Y040773D02*
X053619Y041885D01*
X053619Y043566D02*
X053619Y043841D01*
X053644Y040798D02*
X053644Y041869D01*
X053644Y043575D02*
X053644Y043852D01*
X053670Y040824D02*
X053670Y041836D01*
X053670Y043583D02*
X053670Y043864D01*
X053695Y040856D02*
X053695Y041798D01*
X053695Y043592D02*
X053695Y043878D01*
X053721Y040898D02*
X053721Y041759D01*
X053721Y043605D02*
X053721Y043893D01*
X053746Y040957D02*
X053746Y041700D01*
X053746Y043621D02*
X053746Y043908D01*
X053771Y041046D02*
X053771Y041641D01*
X053771Y043638D02*
X053771Y043922D01*
X053797Y041135D02*
X053797Y041541D01*
X053797Y043655D02*
X053797Y043938D01*
X053822Y043672D02*
X053822Y043964D01*
X053848Y043689D02*
X053848Y043989D01*
X053873Y043705D02*
X053873Y044015D01*
X053898Y038413D02*
X053898Y038748D01*
X053898Y042858D02*
X053898Y044050D01*
X053924Y038413D02*
X053924Y038748D01*
X053924Y042858D02*
X053924Y044094D01*
X053949Y038413D02*
X053949Y038748D01*
X053949Y042858D02*
X053949Y044139D01*
X053975Y038413D02*
X053975Y038748D01*
X053975Y042858D02*
X053975Y044148D01*
X054000Y038413D02*
X054000Y038748D01*
X054000Y042858D02*
X054000Y044148D01*
X054025Y038413D02*
X054025Y038748D01*
X054025Y042858D02*
X054025Y044148D01*
X054051Y038413D02*
X054051Y038748D01*
X054051Y041371D02*
X054051Y041633D01*
X054051Y042858D02*
X054051Y044148D01*
X054076Y038413D02*
X054076Y038748D01*
X054076Y041379D02*
X054076Y041645D01*
X054076Y042858D02*
X054076Y044148D01*
X054102Y038413D02*
X054102Y038748D01*
X054102Y041388D02*
X054102Y041656D01*
X054102Y042858D02*
X054102Y044148D01*
X054127Y038413D02*
X054127Y038748D01*
X054127Y041396D02*
X054127Y041667D01*
X054127Y042858D02*
X054127Y044148D01*
X054152Y038413D02*
X054152Y038748D01*
X054152Y041405D02*
X054152Y041679D01*
X054152Y042858D02*
X054152Y044148D01*
X054178Y038413D02*
X054178Y038748D01*
X054178Y041413D02*
X054178Y041690D01*
X054178Y042858D02*
X054178Y044148D01*
X054203Y038413D02*
X054203Y038748D01*
X054203Y041422D02*
X054203Y041701D01*
X054203Y042858D02*
X054203Y044148D01*
X054229Y041430D02*
X054229Y041715D01*
X054254Y041441D02*
X054254Y041730D01*
X054279Y041458D02*
X054279Y041745D01*
X054305Y041475D02*
X054305Y041759D01*
X054330Y041492D02*
X054330Y041774D01*
X054356Y041509D02*
X054356Y041798D01*
X054381Y041526D02*
X054381Y041823D01*
X054406Y041542D02*
X054406Y041848D01*
X054432Y040699D02*
X054432Y041879D01*
X054457Y040699D02*
X054457Y041923D01*
X054483Y040699D02*
X054483Y041967D01*
X054508Y040699D02*
X054508Y041989D01*
X054533Y040699D02*
X054533Y041989D01*
X054559Y040699D02*
X054559Y041989D01*
X054584Y040699D02*
X054584Y041989D01*
X054610Y040699D02*
X054610Y041989D01*
X054635Y040699D02*
X054635Y041989D01*
X054660Y040699D02*
X054660Y041989D01*
X054686Y040699D02*
X054686Y041989D01*
X054686Y042858D02*
X054686Y043193D01*
X054711Y040699D02*
X054711Y041989D01*
X054711Y042858D02*
X054711Y043193D01*
X054737Y040699D02*
X054737Y041989D01*
X054737Y042858D02*
X054737Y043193D01*
X054762Y040699D02*
X054762Y041989D01*
X054762Y042858D02*
X054762Y043193D01*
X054787Y042858D02*
X054787Y043193D01*
X054813Y042858D02*
X054813Y043193D01*
X054838Y042858D02*
X054838Y043193D01*
X054864Y042858D02*
X054864Y043193D01*
X054889Y042858D02*
X054889Y043193D01*
X054914Y042858D02*
X054914Y043193D01*
X054940Y042858D02*
X054940Y043193D01*
X054965Y042858D02*
X054965Y043193D01*
X054991Y042858D02*
X054991Y043193D01*
X055168Y040933D02*
X055168Y041229D01*
X055194Y040933D02*
X055194Y041260D01*
X055219Y040933D02*
X055219Y041291D01*
X055245Y040933D02*
X055245Y041322D01*
X055245Y043406D02*
X055245Y043696D01*
X055270Y040933D02*
X055270Y041353D01*
X055270Y043186D02*
X055270Y043798D01*
X055295Y040933D02*
X055295Y041384D01*
X055295Y043115D02*
X055295Y043878D01*
X055321Y040933D02*
X055321Y041415D01*
X055321Y043073D02*
X055321Y043940D01*
X055346Y040933D02*
X055346Y041446D01*
X055346Y043031D02*
X055346Y043982D01*
X055372Y040933D02*
X055372Y041477D01*
X055372Y042999D02*
X055372Y044013D01*
X055397Y040933D02*
X055397Y041508D01*
X055397Y042967D02*
X055397Y044029D01*
X055422Y040933D02*
X055422Y041539D01*
X055422Y042941D02*
X055422Y044044D01*
X055448Y040933D02*
X055448Y041196D01*
X055448Y041235D02*
X055448Y041570D01*
X055448Y042925D02*
X055448Y044059D01*
X055473Y040933D02*
X055473Y041196D01*
X055473Y041264D02*
X055473Y041601D01*
X055473Y042910D02*
X055473Y044074D01*
X055499Y040933D02*
X055499Y041196D01*
X055499Y041294D02*
X055499Y041632D01*
X055499Y042895D02*
X055499Y044089D01*
X055524Y040933D02*
X055524Y041196D01*
X055524Y041323D02*
X055524Y041663D01*
X055524Y042886D02*
X055524Y044105D01*
X055549Y040933D02*
X055549Y041196D01*
X055549Y041352D02*
X055549Y041694D01*
X055549Y042877D02*
X055549Y044114D01*
X055575Y040933D02*
X055575Y041196D01*
X055575Y041382D02*
X055575Y041725D01*
X055575Y042869D02*
X055575Y043378D01*
X055575Y043610D02*
X055575Y044119D01*
X055600Y040933D02*
X055600Y041196D01*
X055600Y041411D02*
X055600Y041756D01*
X055600Y042860D02*
X055600Y043178D01*
X055600Y043810D02*
X055600Y044123D01*
X055626Y040933D02*
X055626Y041196D01*
X055626Y041441D02*
X055626Y041787D01*
X055626Y042856D02*
X055626Y043126D01*
X055626Y043862D02*
X055626Y044127D01*
X055651Y040933D02*
X055651Y041196D01*
X055651Y041470D02*
X055651Y041818D01*
X055651Y042852D02*
X055651Y043092D01*
X055651Y043896D02*
X055651Y044131D01*
X055676Y040933D02*
X055676Y041196D01*
X055676Y041500D02*
X055676Y041849D01*
X055676Y042849D02*
X055676Y043067D01*
X055676Y043921D02*
X055676Y044135D01*
X055702Y040933D02*
X055702Y041196D01*
X055702Y041529D02*
X055702Y041880D01*
X055702Y042846D02*
X055702Y043060D01*
X055702Y043928D02*
X055702Y044138D01*
X055727Y040933D02*
X055727Y041196D01*
X055727Y041558D02*
X055727Y041911D01*
X055727Y042843D02*
X055727Y043054D01*
X055727Y043934D02*
X055727Y044142D01*
X055753Y040933D02*
X055753Y041196D01*
X055753Y041588D02*
X055753Y041943D01*
X055753Y042841D02*
X055753Y043049D01*
X055753Y043938D02*
X055753Y044146D01*
X055778Y040933D02*
X055778Y041196D01*
X055778Y041616D02*
X055778Y041974D01*
X055778Y042844D02*
X055778Y043049D01*
X055778Y043933D02*
X055778Y044146D01*
X055803Y040699D02*
X055803Y041989D01*
X055803Y042847D02*
X055803Y043049D01*
X055803Y043928D02*
X055803Y044142D01*
X055829Y040699D02*
X055829Y041989D01*
X055829Y042850D02*
X055829Y043064D01*
X055829Y043923D02*
X055829Y044139D01*
X055854Y040699D02*
X055854Y041989D01*
X055854Y042854D02*
X055854Y043081D01*
X055854Y043909D02*
X055854Y044135D01*
X055880Y040699D02*
X055880Y041989D01*
X055880Y042857D02*
X055880Y043109D01*
X055880Y043875D02*
X055880Y044132D01*
X055905Y040699D02*
X055905Y041989D01*
X055905Y042860D02*
X055905Y043149D01*
X055905Y043839D02*
X055905Y044127D01*
X055930Y040699D02*
X055930Y041989D01*
X055930Y042865D02*
X055930Y043266D01*
X055930Y043668D02*
X055930Y044122D01*
X055956Y040699D02*
X055956Y041989D01*
X055956Y042869D02*
X055956Y044117D01*
X055981Y040699D02*
X055981Y041989D01*
X055981Y042873D02*
X055981Y044110D01*
X056007Y040699D02*
X056007Y041989D01*
X056007Y042882D02*
X056007Y044095D01*
X056032Y040699D02*
X056032Y041989D01*
X056032Y042897D02*
X056032Y044079D01*
X056057Y040699D02*
X056057Y041989D01*
X056057Y042912D02*
X056057Y044063D01*
X056083Y040931D02*
X056083Y041199D01*
X056083Y042928D02*
X056083Y044047D01*
X056108Y040933D02*
X056108Y041196D01*
X056108Y042953D02*
X056108Y044031D01*
X056134Y040933D02*
X056134Y041196D01*
X056134Y042978D02*
X056134Y044001D01*
X056159Y040933D02*
X056159Y041196D01*
X056159Y043008D02*
X056159Y043963D01*
X056184Y040933D02*
X056184Y041196D01*
X056184Y043050D02*
X056184Y043925D01*
X056210Y040933D02*
X056210Y041196D01*
X056210Y043101D02*
X056210Y043868D01*
X056235Y040933D02*
X056235Y041196D01*
X056235Y043190D02*
X056235Y043809D01*
X056261Y043279D02*
X056261Y043717D01*
*
G04 PC Custom Flashes*
G04 Layer Name PASIDE_B.pcb - flashes*
%LPD*%
*
*
G04 PC Circuitry*
G04 Layer Name PASIDE_B.pcb - circuitry*
%LPD*%
*
G54D10*
X066437Y043277D02*
X068570Y043277D01*
X068570Y043277D02*
X068570Y041144D01*
X068570Y041144D02*
X066437Y041144D01*
X066437Y043277*
X063389Y042515D02*
X065522Y042515D01*
X065522Y042515D02*
X065522Y040382D01*
X065522Y040382D02*
X063389Y040382D01*
X063389Y042515*
X058817Y046579D02*
X060950Y046579D01*
X060950Y046579D02*
X060950Y044446D01*
X060950Y044446D02*
X058817Y044446D01*
X058817Y046579*
X058817Y049373D02*
X060950Y049373D01*
X060950Y049373D02*
X060950Y047240D01*
X060950Y047240D02*
X058817Y047240D01*
X058817Y049373*
X063897Y047849D02*
X066030Y047849D01*
X066030Y047849D02*
X066030Y045716D01*
X066030Y045716D02*
X063897Y045716D01*
X063897Y047849*
G54D11*
X068443Y042211D02*
G75*
G03X068443Y042211I-000939J0D01*
G01X065395Y041449D02*
G03X065395Y041449I-000939J0D01*
G01X060823Y045513D02*
G03X060823Y045513I-000939J0D01*
G01X060823Y048307D02*
G03X060823Y048307I-000939J0D01*
G01X065903Y046783D02*
G03X065903Y046783I-000939J0D01*
G01X032752Y029161D02*
X032636Y029320D01*
X032636Y029320D02*
X032463Y029399D01*
X032463Y029399D02*
X032232Y029399D01*
X032232Y029399D02*
X032059Y029320D01*
X032059Y029320D02*
X031944Y029161D01*
X031944Y029161D02*
X031944Y029003D01*
X032001Y028844*
X032001Y028844D02*
X032059Y028764D01*
X032059Y028764D02*
X032174Y028685D01*
X032174Y028685D02*
X032521Y028526D01*
X032521Y028526D02*
X032636Y028447D01*
X032636Y028447D02*
X032694Y028368D01*
X032752Y028209*
X032752Y027971*
X032636Y027812*
X032636Y027812D02*
X032463Y027733D01*
X032463Y027733D02*
X032232Y027733D01*
X032232Y027733D02*
X032059Y027812D01*
X031944Y027971*
X033271Y029399D02*
X033329Y029320D01*
X033329Y029320D02*
X033387Y029399D01*
X033387Y029399D02*
X033329Y029479D01*
X033271Y029399*
X033329Y028844D02*
X033329Y027733D01*
X033906Y029399D02*
X033906Y027733D01*
X034426Y029399D02*
X034426Y027733D01*
X035003Y028844D02*
X034426Y028050D01*
X034657Y028368D02*
X035061Y027733D01*
X036215Y028606D02*
X036158Y028764D01*
X036158Y028764D02*
X035984Y028844D01*
X035984Y028844D02*
X035811Y028844D01*
X035811Y028844D02*
X035638Y028764D01*
X035638Y028764D02*
X035580Y028606D01*
X035580Y028606D02*
X035638Y028447D01*
X035638Y028447D02*
X035754Y028368D01*
X036042Y028288*
X036042Y028288D02*
X036158Y028209D01*
X036215Y028050*
X036215Y028050D02*
X036215Y027971D01*
X036215Y027971D02*
X036158Y027812D01*
X035984Y027733*
X035984Y027733D02*
X035811Y027733D01*
X035811Y027733D02*
X035638Y027812D01*
X035638Y027812D02*
X035580Y027971D01*
X037428Y028606D02*
X037312Y028764D01*
X037312Y028764D02*
X037197Y028844D01*
X037024Y028844*
X036908Y028764*
X036908Y028764D02*
X036793Y028606D01*
X036735Y028368*
X036735Y028209*
X036793Y027971*
X036908Y027812*
X036908Y027812D02*
X037024Y027733D01*
X037197Y027733*
X037312Y027812*
X037312Y027812D02*
X037428Y027971D01*
X037947Y028844D02*
X037947Y027733D01*
X037947Y028368D02*
X038005Y028606D01*
X038120Y028764*
X038120Y028764D02*
X038236Y028844D01*
X038409Y028844*
X038929Y028368D02*
X039621Y028368D01*
X039621Y028368D02*
X039621Y028526D01*
X039621Y028526D02*
X039564Y028685D01*
X039564Y028685D02*
X039506Y028764D01*
X039506Y028764D02*
X039390Y028844D01*
X039390Y028844D02*
X039217Y028844D01*
X039217Y028844D02*
X039102Y028764D01*
X039102Y028764D02*
X038986Y028606D01*
X038986Y028606D02*
X038929Y028368D01*
X038929Y028209*
X038986Y027971*
X038986Y027971D02*
X039102Y027812D01*
X039217Y027733*
X039217Y027733D02*
X039390Y027733D01*
X039390Y027733D02*
X039506Y027812D01*
X039621Y027971*
X040141Y028368D02*
X040834Y028368D01*
X040834Y028526*
X040834Y028526D02*
X040776Y028685D01*
X040776Y028685D02*
X040718Y028764D01*
X040718Y028764D02*
X040603Y028844D01*
X040429Y028844*
X040429Y028844D02*
X040314Y028764D01*
X040314Y028764D02*
X040199Y028606D01*
X040141Y028368*
X040141Y028209*
X040199Y027971*
X040314Y027812*
X040429Y027733*
X040429Y027733D02*
X040603Y027733D01*
X040718Y027812*
X040718Y027812D02*
X040834Y027971D01*
X041353Y028844D02*
X041353Y027733D01*
X041353Y028526D02*
X041526Y028764D01*
X041526Y028764D02*
X041642Y028844D01*
X041815Y028844*
X041930Y028764*
X041930Y028764D02*
X041988Y028526D01*
X041988Y028526D02*
X041988Y027733D01*
X044239Y029399D02*
X044239Y027733D01*
X043835Y029399D02*
X044644Y029399D01*
X045452Y028844D02*
X045336Y028764D01*
X045336Y028764D02*
X045221Y028606D01*
X045163Y028368*
X045163Y028368D02*
X045163Y028209D01*
X045163Y028209D02*
X045221Y027971D01*
X045336Y027812*
X045336Y027812D02*
X045452Y027733D01*
X045625Y027733*
X045740Y027812*
X045740Y027812D02*
X045856Y027971D01*
X045914Y028209*
X045914Y028368*
X045856Y028606*
X045740Y028764*
X045740Y028764D02*
X045625Y028844D01*
X045452Y028844*
X046433Y028844D02*
X046433Y027177D01*
X046433Y028606D02*
X046549Y028764D01*
X046549Y028764D02*
X046664Y028844D01*
X046837Y028844*
X046837Y028844D02*
X046953Y028764D01*
X046953Y028764D02*
X047068Y028606D01*
X047068Y028606D02*
X047126Y028368D01*
X047126Y028209*
X047068Y027971*
X047068Y027971D02*
X046953Y027812D01*
X046837Y027733*
X046837Y027733D02*
X046664Y027733D01*
X046549Y027812*
X046433Y027971*
X029912Y031035D02*
X092396Y031035D01*
X092396Y058975*
X029912Y058975*
X029912Y031035*
G54D15*
X029450Y028450D02*
G03X029450Y028450I-001000J0D01*
G01X030450Y028450D02*
G03X030450Y028450I-002000J0D01*
G01X095617Y060454D02*
G03X095617Y060454I-001000J0D01*
G01X096617Y060454D02*
G03X096617Y060454I-002000J0D01*
G54D16*
G01X025450Y028450D02*
X031450Y028450D01*
X028450Y025450D02*
X028450Y031450D01*
X091617Y060454D02*
X097617Y060454D01*
X094617Y057454D02*
X094617Y063454D01*
G54D62*
X068314Y040454D02*
X068314Y038813D01*
X067917Y040454D02*
X068712Y040454D01*
X069223Y040454D02*
X069223Y038813D01*
X069223Y040454D02*
X069735Y040454D01*
X069905Y040376*
X069905Y040376D02*
X069962Y040297D01*
X069962Y040297D02*
X070019Y040141D01*
X070019Y040141D02*
X070019Y039907D01*
X069962Y039751*
X069962Y039751D02*
X069905Y039672D01*
X069905Y039672D02*
X069735Y039594D01*
X069735Y039594D02*
X069223Y039594D01*
X070530Y040141D02*
X070644Y040219D01*
X070644Y040219D02*
X070814Y040454D01*
X070814Y040454D02*
X070814Y038813D01*
X071667Y040454D02*
X071496Y040376D01*
X071496Y040376D02*
X071383Y040141D01*
X071383Y040141D02*
X071326Y039751D01*
X071326Y039516*
X071326Y039516D02*
X071383Y039126D01*
X071496Y038891*
X071496Y038891D02*
X071667Y038813D01*
X071667Y038813D02*
X071780Y038813D01*
X071780Y038813D02*
X071951Y038891D01*
X071951Y038891D02*
X072064Y039126D01*
X072064Y039126D02*
X072121Y039516D01*
X072121Y039516D02*
X072121Y039751D01*
X072121Y039751D02*
X072064Y040141D01*
X072064Y040141D02*
X071951Y040376D01*
X071780Y040454*
X071780Y040454D02*
X071667Y040454D01*
X063547Y039654D02*
X063547Y038014D01*
X063149Y039654D02*
X063944Y039654D01*
X064456Y039654D02*
X064456Y038014D01*
X064456Y039654D02*
X064967Y039654D01*
X064967Y039654D02*
X065137Y039576D01*
X065137Y039576D02*
X065194Y039498D01*
X065194Y039498D02*
X065251Y039342D01*
X065251Y039342D02*
X065251Y039108D01*
X065251Y039108D02*
X065194Y038951D01*
X065194Y038951D02*
X065137Y038873D01*
X065137Y038873D02*
X064967Y038795D01*
X064967Y038795D02*
X064456Y038795D01*
X065762Y039342D02*
X065876Y039420D01*
X065876Y039420D02*
X066047Y039654D01*
X066047Y039654D02*
X066047Y038014D01*
X066558Y039342D02*
X066672Y039420D01*
X066672Y039420D02*
X066842Y039654D01*
X066842Y039654D02*
X066842Y038014D01*
X055221Y046400D02*
X055221Y044760D01*
X054823Y046400D02*
X055619Y046400D01*
X056130Y046400D02*
X056130Y044760D01*
X056130Y046400D02*
X056642Y046400D01*
X056642Y046400D02*
X056812Y046322D01*
X056812Y046322D02*
X056869Y046244D01*
X056926Y046088*
X056926Y045853*
X056926Y045853D02*
X056869Y045697D01*
X056869Y045697D02*
X056812Y045619D01*
X056812Y045619D02*
X056642Y045541D01*
X056130Y045541*
X058119Y046166D02*
X058062Y046322D01*
X058062Y046322D02*
X057892Y046400D01*
X057892Y046400D02*
X057778Y046400D01*
X057778Y046400D02*
X057607Y046322D01*
X057607Y046322D02*
X057494Y046088D01*
X057437Y045697*
X057437Y045697D02*
X057437Y045306D01*
X057437Y045306D02*
X057494Y044994D01*
X057607Y044838*
X057607Y044838D02*
X057778Y044760D01*
X057835Y044760*
X058005Y044838*
X058005Y044838D02*
X058119Y044994D01*
X058176Y045228*
X058176Y045228D02*
X058176Y045306D01*
X058176Y045306D02*
X058119Y045541D01*
X058005Y045697*
X058005Y045697D02*
X057835Y045775D01*
X057835Y045775D02*
X057778Y045775D01*
X057778Y045775D02*
X057607Y045697D01*
X057607Y045697D02*
X057494Y045541D01*
X057437Y045306*
X055476Y049024D02*
X055476Y047383D01*
X055078Y049024D02*
X055874Y049024D01*
X056385Y049024D02*
X056385Y047383D01*
X056385Y049024D02*
X056896Y049024D01*
X056896Y049024D02*
X057067Y048946D01*
X057124Y048868*
X057181Y048711*
X057181Y048711D02*
X057181Y048477D01*
X057124Y048321*
X057067Y048243*
X056896Y048164*
X056896Y048164D02*
X056385Y048164D01*
X058487Y049024D02*
X057919Y047383D01*
X057692Y049024D02*
X058487Y049024D01*
X066398Y045243D02*
X066398Y043602D01*
X066000Y045243D02*
X066796Y045243D01*
X067307Y045243D02*
X067307Y043602D01*
X067307Y045243D02*
X067818Y045243D01*
X067818Y045243D02*
X067989Y045165D01*
X068046Y045087*
X068103Y044931*
X068103Y044696*
X068103Y044696D02*
X068046Y044540D01*
X067989Y044462*
X067818Y044384*
X067818Y044384D02*
X067307Y044384D01*
X068898Y045243D02*
X068728Y045165D01*
X068671Y045009*
X068671Y044852*
X068671Y044852D02*
X068728Y044696D01*
X068728Y044696D02*
X068841Y044618D01*
X068841Y044618D02*
X069068Y044540D01*
X069068Y044540D02*
X069239Y044462D01*
X069353Y044306*
X069409Y044149*
X069409Y044149D02*
X069409Y043915D01*
X069409Y043915D02*
X069353Y043759D01*
X069296Y043681*
X069125Y043602*
X069125Y043602D02*
X068898Y043602D01*
X068898Y043602D02*
X068728Y043681D01*
X068671Y043759*
X068614Y043915*
X068614Y044149*
X068614Y044149D02*
X068671Y044306D01*
X068784Y044462*
X068784Y044462D02*
X068955Y044540D01*
X069182Y044618*
X069182Y044618D02*
X069296Y044696D01*
X069296Y044696D02*
X069353Y044852D01*
X069353Y044852D02*
X069353Y045009D01*
X069296Y045165*
X069125Y045243*
X069125Y045243D02*
X068898Y045243D01*
G74*
X000000Y000000D02*
M02*
